G04*
G04 #@! TF.GenerationSoftware,Altium Limited,Altium Designer,24.0.1 (36)*
G04*
G04 Layer_Physical_Order=2*
G04 Layer_Color=16711680*
%FSLAX44Y44*%
%MOMM*%
G71*
G04*
G04 #@! TF.SameCoordinates,4B7F4912-6191-4439-8966-39C4DA3F543A*
G04*
G04*
G04 #@! TF.FilePolarity,Positive*
G04*
G01*
G75*
%ADD12C,0.3000*%
%ADD13C,0.5000*%
%ADD52C,1.0000*%
%ADD53C,1.5000*%
G04:AMPARAMS|DCode=54|XSize=1.52mm|YSize=1.52mm|CornerRadius=0.38mm|HoleSize=0mm|Usage=FLASHONLY|Rotation=270.000|XOffset=0mm|YOffset=0mm|HoleType=Round|Shape=RoundedRectangle|*
%AMROUNDEDRECTD54*
21,1,1.5200,0.7600,0,0,270.0*
21,1,0.7600,1.5200,0,0,270.0*
1,1,0.7600,-0.3800,-0.3800*
1,1,0.7600,-0.3800,0.3800*
1,1,0.7600,0.3800,0.3800*
1,1,0.7600,0.3800,-0.3800*
%
%ADD54ROUNDEDRECTD54*%
%ADD55C,1.5200*%
%ADD56C,2.9100*%
%ADD57C,1.8000*%
G04:AMPARAMS|DCode=58|XSize=2mm|YSize=2mm|CornerRadius=0.5mm|HoleSize=0mm|Usage=FLASHONLY|Rotation=270.000|XOffset=0mm|YOffset=0mm|HoleType=Round|Shape=RoundedRectangle|*
%AMROUNDEDRECTD58*
21,1,2.0000,1.0000,0,0,270.0*
21,1,1.0000,2.0000,0,0,270.0*
1,1,1.0000,-0.5000,-0.5000*
1,1,1.0000,-0.5000,0.5000*
1,1,1.0000,0.5000,0.5000*
1,1,1.0000,0.5000,-0.5000*
%
%ADD58ROUNDEDRECTD58*%
%ADD59C,2.0000*%
%ADD60C,1.5750*%
G04:AMPARAMS|DCode=61|XSize=1.575mm|YSize=1.575mm|CornerRadius=0.3938mm|HoleSize=0mm|Usage=FLASHONLY|Rotation=0.000|XOffset=0mm|YOffset=0mm|HoleType=Round|Shape=RoundedRectangle|*
%AMROUNDEDRECTD61*
21,1,1.5750,0.7875,0,0,0.0*
21,1,0.7875,1.5750,0,0,0.0*
1,1,0.7875,0.3938,-0.3938*
1,1,0.7875,-0.3938,-0.3938*
1,1,0.7875,-0.3938,0.3938*
1,1,0.7875,0.3938,0.3938*
%
%ADD61ROUNDEDRECTD61*%
%ADD62C,3.0000*%
%ADD63C,0.6000*%
G36*
X1000000Y5000D02*
X5000D01*
Y10000D01*
Y540000D01*
X1000000D01*
Y5000D01*
D02*
G37*
%LPC*%
G36*
X961724Y537500D02*
X958276D01*
X954895Y536828D01*
X951711Y535508D01*
X948844Y533593D01*
X946407Y531156D01*
X944492Y528289D01*
X943173Y525105D01*
X942500Y521724D01*
Y518276D01*
X943173Y514895D01*
X944492Y511711D01*
X946407Y508844D01*
X948844Y506407D01*
X951711Y504492D01*
X954895Y503172D01*
X958276Y502500D01*
X961724D01*
X965105Y503172D01*
X968289Y504492D01*
X971156Y506407D01*
X973593Y508844D01*
X975508Y511711D01*
X976827Y514895D01*
X977500Y518276D01*
Y521724D01*
X976827Y525105D01*
X975508Y528289D01*
X973593Y531156D01*
X971156Y533593D01*
X968289Y535508D01*
X965105Y536828D01*
X961724Y537500D01*
D02*
G37*
G36*
X927600Y491809D02*
X911600D01*
X910430Y491576D01*
X909437Y490913D01*
X908774Y489921D01*
X908541Y488750D01*
Y464250D01*
X908774Y463079D01*
X909437Y462087D01*
X910430Y461424D01*
X911600Y461191D01*
X927600D01*
X928771Y461424D01*
X929763Y462087D01*
X930426Y463079D01*
X930659Y464250D01*
Y466343D01*
X931929Y466469D01*
X932286Y464673D01*
X933534Y461661D01*
X935345Y458950D01*
X937650Y456645D01*
X940361Y454834D01*
X943372Y453586D01*
X946570Y452950D01*
X949830D01*
X953027Y453586D01*
X956039Y454834D01*
X958750Y456645D01*
X961055Y458950D01*
X962866Y461661D01*
X964114Y464673D01*
X964750Y467870D01*
Y471130D01*
X964114Y474327D01*
X962866Y477339D01*
X961055Y480050D01*
X958750Y482355D01*
X956039Y484166D01*
X953027Y485414D01*
X949830Y486050D01*
X946570D01*
X943372Y485414D01*
X940361Y484166D01*
X937650Y482355D01*
X935345Y480050D01*
X933534Y477339D01*
X932286Y474327D01*
X931929Y472532D01*
X930659Y472657D01*
Y488750D01*
X930426Y489921D01*
X929763Y490913D01*
X928771Y491576D01*
X927600Y491809D01*
D02*
G37*
G36*
X876750Y459023D02*
Y449750D01*
X886023D01*
X885343Y452284D01*
X883882Y454815D01*
X881816Y456882D01*
X879284Y458344D01*
X876750Y459023D01*
D02*
G37*
G36*
X873250D02*
X870716Y458344D01*
X868184Y456882D01*
X866118Y454815D01*
X864657Y452284D01*
X863977Y449750D01*
X873250D01*
Y459023D01*
D02*
G37*
G36*
X906264Y457600D02*
X903736D01*
X901294Y456946D01*
X899106Y455682D01*
X897318Y453895D01*
X896054Y451705D01*
X895400Y449264D01*
Y446736D01*
X896054Y444295D01*
X897318Y442105D01*
X899106Y440318D01*
X901294Y439054D01*
X903736Y438400D01*
X906264D01*
X908705Y439054D01*
X910894Y440318D01*
X912682Y442105D01*
X913946Y444295D01*
X914600Y446736D01*
Y449264D01*
X913946Y451705D01*
X912682Y453895D01*
X910894Y455682D01*
X908705Y456946D01*
X906264Y457600D01*
D02*
G37*
G36*
X886023Y446250D02*
X876750D01*
Y436977D01*
X879284Y437657D01*
X881816Y439118D01*
X883882Y441184D01*
X885343Y443716D01*
X886023Y446250D01*
D02*
G37*
G36*
X873250D02*
X863977D01*
X864657Y443716D01*
X866118Y441184D01*
X868184Y439118D01*
X870716Y437657D01*
X873250Y436977D01*
Y446250D01*
D02*
G37*
G36*
X160995Y465000D02*
X159005D01*
X157168Y464239D01*
X155761Y462832D01*
X155000Y460995D01*
Y460723D01*
X133162Y438885D01*
X132168Y438473D01*
X130761Y437066D01*
X130000Y435229D01*
Y433240D01*
X130761Y431402D01*
X132168Y429995D01*
X134005Y429234D01*
X135995D01*
X137832Y429995D01*
X139239Y431402D01*
X139651Y432396D01*
X162539Y455284D01*
X163244Y455756D01*
X164085Y457014D01*
X164239Y457168D01*
X165000Y459005D01*
Y460995D01*
X164239Y462832D01*
X162832Y464239D01*
X160995Y465000D01*
D02*
G37*
G36*
X876750Y429023D02*
Y419750D01*
X886023D01*
X885343Y422284D01*
X883882Y424815D01*
X881816Y426882D01*
X879284Y428344D01*
X876750Y429023D01*
D02*
G37*
G36*
X873250Y429023D02*
X870716Y428344D01*
X868184Y426882D01*
X866118Y424815D01*
X864657Y422284D01*
X863977Y419750D01*
X873250D01*
Y429023D01*
D02*
G37*
G36*
X906264Y427600D02*
X903736D01*
X901294Y426946D01*
X899106Y425682D01*
X897318Y423895D01*
X896054Y421705D01*
X895400Y419264D01*
Y416736D01*
X896054Y414295D01*
X897318Y412105D01*
X899106Y410318D01*
X901294Y409054D01*
X903736Y408400D01*
X906264D01*
X908705Y409054D01*
X910894Y410318D01*
X912682Y412105D01*
X913946Y414295D01*
X914600Y416736D01*
Y419264D01*
X913946Y421705D01*
X912682Y423895D01*
X910894Y425682D01*
X908705Y426946D01*
X906264Y427600D01*
D02*
G37*
G36*
X886023Y416250D02*
X876750D01*
Y406977D01*
X879284Y407656D01*
X881816Y409118D01*
X883882Y411184D01*
X885343Y413716D01*
X886023Y416250D01*
D02*
G37*
G36*
X873250D02*
X863977D01*
X864657Y413716D01*
X866118Y411184D01*
X868184Y409118D01*
X870716Y407656D01*
X873250Y406977D01*
Y416250D01*
D02*
G37*
G36*
X31724Y537500D02*
X28276D01*
X24895Y536828D01*
X21711Y535508D01*
X18844Y533593D01*
X16407Y531156D01*
X14492Y528289D01*
X13173Y525105D01*
X12500Y521724D01*
Y518276D01*
X13173Y514895D01*
X14492Y511711D01*
X16407Y508844D01*
X18844Y506407D01*
X21711Y504492D01*
X24895Y503172D01*
X28276Y502500D01*
X31724D01*
X35105Y503172D01*
X38289Y504492D01*
X40753Y506138D01*
X41668Y505222D01*
X40165Y502973D01*
X40050Y502694D01*
X39883Y502444D01*
X38089Y498113D01*
X38030Y497817D01*
X37915Y497539D01*
X37000Y492941D01*
Y492640D01*
X36941Y492344D01*
Y490000D01*
Y380000D01*
Y379015D01*
X37000Y378720D01*
Y378418D01*
X37384Y376486D01*
X37500Y376208D01*
X37558Y375913D01*
X38312Y374093D01*
X38479Y373842D01*
X38595Y373564D01*
X39689Y371926D01*
X39902Y371713D01*
X40070Y371463D01*
X41462Y370070D01*
X41713Y369902D01*
X41926Y369689D01*
X43564Y368595D01*
X43842Y368479D01*
X44093Y368312D01*
X45912Y367558D01*
X46208Y367500D01*
X46486Y367384D01*
X48418Y367000D01*
X48720D01*
X49015Y366941D01*
X70985Y366941D01*
X71280Y367000D01*
X71582D01*
X73513Y367384D01*
X73792Y367500D01*
X74087Y367558D01*
X75907Y368312D01*
X76158Y368480D01*
X76436Y368595D01*
X78074Y369689D01*
X78287Y369902D01*
X78537Y370070D01*
X79930Y371463D01*
X80098Y371713D01*
X80311Y371926D01*
X81405Y373564D01*
X81520Y373842D01*
X81688Y374093D01*
X82442Y375913D01*
X82500Y376208D01*
X82615Y376486D01*
X83000Y378418D01*
Y378720D01*
X83059Y379015D01*
X83059Y379999D01*
X83059Y380000D01*
X83059Y459925D01*
X83140Y461585D01*
X83802Y464913D01*
X85072Y467979D01*
X86916Y470738D01*
X89262Y473084D01*
X92021Y474928D01*
X95087Y476198D01*
X98415Y476860D01*
X100077Y476941D01*
X389925Y476941D01*
X391585Y476859D01*
X394913Y476197D01*
X397979Y474928D01*
X400738Y473084D01*
X403084Y470738D01*
X404928Y467979D01*
X406198Y464913D01*
X406860Y461585D01*
X406941Y459922D01*
Y384359D01*
X406655Y384215D01*
X405671Y384052D01*
X404194Y386262D01*
X403981Y386475D01*
X403814Y386725D01*
X401725Y388814D01*
X401474Y388982D01*
X401261Y389195D01*
X398804Y390836D01*
X398526Y390952D01*
X398275Y391119D01*
X395545Y392250D01*
X395250Y392308D01*
X394971Y392424D01*
X392073Y393000D01*
X391772Y393000D01*
X391477Y393059D01*
X390001Y393058D01*
X389999Y393059D01*
X340000D01*
X230000Y393059D01*
X229015Y393059D01*
X228720Y393000D01*
X228418D01*
X226486Y392616D01*
X226208Y392500D01*
X225912Y392442D01*
X224093Y391688D01*
X223842Y391520D01*
X223564Y391405D01*
X221926Y390311D01*
X221713Y390098D01*
X221462Y389930D01*
X220070Y388537D01*
X219902Y388287D01*
X219689Y388074D01*
X218595Y386436D01*
X218479Y386158D01*
X218312Y385907D01*
X217558Y384087D01*
X217500Y383792D01*
X217384Y383513D01*
X217052Y381845D01*
Y381607D01*
X216996Y381376D01*
X216944Y380128D01*
X216954Y380064D01*
X216941Y380000D01*
Y370000D01*
X216941Y369015D01*
X217000Y368720D01*
Y368418D01*
X217384Y366486D01*
X217500Y366208D01*
X217558Y365913D01*
X218312Y364093D01*
X218479Y363842D01*
X218595Y363564D01*
X219689Y361926D01*
X219902Y361713D01*
X220070Y361463D01*
X221462Y360070D01*
X221713Y359902D01*
X221926Y359689D01*
X223564Y358595D01*
X223842Y358479D01*
X224093Y358312D01*
X225912Y357558D01*
X226208Y357500D01*
X226486Y357384D01*
X228418Y357000D01*
X228720D01*
X229015Y356941D01*
X230000Y356941D01*
X319925Y356941D01*
X321585Y356860D01*
X324913Y356198D01*
X327979Y354928D01*
X330738Y353084D01*
X333084Y350738D01*
X334928Y347979D01*
X336198Y344913D01*
X336394Y343927D01*
X335526Y343000D01*
X335000Y343069D01*
X332912Y342794D01*
X330965Y341988D01*
X329294Y340706D01*
X200274Y211685D01*
X198991Y210014D01*
X198185Y208068D01*
X197910Y205979D01*
X198185Y203891D01*
X198991Y201945D01*
X200274Y200274D01*
X201945Y198991D01*
X203891Y198185D01*
X205979Y197910D01*
X208068Y198185D01*
X210014Y198991D01*
X211685Y200274D01*
X335768Y324357D01*
X336941Y323871D01*
X336941Y216420D01*
X337031Y215968D01*
X337080Y215509D01*
X337147Y215387D01*
X337174Y215250D01*
X337430Y214866D01*
X337651Y214461D01*
X337759Y214373D01*
X337837Y214257D01*
X338221Y214001D01*
X338579Y213711D01*
X338688Y213654D01*
X338000Y211995D01*
Y210005D01*
X338412Y209011D01*
Y207168D01*
X338303Y206941D01*
X337142Y206126D01*
X335971Y205893D01*
X334979Y205230D01*
X334394Y204646D01*
X333265Y203891D01*
X332011Y203372D01*
X330633Y203098D01*
X330633Y203098D01*
X330633D01*
X330605Y203092D01*
X329925Y203059D01*
X328795Y203059D01*
X240000Y203059D01*
X238030Y203059D01*
X237735Y203000D01*
X237433Y203000D01*
X233569Y202232D01*
X233291Y202116D01*
X232996Y202058D01*
X229356Y200550D01*
X229105Y200383D01*
X228827Y200267D01*
X225551Y198079D01*
X225338Y197866D01*
X225087Y197698D01*
X222302Y194912D01*
X222134Y194662D01*
X221921Y194449D01*
X219732Y191173D01*
X219617Y190895D01*
X219450Y190644D01*
X217942Y187004D01*
X217883Y186709D01*
X217768Y186430D01*
X217000Y182566D01*
X217000Y182265D01*
X216941Y181970D01*
X216941Y180000D01*
X216941Y180000D01*
X216941Y178804D01*
Y30000D01*
Y28030D01*
X217000Y27735D01*
Y27433D01*
X217769Y23570D01*
X217884Y23291D01*
X217943Y22996D01*
X219450Y19356D01*
X219618Y19105D01*
X219733Y18827D01*
X221922Y15551D01*
X222135Y15338D01*
X222302Y15088D01*
X225088Y12302D01*
X225338Y12135D01*
X225551Y11922D01*
X228827Y9733D01*
X229105Y9618D01*
X229356Y9450D01*
X232996Y7943D01*
X233291Y7884D01*
X233570Y7769D01*
X237433Y7000D01*
X237735D01*
X238030Y6941D01*
X531477D01*
X531773Y7000D01*
X532074D01*
X534972Y7576D01*
X535250Y7692D01*
X535546Y7750D01*
X538276Y8881D01*
X538526Y9049D01*
X538805Y9164D01*
X541261Y10805D01*
X541474Y11019D01*
X541725Y11186D01*
X543814Y13275D01*
X543981Y13526D01*
X544194Y13739D01*
X545836Y16195D01*
X545951Y16474D01*
X546119Y16724D01*
X547249Y19454D01*
X547308Y19750D01*
X547423Y20028D01*
X548000Y22926D01*
Y23227D01*
X548059Y23523D01*
X548059Y24999D01*
X548059Y25000D01*
Y96811D01*
X548059Y99780D01*
Y167895D01*
Y170510D01*
X548019Y170710D01*
X548032Y170913D01*
X548023Y170979D01*
X549136Y172249D01*
X561837D01*
X563593Y172598D01*
X565081Y173592D01*
X661838Y270349D01*
X662832Y270761D01*
X664239Y272168D01*
X665000Y274005D01*
Y275995D01*
X664239Y277832D01*
X662832Y279239D01*
X660995Y280000D01*
X659005D01*
X657168Y279239D01*
X655761Y277832D01*
X655349Y276838D01*
X559936Y181425D01*
X549136D01*
X548023Y182695D01*
X548032Y182761D01*
X548019Y182964D01*
X548059Y183164D01*
Y202269D01*
X548059Y321449D01*
X548059Y322291D01*
X548000Y322587D01*
Y322888D01*
X547671Y324540D01*
X547556Y324818D01*
X547497Y325114D01*
X546853Y326670D01*
X546685Y326921D01*
X546570Y327199D01*
X545634Y328599D01*
X545421Y328812D01*
X545254Y329063D01*
X544063Y330254D01*
X543812Y330421D01*
X543599Y330634D01*
X542199Y331570D01*
X541920Y331685D01*
X541670Y331853D01*
X540113Y332497D01*
X539818Y332556D01*
X539540Y332671D01*
X538217Y332934D01*
X538001Y332934D01*
X537792Y332988D01*
X536626Y333054D01*
X536540Y333041D01*
X536455Y333058D01*
X536450D01*
X536449Y333059D01*
X529188D01*
X528893Y333000D01*
X528592D01*
X527000Y332683D01*
X526721Y332568D01*
X526426Y332509D01*
X524926Y331888D01*
X524676Y331721D01*
X524397Y331605D01*
X523048Y330704D01*
X522835Y330491D01*
X522584Y330323D01*
X521437Y329175D01*
X521269Y328925D01*
X521056Y328712D01*
X520154Y327362D01*
X520039Y327084D01*
X519872Y326833D01*
X519250Y325334D01*
X519192Y325038D01*
X519076Y324760D01*
X518760Y323168D01*
Y322867D01*
X518701Y322571D01*
Y321760D01*
X518701Y51835D01*
X518659Y50982D01*
X518312Y49238D01*
X517661Y47665D01*
X516715Y46249D01*
X515511Y45045D01*
X514095Y44099D01*
X512522Y43447D01*
X510778Y43101D01*
X509925Y43059D01*
X508792Y43059D01*
X260075Y43059D01*
X258905Y43116D01*
X256538Y43587D01*
X254378Y44482D01*
X252434Y45780D01*
X250781Y47434D01*
X249482Y49378D01*
X248587Y51538D01*
X248116Y53905D01*
X248059Y55075D01*
Y90145D01*
X247962Y90634D01*
X247896Y91128D01*
X247846Y91216D01*
X247826Y91315D01*
X247549Y91730D01*
X247300Y92162D01*
X247219Y92224D01*
X247163Y92308D01*
X246748Y92585D01*
X246353Y92888D01*
X245986Y93069D01*
X245439Y94557D01*
X245468Y94697D01*
X246202Y95968D01*
X246875Y98480D01*
Y101080D01*
X246202Y103592D01*
X245468Y104863D01*
X245439Y105003D01*
X245986Y106491D01*
X246353Y106672D01*
X246748Y106975D01*
X247163Y107252D01*
X247219Y107337D01*
X247300Y107398D01*
X247549Y107830D01*
X247826Y108244D01*
X247846Y108344D01*
X247896Y108432D01*
X247962Y108926D01*
X248059Y109415D01*
Y144925D01*
X248116Y146095D01*
X248587Y148462D01*
X249482Y150622D01*
X250781Y152566D01*
X252434Y154219D01*
X254378Y155518D01*
X256538Y156413D01*
X258905Y156883D01*
X260081Y156941D01*
X391477D01*
X391773Y157000D01*
X392074D01*
X394972Y157576D01*
X395250Y157692D01*
X395546Y157751D01*
X398276Y158881D01*
X398526Y159049D01*
X398805Y159164D01*
X401261Y160805D01*
X401474Y161019D01*
X401725Y161186D01*
X403814Y163275D01*
X403982Y163526D01*
X404194Y163739D01*
X405671Y165949D01*
X406655Y165785D01*
X406941Y165641D01*
Y140075D01*
X406860Y138415D01*
X406198Y135086D01*
X404928Y132020D01*
X403085Y129261D01*
X400738Y126915D01*
X397979Y125072D01*
X394914Y123802D01*
X391585Y123140D01*
X389924Y123059D01*
X388782Y123059D01*
X290000Y123059D01*
X289016Y123059D01*
X288720Y123000D01*
X288419Y123000D01*
X286486Y122616D01*
X286208Y122501D01*
X285912Y122442D01*
X284093Y121688D01*
X283842Y121521D01*
X283563Y121406D01*
X281926Y120311D01*
X281712Y120098D01*
X281462Y119931D01*
X280069Y118538D01*
X279902Y118287D01*
X279688Y118074D01*
X278594Y116436D01*
X278479Y116158D01*
X278312Y115907D01*
X277558Y114087D01*
X277499Y113791D01*
X277384Y113513D01*
X277052Y111845D01*
X277052Y111607D01*
X276996Y111376D01*
X276944Y110127D01*
X276954Y110063D01*
X276941Y110000D01*
Y109568D01*
X277038Y109080D01*
X277104Y108585D01*
X277154Y108497D01*
X277174Y108398D01*
X277451Y107983D01*
X277700Y107552D01*
X277781Y107490D01*
X277837Y107406D01*
X278252Y107128D01*
X278647Y106825D01*
X278969Y106666D01*
X279021Y106620D01*
X279465Y105137D01*
X279440Y105050D01*
X278598Y103592D01*
X277925Y101080D01*
Y98480D01*
X278598Y95968D01*
X279436Y94517D01*
X279463Y94422D01*
X279153Y93023D01*
X278981Y92863D01*
X278852Y92764D01*
X278529Y92586D01*
X278031Y92167D01*
X277948Y92063D01*
X277837Y91989D01*
X277577Y91600D01*
X277285Y91235D01*
X277248Y91108D01*
X277174Y90997D01*
X277083Y90538D01*
X276952Y90089D01*
X276967Y89957D01*
X276941Y89826D01*
Y89015D01*
X277000Y88720D01*
Y88418D01*
X277384Y86486D01*
X277500Y86208D01*
X277558Y85913D01*
X278312Y84093D01*
X278479Y83842D01*
X278595Y83564D01*
X279689Y81926D01*
X279902Y81713D01*
X280070Y81462D01*
X281462Y80070D01*
X281713Y79902D01*
X281926Y79689D01*
X283564Y78595D01*
X283842Y78479D01*
X284093Y78312D01*
X285912Y77558D01*
X286208Y77500D01*
X286486Y77384D01*
X288418Y77000D01*
X288720D01*
X289015Y76941D01*
X471970D01*
X472265Y77000D01*
X472566D01*
X476430Y77769D01*
X476709Y77884D01*
X477004Y77943D01*
X480644Y79450D01*
X480894Y79618D01*
X481173Y79733D01*
X484448Y81922D01*
X484661Y82135D01*
X484912Y82302D01*
X487698Y85088D01*
X487865Y85338D01*
X488078Y85551D01*
X490267Y88827D01*
X490382Y89105D01*
X490549Y89356D01*
X492057Y92995D01*
X492116Y93291D01*
X492231Y93569D01*
X493000Y97433D01*
Y97734D01*
X493058Y98030D01*
X493058Y99998D01*
X493059Y100000D01*
Y116375D01*
X493059Y204759D01*
X494889Y205517D01*
X496295Y206923D01*
X497057Y208761D01*
Y210750D01*
X496645Y211744D01*
Y222943D01*
X496296Y224699D01*
X495301Y226188D01*
X492084Y229405D01*
X492163Y230985D01*
X492411Y231357D01*
X492826Y231977D01*
X493059Y233148D01*
Y247253D01*
Y250858D01*
Y370000D01*
X493059Y461960D01*
Y475460D01*
Y490000D01*
X493059Y492344D01*
X493000Y492640D01*
Y492941D01*
X492085Y497539D01*
X491970Y497817D01*
X491911Y498112D01*
X490117Y502444D01*
X489950Y502694D01*
X489835Y502973D01*
X487230Y506871D01*
X487017Y507084D01*
X486850Y507334D01*
X483535Y510649D01*
X483284Y510816D01*
X483071Y511030D01*
X479173Y513634D01*
X478895Y513749D01*
X478644Y513917D01*
X474313Y515711D01*
X474018Y515770D01*
X473739Y515885D01*
X469141Y516800D01*
X468840D01*
X468545Y516858D01*
X466201D01*
X466200Y516858D01*
X61455D01*
X61160Y516800D01*
X60859D01*
X56261Y515885D01*
X55982Y515770D01*
X55687Y515711D01*
X51356Y513917D01*
X51105Y513749D01*
X50827Y513634D01*
X46929Y511030D01*
X46716Y510816D01*
X46465Y510649D01*
X46047Y510231D01*
X45060Y511040D01*
X45508Y511711D01*
X46828Y514895D01*
X47500Y518276D01*
Y521724D01*
X46828Y525105D01*
X45508Y528289D01*
X43593Y531156D01*
X41156Y533593D01*
X38289Y535508D01*
X35105Y536828D01*
X31724Y537500D01*
D02*
G37*
G36*
X876264Y397600D02*
X873736D01*
X871294Y396946D01*
X869106Y395682D01*
X867318Y393895D01*
X866054Y391705D01*
X865400Y389264D01*
Y386736D01*
X866054Y384295D01*
X867318Y382105D01*
X869106Y380318D01*
X871294Y379054D01*
X873736Y378400D01*
X876264D01*
X878706Y379054D01*
X880894Y380318D01*
X882682Y382105D01*
X883946Y384295D01*
X884600Y386736D01*
Y389264D01*
X883946Y391705D01*
X882682Y393895D01*
X880894Y395682D01*
X878706Y396946D01*
X876264Y397600D01*
D02*
G37*
G36*
X908800Y397714D02*
X901200D01*
X898937Y397263D01*
X897018Y395982D01*
X895736Y394063D01*
X895286Y391800D01*
Y384200D01*
X895736Y381937D01*
X897018Y380018D01*
X898937Y378736D01*
X901200Y378286D01*
X908800D01*
X911063Y378736D01*
X912982Y380018D01*
X914264Y381937D01*
X914714Y384200D01*
Y391800D01*
X914264Y394063D01*
X912982Y395982D01*
X911063Y397263D01*
X908800Y397714D01*
D02*
G37*
G36*
X949830Y383050D02*
X946570D01*
X943372Y382414D01*
X940361Y381166D01*
X937650Y379355D01*
X935345Y377050D01*
X933534Y374339D01*
X932286Y371327D01*
X931929Y369532D01*
X930659Y369657D01*
Y371750D01*
X930426Y372920D01*
X929763Y373913D01*
X928771Y374576D01*
X927600Y374809D01*
X911600D01*
X910430Y374576D01*
X909437Y373913D01*
X908774Y372920D01*
X908541Y371750D01*
Y347250D01*
X908774Y346079D01*
X909437Y345087D01*
X910430Y344424D01*
X911600Y344191D01*
X927600D01*
X928771Y344424D01*
X929763Y345087D01*
X930426Y346079D01*
X930659Y347250D01*
Y363343D01*
X931929Y363469D01*
X932286Y361673D01*
X933534Y358661D01*
X935345Y355950D01*
X937650Y353645D01*
X940361Y351834D01*
X943372Y350586D01*
X946570Y349950D01*
X949830D01*
X953027Y350586D01*
X956039Y351834D01*
X958750Y353645D01*
X961055Y355950D01*
X962866Y358661D01*
X964114Y361673D01*
X964750Y364870D01*
Y368130D01*
X964114Y371327D01*
X962866Y374339D01*
X961055Y377050D01*
X958750Y379355D01*
X956039Y381166D01*
X953027Y382414D01*
X949830Y383050D01*
D02*
G37*
G36*
X196995Y329000D02*
X195005D01*
X193168Y328239D01*
X191761Y326832D01*
X191324Y325777D01*
X181101Y315555D01*
X180168Y315168D01*
X178761Y313761D01*
X178000Y311924D01*
Y309934D01*
X178761Y308097D01*
X180168Y306690D01*
X182005Y305929D01*
X183995D01*
X185832Y306690D01*
X187239Y308097D01*
X187676Y309152D01*
X197899Y319375D01*
X198832Y319761D01*
X200239Y321168D01*
X201000Y323005D01*
Y324995D01*
X200239Y326832D01*
X198832Y328239D01*
X196995Y329000D01*
D02*
G37*
G36*
X27000Y379608D02*
X24854Y379181D01*
X23035Y377965D01*
X21819Y376146D01*
X21392Y374000D01*
X21819Y371854D01*
X23035Y370035D01*
X31392Y361677D01*
Y278086D01*
X30122Y277460D01*
X29530Y277915D01*
X27827Y278620D01*
X26000Y278860D01*
X16000D01*
X14173Y278620D01*
X12470Y277915D01*
X11007Y276793D01*
X9886Y275330D01*
X9180Y273627D01*
X8940Y271800D01*
Y261800D01*
X9180Y259973D01*
X9886Y258270D01*
X11007Y256807D01*
X12470Y255686D01*
X14173Y254980D01*
X16000Y254740D01*
X26000D01*
X27827Y254980D01*
X29530Y255686D01*
X30122Y256140D01*
X31392Y255513D01*
Y249774D01*
X30122Y249248D01*
X28368Y251002D01*
X25632Y252582D01*
X22580Y253400D01*
X19420D01*
X16368Y252582D01*
X13632Y251002D01*
X11398Y248768D01*
X9818Y246032D01*
X9000Y242980D01*
Y239820D01*
X9818Y236768D01*
X11398Y234032D01*
X13632Y231798D01*
X16368Y230218D01*
X19420Y229400D01*
X22580D01*
X25632Y230218D01*
X28368Y231798D01*
X30122Y233552D01*
X31392Y233026D01*
Y224374D01*
X30122Y223848D01*
X28368Y225602D01*
X25632Y227182D01*
X22580Y228000D01*
X19420D01*
X16368Y227182D01*
X13632Y225602D01*
X11398Y223368D01*
X9818Y220632D01*
X9000Y217580D01*
Y214420D01*
X9818Y211368D01*
X11398Y208632D01*
X13632Y206398D01*
X16368Y204818D01*
X19420Y204000D01*
X22580D01*
X24264Y204451D01*
X25661Y203511D01*
X25696Y203227D01*
X24543Y202074D01*
X22580Y202600D01*
X19420D01*
X16368Y201782D01*
X13632Y200202D01*
X11398Y197968D01*
X9818Y195232D01*
X9000Y192180D01*
Y189020D01*
X9818Y185968D01*
X11398Y183232D01*
X13632Y180998D01*
X16368Y179418D01*
X19420Y178600D01*
X22580D01*
X25632Y179418D01*
X28368Y180998D01*
X30602Y183232D01*
X32182Y185968D01*
X33000Y189020D01*
Y192180D01*
X32474Y194143D01*
X39658Y201328D01*
X40922Y201203D01*
X41035Y201035D01*
X42854Y199819D01*
X45000Y199392D01*
X47146Y199819D01*
X48965Y201035D01*
X88478Y240547D01*
X89464Y239737D01*
X89174Y239303D01*
X88941Y238133D01*
X88941Y85000D01*
Y83917D01*
X89000Y83621D01*
Y83320D01*
X89423Y81195D01*
X89538Y80916D01*
X89597Y80621D01*
X90426Y78619D01*
X90593Y78369D01*
X90709Y78090D01*
X91912Y76289D01*
X92126Y76076D01*
X92293Y75825D01*
X93825Y74293D01*
X94076Y74125D01*
X94289Y73913D01*
X96090Y72709D01*
X96369Y72593D01*
X96619Y72426D01*
X98621Y71597D01*
X98916Y71538D01*
X99195Y71423D01*
X101320Y71000D01*
X101621D01*
X101917Y70941D01*
X103000D01*
X103000Y70941D01*
X154000D01*
X154886Y70941D01*
X155182Y71000D01*
X155483D01*
X157222Y71346D01*
X157500Y71461D01*
X157796Y71520D01*
X159434Y72198D01*
X159684Y72366D01*
X159962Y72481D01*
X161436Y73466D01*
X161649Y73679D01*
X161900Y73846D01*
X163153Y75100D01*
X163321Y75350D01*
X163534Y75563D01*
X164519Y77038D01*
X164634Y77316D01*
X164802Y77566D01*
X165480Y79204D01*
X165539Y79500D01*
X165654Y79778D01*
X166000Y81517D01*
Y81818D01*
X166059Y82114D01*
Y83000D01*
X166059Y83000D01*
Y89789D01*
X166008Y90042D01*
X167054Y90250D01*
X169018Y91562D01*
X170331Y93526D01*
X170791Y95843D01*
Y103717D01*
X170331Y106034D01*
X169018Y107998D01*
X167054Y109311D01*
X166008Y109518D01*
X166059Y109771D01*
X166059Y237000D01*
Y313000D01*
Y313689D01*
X166000Y313985D01*
Y314286D01*
X165731Y315639D01*
X165616Y315917D01*
X165557Y316212D01*
X165029Y317486D01*
X164862Y317737D01*
X164747Y318015D01*
X163981Y319162D01*
X163768Y319375D01*
X163600Y319625D01*
X162625Y320600D01*
X162375Y320768D01*
X162162Y320980D01*
X161015Y321747D01*
X160737Y321862D01*
X160486Y322029D01*
X159212Y322557D01*
X158917Y322616D01*
X158639Y322731D01*
X157286Y323000D01*
X156985D01*
X156690Y323059D01*
X126608D01*
Y331000D01*
X126181Y333146D01*
X124965Y334965D01*
X123146Y336181D01*
X121000Y336608D01*
X118854Y336181D01*
X117035Y334965D01*
X115819Y333146D01*
X115392Y331000D01*
Y283323D01*
X43781Y211712D01*
X42608Y212198D01*
Y364000D01*
X42181Y366146D01*
X40965Y367965D01*
X30965Y377965D01*
X29146Y379181D01*
X27000Y379608D01*
D02*
G37*
G36*
X924822Y228064D02*
X924770D01*
Y219294D01*
X933540D01*
Y219345D01*
X932856Y221899D01*
X931534Y224188D01*
X929665Y226058D01*
X927375Y227379D01*
X924822Y228064D01*
D02*
G37*
G36*
X922230D02*
X922178D01*
X919625Y227379D01*
X917335Y226058D01*
X915466Y224188D01*
X914144Y221899D01*
X913460Y219345D01*
Y219294D01*
X922230D01*
Y228064D01*
D02*
G37*
G36*
X206995Y242000D02*
X205005D01*
X203168Y241239D01*
X201761Y239832D01*
X201000Y237995D01*
Y237989D01*
X188309Y225297D01*
X188168Y225239D01*
X186761Y223832D01*
X186000Y221995D01*
Y220005D01*
X186761Y218168D01*
X188168Y216761D01*
X190005Y216000D01*
X191995D01*
X193832Y216761D01*
X195239Y218168D01*
X196000Y220005D01*
Y220011D01*
X208692Y232703D01*
X208832Y232761D01*
X210239Y234168D01*
X211000Y236005D01*
Y237995D01*
X210239Y239832D01*
X208832Y241239D01*
X206995Y242000D01*
D02*
G37*
G36*
X857751Y227524D02*
X855249D01*
X852833Y226876D01*
X850667Y225626D01*
X848898Y223857D01*
X847647Y221691D01*
X847000Y219274D01*
Y216773D01*
X847647Y214357D01*
X848898Y212191D01*
X850667Y210422D01*
X852833Y209171D01*
X855249Y208524D01*
X857751D01*
X860167Y209171D01*
X862333Y210422D01*
X864102Y212191D01*
X865353Y214357D01*
X866000Y216773D01*
Y219274D01*
X865353Y221691D01*
X864102Y223857D01*
X862333Y225626D01*
X860167Y226876D01*
X857751Y227524D01*
D02*
G37*
G36*
X933540Y216754D02*
X924770D01*
Y207984D01*
X924822D01*
X927375Y208668D01*
X929665Y209990D01*
X931534Y211859D01*
X932856Y214148D01*
X933540Y216702D01*
Y216754D01*
D02*
G37*
G36*
X922230D02*
X913460D01*
Y216702D01*
X914144Y214148D01*
X915466Y211859D01*
X917335Y209990D01*
X919625Y208668D01*
X922178Y207984D01*
X922230D01*
Y216754D01*
D02*
G37*
G36*
X958251Y169500D02*
X955749D01*
X953333Y168853D01*
X951167Y167602D01*
X949398Y165833D01*
X948147Y163667D01*
X947500Y161251D01*
Y158749D01*
X948147Y156333D01*
X949398Y154167D01*
X951167Y152398D01*
X953333Y151147D01*
X955749Y150500D01*
X958251D01*
X960667Y151147D01*
X962833Y152398D01*
X964602Y154167D01*
X965853Y156333D01*
X966500Y158749D01*
Y161251D01*
X965853Y163667D01*
X964602Y165833D01*
X962833Y167602D01*
X960667Y168853D01*
X958251Y169500D01*
D02*
G37*
G36*
X824251D02*
X821749D01*
X819333Y168853D01*
X817167Y167602D01*
X815398Y165833D01*
X814147Y163667D01*
X813500Y161251D01*
Y158749D01*
X814147Y156333D01*
X815398Y154167D01*
X817167Y152398D01*
X819333Y151147D01*
X821749Y150500D01*
X824251D01*
X826667Y151147D01*
X828833Y152398D01*
X830602Y154167D01*
X831853Y156333D01*
X832500Y158749D01*
Y161251D01*
X831853Y163667D01*
X830602Y165833D01*
X828833Y167602D01*
X826667Y168853D01*
X824251Y169500D01*
D02*
G37*
G36*
X732983Y150412D02*
X730994D01*
X730000Y150000D01*
X630412D01*
X630412Y150000D01*
X629005D01*
X627168Y149239D01*
X625761Y147832D01*
X625000Y145995D01*
Y144005D01*
X625761Y142168D01*
X627168Y140761D01*
X629005Y140000D01*
X630995D01*
X632832Y140761D01*
X632895Y140824D01*
X730000D01*
X730994Y140412D01*
X732983D01*
X734821Y141173D01*
X736228Y142580D01*
X736989Y144417D01*
Y146406D01*
X736228Y148244D01*
X734821Y149651D01*
X732983Y150412D01*
D02*
G37*
G36*
X501683Y156688D02*
X499693D01*
X497856Y155927D01*
X496449Y154520D01*
X495688Y152683D01*
Y150694D01*
X496256Y149323D01*
Y116612D01*
X496000Y115995D01*
Y114005D01*
X496761Y112168D01*
X498168Y110761D01*
X500005Y110000D01*
X501995D01*
X503832Y110761D01*
X505239Y112168D01*
X506000Y114005D01*
Y115995D01*
X505432Y117365D01*
Y150076D01*
X505688Y150694D01*
Y152683D01*
X504927Y154520D01*
X503520Y155927D01*
X501683Y156688D01*
D02*
G37*
G36*
X857822Y112016D02*
X857770D01*
Y103246D01*
X866540D01*
Y103298D01*
X865856Y105852D01*
X864534Y108141D01*
X862665Y110010D01*
X860375Y111332D01*
X857822Y112016D01*
D02*
G37*
G36*
X855230D02*
X855178D01*
X852625Y111332D01*
X850335Y110010D01*
X848466Y108141D01*
X847144Y105852D01*
X846460Y103298D01*
Y103246D01*
X855230D01*
Y112016D01*
D02*
G37*
G36*
X264150Y111087D02*
Y101530D01*
X273707D01*
X273000Y104171D01*
X271502Y106764D01*
X269384Y108882D01*
X266791Y110380D01*
X264150Y111087D01*
D02*
G37*
G36*
X260650D02*
X258009Y110380D01*
X255416Y108882D01*
X253298Y106764D01*
X251800Y104171D01*
X251093Y101530D01*
X260650D01*
Y111087D01*
D02*
G37*
G36*
X187950D02*
Y101530D01*
X197507D01*
X196800Y104171D01*
X195302Y106764D01*
X193184Y108882D01*
X190591Y110380D01*
X187950Y111087D01*
D02*
G37*
G36*
X184450D02*
X181809Y110380D01*
X179216Y108882D01*
X177098Y106764D01*
X175600Y104171D01*
X174893Y101530D01*
X184450D01*
Y111087D01*
D02*
G37*
G36*
X924751Y111476D02*
X922249D01*
X919833Y110829D01*
X917667Y109578D01*
X915898Y107809D01*
X914647Y105643D01*
X914000Y103227D01*
Y100726D01*
X914647Y98309D01*
X915898Y96143D01*
X917667Y94375D01*
X919833Y93124D01*
X922249Y92476D01*
X924751D01*
X927167Y93124D01*
X929333Y94375D01*
X931102Y96143D01*
X932353Y98309D01*
X933000Y100726D01*
Y103227D01*
X932353Y105643D01*
X931102Y107809D01*
X929333Y109578D01*
X927167Y110829D01*
X924751Y111476D01*
D02*
G37*
G36*
X866540Y100706D02*
X857770D01*
Y91936D01*
X857822D01*
X860375Y92620D01*
X862665Y93942D01*
X864534Y95812D01*
X865856Y98101D01*
X866540Y100654D01*
Y100706D01*
D02*
G37*
G36*
X855230D02*
X846460D01*
Y100654D01*
X847144Y98101D01*
X848466Y95812D01*
X850335Y93942D01*
X852625Y92620D01*
X855178Y91936D01*
X855230D01*
Y100706D01*
D02*
G37*
G36*
X273707Y98030D02*
X264150D01*
Y88473D01*
X266791Y89180D01*
X269384Y90678D01*
X271502Y92796D01*
X273000Y95389D01*
X273707Y98030D01*
D02*
G37*
G36*
X260650D02*
X251093D01*
X251800Y95389D01*
X253298Y92796D01*
X255416Y90678D01*
X258009Y89180D01*
X260650Y88473D01*
Y98030D01*
D02*
G37*
G36*
X197507D02*
X187950D01*
Y88473D01*
X190591Y89180D01*
X193184Y90678D01*
X195302Y92796D01*
X196800Y95389D01*
X197507Y98030D01*
D02*
G37*
G36*
X184450D02*
X174893D01*
X175600Y95389D01*
X177098Y92796D01*
X179216Y90678D01*
X181809Y89180D01*
X184450Y88473D01*
Y98030D01*
D02*
G37*
G36*
X41448Y110000D02*
X38552D01*
X35754Y109250D01*
X33246Y107802D01*
X31198Y105754D01*
X29750Y103246D01*
X29000Y100448D01*
Y97552D01*
X29750Y94754D01*
X31198Y92246D01*
X33246Y90198D01*
X35754Y88750D01*
X38552Y88000D01*
X41448D01*
X44246Y88750D01*
X46754Y90198D01*
X48802Y92246D01*
X50250Y94754D01*
X51000Y97552D01*
Y100448D01*
X50250Y103246D01*
X48802Y105754D01*
X46754Y107802D01*
X44246Y109250D01*
X41448Y110000D01*
D02*
G37*
G36*
X41750Y85472D02*
Y74750D01*
X52472D01*
X51648Y77825D01*
X50002Y80675D01*
X47675Y83003D01*
X44825Y84648D01*
X41750Y85472D01*
D02*
G37*
G36*
X38250D02*
X35175Y84648D01*
X32325Y83003D01*
X29997Y80675D01*
X28352Y77825D01*
X27528Y74750D01*
X38250D01*
Y85472D01*
D02*
G37*
G36*
X52472Y71250D02*
X41750D01*
Y60528D01*
X44825Y61352D01*
X47675Y62997D01*
X50002Y65325D01*
X51648Y68175D01*
X52472Y71250D01*
D02*
G37*
G36*
X38250D02*
X27528D01*
X28352Y68175D01*
X29997Y65325D01*
X32325Y62997D01*
X35175Y61352D01*
X38250Y60528D01*
Y71250D01*
D02*
G37*
G36*
X971724Y47500D02*
X968276D01*
X964895Y46828D01*
X961711Y45508D01*
X958844Y43593D01*
X956407Y41156D01*
X954492Y38289D01*
X953173Y35105D01*
X952500Y31724D01*
Y28276D01*
X953173Y24895D01*
X954492Y21711D01*
X956407Y18844D01*
X958844Y16407D01*
X961711Y14492D01*
X964895Y13173D01*
X968276Y12500D01*
X971724D01*
X975105Y13173D01*
X978289Y14492D01*
X981156Y16407D01*
X983593Y18844D01*
X985508Y21711D01*
X986827Y24895D01*
X987500Y28276D01*
Y31724D01*
X986827Y35105D01*
X985508Y38289D01*
X983593Y41156D01*
X981156Y43593D01*
X978289Y45508D01*
X975105Y46828D01*
X971724Y47500D01*
D02*
G37*
G36*
X31724D02*
X28276D01*
X24895Y46828D01*
X21711Y45508D01*
X18844Y43593D01*
X16407Y41156D01*
X14492Y38289D01*
X13173Y35105D01*
X12500Y31724D01*
Y28276D01*
X13173Y24895D01*
X14492Y21711D01*
X16407Y18844D01*
X18844Y16407D01*
X21711Y14492D01*
X24895Y13173D01*
X28276Y12500D01*
X31724D01*
X35105Y13173D01*
X38289Y14492D01*
X41156Y16407D01*
X43593Y18844D01*
X45508Y21711D01*
X46828Y24895D01*
X47500Y28276D01*
Y31724D01*
X46828Y35105D01*
X45508Y38289D01*
X43593Y41156D01*
X41156Y43593D01*
X38289Y45508D01*
X35105Y46828D01*
X31724Y47500D01*
D02*
G37*
%LPD*%
G36*
X390000Y390000D02*
X390000Y390000D01*
X391477Y390000D01*
X394375Y389424D01*
X397105Y388293D01*
X399562Y386651D01*
X401651Y384562D01*
X403293Y382105D01*
X404423Y379375D01*
X405000Y376478D01*
X405000Y375000D01*
X405000Y175000D01*
X405000Y175000D01*
X405000Y173523D01*
X404423Y170625D01*
X403293Y167895D01*
X401651Y165438D01*
X399562Y163349D01*
X397105Y161707D01*
X394375Y160576D01*
X391477Y160000D01*
X260000D01*
X260000Y160000D01*
X258530Y159928D01*
X255646Y159354D01*
X252929Y158229D01*
X250484Y156595D01*
X248405Y154516D01*
X246771Y152071D01*
X245646Y149354D01*
X245072Y146470D01*
X245000Y145000D01*
Y109415D01*
X243861Y108853D01*
X242737Y109716D01*
X239970Y110862D01*
X238750Y111023D01*
Y99780D01*
Y88537D01*
X239970Y88698D01*
X242737Y89844D01*
X243861Y90707D01*
X245000Y90145D01*
Y55000D01*
X245072Y53530D01*
X245646Y50645D01*
X246771Y47929D01*
X248405Y45484D01*
X250484Y43405D01*
X252929Y41771D01*
X255646Y40646D01*
X258530Y40072D01*
X260000Y40000D01*
X508792Y40000D01*
X510000Y40000D01*
X510000Y40000D01*
X510000Y40000D01*
X511152Y40057D01*
X511240Y40074D01*
X513414Y40506D01*
X515544Y41388D01*
X517461Y42669D01*
X519091Y44299D01*
X520372Y46216D01*
X521254Y48346D01*
X521703Y50607D01*
X521760Y51760D01*
X521760Y321760D01*
Y322571D01*
X522076Y324163D01*
X522698Y325663D01*
X523599Y327013D01*
X524747Y328160D01*
X526097Y329062D01*
X527596Y329683D01*
X529188Y330000D01*
X536449D01*
X536449Y330000D01*
X536449Y330000D01*
X536455D01*
X537621Y329934D01*
X538943Y329671D01*
X540499Y329027D01*
X541900Y328091D01*
X543091Y326900D01*
X544027Y325499D01*
X544671Y323943D01*
X545000Y322291D01*
X545000Y321449D01*
X545000Y202269D01*
Y183164D01*
X544837Y181935D01*
X542886Y181547D01*
X541232Y180442D01*
X540127Y178788D01*
X539739Y176837D01*
X540127Y174886D01*
X541232Y173232D01*
X542886Y172127D01*
X544837Y171739D01*
X545000Y170510D01*
Y167895D01*
Y99780D01*
X545000Y96811D01*
Y25000D01*
X545000Y25000D01*
X545000Y23523D01*
X544423Y20625D01*
X543293Y17895D01*
X541651Y15438D01*
X539562Y13349D01*
X537105Y11707D01*
X534375Y10576D01*
X531477Y10000D01*
X238030D01*
X234166Y10769D01*
X230526Y12276D01*
X227251Y14465D01*
X224465Y17251D01*
X222276Y20526D01*
X220769Y24166D01*
X220000Y28030D01*
Y30000D01*
Y178804D01*
X220000Y180000D01*
X220000Y180000D01*
X220000Y180000D01*
X220000Y181970D01*
X220768Y185834D01*
X222276Y189474D01*
X224464Y192750D01*
X227250Y195535D01*
X230526Y197724D01*
X234166Y199232D01*
X238030Y200000D01*
X240000Y200000D01*
X328795Y200000D01*
X330000Y200000D01*
X330000Y200000D01*
X330000Y200000D01*
X330980Y200048D01*
X331230Y200098D01*
X332903Y200430D01*
X334714Y201180D01*
X336344Y202269D01*
X337142Y203067D01*
X338412Y202541D01*
Y179133D01*
X338290Y178951D01*
X337902Y177000D01*
X338290Y175049D01*
X339395Y173395D01*
X341049Y172290D01*
X343000Y171902D01*
X344951Y172290D01*
X346605Y173395D01*
X347710Y175049D01*
X348098Y177000D01*
X347710Y178951D01*
X347588Y179133D01*
Y208867D01*
X347710Y209049D01*
X348098Y211000D01*
X347710Y212951D01*
X346605Y214605D01*
X344951Y215710D01*
X343000Y216098D01*
X341270Y215754D01*
X340000Y216420D01*
X340000Y328589D01*
X340706Y329294D01*
X341988Y330965D01*
X342794Y332912D01*
X343069Y335000D01*
X342794Y337088D01*
X341988Y339035D01*
X340706Y340706D01*
X339936Y341296D01*
X339904Y341960D01*
X339139Y345806D01*
X337638Y349428D01*
X335460Y352688D01*
X332688Y355460D01*
X329428Y357638D01*
X325806Y359139D01*
X321960Y359904D01*
X320000Y360000D01*
X230000Y360000D01*
X229015Y360000D01*
X227083Y360384D01*
X225263Y361138D01*
X223625Y362232D01*
X222232Y363625D01*
X221138Y365263D01*
X220384Y367083D01*
X220000Y369015D01*
X220000Y370000D01*
Y380000D01*
X220000Y380000D01*
X220052Y381248D01*
X220384Y382917D01*
X221138Y384737D01*
X222232Y386375D01*
X223625Y387767D01*
X225263Y388862D01*
X227083Y389616D01*
X229015Y390000D01*
X230000Y390000D01*
X340000Y390000D01*
X389999D01*
X390000Y390000D01*
D02*
G37*
G36*
X466200Y513800D02*
X468545D01*
X473143Y512885D01*
X477474Y511091D01*
X481372Y508486D01*
X484687Y505171D01*
X487291Y501273D01*
X489085Y496942D01*
X490000Y492344D01*
X490000Y490000D01*
Y475460D01*
Y461960D01*
X490000Y370000D01*
Y250858D01*
Y247253D01*
Y233148D01*
X488827Y232662D01*
X468895Y252594D01*
X468852Y252809D01*
X467747Y254463D01*
X466093Y255568D01*
X464142Y255956D01*
X462191Y255568D01*
X460537Y254463D01*
X459432Y252809D01*
X459044Y250858D01*
X459432Y248907D01*
X460537Y247253D01*
X462191Y246148D01*
X462406Y246105D01*
X487468Y221043D01*
Y211889D01*
X487347Y211707D01*
X486959Y209756D01*
X487347Y207805D01*
X488452Y206151D01*
X490000Y205116D01*
X490000Y116375D01*
Y100000D01*
X490000Y100000D01*
X490000Y98030D01*
X489231Y94166D01*
X487723Y90526D01*
X485535Y87251D01*
X482749Y84465D01*
X479473Y82276D01*
X475834Y80768D01*
X471970Y80000D01*
X289015D01*
X287083Y80384D01*
X285263Y81138D01*
X283625Y82233D01*
X282232Y83625D01*
X281138Y85263D01*
X280384Y87083D01*
X280000Y89015D01*
Y89826D01*
X280498Y90246D01*
X281132Y90558D01*
X282063Y89844D01*
X284830Y88698D01*
X286050Y88537D01*
Y99780D01*
Y111023D01*
X284830Y110862D01*
X282063Y109716D01*
X281139Y109007D01*
X280000Y109568D01*
Y110000D01*
X280052Y111248D01*
X280384Y112917D01*
X281138Y114737D01*
X282232Y116375D01*
X283625Y117768D01*
X285263Y118862D01*
X287083Y119616D01*
X289015Y120000D01*
X290000Y120000D01*
X388782Y120000D01*
X390000Y120000D01*
X390000Y120000D01*
X391960Y120096D01*
X395806Y120861D01*
X399428Y122361D01*
X402688Y124539D01*
X405461Y127312D01*
X407639Y130572D01*
X409139Y134194D01*
X409904Y138040D01*
X410000Y140000D01*
X410000Y460000D01*
X410000Y460000D01*
X410000Y460000D01*
X409904Y461960D01*
X409139Y465806D01*
X407638Y469428D01*
X405460Y472688D01*
X402688Y475460D01*
X399428Y477638D01*
X395806Y479138D01*
X391960Y479903D01*
X390000Y480000D01*
X100000Y480000D01*
X100000Y480000D01*
X98040Y479904D01*
X94194Y479139D01*
X90572Y477639D01*
X87312Y475460D01*
X84540Y472688D01*
X82362Y469428D01*
X80861Y465806D01*
X80096Y461960D01*
X80000Y460000D01*
X80000Y380000D01*
X80000Y380000D01*
X80000Y379015D01*
X79616Y377083D01*
X78862Y375263D01*
X77767Y373625D01*
X76375Y372233D01*
X74737Y371138D01*
X72917Y370384D01*
X70985Y370000D01*
X49015Y370000D01*
X47083Y370384D01*
X45263Y371138D01*
X43625Y372233D01*
X42232Y373625D01*
X41138Y375263D01*
X40384Y377083D01*
X40000Y379015D01*
Y380000D01*
Y490000D01*
Y492344D01*
X40915Y496942D01*
X42709Y501273D01*
X45313Y505171D01*
X48628Y508486D01*
X52526Y511091D01*
X56857Y512885D01*
X61455Y513800D01*
X466200D01*
Y513800D01*
D02*
G37*
%LPC*%
G36*
X235250Y111023D02*
X234030Y110862D01*
X231263Y109716D01*
X228887Y107893D01*
X227064Y105517D01*
X225918Y102750D01*
X225757Y101530D01*
X235250D01*
Y111023D01*
D02*
G37*
G36*
Y98030D02*
X225757D01*
X225918Y96811D01*
X227064Y94043D01*
X228887Y91667D01*
X231263Y89844D01*
X234030Y88698D01*
X235250Y88537D01*
Y98030D01*
D02*
G37*
G36*
X289550Y111023D02*
Y101530D01*
X299043D01*
X298882Y102750D01*
X297736Y105517D01*
X295913Y107893D01*
X293537Y109716D01*
X290770Y110862D01*
X289550Y111023D01*
D02*
G37*
G36*
X299043Y98030D02*
X289550D01*
Y88537D01*
X290770Y88698D01*
X293537Y89844D01*
X295913Y91667D01*
X297736Y94043D01*
X298882Y96811D01*
X299043Y98030D01*
D02*
G37*
%LPD*%
G36*
X158042Y319731D02*
X159316Y319203D01*
X160462Y318437D01*
X161437Y317462D01*
X162203Y316316D01*
X162731Y315042D01*
X163000Y313689D01*
Y313000D01*
Y237000D01*
X163000Y109771D01*
X156862D01*
X154546Y109311D01*
X152582Y107998D01*
X151270Y106034D01*
X150809Y103717D01*
Y95843D01*
X151270Y93526D01*
X152582Y91562D01*
X154546Y90250D01*
X156862Y89789D01*
X163000D01*
Y83000D01*
X163000Y83000D01*
Y82114D01*
X162654Y80375D01*
X161976Y78737D01*
X160991Y77263D01*
X159737Y76009D01*
X158263Y75024D01*
X156625Y74346D01*
X154886Y74000D01*
X154000Y74000D01*
X103000D01*
Y74000D01*
X101917D01*
X99791Y74423D01*
X97789Y75252D01*
X95988Y76456D01*
X94456Y77988D01*
X93252Y79790D01*
X92423Y81791D01*
X92000Y83917D01*
Y85000D01*
X92000Y238133D01*
X93270Y238659D01*
X94168Y237761D01*
X96005Y237000D01*
X97057D01*
X97500Y236912D01*
X104560D01*
X105173Y235994D01*
Y234006D01*
X105934Y232168D01*
X107340Y230761D01*
X109178Y230000D01*
X111167D01*
X111860Y230287D01*
X146093D01*
X147388Y229750D01*
X149377D01*
X151215Y230512D01*
X152622Y231918D01*
X153383Y233756D01*
Y235745D01*
X152622Y237583D01*
X151215Y238989D01*
X149465Y239714D01*
X150000Y241005D01*
Y242995D01*
X149239Y244832D01*
X147832Y246239D01*
X145995Y247000D01*
X144005D01*
X142168Y246239D01*
X142017Y246088D01*
X99983D01*
X99832Y246239D01*
X97995Y247000D01*
X96727D01*
X96201Y248270D01*
X124965Y277035D01*
X126181Y278854D01*
X126608Y281000D01*
Y320000D01*
X156690D01*
X158042Y319731D01*
D02*
G37*
D12*
X343000Y177000D02*
Y211000D01*
X97500Y241500D02*
X144500D01*
X97000Y242000D02*
X97500Y241500D01*
X630000Y145000D02*
X630412Y145412D01*
X731989D01*
X492057Y209756D02*
Y222943D01*
X464142Y250858D02*
X492057Y222943D01*
X561837Y176837D02*
X660000Y275000D01*
X544837Y176837D02*
X561837D01*
X500844Y115156D02*
X501000Y115000D01*
X500844Y115156D02*
Y151532D01*
X500688Y151688D02*
X500844Y151532D01*
X159766Y459000D02*
X160000D01*
X135000Y434234D02*
X159766Y459000D01*
X196000Y323965D02*
Y324000D01*
X183000Y310965D02*
X196000Y323965D01*
X183000Y310929D02*
Y310965D01*
X110297Y234875D02*
X148258D01*
X148383Y234750D01*
X110173Y235000D02*
X110297Y234875D01*
X144500Y241500D02*
X145000Y242000D01*
X191000Y221000D02*
Y221500D01*
X206000Y236500D01*
Y237000D01*
D13*
X27000Y374000D02*
X37000Y364000D01*
Y206600D02*
Y364000D01*
X21000Y190600D02*
X37000Y206600D01*
X45000Y205000D02*
X121000Y281000D01*
Y331000D01*
D52*
X205979Y205979D02*
X335000Y335000D01*
D53*
X923500Y101976D02*
D03*
X856500D02*
D03*
X923500Y218024D02*
D03*
X957000Y160000D02*
D03*
X856500Y218024D02*
D03*
X823000Y160000D02*
D03*
D54*
X905000Y388000D02*
D03*
D55*
Y418000D02*
D03*
Y448000D02*
D03*
X875000Y388000D02*
D03*
Y418000D02*
D03*
Y448000D02*
D03*
D56*
X948200Y366500D02*
D03*
Y469500D02*
D03*
D57*
X40000Y99000D02*
D03*
Y73000D02*
D03*
D58*
X21000Y266800D02*
D03*
D59*
Y190600D02*
D03*
Y216000D02*
D03*
Y241400D02*
D03*
D60*
X287800Y99780D02*
D03*
X262400D02*
D03*
X237000D02*
D03*
X186200D02*
D03*
D61*
X160800D02*
D03*
D62*
X30000Y520000D02*
D03*
X960000D02*
D03*
X970000Y30000D02*
D03*
X30000D02*
D03*
D63*
X343000Y177000D02*
D03*
Y211000D02*
D03*
X27000Y374000D02*
D03*
X45000Y205000D02*
D03*
X97000Y242000D02*
D03*
X630000Y145000D02*
D03*
X731989Y145412D02*
D03*
X464142Y250858D02*
D03*
X492057Y209756D02*
D03*
X335000Y335000D02*
D03*
X660000Y275000D02*
D03*
X544837Y176837D02*
D03*
X501000Y115000D02*
D03*
X285620Y506937D02*
D03*
X160000Y460000D02*
D03*
X135000Y434234D02*
D03*
X196000Y324000D02*
D03*
X183000Y310929D02*
D03*
X500688Y151688D02*
D03*
X205000Y205979D02*
D03*
X148383Y234750D02*
D03*
X152000Y305000D02*
D03*
X145000Y242000D02*
D03*
X110173Y235000D02*
D03*
X112000Y83000D02*
D03*
X121000Y331000D02*
D03*
X233397Y374096D02*
D03*
X47667Y382695D02*
D03*
X425000Y280000D02*
D03*
X348000Y385000D02*
D03*
X399000Y187000D02*
D03*
X450000Y95000D02*
D03*
X353000Y37000D02*
D03*
X535000Y320000D02*
D03*
X475000Y450000D02*
D03*
X191000Y221000D02*
D03*
X206000Y237000D02*
D03*
M02*
