G04*
G04 #@! TF.GenerationSoftware,Altium Limited,Altium Designer,24.0.1 (36)*
G04*
G04 Layer_Physical_Order=1*
G04 Layer_Color=255*
%FSLAX44Y44*%
%MOMM*%
G71*
G04*
G04 #@! TF.SameCoordinates,4B7F4912-6191-4439-8966-39C4DA3F543A*
G04*
G04*
G04 #@! TF.FilePolarity,Positive*
G04*
G01*
G75*
%ADD12C,0.3000*%
%ADD13C,0.5000*%
%ADD38C,0.7000*%
G04:AMPARAMS|DCode=39|XSize=1.5mm|YSize=1.3mm|CornerRadius=0.325mm|HoleSize=0mm|Usage=FLASHONLY|Rotation=270.000|XOffset=0mm|YOffset=0mm|HoleType=Round|Shape=RoundedRectangle|*
%AMROUNDEDRECTD39*
21,1,1.5000,0.6500,0,0,270.0*
21,1,0.8500,1.3000,0,0,270.0*
1,1,0.6500,-0.3250,-0.4250*
1,1,0.6500,-0.3250,0.4250*
1,1,0.6500,0.3250,0.4250*
1,1,0.6500,0.3250,-0.4250*
%
%ADD39ROUNDEDRECTD39*%
G04:AMPARAMS|DCode=40|XSize=1mm|YSize=1.1mm|CornerRadius=0.25mm|HoleSize=0mm|Usage=FLASHONLY|Rotation=0.000|XOffset=0mm|YOffset=0mm|HoleType=Round|Shape=RoundedRectangle|*
%AMROUNDEDRECTD40*
21,1,1.0000,0.6000,0,0,0.0*
21,1,0.5000,1.1000,0,0,0.0*
1,1,0.5000,0.2500,-0.3000*
1,1,0.5000,-0.2500,-0.3000*
1,1,0.5000,-0.2500,0.3000*
1,1,0.5000,0.2500,0.3000*
%
%ADD40ROUNDEDRECTD40*%
G04:AMPARAMS|DCode=41|XSize=1.5mm|YSize=1.3mm|CornerRadius=0.325mm|HoleSize=0mm|Usage=FLASHONLY|Rotation=180.000|XOffset=0mm|YOffset=0mm|HoleType=Round|Shape=RoundedRectangle|*
%AMROUNDEDRECTD41*
21,1,1.5000,0.6500,0,0,180.0*
21,1,0.8500,1.3000,0,0,180.0*
1,1,0.6500,-0.4250,0.3250*
1,1,0.6500,0.4250,0.3250*
1,1,0.6500,0.4250,-0.3250*
1,1,0.6500,-0.4250,-0.3250*
%
%ADD41ROUNDEDRECTD41*%
G04:AMPARAMS|DCode=42|XSize=1mm|YSize=1.1mm|CornerRadius=0.25mm|HoleSize=0mm|Usage=FLASHONLY|Rotation=90.000|XOffset=0mm|YOffset=0mm|HoleType=Round|Shape=RoundedRectangle|*
%AMROUNDEDRECTD42*
21,1,1.0000,0.6000,0,0,90.0*
21,1,0.5000,1.1000,0,0,90.0*
1,1,0.5000,0.3000,0.2500*
1,1,0.5000,0.3000,-0.2500*
1,1,0.5000,-0.3000,-0.2500*
1,1,0.5000,-0.3000,0.2500*
%
%ADD42ROUNDEDRECTD42*%
G04:AMPARAMS|DCode=43|XSize=2.5mm|YSize=1.5mm|CornerRadius=0.375mm|HoleSize=0mm|Usage=FLASHONLY|Rotation=90.000|XOffset=0mm|YOffset=0mm|HoleType=Round|Shape=RoundedRectangle|*
%AMROUNDEDRECTD43*
21,1,2.5000,0.7500,0,0,90.0*
21,1,1.7500,1.5000,0,0,90.0*
1,1,0.7500,0.3750,0.8750*
1,1,0.7500,0.3750,-0.8750*
1,1,0.7500,-0.3750,-0.8750*
1,1,0.7500,-0.3750,0.8750*
%
%ADD43ROUNDEDRECTD43*%
G04:AMPARAMS|DCode=44|XSize=0.6mm|YSize=2.2mm|CornerRadius=0.15mm|HoleSize=0mm|Usage=FLASHONLY|Rotation=90.000|XOffset=0mm|YOffset=0mm|HoleType=Round|Shape=RoundedRectangle|*
%AMROUNDEDRECTD44*
21,1,0.6000,1.9000,0,0,90.0*
21,1,0.3000,2.2000,0,0,90.0*
1,1,0.3000,0.9500,0.1500*
1,1,0.3000,0.9500,-0.1500*
1,1,0.3000,-0.9500,-0.1500*
1,1,0.3000,-0.9500,0.1500*
%
%ADD44ROUNDEDRECTD44*%
G04:AMPARAMS|DCode=45|XSize=2.2mm|YSize=3.7mm|CornerRadius=0.55mm|HoleSize=0mm|Usage=FLASHONLY|Rotation=180.000|XOffset=0mm|YOffset=0mm|HoleType=Round|Shape=RoundedRectangle|*
%AMROUNDEDRECTD45*
21,1,2.2000,2.6000,0,0,180.0*
21,1,1.1000,3.7000,0,0,180.0*
1,1,1.1000,-0.5500,1.3000*
1,1,1.1000,0.5500,1.3000*
1,1,1.1000,0.5500,-1.3000*
1,1,1.1000,-0.5500,-1.3000*
%
%ADD45ROUNDEDRECTD45*%
G04:AMPARAMS|DCode=46|XSize=1mm|YSize=1.5mm|CornerRadius=0.25mm|HoleSize=0mm|Usage=FLASHONLY|Rotation=180.000|XOffset=0mm|YOffset=0mm|HoleType=Round|Shape=RoundedRectangle|*
%AMROUNDEDRECTD46*
21,1,1.0000,1.0000,0,0,180.0*
21,1,0.5000,1.5000,0,0,180.0*
1,1,0.5000,-0.2500,0.5000*
1,1,0.5000,0.2500,0.5000*
1,1,0.5000,0.2500,-0.5000*
1,1,0.5000,-0.2500,-0.5000*
%
%ADD46ROUNDEDRECTD46*%
G04:AMPARAMS|DCode=47|XSize=1mm|YSize=2.1501mm|CornerRadius=0.25mm|HoleSize=0mm|Usage=FLASHONLY|Rotation=180.000|XOffset=0mm|YOffset=0mm|HoleType=Round|Shape=RoundedRectangle|*
%AMROUNDEDRECTD47*
21,1,1.0000,1.6501,0,0,180.0*
21,1,0.5000,2.1501,0,0,180.0*
1,1,0.5000,-0.2500,0.8250*
1,1,0.5000,0.2500,0.8250*
1,1,0.5000,0.2500,-0.8250*
1,1,0.5000,-0.2500,-0.8250*
%
%ADD47ROUNDEDRECTD47*%
G04:AMPARAMS|DCode=48|XSize=1.2mm|YSize=2.2mm|CornerRadius=0.3mm|HoleSize=0mm|Usage=FLASHONLY|Rotation=90.000|XOffset=0mm|YOffset=0mm|HoleType=Round|Shape=RoundedRectangle|*
%AMROUNDEDRECTD48*
21,1,1.2000,1.6000,0,0,90.0*
21,1,0.6000,2.2000,0,0,90.0*
1,1,0.6000,0.8000,0.3000*
1,1,0.6000,0.8000,-0.3000*
1,1,0.6000,-0.8000,-0.3000*
1,1,0.6000,-0.8000,0.3000*
%
%ADD48ROUNDEDRECTD48*%
G04:AMPARAMS|DCode=49|XSize=3.5mm|YSize=2.2mm|CornerRadius=0.55mm|HoleSize=0mm|Usage=FLASHONLY|Rotation=90.000|XOffset=0mm|YOffset=0mm|HoleType=Round|Shape=RoundedRectangle|*
%AMROUNDEDRECTD49*
21,1,3.5000,1.1000,0,0,90.0*
21,1,2.4000,2.2000,0,0,90.0*
1,1,1.1000,0.5500,1.2000*
1,1,1.1000,0.5500,-1.2000*
1,1,1.1000,-0.5500,-1.2000*
1,1,1.1000,-0.5500,1.2000*
%
%ADD49ROUNDEDRECTD49*%
G04:AMPARAMS|DCode=50|XSize=0.6mm|YSize=2.25mm|CornerRadius=0.15mm|HoleSize=0mm|Usage=FLASHONLY|Rotation=180.000|XOffset=0mm|YOffset=0mm|HoleType=Round|Shape=RoundedRectangle|*
%AMROUNDEDRECTD50*
21,1,0.6000,1.9500,0,0,180.0*
21,1,0.3000,2.2500,0,0,180.0*
1,1,0.3000,-0.1500,0.9750*
1,1,0.3000,0.1500,0.9750*
1,1,0.3000,0.1500,-0.9750*
1,1,0.3000,-0.1500,-0.9750*
%
%ADD50ROUNDEDRECTD50*%
G04:AMPARAMS|DCode=51|XSize=0.6mm|YSize=2.25mm|CornerRadius=0.15mm|HoleSize=0mm|Usage=FLASHONLY|Rotation=90.000|XOffset=0mm|YOffset=0mm|HoleType=Round|Shape=RoundedRectangle|*
%AMROUNDEDRECTD51*
21,1,0.6000,1.9500,0,0,90.0*
21,1,0.3000,2.2500,0,0,90.0*
1,1,0.3000,0.9750,0.1500*
1,1,0.3000,0.9750,-0.1500*
1,1,0.3000,-0.9750,-0.1500*
1,1,0.3000,-0.9750,0.1500*
%
%ADD51ROUNDEDRECTD51*%
%ADD52C,1.0000*%
%ADD53C,1.5000*%
G04:AMPARAMS|DCode=54|XSize=1.52mm|YSize=1.52mm|CornerRadius=0.38mm|HoleSize=0mm|Usage=FLASHONLY|Rotation=270.000|XOffset=0mm|YOffset=0mm|HoleType=Round|Shape=RoundedRectangle|*
%AMROUNDEDRECTD54*
21,1,1.5200,0.7600,0,0,270.0*
21,1,0.7600,1.5200,0,0,270.0*
1,1,0.7600,-0.3800,-0.3800*
1,1,0.7600,-0.3800,0.3800*
1,1,0.7600,0.3800,0.3800*
1,1,0.7600,0.3800,-0.3800*
%
%ADD54ROUNDEDRECTD54*%
%ADD55C,1.5200*%
%ADD56C,2.9100*%
%ADD57C,1.8000*%
G04:AMPARAMS|DCode=58|XSize=2mm|YSize=2mm|CornerRadius=0.5mm|HoleSize=0mm|Usage=FLASHONLY|Rotation=270.000|XOffset=0mm|YOffset=0mm|HoleType=Round|Shape=RoundedRectangle|*
%AMROUNDEDRECTD58*
21,1,2.0000,1.0000,0,0,270.0*
21,1,1.0000,2.0000,0,0,270.0*
1,1,1.0000,-0.5000,-0.5000*
1,1,1.0000,-0.5000,0.5000*
1,1,1.0000,0.5000,0.5000*
1,1,1.0000,0.5000,-0.5000*
%
%ADD58ROUNDEDRECTD58*%
%ADD59C,2.0000*%
%ADD60C,1.5750*%
G04:AMPARAMS|DCode=61|XSize=1.575mm|YSize=1.575mm|CornerRadius=0.3938mm|HoleSize=0mm|Usage=FLASHONLY|Rotation=0.000|XOffset=0mm|YOffset=0mm|HoleType=Round|Shape=RoundedRectangle|*
%AMROUNDEDRECTD61*
21,1,1.5750,0.7875,0,0,0.0*
21,1,0.7875,1.5750,0,0,0.0*
1,1,0.7875,0.3938,-0.3938*
1,1,0.7875,-0.3938,-0.3938*
1,1,0.7875,-0.3938,0.3938*
1,1,0.7875,0.3938,0.3938*
%
%ADD61ROUNDEDRECTD61*%
%ADD62C,3.0000*%
%ADD63C,0.6000*%
G36*
X1000000Y246416D02*
X998730Y246075D01*
X998601Y246298D01*
X997298Y247601D01*
X995702Y248523D01*
X994750Y248778D01*
Y242000D01*
Y235222D01*
X995702Y235477D01*
X997298Y236399D01*
X998601Y237702D01*
X998730Y237925D01*
X1000000Y237584D01*
Y5000D01*
X385094D01*
X384774Y5322D01*
X384394Y6270D01*
X384500Y6503D01*
X384740Y6968D01*
X384746Y7044D01*
X384778Y7113D01*
X384795Y7636D01*
X384839Y8157D01*
X384816Y8230D01*
X384818Y8306D01*
X384635Y8796D01*
X384538Y9099D01*
X384963Y9495D01*
X385177Y9634D01*
X385616Y9798D01*
X386846Y8854D01*
X388488Y8174D01*
X390250Y7942D01*
X391750D01*
Y19000D01*
Y30058D01*
X390250D01*
X389329Y29937D01*
X388059Y30933D01*
Y35602D01*
X387826Y36772D01*
X388905Y37361D01*
X389116Y37403D01*
X390273Y38177D01*
X391047Y39334D01*
X391319Y40700D01*
Y43700D01*
X391047Y45066D01*
X390273Y46223D01*
X389116Y46997D01*
X387750Y47269D01*
X370452D01*
X370438Y47273D01*
X370299Y47339D01*
X369455Y48539D01*
X369580Y49122D01*
X369585Y49484D01*
X369645Y49831D01*
X387750D01*
X389116Y50103D01*
X390273Y50877D01*
X391047Y52034D01*
X391319Y53400D01*
Y56400D01*
X391047Y57766D01*
X390273Y58923D01*
X389116Y59697D01*
X387750Y59969D01*
X378753D01*
X377213Y60275D01*
X366588D01*
Y61590D01*
X367858Y62609D01*
X368250Y62531D01*
X387750D01*
X389116Y62803D01*
X389428Y63012D01*
X393499D01*
X399412Y57099D01*
Y41000D01*
X399761Y39244D01*
X400756Y37756D01*
X409963Y28548D01*
X409838Y27285D01*
X409465Y27035D01*
X408305Y25298D01*
X407897Y23250D01*
Y14750D01*
X408305Y12701D01*
X409465Y10965D01*
X411202Y9805D01*
X413250Y9397D01*
X419750D01*
X421799Y9805D01*
X423535Y10965D01*
X424695Y12701D01*
X425103Y14750D01*
Y18401D01*
X426373Y19120D01*
X426897Y18806D01*
Y14750D01*
X427305Y12701D01*
X428465Y10965D01*
X430202Y9805D01*
X432250Y9397D01*
X438750D01*
X440798Y9805D01*
X442535Y10965D01*
X443695Y12701D01*
X444103Y14750D01*
Y23250D01*
X443695Y25298D01*
X442535Y27035D01*
X440798Y28195D01*
X438750Y28603D01*
X432250D01*
X431203Y28394D01*
X430633Y28508D01*
X430456D01*
X429887Y29076D01*
X429744Y29290D01*
X424606Y34429D01*
X425092Y35602D01*
X428250D01*
Y42200D01*
X431750D01*
Y35602D01*
X439750D01*
X441701Y35990D01*
X443355Y37095D01*
X444460Y38749D01*
X444735Y40131D01*
X446065Y40596D01*
X447906Y38756D01*
X449394Y37761D01*
X451150Y37412D01*
X468500D01*
X470256Y37761D01*
X471744Y38756D01*
X476386Y43397D01*
X481750D01*
X483798Y43805D01*
X485535Y44965D01*
X486695Y46702D01*
X487103Y48750D01*
Y57250D01*
X486726Y59142D01*
X486878Y59639D01*
X487290Y60412D01*
X644810D01*
X644884Y60337D01*
X646193Y59795D01*
X646244Y59761D01*
X646305Y59749D01*
X646906Y59500D01*
X647557D01*
X648000Y59412D01*
X678243D01*
X679998Y59761D01*
X681487Y60756D01*
X683244Y62513D01*
X684239Y64002D01*
X684588Y65757D01*
Y77537D01*
X686059Y78520D01*
X687048Y80000D01*
X688010Y80068D01*
X688437Y79966D01*
X688878Y78901D01*
X689960Y77491D01*
X691370Y76409D01*
X693012Y75729D01*
X694774Y75497D01*
X696274D01*
Y86555D01*
Y97613D01*
X694774D01*
X693012Y97381D01*
X691370Y96701D01*
X689960Y95619D01*
X688878Y94209D01*
X688437Y93144D01*
X688010Y93042D01*
X687048Y93110D01*
X686059Y94590D01*
X684322Y95750D01*
X682274Y96158D01*
X681800D01*
Y106105D01*
X683296Y107105D01*
X684566Y109007D01*
X685013Y111250D01*
Y127024D01*
X718886Y160897D01*
X725250D01*
X727298Y161305D01*
X729035Y162465D01*
X730195Y164202D01*
X730337Y164912D01*
X757912D01*
X758906Y164500D01*
X761094D01*
X762088Y164912D01*
X811600D01*
X813872Y162639D01*
X813500Y161251D01*
Y158749D01*
X814147Y156333D01*
X815398Y154167D01*
X817167Y152398D01*
X819333Y151147D01*
X820413Y150858D01*
X820246Y149588D01*
X769190D01*
X769116Y149663D01*
X767094Y150500D01*
X764906D01*
X762885Y149663D01*
X762810Y149588D01*
X734884D01*
X734821Y149651D01*
X732983Y150412D01*
X730994D01*
X729157Y149651D01*
X727750Y148244D01*
X726989Y146406D01*
Y144417D01*
X727750Y142580D01*
X729157Y141173D01*
X730994Y140412D01*
X732401D01*
X732401Y140412D01*
X762810D01*
X762885Y140337D01*
X764906Y139500D01*
X767094D01*
X769116Y140337D01*
X769190Y140412D01*
X833000D01*
X834756Y140761D01*
X836244Y141756D01*
X849901Y155412D01*
X948679D01*
X949398Y154167D01*
X951167Y152398D01*
X953333Y151147D01*
X955749Y150500D01*
X958251D01*
X960667Y151147D01*
X962833Y152398D01*
X964142Y153707D01*
X965412Y153181D01*
Y150377D01*
X926139Y111104D01*
X924751Y111476D01*
X922249D01*
X919833Y110829D01*
X917667Y109578D01*
X915898Y107809D01*
X914647Y105643D01*
X914000Y103227D01*
Y100726D01*
X914647Y98309D01*
X915898Y96143D01*
X917667Y94375D01*
X919833Y93124D01*
X922249Y92476D01*
X924751D01*
X927167Y93124D01*
X929333Y94375D01*
X931102Y96143D01*
X932353Y98309D01*
X933000Y100726D01*
Y103227D01*
X932628Y104616D01*
X973244Y145232D01*
X974239Y146721D01*
X974588Y148476D01*
Y220000D01*
X974239Y221756D01*
X973244Y223244D01*
X961588Y234900D01*
Y281964D01*
X963298Y282305D01*
X965035Y283465D01*
X966195Y285202D01*
X966603Y287250D01*
Y293750D01*
X966195Y295798D01*
X965035Y297535D01*
X963298Y298695D01*
X961250Y299103D01*
X952750D01*
X950702Y298695D01*
X948965Y297535D01*
X947805Y295798D01*
X947397Y293750D01*
Y287250D01*
X947805Y285202D01*
X948965Y283465D01*
X950702Y282305D01*
X952412Y281964D01*
Y233000D01*
X952761Y231244D01*
X953756Y229756D01*
X965412Y218099D01*
Y166819D01*
X964142Y166293D01*
X962833Y167602D01*
X960667Y168853D01*
X958251Y169500D01*
X955749D01*
X953333Y168853D01*
X951167Y167602D01*
X949398Y165833D01*
X948679Y164588D01*
X848000D01*
X846244Y164239D01*
X844756Y163244D01*
X831099Y149588D01*
X825754D01*
X825587Y150858D01*
X826667Y151147D01*
X828833Y152398D01*
X830602Y154167D01*
X831853Y156333D01*
X832500Y158749D01*
Y161251D01*
X831853Y163667D01*
X830602Y165833D01*
X828833Y167602D01*
X826667Y168853D01*
X824251Y169500D01*
X821749D01*
X820361Y169128D01*
X816744Y172744D01*
X815256Y173739D01*
X813500Y174088D01*
X763690D01*
X763115Y174663D01*
X761094Y175500D01*
X758906D01*
X756885Y174663D01*
X756310Y174088D01*
X730337D01*
X730195Y174799D01*
X729035Y176535D01*
X727298Y177695D01*
X725250Y178103D01*
X716750D01*
X714702Y177695D01*
X712965Y176535D01*
X711805Y174799D01*
X711397Y172750D01*
Y166386D01*
X679545Y134534D01*
X679150Y134613D01*
X671650D01*
X669407Y134166D01*
X667505Y132895D01*
X666234Y130993D01*
X665787Y128750D01*
Y111250D01*
X666234Y109007D01*
X667505Y107105D01*
X669407Y105834D01*
X671650Y105387D01*
X672624D01*
Y95014D01*
X671989Y94590D01*
X670829Y92853D01*
X670421Y90805D01*
Y82305D01*
X670829Y80257D01*
X671989Y78520D01*
X673726Y77360D01*
X675412Y77024D01*
Y68588D01*
X652190D01*
X651115Y69663D01*
X649094Y70500D01*
X646906D01*
X644884Y69663D01*
X644810Y69588D01*
X488548D01*
X487858Y70858D01*
X488326Y71988D01*
X488558Y73750D01*
Y76250D01*
X478500D01*
Y78000D01*
X476750D01*
Y89058D01*
X475250D01*
X474329Y88937D01*
X473059Y89933D01*
Y92000D01*
X473059Y92788D01*
X473000Y93083D01*
Y93385D01*
X472692Y94930D01*
X472577Y95209D01*
X472519Y95504D01*
X471915Y96960D01*
X471748Y97210D01*
X471633Y97489D01*
X470757Y98799D01*
X470544Y99012D01*
X470377Y99263D01*
X469498Y100142D01*
X469738Y101061D01*
X469982Y101412D01*
X492000D01*
X493756Y101761D01*
X495244Y102756D01*
X502838Y110349D01*
X502989Y110412D01*
X572810D01*
X572884Y110337D01*
X574906Y109500D01*
X577094D01*
X579115Y110337D01*
X579190Y110412D01*
X615154D01*
X615434Y109007D01*
X616704Y107105D01*
X618606Y105834D01*
X620850Y105387D01*
X628350D01*
X630593Y105834D01*
X632495Y107105D01*
X633766Y109007D01*
X634213Y111250D01*
Y128750D01*
X633766Y130993D01*
X632495Y132895D01*
X630593Y134166D01*
X629188Y134446D01*
Y137699D01*
X631838Y140349D01*
X632832Y140761D01*
X634239Y142168D01*
X635000Y144005D01*
Y145995D01*
X634239Y147832D01*
X632832Y149239D01*
X630995Y150000D01*
X629005D01*
X627168Y149239D01*
X625761Y147832D01*
X625349Y146838D01*
X621356Y142844D01*
X620361Y141356D01*
X620012Y139600D01*
Y134446D01*
X618606Y134166D01*
X616704Y132895D01*
X615434Y130993D01*
X614987Y128750D01*
Y119588D01*
X579190D01*
X579115Y119663D01*
X577094Y120500D01*
X574906D01*
X572884Y119663D01*
X572810Y119588D01*
X502989D01*
X501995Y120000D01*
X500005D01*
X498168Y119239D01*
X496761Y117832D01*
X496349Y116838D01*
X490099Y110588D01*
X385379D01*
X383623Y110239D01*
X382135Y109244D01*
X358756Y85865D01*
X357761Y84377D01*
X357412Y82621D01*
Y57444D01*
X357761Y55688D01*
X358695Y54290D01*
X358697Y54213D01*
X358571Y53621D01*
X358202Y52957D01*
X356486Y52616D01*
X356208Y52500D01*
X355913Y52442D01*
X354093Y51688D01*
X353842Y51520D01*
X353564Y51405D01*
X351926Y50311D01*
X351713Y50098D01*
X351463Y49930D01*
X350070Y48537D01*
X349902Y48287D01*
X349689Y48074D01*
X348595Y46436D01*
X348479Y46158D01*
X348312Y45907D01*
X347558Y44087D01*
X347500Y43792D01*
X347384Y43514D01*
X347000Y41582D01*
Y41280D01*
X346941Y40985D01*
X346941Y40000D01*
Y23043D01*
X347019Y22651D01*
X347046Y22252D01*
X347135Y22071D01*
X347174Y21873D01*
X347396Y21540D01*
X347573Y21181D01*
X347725Y21048D01*
X347837Y20881D01*
X348170Y20658D01*
X348471Y20394D01*
X349191Y19978D01*
Y18763D01*
X348500Y17094D01*
Y14906D01*
X349337Y12885D01*
X350885Y11337D01*
X352176Y10803D01*
X352925Y10379D01*
X353106Y9230D01*
X352981Y8472D01*
X352999Y7925D01*
Y7377D01*
X353018Y7330D01*
X353020Y7279D01*
X353246Y6781D01*
X353456Y6274D01*
X353460Y6270D01*
X353453Y6071D01*
X352928Y5000D01*
X5000D01*
Y540000D01*
X1000000D01*
Y246416D01*
D02*
G37*
G36*
X462000Y100000D02*
Y100000D01*
X462001D01*
X463182Y99922D01*
X464333Y99692D01*
X465789Y99089D01*
X467100Y98214D01*
X468214Y97100D01*
X469090Y95789D01*
X469692Y94333D01*
X470000Y92788D01*
X470000Y92000D01*
X470000Y85704D01*
X468730Y85452D01*
X468646Y85654D01*
X467564Y87064D01*
X466154Y88146D01*
X464512Y88826D01*
X462750Y89058D01*
X461250D01*
Y78000D01*
X459500D01*
Y76250D01*
X449442D01*
Y75000D01*
X444752D01*
X444073Y76270D01*
X444460Y76849D01*
X444798Y78550D01*
X430000D01*
Y80300D01*
X428250D01*
Y86898D01*
X420250D01*
X418299Y86510D01*
X416645Y85405D01*
X416270Y84843D01*
X415000Y85229D01*
Y92804D01*
X415000Y94000D01*
X415000Y94000D01*
X415000Y94000D01*
X415000Y95193D01*
X415913Y97399D01*
X417601Y99087D01*
X419807Y100000D01*
X421000Y100000D01*
X462000Y100000D01*
X462000Y100000D01*
D02*
G37*
G36*
X366589Y49762D02*
X366309Y48456D01*
X366222Y48359D01*
X364645Y47305D01*
X363540Y45651D01*
X363202Y43950D01*
X378000D01*
Y42200D01*
X379750D01*
Y35602D01*
X385000D01*
Y26704D01*
X383730Y26452D01*
X383646Y26654D01*
X382564Y28064D01*
X381154Y29146D01*
X379512Y29826D01*
X377750Y30058D01*
X376250D01*
Y19000D01*
Y7942D01*
X377750D01*
X379512Y8174D01*
X380933Y8762D01*
X381507Y8285D01*
X381800Y7812D01*
X381297Y7181D01*
X379737Y6138D01*
X377917Y5384D01*
X376248Y5052D01*
X375000Y5000D01*
X375000Y5000D01*
X375000Y5000D01*
X365000D01*
X363523Y5000D01*
X360625Y5576D01*
X357895Y6707D01*
X355999Y7974D01*
X356225Y9342D01*
X356232Y9351D01*
X356702Y9477D01*
X358298Y10399D01*
X359601Y11702D01*
X360523Y13298D01*
X360778Y14250D01*
X354000D01*
Y16000D01*
X352250D01*
Y22778D01*
X351298Y22523D01*
X351100Y22408D01*
X350000Y23043D01*
Y40000D01*
X350000Y40985D01*
X350384Y42917D01*
X351138Y44737D01*
X352233Y46375D01*
X353625Y47767D01*
X355263Y48862D01*
X357083Y49616D01*
X359015Y50000D01*
X360000Y50000D01*
X360000Y50000D01*
X366339D01*
X366589Y49762D01*
D02*
G37*
%LPC*%
G36*
X286094Y525500D02*
X283906D01*
X281884Y524663D01*
X280337Y523116D01*
X279986Y522268D01*
X279407Y521846D01*
X278585Y521574D01*
X277498Y521834D01*
X277140Y521847D01*
X276788Y521917D01*
X276549Y521870D01*
X276306Y521879D01*
X275969Y521755D01*
X275617Y521684D01*
X275415Y521549D01*
X275187Y521465D01*
X274923Y521221D01*
X274625Y521021D01*
X273598Y519995D01*
X272935Y519003D01*
X272174Y517165D01*
X271941Y515994D01*
Y490879D01*
X270821Y490281D01*
X270498Y490496D01*
X268743Y490845D01*
X268103D01*
Y491500D01*
X267695Y493548D01*
X266535Y495285D01*
X264798Y496445D01*
X262750Y496853D01*
X256250D01*
X254202Y496445D01*
X252465Y495285D01*
X251305Y493548D01*
X250897Y491500D01*
Y483000D01*
X251305Y480951D01*
X252465Y479215D01*
X254202Y478055D01*
X256250Y477647D01*
X262750D01*
X264798Y478055D01*
X266535Y479215D01*
X268162Y479440D01*
X268412Y479266D01*
Y469512D01*
X267142Y469127D01*
X266535Y470035D01*
X264798Y471195D01*
X262750Y471603D01*
X256250D01*
X254202Y471195D01*
X252465Y470035D01*
X251476Y468555D01*
X250514Y468487D01*
X250087Y468589D01*
X249646Y469654D01*
X248564Y471064D01*
X247154Y472146D01*
X245512Y472826D01*
X243750Y473058D01*
X242250D01*
Y462000D01*
Y450942D01*
X243750D01*
X245512Y451174D01*
X247154Y451854D01*
X248564Y452936D01*
X249646Y454346D01*
X250087Y455411D01*
X250514Y455513D01*
X251476Y455445D01*
X252465Y453965D01*
X254202Y452805D01*
X254912Y452663D01*
Y446337D01*
X254202Y446195D01*
X252465Y445035D01*
X251305Y443298D01*
X250897Y441250D01*
Y432750D01*
X251305Y430702D01*
X251868Y429858D01*
X251189Y428588D01*
X248811D01*
X248132Y429858D01*
X248695Y430702D01*
X249103Y432750D01*
Y441250D01*
X248695Y443298D01*
X247535Y445035D01*
X245798Y446195D01*
X243750Y446603D01*
X237250D01*
X235202Y446195D01*
X233465Y445035D01*
X232305Y443298D01*
X231897Y441250D01*
Y432750D01*
X232305Y430702D01*
X233465Y428965D01*
X235202Y427805D01*
X236412Y427564D01*
Y426000D01*
X236761Y424244D01*
X237677Y422873D01*
X237508Y422175D01*
X237135Y421580D01*
X235202Y421195D01*
X233465Y420035D01*
X232305Y418298D01*
X231897Y416250D01*
Y407750D01*
X232305Y405702D01*
X233465Y403965D01*
X235202Y402805D01*
X235912Y402663D01*
Y399757D01*
X236261Y398002D01*
X237256Y396513D01*
X260013Y373756D01*
X261502Y372761D01*
X263257Y372412D01*
X293964D01*
X294305Y370702D01*
X295465Y368965D01*
X297202Y367805D01*
X299250Y367397D01*
X305750D01*
X307798Y367805D01*
X309535Y368965D01*
X310695Y370702D01*
X311103Y372750D01*
Y381250D01*
X310695Y383298D01*
X309535Y385035D01*
X307798Y386195D01*
X306038Y386545D01*
Y406700D01*
X305689Y408456D01*
X305469Y408786D01*
Y417500D01*
X305197Y418866D01*
X304423Y420023D01*
X303266Y420797D01*
X301900Y421069D01*
X298900D01*
X297534Y420797D01*
X296377Y420023D01*
X295603Y418866D01*
X295331Y417500D01*
Y398000D01*
X295603Y396634D01*
X296377Y395477D01*
X296862Y395152D01*
Y385968D01*
X295465Y385035D01*
X294305Y383298D01*
X293964Y381588D01*
X265158D01*
X245326Y401420D01*
X245520Y402749D01*
X245798Y402805D01*
X247535Y403965D01*
X248695Y405702D01*
X249103Y407750D01*
Y416250D01*
X248727Y418142D01*
X248878Y418639D01*
X249291Y419412D01*
X250709D01*
X251122Y418639D01*
X251273Y418142D01*
X250897Y416250D01*
Y407750D01*
X251305Y405702D01*
X252465Y403965D01*
X254202Y402805D01*
X256250Y402397D01*
X262750D01*
X264799Y402805D01*
X266535Y403965D01*
X267695Y405702D01*
X268036Y407412D01*
X282631D01*
Y398000D01*
X282903Y396634D01*
X283677Y395477D01*
X284834Y394703D01*
X286200Y394431D01*
X289200D01*
X290566Y394703D01*
X291723Y395477D01*
X292497Y396634D01*
X292769Y398000D01*
Y417500D01*
X292497Y418866D01*
X291723Y420023D01*
X290566Y420797D01*
X289200Y421069D01*
X286200D01*
X284834Y420797D01*
X283677Y420023D01*
X282903Y418866D01*
X282631Y417500D01*
Y416588D01*
X268036D01*
X267695Y418298D01*
X266535Y420035D01*
X264799Y421195D01*
X264588Y421237D01*
Y422243D01*
X264258Y423905D01*
X264453Y424167D01*
X265203Y424756D01*
X266691Y423761D01*
X268447Y423412D01*
X308803D01*
X309533Y422142D01*
X309254Y420743D01*
Y420142D01*
X309077Y420023D01*
X308303Y418866D01*
X308031Y417500D01*
Y398000D01*
X308303Y396634D01*
X309077Y395477D01*
X310234Y394703D01*
X311600Y394431D01*
X314600D01*
X315966Y394703D01*
X316173Y394613D01*
X317041Y393894D01*
X317029Y393773D01*
X316941Y393332D01*
Y386603D01*
X316991Y386352D01*
X316202Y386195D01*
X314465Y385035D01*
X313305Y383298D01*
X312897Y381250D01*
Y372750D01*
X313305Y370702D01*
X314465Y368965D01*
X316202Y367805D01*
X318250Y367397D01*
X324750D01*
X326798Y367805D01*
X328535Y368965D01*
X329695Y370702D01*
X329936Y371912D01*
X491979D01*
X492112Y371750D01*
Y352603D01*
X490250D01*
X488202Y352195D01*
X486465Y351035D01*
X485305Y349298D01*
X484897Y347250D01*
Y338750D01*
X485305Y336702D01*
X486465Y334965D01*
X488202Y333805D01*
X490250Y333397D01*
X496750D01*
X498798Y333805D01*
X500535Y334965D01*
X501695Y336702D01*
X502103Y338750D01*
Y347250D01*
X501695Y349298D01*
X501288Y349908D01*
Y360352D01*
X502223Y360977D01*
X502997Y362134D01*
X503269Y363500D01*
Y380983D01*
X504442Y381469D01*
X505831Y380080D01*
Y363500D01*
X506103Y362134D01*
X506312Y361822D01*
Y351601D01*
X505465Y351035D01*
X504305Y349298D01*
X503897Y347250D01*
Y338750D01*
X504305Y336702D01*
X505465Y334965D01*
X507202Y333805D01*
X509250Y333397D01*
X515750D01*
X517799Y333805D01*
X517966Y333917D01*
X519087Y333318D01*
Y327855D01*
X519087Y326589D01*
X519145Y326293D01*
Y325992D01*
X519639Y323508D01*
X519755Y323230D01*
X519813Y322934D01*
X520782Y320595D01*
X520950Y320345D01*
X521065Y320066D01*
X522472Y317961D01*
X522685Y317748D01*
X522852Y317497D01*
X524643Y315707D01*
X524893Y315539D01*
X525106Y315326D01*
X527212Y313920D01*
X527490Y313804D01*
X527740Y313637D01*
X530080Y312668D01*
X530375Y312609D01*
X530654Y312494D01*
X533137Y312000D01*
X533438D01*
X533734Y311941D01*
X535000Y311941D01*
X535985Y311941D01*
X536280Y312000D01*
X536582D01*
X538514Y312384D01*
X538792Y312500D01*
X539087Y312558D01*
X540907Y313312D01*
X541158Y313479D01*
X541436Y313595D01*
X543074Y314689D01*
X543287Y314902D01*
X543537Y315070D01*
X544930Y316462D01*
X545098Y316713D01*
X545311Y316926D01*
X546405Y318564D01*
X546520Y318842D01*
X546688Y319093D01*
X547442Y320913D01*
X547500Y321208D01*
X547616Y321486D01*
X548000Y323418D01*
X549169Y323949D01*
X549211Y323947D01*
X549250Y323942D01*
X550750D01*
Y335000D01*
Y346058D01*
X549329D01*
X548906Y346122D01*
X548059Y346865D01*
X548059Y380000D01*
X547826Y381171D01*
X547163Y382163D01*
X546171Y382826D01*
X545000Y383059D01*
X542898D01*
X542636Y383007D01*
X541640Y383001D01*
X541187Y383915D01*
X541097Y384366D01*
X540323Y385523D01*
X539166Y386297D01*
X537800Y386568D01*
X534800D01*
X533434Y386297D01*
X532277Y385523D01*
X531503Y384366D01*
X531231Y383000D01*
Y366918D01*
X531176Y366793D01*
X530638Y366108D01*
X529961Y365876D01*
X529833Y365902D01*
X528669D01*
Y383000D01*
X528397Y384366D01*
X528188Y384678D01*
Y390662D01*
X550215D01*
X550555Y388951D01*
X551715Y387215D01*
X553452Y386055D01*
X554240Y385898D01*
Y379245D01*
X553607Y379119D01*
X551870Y377959D01*
X550710Y376223D01*
X550302Y374174D01*
Y365674D01*
X550710Y363626D01*
X551870Y361889D01*
X553607Y360729D01*
X555655Y360321D01*
X562155D01*
X564204Y360729D01*
X565940Y361889D01*
X566929Y363369D01*
X567891Y363437D01*
X568318Y363335D01*
X568759Y362270D01*
X569841Y360860D01*
X571251Y359778D01*
X572893Y359098D01*
X574655Y358866D01*
X576155D01*
Y369924D01*
Y380982D01*
X574655D01*
X572893Y380750D01*
X571251Y380070D01*
X569841Y378988D01*
X568759Y377578D01*
X568318Y376513D01*
X567891Y376411D01*
X566929Y376479D01*
X565940Y377959D01*
X564204Y379119D01*
X563416Y379276D01*
Y385929D01*
X564049Y386055D01*
X565785Y387215D01*
X566945Y388951D01*
X567353Y391000D01*
Y399500D01*
X566945Y401548D01*
X565785Y403285D01*
X564049Y404445D01*
X562000Y404853D01*
X555500D01*
X553452Y404445D01*
X551715Y403285D01*
X550555Y401548D01*
X550215Y399838D01*
X526250D01*
X524494Y399489D01*
X523006Y398494D01*
X520356Y395844D01*
X519361Y394356D01*
X519012Y392600D01*
Y384678D01*
X518803Y384366D01*
X518531Y383000D01*
Y363500D01*
X518803Y362134D01*
X519406Y361232D01*
X519319Y361102D01*
X519087Y359931D01*
Y352682D01*
X517966Y352083D01*
X517799Y352195D01*
X515750Y352603D01*
X515488D01*
Y361822D01*
X515697Y362134D01*
X515969Y363500D01*
Y383000D01*
X515697Y384366D01*
X514923Y385523D01*
X513766Y386297D01*
X512400Y386568D01*
X512320D01*
X506644Y392244D01*
X505156Y393239D01*
X503400Y393588D01*
X461900D01*
X461088Y394400D01*
Y398663D01*
X461798Y398805D01*
X463535Y399965D01*
X464695Y401702D01*
X465103Y403750D01*
Y412250D01*
X464695Y414298D01*
X463535Y416035D01*
X461798Y417195D01*
X459750Y417603D01*
X453250D01*
X451202Y417195D01*
X449465Y416035D01*
X448305Y414298D01*
X447897Y412250D01*
Y403750D01*
X448305Y401702D01*
X449465Y399965D01*
X451202Y398805D01*
X451912Y398663D01*
Y392500D01*
X452261Y390744D01*
X453256Y389256D01*
X456756Y385756D01*
X458244Y384761D01*
X460000Y384412D01*
X492117D01*
X493160Y383142D01*
X493131Y383000D01*
Y381088D01*
X363657D01*
X363377Y381270D01*
X363295Y381367D01*
X362750Y382358D01*
X363000Y383615D01*
Y383917D01*
X363059Y384212D01*
X363059Y385000D01*
X363059Y391135D01*
X364014Y391973D01*
X364250Y391942D01*
X365750D01*
Y403000D01*
Y414058D01*
X364250D01*
X364014Y414027D01*
X363059Y414865D01*
Y415808D01*
X362893Y416642D01*
X363614Y417912D01*
X387500D01*
X389256Y418261D01*
X390744Y419256D01*
X485900Y514412D01*
X495102D01*
X495728Y513142D01*
X495354Y512654D01*
X494674Y511012D01*
X494442Y509250D01*
Y506750D01*
X504500D01*
Y505000D01*
X506250D01*
Y493942D01*
X507750D01*
X509512Y494174D01*
X511154Y494854D01*
X512564Y495936D01*
X513646Y497346D01*
X514087Y498411D01*
X514514Y498513D01*
X515476Y498445D01*
X516465Y496965D01*
X518202Y495805D01*
X518912Y495663D01*
Y489337D01*
X518202Y489195D01*
X516465Y488035D01*
X515305Y486298D01*
X514897Y484250D01*
Y475750D01*
X515305Y473702D01*
X516465Y471965D01*
X518202Y470805D01*
X520250Y470397D01*
X526750D01*
X528798Y470805D01*
X530535Y471965D01*
X531695Y473702D01*
X532103Y475750D01*
Y484250D01*
X531695Y486298D01*
X530535Y488035D01*
X528798Y489195D01*
X528088Y489337D01*
Y495663D01*
X528798Y495805D01*
X530535Y496965D01*
X531695Y498702D01*
X532103Y500750D01*
Y509250D01*
X531695Y511298D01*
X530535Y513035D01*
X528798Y514195D01*
X528088Y514337D01*
Y517243D01*
X527739Y518998D01*
X526744Y520487D01*
X524987Y522244D01*
X523498Y523239D01*
X521743Y523588D01*
X484000D01*
X482244Y523239D01*
X480756Y522244D01*
X385600Y427088D01*
X363486D01*
X363000Y428261D01*
X364886Y430147D01*
X370250D01*
X372298Y430555D01*
X374035Y431715D01*
X375195Y433451D01*
X375536Y435162D01*
X387750D01*
X389506Y435511D01*
X390994Y436506D01*
X394244Y439756D01*
X395239Y441244D01*
X395588Y443000D01*
Y454810D01*
X395663Y454884D01*
X396500Y456906D01*
Y459094D01*
X395663Y461115D01*
X394115Y462663D01*
X392094Y463500D01*
X389906D01*
X387884Y462663D01*
X386337Y461115D01*
X385500Y459094D01*
Y456906D01*
X386337Y454884D01*
X386412Y454810D01*
Y444901D01*
X385849Y444338D01*
X375536D01*
X375195Y446048D01*
X374035Y447785D01*
X372298Y448945D01*
X370250Y449353D01*
X363750D01*
X361702Y448945D01*
X359965Y447785D01*
X358805Y446048D01*
X358397Y444000D01*
Y437247D01*
X357873Y436854D01*
X356603Y437489D01*
Y444000D01*
X356195Y446048D01*
X355035Y447785D01*
X353298Y448945D01*
X352463Y449112D01*
Y455438D01*
X353049Y455555D01*
X354785Y456715D01*
X355774Y458195D01*
X356736Y458263D01*
X357163Y458161D01*
X357604Y457096D01*
X358686Y455686D01*
X360096Y454604D01*
X361738Y453924D01*
X363500Y453692D01*
X365000D01*
Y464750D01*
Y475808D01*
X363500D01*
X361738Y475576D01*
X360096Y474896D01*
X358686Y473814D01*
X357604Y472404D01*
X357163Y471339D01*
X356736Y471237D01*
X355774Y471305D01*
X354785Y472785D01*
X353049Y473945D01*
X352463Y474062D01*
Y481685D01*
X352663Y481884D01*
X353500Y483906D01*
Y486094D01*
X352663Y488116D01*
X351115Y489663D01*
X349094Y490500D01*
X346906D01*
X344884Y489663D01*
X343337Y488116D01*
X342500Y486094D01*
Y483906D01*
X343287Y482006D01*
Y474112D01*
X342452Y473945D01*
X340715Y472785D01*
X339555Y471048D01*
X339204Y469285D01*
X330869D01*
Y469500D01*
X330597Y470866D01*
X329823Y472023D01*
X328666Y472797D01*
X327300Y473069D01*
X324300D01*
X322934Y472797D01*
X321777Y472023D01*
X321003Y470866D01*
X320731Y469500D01*
Y450000D01*
X321003Y448634D01*
X321777Y447477D01*
X322934Y446703D01*
X324300Y446431D01*
X327300D01*
X328666Y446703D01*
X329823Y447477D01*
X330597Y448634D01*
X330869Y450000D01*
Y460109D01*
X339225D01*
X339555Y458451D01*
X340715Y456715D01*
X342452Y455555D01*
X343287Y455388D01*
Y449062D01*
X342702Y448945D01*
X340965Y447785D01*
X339805Y446048D01*
X339397Y444000D01*
Y435500D01*
X339724Y433858D01*
X338970Y432588D01*
X270348D01*
X268103Y434833D01*
Y441250D01*
X267695Y443298D01*
X266535Y445035D01*
X264799Y446195D01*
X264088Y446337D01*
Y452663D01*
X264798Y452805D01*
X266535Y453965D01*
X267315Y455132D01*
X268663Y454864D01*
X268761Y454373D01*
X269756Y452885D01*
X281885Y440756D01*
X283373Y439761D01*
X285129Y439412D01*
X299243D01*
X300998Y439761D01*
X302487Y440756D01*
X303482Y442244D01*
X303831Y444000D01*
Y447081D01*
X304423Y447477D01*
X305197Y448634D01*
X305469Y450000D01*
Y455162D01*
X308031D01*
Y450000D01*
X308303Y448634D01*
X309077Y447477D01*
X310234Y446703D01*
X311600Y446431D01*
X314600D01*
X315966Y446703D01*
X317123Y447477D01*
X317897Y448634D01*
X318169Y450000D01*
Y469500D01*
X317897Y470866D01*
X317123Y472023D01*
X315966Y472797D01*
X314600Y473069D01*
X311600D01*
X310234Y472797D01*
X309077Y472023D01*
X308303Y470866D01*
X308031Y469500D01*
Y464338D01*
X305469D01*
Y469500D01*
X305197Y470866D01*
X304423Y472023D01*
X303266Y472797D01*
X301900Y473069D01*
X298900D01*
X298059Y473759D01*
Y478101D01*
X298019Y478302D01*
X298032Y478506D01*
X297903Y478882D01*
X297826Y479271D01*
X297712Y479442D01*
X297646Y479636D01*
X297383Y479933D01*
X297163Y480263D01*
X296992Y480377D01*
X296857Y480531D01*
X296498Y480805D01*
X296535Y481965D01*
X297524Y483445D01*
X298486Y483513D01*
X298913Y483411D01*
X299354Y482346D01*
X300436Y480936D01*
X301846Y479854D01*
X303488Y479174D01*
X305250Y478942D01*
X306750D01*
Y490000D01*
X308500D01*
D01*
X306750D01*
Y501058D01*
X305250D01*
X303488Y500826D01*
X301846Y500146D01*
X300436Y499064D01*
X299354Y497654D01*
X298913Y496589D01*
X298486Y496487D01*
X297524Y496555D01*
X296535Y498035D01*
X296498Y499195D01*
X296857Y499469D01*
X296992Y499623D01*
X297163Y499737D01*
X297383Y500067D01*
X297646Y500364D01*
X297712Y500558D01*
X297826Y500729D01*
X297903Y501118D01*
X298032Y501494D01*
X298019Y501698D01*
X298059Y501899D01*
Y515000D01*
X298059Y515000D01*
Y515002D01*
X298039Y515098D01*
X298052Y515196D01*
X297978Y516370D01*
X297849Y516854D01*
X297751Y517346D01*
X297065Y519003D01*
X296402Y519995D01*
X295375Y521021D01*
X295077Y521221D01*
X294813Y521465D01*
X294585Y521549D01*
X294383Y521684D01*
X294031Y521755D01*
X293694Y521879D01*
X293451Y521870D01*
X293212Y521917D01*
X292860Y521847D01*
X292502Y521834D01*
X291414Y521574D01*
X290593Y521846D01*
X290014Y522268D01*
X289663Y523116D01*
X288116Y524663D01*
X286094Y525500D01*
D02*
G37*
G36*
X257750Y524058D02*
X256250D01*
X254488Y523826D01*
X252846Y523146D01*
X251436Y522064D01*
X250354Y520654D01*
X249913Y519589D01*
X249486Y519487D01*
X248524Y519555D01*
X247535Y521035D01*
X245798Y522195D01*
X243750Y522603D01*
X237250D01*
X235202Y522195D01*
X233465Y521035D01*
X232305Y519298D01*
X231897Y517250D01*
Y508750D01*
X232305Y506702D01*
X233465Y504965D01*
X235202Y503805D01*
X235912Y503663D01*
Y496587D01*
X235202Y496445D01*
X233465Y495285D01*
X232305Y493548D01*
X231915Y491588D01*
X224000D01*
X222244Y491239D01*
X220756Y490244D01*
X195100Y464588D01*
X181690D01*
X181616Y464663D01*
X179594Y465500D01*
X177406D01*
X175385Y464663D01*
X175310Y464588D01*
X161989D01*
X160995Y465000D01*
X159005D01*
X157168Y464239D01*
X155761Y462832D01*
X155000Y460995D01*
Y459005D01*
X155761Y457168D01*
X157168Y455761D01*
X159005Y455000D01*
X160995D01*
X161989Y455412D01*
X175310D01*
X175385Y455337D01*
X177406Y454500D01*
X179594D01*
X181616Y455337D01*
X181690Y455412D01*
X197000D01*
X198756Y455761D01*
X200244Y456756D01*
X225900Y482412D01*
X232014D01*
X232305Y480951D01*
X233465Y479215D01*
X235202Y478055D01*
X237250Y477647D01*
X243750D01*
X245798Y478055D01*
X247535Y479215D01*
X248695Y480951D01*
X249103Y483000D01*
Y491500D01*
X248695Y493548D01*
X247535Y495285D01*
X245798Y496445D01*
X245088Y496587D01*
Y503663D01*
X245798Y503805D01*
X247535Y504965D01*
X248524Y506445D01*
X249486Y506513D01*
X249913Y506411D01*
X250354Y505346D01*
X251436Y503936D01*
X252846Y502854D01*
X254488Y502174D01*
X256250Y501942D01*
X257750D01*
Y513000D01*
Y524058D01*
D02*
G37*
G36*
X655750Y523778D02*
Y518750D01*
X660778D01*
X660523Y519702D01*
X659601Y521298D01*
X658298Y522601D01*
X656702Y523523D01*
X655750Y523778D01*
D02*
G37*
G36*
X652250D02*
X651298Y523523D01*
X649702Y522601D01*
X648399Y521298D01*
X647477Y519702D01*
X647222Y518750D01*
X652250D01*
Y523778D01*
D02*
G37*
G36*
X262750Y524058D02*
X261250D01*
Y514750D01*
X269558D01*
Y517250D01*
X269326Y519012D01*
X268646Y520654D01*
X267564Y522064D01*
X266154Y523146D01*
X264512Y523826D01*
X262750Y524058D01*
D02*
G37*
G36*
X660778Y515250D02*
X655750D01*
Y510222D01*
X656702Y510477D01*
X658298Y511399D01*
X659601Y512702D01*
X660523Y514298D01*
X660778Y515250D01*
D02*
G37*
G36*
X652250D02*
X647222D01*
X647477Y514298D01*
X648399Y512702D01*
X649702Y511399D01*
X651298Y510477D01*
X652250Y510222D01*
Y515250D01*
D02*
G37*
G36*
X961724Y537500D02*
X958276D01*
X954895Y536828D01*
X951711Y535508D01*
X948844Y533593D01*
X946407Y531156D01*
X944492Y528289D01*
X943173Y525105D01*
X942500Y521724D01*
Y518276D01*
X943173Y514895D01*
X944492Y511711D01*
X946407Y508844D01*
X948844Y506407D01*
X951711Y504492D01*
X954895Y503172D01*
X958276Y502500D01*
X961724D01*
X965105Y503172D01*
X968289Y504492D01*
X971156Y506407D01*
X973593Y508844D01*
X975508Y511711D01*
X976827Y514895D01*
X977500Y518276D01*
Y521724D01*
X976827Y525105D01*
X975508Y528289D01*
X973593Y531156D01*
X971156Y533593D01*
X968289Y535508D01*
X965105Y536828D01*
X961724Y537500D01*
D02*
G37*
G36*
X31724D02*
X28276D01*
X24895Y536828D01*
X21711Y535508D01*
X18844Y533593D01*
X16407Y531156D01*
X14492Y528289D01*
X13173Y525105D01*
X12500Y521724D01*
Y518276D01*
X13173Y514895D01*
X14492Y511711D01*
X16407Y508844D01*
X18844Y506407D01*
X21711Y504492D01*
X24895Y503172D01*
X28276Y502500D01*
X31724D01*
X35105Y503172D01*
X38289Y504492D01*
X41156Y506407D01*
X43593Y508844D01*
X45508Y511711D01*
X46828Y514895D01*
X47500Y518276D01*
Y521724D01*
X46828Y525105D01*
X45508Y528289D01*
X43593Y531156D01*
X41156Y533593D01*
X38289Y535508D01*
X35105Y536828D01*
X31724Y537500D01*
D02*
G37*
G36*
X269558Y511250D02*
X261250D01*
Y501942D01*
X262750D01*
X264512Y502174D01*
X266154Y502854D01*
X267564Y503936D01*
X268646Y505346D01*
X269326Y506988D01*
X269558Y508750D01*
Y511250D01*
D02*
G37*
G36*
X502750Y503250D02*
X494442D01*
Y500750D01*
X494674Y498988D01*
X495354Y497346D01*
X496436Y495936D01*
X497846Y494854D01*
X499488Y494174D01*
X501250Y493942D01*
X502750D01*
Y503250D01*
D02*
G37*
G36*
X311750Y501058D02*
X310250D01*
Y491750D01*
X318558D01*
Y494250D01*
X318326Y496012D01*
X317646Y497654D01*
X316564Y499064D01*
X315154Y500146D01*
X313512Y500826D01*
X311750Y501058D01*
D02*
G37*
G36*
X318558Y488250D02*
X310250D01*
Y478942D01*
X311750D01*
X313512Y479174D01*
X315154Y479854D01*
X316564Y480936D01*
X317646Y482346D01*
X318326Y483988D01*
X318558Y485750D01*
Y488250D01*
D02*
G37*
G36*
X507750Y489603D02*
X501250D01*
X499202Y489195D01*
X497465Y488035D01*
X496305Y486298D01*
X495897Y484250D01*
Y475750D01*
X496305Y473702D01*
X497465Y471965D01*
X499202Y470805D01*
X500037Y470639D01*
Y468104D01*
X499955Y468000D01*
X498767Y467459D01*
X498337Y467774D01*
X498273Y467789D01*
X498218Y467826D01*
X497695Y467930D01*
X497177Y468056D01*
X497112Y468046D01*
X497047Y468059D01*
X485000D01*
X485000Y468059D01*
X483523D01*
X483227Y468000D01*
X482926D01*
X480028Y467424D01*
X479750Y467308D01*
X479454Y467249D01*
X476724Y466119D01*
X476474Y465951D01*
X476195Y465836D01*
X473739Y464194D01*
X473526Y463982D01*
X473275Y463814D01*
X471186Y461725D01*
X471018Y461474D01*
X470806Y461261D01*
X469164Y458805D01*
X469049Y458526D01*
X468881Y458276D01*
X467751Y455546D01*
X467692Y455250D01*
X467576Y454972D01*
X467000Y452074D01*
Y451773D01*
X466941Y451477D01*
Y444899D01*
X466981Y444698D01*
X466968Y444494D01*
X467097Y444118D01*
X467174Y443729D01*
X467288Y443558D01*
X467354Y443364D01*
X467617Y443067D01*
X467837Y442737D01*
X468008Y442623D01*
X468143Y442469D01*
X468502Y442195D01*
X468465Y441035D01*
X467476Y439555D01*
X466514Y439487D01*
X466087Y439589D01*
X465646Y440654D01*
X464564Y442064D01*
X463154Y443146D01*
X461512Y443826D01*
X459750Y444058D01*
X458250D01*
Y433000D01*
Y421942D01*
X459750D01*
X461512Y422174D01*
X463154Y422854D01*
X464564Y423936D01*
X465646Y425346D01*
X466087Y426411D01*
X466514Y426513D01*
X467476Y426445D01*
X468465Y424965D01*
X468485Y424325D01*
X468256Y423577D01*
X468069Y423365D01*
X467742Y423060D01*
X467678Y422920D01*
X467576Y422805D01*
X467431Y422382D01*
X467245Y421975D01*
X467240Y421821D01*
X467190Y421676D01*
X467218Y421229D01*
X467202Y420782D01*
X467407Y419512D01*
X467532Y419179D01*
X467601Y418829D01*
X467738Y418624D01*
X467824Y418394D01*
X468066Y418133D01*
X468264Y417837D01*
X468469Y417700D01*
X468546Y417617D01*
X468646Y417371D01*
X468702Y416513D01*
X468581Y416112D01*
X468465Y416035D01*
X467305Y414298D01*
X466897Y412250D01*
Y403750D01*
X467305Y401702D01*
X468465Y399965D01*
X470201Y398805D01*
X472250Y398397D01*
X478750D01*
X480798Y398805D01*
X482535Y399965D01*
X483695Y401702D01*
X484036Y403412D01*
X514600D01*
X516356Y403761D01*
X517844Y404756D01*
X525020Y411931D01*
X525100D01*
X526466Y412203D01*
X527623Y412977D01*
X528397Y414134D01*
X528669Y415500D01*
Y435000D01*
X528397Y436366D01*
X528263Y436566D01*
Y446648D01*
X529048Y446805D01*
X530785Y447965D01*
X531945Y449701D01*
X532353Y451750D01*
Y460250D01*
X531945Y462298D01*
X530785Y464035D01*
X529048Y465195D01*
X527000Y465603D01*
X520500D01*
X518452Y465195D01*
X516715Y464035D01*
X515555Y462298D01*
X515147Y460250D01*
Y452600D01*
X513877Y451991D01*
X513353Y452411D01*
Y460250D01*
X512945Y462298D01*
X511785Y464035D01*
X510048Y465195D01*
X509213Y465362D01*
Y470688D01*
X509798Y470805D01*
X511535Y471965D01*
X512695Y473702D01*
X513103Y475750D01*
Y484250D01*
X512695Y486298D01*
X511535Y488035D01*
X509798Y489195D01*
X507750Y489603D01*
D02*
G37*
G36*
X370000Y475808D02*
X368500D01*
Y466500D01*
X376808D01*
Y469000D01*
X376576Y470762D01*
X375896Y472404D01*
X374814Y473814D01*
X373404Y474896D01*
X371762Y475576D01*
X370000Y475808D01*
D02*
G37*
G36*
X238750Y473058D02*
X237250D01*
X235488Y472826D01*
X233846Y472146D01*
X232436Y471064D01*
X231354Y469654D01*
X230674Y468012D01*
X230442Y466250D01*
Y463750D01*
X238750D01*
Y473058D01*
D02*
G37*
G36*
X376808Y463000D02*
X368500D01*
Y453692D01*
X370000D01*
X371762Y453924D01*
X373404Y454604D01*
X374814Y455686D01*
X375896Y457096D01*
X376576Y458738D01*
X376808Y460500D01*
Y463000D01*
D02*
G37*
G36*
X927600Y491809D02*
X911600D01*
X910430Y491576D01*
X909437Y490913D01*
X908774Y489921D01*
X908541Y488750D01*
Y464250D01*
X908774Y463079D01*
X909437Y462087D01*
X910430Y461424D01*
X911600Y461191D01*
X927600D01*
X928771Y461424D01*
X929763Y462087D01*
X930426Y463079D01*
X930659Y464250D01*
Y466343D01*
X931929Y466469D01*
X932286Y464673D01*
X933534Y461661D01*
X935345Y458950D01*
X937650Y456645D01*
X940361Y454834D01*
X943372Y453586D01*
X946570Y452950D01*
X949830D01*
X953027Y453586D01*
X956039Y454834D01*
X958750Y456645D01*
X961055Y458950D01*
X962866Y461661D01*
X964114Y464673D01*
X964750Y467870D01*
Y471130D01*
X964114Y474327D01*
X962866Y477339D01*
X961055Y480050D01*
X958750Y482355D01*
X956039Y484166D01*
X953027Y485414D01*
X949830Y486050D01*
X946570D01*
X943372Y485414D01*
X940361Y484166D01*
X937650Y482355D01*
X935345Y480050D01*
X933534Y477339D01*
X932286Y474327D01*
X931929Y472532D01*
X930659Y472657D01*
Y488750D01*
X930426Y489921D01*
X929763Y490913D01*
X928771Y491576D01*
X927600Y491809D01*
D02*
G37*
G36*
X576250Y457058D02*
X574750D01*
X572988Y456826D01*
X571346Y456146D01*
X569936Y455064D01*
X568854Y453654D01*
X568413Y452589D01*
X567986Y452487D01*
X567024Y452555D01*
X566035Y454035D01*
X564298Y455195D01*
X562250Y455603D01*
X555750D01*
X553702Y455195D01*
X551965Y454035D01*
X550805Y452298D01*
X550397Y450250D01*
Y441750D01*
X550805Y439702D01*
X551965Y437965D01*
X553702Y436805D01*
X554287Y436688D01*
Y429861D01*
X553452Y429695D01*
X551715Y428535D01*
X550555Y426798D01*
X550215Y425088D01*
X541369D01*
Y435000D01*
X541097Y436366D01*
X540323Y437523D01*
X539166Y438297D01*
X537800Y438568D01*
X534800D01*
X533434Y438297D01*
X532277Y437523D01*
X531503Y436366D01*
X531231Y435000D01*
Y415500D01*
X531503Y414134D01*
X532277Y412977D01*
X533434Y412203D01*
X534800Y411931D01*
X537800D01*
X539166Y412203D01*
X540323Y412977D01*
X541097Y414134D01*
X541369Y415500D01*
Y415912D01*
X550215D01*
X550555Y414202D01*
X551715Y412465D01*
X553452Y411305D01*
X555500Y410897D01*
X562000D01*
X564049Y411305D01*
X565785Y412465D01*
X566945Y414202D01*
X567353Y416250D01*
Y424750D01*
X566945Y426798D01*
X565785Y428535D01*
X564049Y429695D01*
X563463Y429812D01*
Y436638D01*
X564298Y436805D01*
X566035Y437965D01*
X567024Y439445D01*
X567986Y439513D01*
X568413Y439411D01*
X568854Y438346D01*
X569936Y436936D01*
X571346Y435854D01*
X572988Y435174D01*
X574750Y434942D01*
X576250D01*
Y446000D01*
Y457058D01*
D02*
G37*
G36*
X238750Y460250D02*
X230442D01*
Y457750D01*
X230674Y455988D01*
X231354Y454346D01*
X232436Y452936D01*
X233846Y451854D01*
X235488Y451174D01*
X237250Y450942D01*
X238750D01*
Y460250D01*
D02*
G37*
G36*
X876750Y459023D02*
Y449750D01*
X886023D01*
X885343Y452284D01*
X883882Y454815D01*
X881816Y456882D01*
X879284Y458344D01*
X876750Y459023D01*
D02*
G37*
G36*
X873250D02*
X870716Y458344D01*
X868184Y456882D01*
X866118Y454815D01*
X864657Y452284D01*
X863977Y449750D01*
X873250D01*
Y459023D01*
D02*
G37*
G36*
X581250Y457058D02*
X579750D01*
Y447750D01*
X588058D01*
Y450250D01*
X587826Y452012D01*
X587146Y453654D01*
X586064Y455064D01*
X584654Y456146D01*
X583012Y456826D01*
X581250Y457058D01*
D02*
G37*
G36*
X887000Y470588D02*
X696000D01*
X694244Y470239D01*
X692756Y469244D01*
X651099Y427588D01*
X624190D01*
X624115Y427663D01*
X622094Y428500D01*
X619906D01*
X617884Y427663D01*
X617810Y427588D01*
X585418D01*
X584785Y428535D01*
X583049Y429695D01*
X581000Y430103D01*
X574500D01*
X572452Y429695D01*
X570715Y428535D01*
X569555Y426798D01*
X569147Y424750D01*
Y416250D01*
X569555Y414202D01*
X570715Y412465D01*
X572452Y411305D01*
X574500Y410897D01*
X581000D01*
X583049Y411305D01*
X584785Y412465D01*
X585945Y414202D01*
X586353Y416250D01*
Y418412D01*
X617810D01*
X617884Y418337D01*
X619906Y417500D01*
X622094D01*
X624115Y418337D01*
X624190Y418412D01*
X653000D01*
X654756Y418761D01*
X656244Y419756D01*
X697900Y461412D01*
X885099D01*
X895790Y450721D01*
X895400Y449264D01*
Y446736D01*
X896054Y444295D01*
X897318Y442105D01*
X899106Y440318D01*
X901294Y439054D01*
X903736Y438400D01*
X906264D01*
X908705Y439054D01*
X910894Y440318D01*
X912682Y442105D01*
X913946Y444295D01*
X914600Y446736D01*
Y449264D01*
X913946Y451705D01*
X912682Y453895D01*
X910894Y455682D01*
X908705Y456946D01*
X906264Y457600D01*
X903736D01*
X902279Y457210D01*
X890244Y469244D01*
X888756Y470239D01*
X887000Y470588D01*
D02*
G37*
G36*
X588058Y444250D02*
X579750D01*
Y434942D01*
X581250D01*
X583012Y435174D01*
X584654Y435854D01*
X586064Y436936D01*
X587146Y438346D01*
X587826Y439988D01*
X588058Y441750D01*
Y444250D01*
D02*
G37*
G36*
X454750Y444058D02*
X453250D01*
X451488Y443826D01*
X449846Y443146D01*
X448436Y442064D01*
X447354Y440654D01*
X446674Y439012D01*
X446442Y437250D01*
Y434750D01*
X454750D01*
Y444058D01*
D02*
G37*
G36*
X128043Y439744D02*
X119735D01*
Y430436D01*
X121235D01*
X122997Y430668D01*
X124639Y431348D01*
X126049Y432430D01*
X127131Y433840D01*
X127811Y435482D01*
X128043Y437244D01*
Y439744D01*
D02*
G37*
G36*
X137506Y459102D02*
X77494D01*
X75348Y458675D01*
X73529Y457459D01*
X65035Y448965D01*
X63819Y447146D01*
X63392Y445000D01*
Y440406D01*
X61715Y439285D01*
X60555Y437548D01*
X60147Y435500D01*
Y427000D01*
X60555Y424952D01*
X61715Y423215D01*
X63451Y422055D01*
X65500Y421647D01*
X72000D01*
X74048Y422055D01*
X75785Y423215D01*
X76945Y424952D01*
X77353Y427000D01*
Y435500D01*
X76945Y437548D01*
X75785Y439285D01*
X74608Y440072D01*
Y442677D01*
X79817Y447886D01*
X89514D01*
X90556Y446616D01*
X90382Y445744D01*
Y437244D01*
X90790Y435196D01*
X91950Y433459D01*
X93378Y432505D01*
Y423069D01*
X90250D01*
X88884Y422797D01*
X87727Y422023D01*
X86953Y420866D01*
X86681Y419500D01*
Y416500D01*
X86953Y415134D01*
X87727Y413977D01*
X88884Y413203D01*
X90250Y412931D01*
X109250D01*
X110616Y413203D01*
X111773Y413977D01*
X112547Y415134D01*
X112819Y416500D01*
Y419500D01*
X112547Y420866D01*
X111773Y422023D01*
X110616Y422797D01*
X109250Y423069D01*
X104593D01*
Y432505D01*
X106020Y433459D01*
X107009Y434939D01*
X107971Y435007D01*
X108398Y434905D01*
X108839Y433840D01*
X109921Y432430D01*
X111331Y431348D01*
X112973Y430668D01*
X114735Y430436D01*
X116235D01*
Y441494D01*
X117985D01*
Y443244D01*
X128043D01*
Y445744D01*
X127929Y446616D01*
X128947Y447886D01*
X135183D01*
X146142Y436927D01*
Y423069D01*
X142250D01*
X140884Y422797D01*
X140858Y422779D01*
X139588Y423458D01*
Y432245D01*
X140000Y433240D01*
Y435229D01*
X139239Y437066D01*
X137832Y438473D01*
X135995Y439234D01*
X134005D01*
X132168Y438473D01*
X130761Y437066D01*
X130000Y435229D01*
Y433240D01*
X130412Y432245D01*
Y379848D01*
X130168Y379652D01*
X128465Y379914D01*
X128244Y380244D01*
X125344Y383144D01*
X123856Y384139D01*
X122100Y384488D01*
X111032D01*
X110250Y384906D01*
X110363Y386223D01*
X111201Y386390D01*
X112855Y387495D01*
X113960Y389149D01*
X114298Y390850D01*
X99750D01*
Y394350D01*
X114298D01*
X113960Y396051D01*
X112855Y397705D01*
X111201Y398810D01*
X109907Y399067D01*
Y400362D01*
X110616Y400503D01*
X111773Y401277D01*
X112547Y402434D01*
X112819Y403800D01*
Y406800D01*
X112547Y408166D01*
X111773Y409323D01*
X110616Y410097D01*
X109250Y410368D01*
X90250D01*
X88884Y410097D01*
X87727Y409323D01*
X86953Y408166D01*
X86681Y406800D01*
Y403800D01*
X86953Y402434D01*
X87727Y401277D01*
X88884Y400503D01*
X89593Y400362D01*
Y399067D01*
X88299Y398810D01*
X86645Y397705D01*
X85540Y396051D01*
X85152Y394100D01*
Y393059D01*
X40000Y393059D01*
X39015Y393059D01*
X38720Y393000D01*
X38418D01*
X36486Y392616D01*
X36208Y392500D01*
X35912Y392442D01*
X34642Y391915D01*
X33923Y392992D01*
X40339Y399409D01*
X40516Y399451D01*
X41903Y399180D01*
X42715Y397965D01*
X44452Y396805D01*
X46500Y396397D01*
X53000D01*
X55048Y396805D01*
X56785Y397965D01*
X57774Y399445D01*
X58736Y399513D01*
X59163Y399411D01*
X59604Y398346D01*
X60686Y396936D01*
X62096Y395854D01*
X63738Y395174D01*
X65500Y394942D01*
X67000D01*
Y406000D01*
Y417058D01*
X65500D01*
X63738Y416826D01*
X62096Y416146D01*
X60686Y415064D01*
X59604Y413654D01*
X59163Y412589D01*
X58736Y412487D01*
X57774Y412555D01*
X56785Y414035D01*
X55358Y414989D01*
Y422261D01*
X56785Y423215D01*
X57945Y424952D01*
X58353Y427000D01*
Y435500D01*
X57945Y437548D01*
X56785Y439285D01*
X55048Y440445D01*
X53000Y440853D01*
X46500D01*
X44451Y440445D01*
X42715Y439285D01*
X41555Y437548D01*
X41147Y435500D01*
Y427000D01*
X41555Y424952D01*
X42715Y423215D01*
X44142Y422261D01*
Y414989D01*
X42715Y414035D01*
X41555Y412298D01*
X41353Y411287D01*
X38679D01*
X36533Y410860D01*
X34714Y409644D01*
X22874Y397805D01*
X22567Y397346D01*
X22177Y396955D01*
X21965Y396445D01*
X21659Y395985D01*
X21551Y395444D01*
X21339Y394934D01*
Y394381D01*
X21232Y393839D01*
X21312Y393436D01*
Y374080D01*
X21739Y371934D01*
X22954Y370115D01*
X23035Y370035D01*
X24854Y368819D01*
X26941Y368404D01*
Y358863D01*
X27174Y357692D01*
X28044Y355591D01*
X28707Y354599D01*
X30316Y352991D01*
X31308Y352328D01*
X32414Y351870D01*
X33584Y351637D01*
X34117Y351743D01*
X34755Y351870D01*
X35747Y352533D01*
X36348Y353133D01*
X36734Y353503D01*
X38141Y353346D01*
X38695Y352976D01*
X38763Y352014D01*
X38661Y351587D01*
X37596Y351146D01*
X36186Y350064D01*
X35104Y348654D01*
X34424Y347012D01*
X34192Y345250D01*
Y343750D01*
X56308D01*
Y345250D01*
X56076Y347012D01*
X55396Y348654D01*
X54314Y350064D01*
X52904Y351146D01*
X52606Y351269D01*
X52432Y352716D01*
X52777Y352969D01*
X54114Y352714D01*
X54201Y352584D01*
X54415Y352371D01*
X54582Y352120D01*
X54833Y351953D01*
X55045Y351740D01*
X55324Y351625D01*
X55574Y351457D01*
X55870Y351399D01*
X56148Y351283D01*
X56449D01*
X56745Y351224D01*
X59005D01*
X59301Y351283D01*
X59602D01*
X59880Y351399D01*
X60176Y351457D01*
X60426Y351625D01*
X60705Y351740D01*
X60918Y351953D01*
X61168Y352120D01*
X61336Y352371D01*
X61549Y352584D01*
X61636Y352714D01*
X62973Y352969D01*
X63318Y352716D01*
X63144Y351269D01*
X62846Y351146D01*
X61436Y350064D01*
X60354Y348654D01*
X59674Y347012D01*
X59442Y345250D01*
Y343750D01*
X81558D01*
Y345250D01*
X81326Y347012D01*
X80646Y348654D01*
X79564Y350064D01*
X78154Y351146D01*
X77856Y351269D01*
X77682Y352716D01*
X78027Y352969D01*
X79364Y352714D01*
X79451Y352584D01*
X79665Y352371D01*
X79832Y352120D01*
X80082Y351953D01*
X80295Y351740D01*
X80574Y351625D01*
X80824Y351457D01*
X81120Y351399D01*
X81398Y351283D01*
X81699D01*
X81995Y351224D01*
X86681D01*
X87163Y351320D01*
X87727Y350477D01*
X88884Y349703D01*
X90250Y349431D01*
X109250D01*
X110616Y349703D01*
X111773Y350477D01*
X112547Y351634D01*
X112819Y353000D01*
Y356000D01*
X112547Y357366D01*
X111773Y358523D01*
X110616Y359297D01*
X109250Y359568D01*
X92652D01*
Y360733D01*
X92626Y360861D01*
X92858Y361538D01*
X93544Y362076D01*
X93668Y362131D01*
X109250D01*
X110616Y362403D01*
X111773Y363177D01*
X112547Y364334D01*
X112819Y365700D01*
Y368700D01*
X112547Y370066D01*
X111773Y371223D01*
X110616Y371997D01*
X109250Y372268D01*
X93668D01*
X93544Y372323D01*
X92858Y372862D01*
X92626Y373539D01*
X92652Y373667D01*
Y374831D01*
X109250D01*
X110616Y375103D01*
X110928Y375312D01*
X120200D01*
X120412Y375099D01*
Y349000D01*
X120596Y348074D01*
X120564Y348007D01*
X119496Y347096D01*
X117929Y347408D01*
X99750D01*
X97604Y346981D01*
X97436Y346869D01*
X90250D01*
X88884Y346597D01*
X87727Y345823D01*
X86953Y344666D01*
X86681Y343300D01*
Y340300D01*
X86953Y338934D01*
X87727Y337777D01*
X88884Y337003D01*
X90250Y336731D01*
X97436D01*
X97604Y336619D01*
X99750Y336192D01*
X115251D01*
Y331142D01*
X115464Y330070D01*
X114658Y329088D01*
X85500D01*
X83744Y328739D01*
X82256Y327744D01*
X68756Y314244D01*
X67761Y312756D01*
X67412Y311000D01*
Y284519D01*
X62500D01*
X61134Y284247D01*
X59977Y283473D01*
X59719Y283088D01*
X53500D01*
X51744Y282739D01*
X50256Y281744D01*
X46756Y278244D01*
X45761Y276756D01*
X45412Y275000D01*
Y270788D01*
X33060D01*
Y271800D01*
X32820Y273627D01*
X32114Y275330D01*
X30992Y276793D01*
X29530Y277915D01*
X27827Y278620D01*
X26000Y278860D01*
X16000D01*
X14173Y278620D01*
X12470Y277915D01*
X11007Y276793D01*
X9886Y275330D01*
X9180Y273627D01*
X8940Y271800D01*
Y261800D01*
X9180Y259973D01*
X9886Y258270D01*
X11007Y256807D01*
X12470Y255686D01*
X14173Y254980D01*
X16000Y254740D01*
X26000D01*
X27827Y254980D01*
X29530Y255686D01*
X30992Y256807D01*
X32114Y258270D01*
X32820Y259973D01*
X33036Y261612D01*
X71655D01*
X72005Y261681D01*
X81500D01*
X82866Y261953D01*
X84023Y262727D01*
X84797Y263884D01*
X85069Y265250D01*
Y268250D01*
X84797Y269616D01*
X84023Y270773D01*
X82866Y271547D01*
X81500Y271819D01*
X62500D01*
X61134Y271547D01*
X59999Y270788D01*
X54588D01*
Y273099D01*
X55400Y273912D01*
X72000D01*
X73756Y274261D01*
X73936Y274381D01*
X81500D01*
X82866Y274653D01*
X84023Y275427D01*
X84797Y276584D01*
X85069Y277950D01*
Y280950D01*
X84797Y282316D01*
X84023Y283473D01*
X82866Y284247D01*
X81500Y284519D01*
X76588D01*
Y309100D01*
X87401Y319912D01*
X113605D01*
X114454Y318642D01*
X114174Y317966D01*
X113941Y316796D01*
Y314377D01*
X112885Y313672D01*
X112512Y313826D01*
X110750Y314058D01*
X109250D01*
Y303000D01*
Y291942D01*
X110750D01*
X112512Y292174D01*
X112885Y292328D01*
X113941Y291623D01*
Y286048D01*
X114174Y284877D01*
X113983Y284416D01*
X113134Y284247D01*
X111977Y283473D01*
X111203Y282316D01*
X110931Y280950D01*
Y277950D01*
X111203Y276584D01*
X111977Y275427D01*
X113134Y274653D01*
X114500Y274381D01*
X133500D01*
X134065Y273382D01*
X134188Y272977D01*
X133853Y272412D01*
X133212Y271819D01*
X114500D01*
X113134Y271547D01*
X111977Y270773D01*
X111203Y269616D01*
X110931Y268250D01*
Y265250D01*
X111203Y263884D01*
X111977Y262727D01*
X113134Y261953D01*
X114500Y261681D01*
X133500D01*
X134866Y261953D01*
X136023Y262727D01*
X136797Y263884D01*
X137069Y265250D01*
Y268250D01*
X136973Y268731D01*
X137046Y268950D01*
X137991Y269941D01*
X156000D01*
X156132Y269967D01*
X156265Y269953D01*
X157491Y270059D01*
X157654Y270107D01*
X157823D01*
X158638Y270269D01*
X158917Y270384D01*
X159212Y270443D01*
X160486Y270971D01*
X160737Y271138D01*
X161015Y271253D01*
X162162Y272019D01*
X162375Y272232D01*
X162625Y272400D01*
X163600Y273375D01*
X163768Y273625D01*
X163981Y273838D01*
X164747Y274985D01*
X164862Y275263D01*
X165029Y275514D01*
X165557Y276788D01*
X165616Y277083D01*
X165731Y277361D01*
X166000Y278714D01*
Y279015D01*
X166059Y279311D01*
X166059Y280000D01*
X166059Y313000D01*
X166059Y313000D01*
Y313001D01*
X166033Y313129D01*
X166048Y313259D01*
X165946Y314460D01*
X165898Y314626D01*
Y314798D01*
X165731Y315639D01*
X165616Y315917D01*
X165557Y316212D01*
X165029Y317486D01*
X164862Y317737D01*
X164747Y318015D01*
X164328Y318642D01*
X164970Y319912D01*
X179599D01*
X182409Y317102D01*
X181850Y315865D01*
X180168Y315168D01*
X178761Y313761D01*
X178000Y311924D01*
Y309934D01*
X178412Y308940D01*
Y303517D01*
X177256Y302744D01*
X176261Y301256D01*
X175912Y299500D01*
Y293500D01*
X176261Y291744D01*
X177256Y290256D01*
X178744Y289261D01*
X180500Y288912D01*
X185500D01*
X187256Y289261D01*
X188142Y289853D01*
X189412Y289174D01*
Y286826D01*
X188142Y286147D01*
X187256Y286739D01*
X185500Y287088D01*
X180500D01*
X178744Y286739D01*
X177256Y285744D01*
X176261Y284256D01*
X175912Y282500D01*
Y276500D01*
X176261Y274744D01*
X177256Y273256D01*
X178412Y272483D01*
Y260000D01*
X178761Y258244D01*
X179756Y256756D01*
X188653Y247858D01*
X188127Y246588D01*
X146989D01*
X145995Y247000D01*
X144005D01*
X142168Y246239D01*
X140761Y244832D01*
X140000Y242995D01*
Y241005D01*
X140761Y239168D01*
X142168Y237761D01*
X143918Y237036D01*
X143383Y235745D01*
Y233756D01*
X144144Y231918D01*
X145551Y230512D01*
X147388Y229750D01*
X149377D01*
X150372Y230162D01*
X186349D01*
X189391Y227120D01*
X189093Y225622D01*
X188168Y225239D01*
X186761Y223832D01*
X186349Y222838D01*
X162099Y198588D01*
X137124D01*
X136445Y199858D01*
X136797Y200384D01*
X137069Y201750D01*
Y204750D01*
X136797Y206116D01*
X136023Y207273D01*
X134866Y208047D01*
X133500Y208319D01*
X114500D01*
X113134Y208047D01*
X111977Y207273D01*
X111203Y206116D01*
X110931Y204750D01*
Y204517D01*
X109758Y204031D01*
X94595Y219194D01*
X93106Y220189D01*
X91350Y220538D01*
X83178D01*
X82866Y220747D01*
X81500Y221019D01*
X65420D01*
X64030Y222408D01*
X64517Y223581D01*
X81500D01*
X82866Y223853D01*
X84023Y224627D01*
X84797Y225784D01*
X85069Y227150D01*
Y230150D01*
X84797Y231516D01*
X84023Y232673D01*
X82866Y233447D01*
X81500Y233719D01*
X62500D01*
X61134Y233447D01*
X60822Y233238D01*
X53691D01*
X53282Y233157D01*
X41794Y244644D01*
X40306Y245639D01*
X38550Y245988D01*
X32194D01*
X32182Y246032D01*
X30602Y248768D01*
X28368Y251002D01*
X25632Y252582D01*
X22580Y253400D01*
X19420D01*
X16368Y252582D01*
X13632Y251002D01*
X11398Y248768D01*
X9818Y246032D01*
X9000Y242980D01*
Y239820D01*
X9818Y236768D01*
X11398Y234032D01*
X13632Y231798D01*
X16368Y230218D01*
X19420Y229400D01*
X22580D01*
X25632Y230218D01*
X28368Y231798D01*
X30602Y234032D01*
X32182Y236768D01*
X32194Y236812D01*
X36649D01*
X49251Y224210D01*
X54706Y218756D01*
X54706Y218756D01*
X58931Y214530D01*
Y214450D01*
X59203Y213084D01*
X59977Y211927D01*
X61134Y211153D01*
X61843Y211012D01*
Y209717D01*
X60549Y209460D01*
X58895Y208355D01*
X57790Y206701D01*
X57452Y205000D01*
X72000D01*
X86548D01*
X86210Y206701D01*
X85105Y208355D01*
X83451Y209460D01*
X82613Y209627D01*
X82500Y210944D01*
X83282Y211362D01*
X89450D01*
X110056Y190756D01*
X111545Y189761D01*
X113300Y189412D01*
X164000D01*
X165756Y189761D01*
X167244Y190756D01*
X192838Y216349D01*
X193832Y216761D01*
X195239Y218168D01*
X195622Y219093D01*
X197120Y219391D01*
X201970Y214541D01*
X201723Y213295D01*
X200955Y212978D01*
X199284Y211695D01*
X198002Y210024D01*
X197195Y208078D01*
X196921Y205990D01*
X196931Y205911D01*
Y186562D01*
X196515Y185940D01*
X196108Y183891D01*
Y175391D01*
X196515Y173343D01*
X197181Y172347D01*
Y161944D01*
X188846D01*
X188785Y162035D01*
X187048Y163195D01*
X185000Y163603D01*
X178500D01*
X176451Y163195D01*
X174715Y162035D01*
X173555Y160298D01*
X173147Y158250D01*
Y149750D01*
X173555Y147702D01*
X174715Y145965D01*
X176451Y144805D01*
X178500Y144397D01*
X185000D01*
X187048Y144805D01*
X188547Y145806D01*
X197654D01*
X197715Y145715D01*
X199452Y144555D01*
X201500Y144147D01*
X208000D01*
X210048Y144555D01*
X211785Y145715D01*
X212774Y147195D01*
X213736Y147263D01*
X214163Y147161D01*
X214604Y146096D01*
X215686Y144686D01*
X217096Y143604D01*
X218738Y142924D01*
X220500Y142692D01*
X222000D01*
Y153750D01*
Y164808D01*
X220500D01*
X218738Y164576D01*
X217096Y163896D01*
X215686Y162814D01*
X214604Y161404D01*
X214589Y161368D01*
X213319Y161621D01*
Y171676D01*
X214485Y171967D01*
X214589Y171955D01*
X215647Y170577D01*
X217057Y169495D01*
X218699Y168815D01*
X220461Y168583D01*
X221961D01*
Y179641D01*
X223711D01*
Y181391D01*
X234513D01*
X234942Y181569D01*
X247756Y168756D01*
X249244Y167761D01*
X251000Y167412D01*
X269816D01*
X270756Y166006D01*
X272244Y165011D01*
X274000Y164662D01*
X280000D01*
X281756Y165011D01*
X283244Y166006D01*
X284239Y167494D01*
X284588Y169250D01*
Y174250D01*
X284239Y176006D01*
X283244Y177494D01*
X281756Y178489D01*
X280000Y178838D01*
X274000D01*
X272244Y178489D01*
X270756Y177494D01*
X270150Y176588D01*
X252901D01*
X243500Y185989D01*
X243986Y187162D01*
X269983D01*
X270756Y186006D01*
X272244Y185011D01*
X274000Y184662D01*
X280000D01*
X281756Y185011D01*
X283244Y186006D01*
X284239Y187494D01*
X284588Y189250D01*
Y194250D01*
X284239Y196006D01*
X283244Y197494D01*
X281756Y198489D01*
X280000Y198838D01*
X274000D01*
X272244Y198489D01*
X270756Y197494D01*
X269983Y196338D01*
X240958D01*
X233154Y204142D01*
X233680Y205412D01*
X271966D01*
X272244Y205226D01*
X274000Y204877D01*
X280000D01*
X281756Y205226D01*
X283245Y206220D01*
X284239Y207709D01*
X284588Y209465D01*
Y214465D01*
X284239Y216221D01*
X283245Y217709D01*
X281756Y218704D01*
X280000Y219053D01*
X274000D01*
X272244Y218704D01*
X270756Y217709D01*
X269761Y216221D01*
X269437Y214588D01*
X234900D01*
X227500Y221989D01*
Y222094D01*
X226663Y224116D01*
X225116Y225663D01*
X223094Y226500D01*
X222989D01*
X210651Y238838D01*
X210239Y239832D01*
X208832Y241239D01*
X207838Y241651D01*
X187588Y261901D01*
Y271709D01*
X188142Y272041D01*
X189412Y271322D01*
Y268000D01*
X189761Y266244D01*
X190756Y264756D01*
X211756Y243756D01*
X213244Y242761D01*
X215000Y242412D01*
X230810D01*
X230884Y242337D01*
X232906Y241500D01*
X233011D01*
X245506Y229006D01*
X246994Y228011D01*
X248750Y227662D01*
X269983D01*
X270756Y226506D01*
X272244Y225511D01*
X274000Y225162D01*
X280000D01*
X281756Y225511D01*
X283244Y226506D01*
X284239Y227994D01*
X284588Y229750D01*
Y234750D01*
X284239Y236506D01*
X283244Y237994D01*
X281756Y238989D01*
X280000Y239338D01*
X275141D01*
X274823Y240608D01*
X274874Y240636D01*
X274970Y240753D01*
X275096Y240837D01*
X275346Y241211D01*
X275631Y241558D01*
X275675Y241703D01*
X275759Y241829D01*
X275847Y242270D01*
X275977Y242700D01*
X276103Y243970D01*
X276061Y244392D01*
X276060Y244419D01*
X276940Y245584D01*
X277115Y245662D01*
X279750D01*
X281506Y246011D01*
X282994Y247006D01*
X283989Y248494D01*
X284338Y250250D01*
Y253370D01*
X285529Y254206D01*
X286162Y253918D01*
Y250250D01*
X286511Y248494D01*
X287506Y247006D01*
X288994Y246011D01*
X289287Y245953D01*
Y238997D01*
X289244Y238989D01*
X287756Y237994D01*
X286761Y236506D01*
X286412Y234750D01*
Y229750D01*
X286761Y227994D01*
X287756Y226506D01*
X289244Y225511D01*
X289412Y225478D01*
Y218737D01*
X289244Y218704D01*
X287756Y217709D01*
X286761Y216221D01*
X286412Y214465D01*
Y209465D01*
X286761Y207709D01*
X287756Y206220D01*
X289244Y205226D01*
X289412Y205193D01*
Y198522D01*
X289244Y198489D01*
X287756Y197494D01*
X286761Y196006D01*
X286412Y194250D01*
Y189250D01*
X286761Y187494D01*
X287756Y186006D01*
X289244Y185011D01*
X289412Y184978D01*
Y178522D01*
X289244Y178489D01*
X287756Y177494D01*
X286761Y176006D01*
X286412Y174250D01*
Y169250D01*
X286761Y167494D01*
X287756Y166006D01*
X289244Y165011D01*
X291000Y164662D01*
X297000D01*
X298756Y165011D01*
X300244Y166006D01*
X301239Y167494D01*
X301588Y169250D01*
Y174250D01*
X301239Y176006D01*
X300244Y177494D01*
X298756Y178489D01*
X298588Y178522D01*
Y184978D01*
X298756Y185011D01*
X300244Y186006D01*
X301100Y187287D01*
X309006D01*
X310906Y186500D01*
X313094D01*
X315116Y187337D01*
X315190Y187412D01*
X340000D01*
X341756Y187761D01*
X343244Y188756D01*
X362551Y208062D01*
X365072D01*
X365384Y207853D01*
X366750Y207581D01*
X386250D01*
X387616Y207853D01*
X388773Y208627D01*
X389547Y209784D01*
X389819Y211150D01*
Y214150D01*
X389547Y215516D01*
X388773Y216673D01*
X387616Y217447D01*
X386250Y217719D01*
X366750D01*
X365384Y217447D01*
X365072Y217238D01*
X360650D01*
X358894Y216889D01*
X357406Y215894D01*
X338100Y196588D01*
X315190D01*
X315116Y196663D01*
X313094Y197500D01*
X310906D01*
X308885Y196663D01*
X308685Y196463D01*
X300933D01*
X300244Y197494D01*
X298756Y198489D01*
X298588Y198522D01*
Y205193D01*
X298756Y205226D01*
X300245Y206220D01*
X301239Y207709D01*
X301588Y209465D01*
Y214465D01*
X301239Y216221D01*
X300245Y217709D01*
X298756Y218704D01*
X298588Y218737D01*
Y225478D01*
X298756Y225511D01*
X300244Y226506D01*
X301239Y227994D01*
X301588Y229750D01*
Y234750D01*
X301239Y236506D01*
X300244Y237994D01*
X298756Y238989D01*
X298463Y239047D01*
Y246003D01*
X298506Y246011D01*
X299994Y247006D01*
X300989Y248494D01*
X301338Y250250D01*
Y255250D01*
X300989Y257006D01*
X299994Y258494D01*
X298506Y259489D01*
X296750Y259838D01*
X290750D01*
X290059Y260405D01*
Y264623D01*
X291115Y265328D01*
X291488Y265174D01*
X293250Y264942D01*
X294750D01*
Y276000D01*
Y287058D01*
X293250D01*
X291488Y286826D01*
X291284Y286742D01*
X290612Y286961D01*
X289873Y287532D01*
X289826Y287767D01*
X289369Y288870D01*
X288706Y289862D01*
X287862Y290706D01*
X286870Y291369D01*
X285767Y291826D01*
X285767Y291826D01*
X285767Y291826D01*
X284597Y292059D01*
X284000Y292059D01*
X263000Y292059D01*
X263000Y292059D01*
X262403D01*
X262329Y292044D01*
X261703Y293214D01*
X316901Y348412D01*
X424100D01*
X514303Y258209D01*
Y236423D01*
X513592Y236282D01*
X511856Y235122D01*
X510696Y233385D01*
X510288Y231337D01*
Y222837D01*
X510696Y220788D01*
X511856Y219052D01*
X513592Y217892D01*
X515641Y217484D01*
X522141D01*
X524189Y217892D01*
X525926Y219052D01*
X527086Y220788D01*
X527427Y222499D01*
X532013D01*
X547412Y207099D01*
Y182325D01*
X546356Y181620D01*
X545831Y181837D01*
X543842D01*
X542848Y181425D01*
X527677D01*
X527336Y183135D01*
X526176Y184872D01*
X524439Y186032D01*
X522391Y186440D01*
X515891D01*
X513843Y186032D01*
X512106Y184872D01*
X510946Y183135D01*
X510538Y181087D01*
Y172587D01*
X510946Y170538D01*
X512106Y168802D01*
X513843Y167641D01*
X515891Y167234D01*
X522391D01*
X524439Y167641D01*
X526176Y168802D01*
X527336Y170538D01*
X527677Y172249D01*
X542848D01*
X543842Y171837D01*
X545831D01*
X546356Y172054D01*
X547412Y171348D01*
Y143588D01*
X519368D01*
X519220Y143559D01*
X519115Y143663D01*
X517094Y144500D01*
X514906D01*
X512884Y143663D01*
X512810Y143588D01*
X474889D01*
X474184Y144644D01*
X474326Y144988D01*
X474558Y146750D01*
Y149250D01*
X464500D01*
Y151000D01*
X462750D01*
Y162058D01*
X461250D01*
X459488Y161826D01*
X457846Y161146D01*
X456436Y160064D01*
X455354Y158654D01*
X454913Y157589D01*
X454486Y157487D01*
X453524Y157555D01*
X452535Y159035D01*
X450798Y160195D01*
X448750Y160603D01*
X442250D01*
X440202Y160195D01*
X438465Y159035D01*
X437305Y157298D01*
X436989Y155713D01*
X430560D01*
X430195Y157548D01*
X429035Y159285D01*
X427298Y160445D01*
X425250Y160853D01*
X418750D01*
X416702Y160445D01*
X414965Y159285D01*
X413805Y157548D01*
X413397Y155500D01*
Y147000D01*
X413805Y144952D01*
X414965Y143215D01*
X416702Y142055D01*
X418750Y141647D01*
X425250D01*
X427298Y142055D01*
X429035Y143215D01*
X430195Y144952D01*
X430511Y146537D01*
X436940D01*
X437305Y144702D01*
X438465Y142965D01*
X440202Y141805D01*
X442250Y141397D01*
X448614D01*
X454256Y135756D01*
X455744Y134761D01*
X457500Y134412D01*
X512810D01*
X512884Y134337D01*
X514906Y133500D01*
X517094D01*
X519115Y134337D01*
X519220Y134441D01*
X519368Y134412D01*
X550243D01*
X551998Y134761D01*
X553487Y135756D01*
X555244Y137513D01*
X556239Y139002D01*
X556588Y140757D01*
Y209000D01*
X556239Y210756D01*
X555244Y212244D01*
X537158Y230331D01*
X535669Y231326D01*
X533913Y231675D01*
X527427D01*
X527086Y233385D01*
X525926Y235122D01*
X524189Y236282D01*
X523479Y236423D01*
Y260109D01*
X523130Y261865D01*
X522135Y263353D01*
X429244Y356244D01*
X427756Y357239D01*
X426000Y357588D01*
X315000D01*
X313244Y357239D01*
X311756Y356244D01*
X237600Y282088D01*
X235337D01*
X235195Y282799D01*
X234035Y284535D01*
X232298Y285695D01*
X230250Y286103D01*
X221750D01*
X219702Y285695D01*
X217965Y284535D01*
X216805Y282799D01*
X216397Y280750D01*
Y274250D01*
X216805Y272202D01*
X217965Y270465D01*
X219702Y269305D01*
X221750Y268897D01*
X230250D01*
X232298Y269305D01*
X234035Y270465D01*
X235195Y272202D01*
X235337Y272912D01*
X239500D01*
X241256Y273261D01*
X242744Y274256D01*
X255786Y287297D01*
X256956Y286671D01*
X256941Y286597D01*
Y245000D01*
X256941Y245000D01*
X256941Y244602D01*
X256941Y244602D01*
X256941Y244602D01*
X257071Y243947D01*
X257174Y243432D01*
X257174Y243432D01*
X257174Y243431D01*
X257479Y242696D01*
X258142Y241704D01*
X258704Y241141D01*
X259697Y240478D01*
X260432Y240174D01*
X261602Y239941D01*
X262000Y239941D01*
X271383D01*
X271769Y238671D01*
X270756Y237994D01*
X269983Y236838D01*
X250651D01*
X239500Y247989D01*
Y248094D01*
X238663Y250116D01*
X238431Y250347D01*
Y254157D01*
X238082Y255913D01*
X237087Y257401D01*
X234244Y260244D01*
X232756Y261239D01*
X231000Y261588D01*
X216901D01*
X207588Y270900D01*
Y272483D01*
X208744Y273256D01*
X209739Y274744D01*
X210088Y276500D01*
Y282500D01*
X209739Y284256D01*
X208744Y285744D01*
X207256Y286739D01*
X205500Y287088D01*
X200500D01*
X199416Y288000D01*
X200490Y288903D01*
X200521Y288912D01*
X205500D01*
X207256Y289261D01*
X208744Y290256D01*
X209739Y291744D01*
X209772Y291912D01*
X216663D01*
X216805Y291202D01*
X217965Y289465D01*
X219702Y288305D01*
X221750Y287897D01*
X230250D01*
X232298Y288305D01*
X234035Y289465D01*
X235195Y291202D01*
X235603Y293250D01*
Y299750D01*
X235195Y301798D01*
X234035Y303535D01*
X232298Y304695D01*
X230250Y305103D01*
X221750D01*
X219702Y304695D01*
X217965Y303535D01*
X216805Y301798D01*
X216663Y301088D01*
X209772D01*
X209739Y301256D01*
X208744Y302744D01*
X207588Y303517D01*
Y317000D01*
X207239Y318756D01*
X206244Y320244D01*
X200651Y325838D01*
X200239Y326832D01*
X198832Y328239D01*
X197838Y328651D01*
X193307Y333181D01*
X191819Y334176D01*
X190063Y334525D01*
X145963D01*
X144931Y335558D01*
X145417Y336731D01*
X161250D01*
X162616Y337003D01*
X163773Y337777D01*
X164547Y338934D01*
X164819Y340300D01*
Y343300D01*
X164547Y344666D01*
X163773Y345823D01*
X162616Y346597D01*
X161250Y346869D01*
X145170D01*
X143780Y348258D01*
X144267Y349431D01*
X161250D01*
X162616Y349703D01*
X163773Y350477D01*
X164547Y351634D01*
X164819Y353000D01*
Y356000D01*
X165591Y356941D01*
X169872D01*
X170168Y357000D01*
X170469D01*
X170748Y357115D01*
X171043Y357174D01*
X171294Y357341D01*
X171572Y357457D01*
X171785Y357670D01*
X172035Y357837D01*
X172203Y358088D01*
X172416Y358301D01*
X172443Y358342D01*
X173883Y358629D01*
X173724Y357199D01*
X173596Y357146D01*
X172186Y356064D01*
X171104Y354654D01*
X170424Y353012D01*
X170192Y351250D01*
Y349750D01*
X192308D01*
Y351250D01*
X192076Y353012D01*
X191396Y354654D01*
X190314Y356064D01*
X188904Y357146D01*
X188776Y357199D01*
X188617Y358629D01*
X190057Y358342D01*
X190084Y358301D01*
X190297Y358088D01*
X190465Y357837D01*
X190715Y357670D01*
X190928Y357457D01*
X191206Y357341D01*
X191457Y357174D01*
X191752Y357115D01*
X192031Y357000D01*
X192332D01*
X192628Y356941D01*
X195017D01*
X195312Y357000D01*
X195614D01*
X195892Y357115D01*
X196187Y357174D01*
X196438Y357341D01*
X196716Y357457D01*
X196929Y357670D01*
X197180Y357837D01*
X197347Y358088D01*
X197560Y358301D01*
X197591Y358346D01*
X199036Y358630D01*
X199039Y358628D01*
X198873Y357184D01*
X198746Y357132D01*
X197336Y356050D01*
X196254Y354640D01*
X195574Y352998D01*
X195342Y351236D01*
Y349736D01*
X217458D01*
Y351236D01*
X217226Y352998D01*
X216546Y354640D01*
X215464Y356050D01*
X214054Y357132D01*
X213928Y357184D01*
X213761Y358628D01*
X213764Y358630D01*
X215210Y358346D01*
X215240Y358301D01*
X215453Y358088D01*
X215620Y357837D01*
X215871Y357670D01*
X216084Y357457D01*
X216362Y357341D01*
X216613Y357174D01*
X216908Y357115D01*
X217187Y357000D01*
X217488D01*
X217783Y356941D01*
X230000D01*
X230050Y356951D01*
X230100Y356943D01*
X231279Y356982D01*
X231524Y357039D01*
X231776D01*
X233514Y357384D01*
X233792Y357500D01*
X234087Y357558D01*
X235907Y358312D01*
X236158Y358479D01*
X236436Y358595D01*
X238074Y359689D01*
X238287Y359902D01*
X238537Y360070D01*
X239930Y361462D01*
X240098Y361713D01*
X240311Y361926D01*
X241405Y363564D01*
X241520Y363842D01*
X241688Y364093D01*
X242442Y365913D01*
X242500Y366208D01*
X242616Y366486D01*
X243000Y368418D01*
Y368720D01*
X243059Y369015D01*
X243059Y370000D01*
X243059Y380000D01*
X243059Y380000D01*
Y380003D01*
X243048Y380058D01*
X243057Y380114D01*
X243013Y381316D01*
X242956Y381555D01*
Y381801D01*
X242616Y383513D01*
X242500Y383792D01*
X242442Y384087D01*
X241688Y385907D01*
X241520Y386158D01*
X241405Y386436D01*
X240311Y388074D01*
X240098Y388287D01*
X239930Y388537D01*
X238538Y389930D01*
X238287Y390098D01*
X238074Y390311D01*
X236436Y391405D01*
X236158Y391521D01*
X235907Y391688D01*
X234087Y392442D01*
X233792Y392500D01*
X233514Y392616D01*
X231582Y393000D01*
X231280D01*
X230985Y393059D01*
X230000D01*
X164819Y393059D01*
Y394100D01*
X164547Y395466D01*
X163773Y396623D01*
X162616Y397397D01*
X161250Y397668D01*
X142250D01*
X140884Y397397D01*
X140858Y397379D01*
X139588Y398058D01*
Y399842D01*
X140858Y400521D01*
X140884Y400503D01*
X142250Y400231D01*
X161250D01*
X162616Y400503D01*
X163773Y401277D01*
X164547Y402434D01*
X164819Y403800D01*
Y406800D01*
X164547Y408166D01*
X163773Y409323D01*
X162616Y410097D01*
X161250Y410368D01*
X142250D01*
X140884Y410097D01*
X140858Y410079D01*
X139588Y410758D01*
Y412542D01*
X140858Y413220D01*
X140884Y413203D01*
X142250Y412931D01*
X149436D01*
X149604Y412819D01*
X151750Y412392D01*
X153896Y412819D01*
X154064Y412931D01*
X161250D01*
X162616Y413203D01*
X163773Y413977D01*
X164547Y415134D01*
X164819Y416500D01*
Y419500D01*
X164547Y420866D01*
X163773Y422023D01*
X162616Y422797D01*
X161250Y423069D01*
X157358D01*
Y439250D01*
X156931Y441396D01*
X155715Y443215D01*
X141471Y457459D01*
X139652Y458675D01*
X137506Y459102D01*
D02*
G37*
G36*
X454750Y431250D02*
X446442D01*
Y428750D01*
X446674Y426988D01*
X447354Y425346D01*
X448436Y423936D01*
X449846Y422854D01*
X451488Y422174D01*
X453250Y421942D01*
X454750D01*
Y431250D01*
D02*
G37*
G36*
X875000Y448000D02*
D01*
Y446250D01*
X863977D01*
X864657Y443716D01*
X866118Y441184D01*
X868184Y439118D01*
X870366Y437858D01*
X870026Y436588D01*
X685000D01*
X683244Y436239D01*
X681756Y435244D01*
X646099Y399588D01*
X622190D01*
X622116Y399663D01*
X620094Y400500D01*
X617906D01*
X616006Y399713D01*
X586311D01*
X585945Y401548D01*
X584785Y403285D01*
X583049Y404445D01*
X581000Y404853D01*
X574500D01*
X572452Y404445D01*
X570715Y403285D01*
X569555Y401548D01*
X569147Y399500D01*
Y391000D01*
X569555Y388951D01*
X570715Y387215D01*
X572452Y386055D01*
X574500Y385647D01*
X581000D01*
X583049Y386055D01*
X584785Y387215D01*
X585945Y388951D01*
X586261Y390537D01*
X615685D01*
X615885Y390337D01*
X617906Y389500D01*
X620094D01*
X622116Y390337D01*
X622190Y390412D01*
X648000D01*
X649756Y390761D01*
X651244Y391756D01*
X686900Y427412D01*
X866918D01*
X867444Y426142D01*
X866118Y424815D01*
X864657Y422284D01*
X863977Y419750D01*
X875000D01*
Y418000D01*
D01*
Y419750D01*
X886023D01*
X885343Y422284D01*
X883882Y424815D01*
X882556Y426142D01*
X883082Y427412D01*
X889100D01*
X895790Y420721D01*
X895400Y419264D01*
Y416736D01*
X896054Y414295D01*
X897318Y412105D01*
X899106Y410318D01*
X901294Y409054D01*
X903736Y408400D01*
X906264D01*
X908705Y409054D01*
X910894Y410318D01*
X912682Y412105D01*
X913946Y414295D01*
X914217Y415305D01*
X914891Y415756D01*
X915885Y417244D01*
X916235Y419000D01*
X915885Y420756D01*
X914891Y422244D01*
X913402Y423239D01*
X913016Y423316D01*
X912682Y423895D01*
X910894Y425682D01*
X908705Y426946D01*
X906264Y427600D01*
X903736D01*
X902279Y427210D01*
X894244Y435244D01*
X892756Y436239D01*
X891000Y436588D01*
X879974D01*
X879634Y437858D01*
X881816Y439118D01*
X883882Y441184D01*
X885343Y443716D01*
X886023Y446250D01*
X875000D01*
Y448000D01*
D02*
G37*
G36*
X72000Y417058D02*
X70500D01*
Y407750D01*
X78808D01*
Y410250D01*
X78576Y412012D01*
X77896Y413654D01*
X76814Y415064D01*
X75404Y416146D01*
X73762Y416826D01*
X72000Y417058D01*
D02*
G37*
G36*
X886023Y416250D02*
X876750D01*
Y406977D01*
X879284Y407656D01*
X881816Y409118D01*
X883882Y411184D01*
X885343Y413716D01*
X886023Y416250D01*
D02*
G37*
G36*
X873250D02*
X863977D01*
X864657Y413716D01*
X866118Y411184D01*
X868184Y409118D01*
X870716Y407656D01*
X873250Y406977D01*
Y416250D01*
D02*
G37*
G36*
X370750Y414058D02*
X369250D01*
Y404750D01*
X377558D01*
Y407250D01*
X377326Y409012D01*
X376646Y410654D01*
X375564Y412064D01*
X374154Y413146D01*
X372512Y413826D01*
X370750Y414058D01*
D02*
G37*
G36*
X942188Y406588D02*
X888054D01*
X886298Y406239D01*
X884810Y405244D01*
X876975Y397409D01*
X876264Y397600D01*
X873736D01*
X871294Y396946D01*
X869106Y395682D01*
X867318Y393895D01*
X866564Y392588D01*
X685000D01*
X683244Y392239D01*
X681756Y391244D01*
X624011Y333500D01*
X623906D01*
X621884Y332663D01*
X620337Y331115D01*
X619500Y329094D01*
Y326906D01*
X619912Y325912D01*
Y302603D01*
X619750D01*
X617702Y302195D01*
X615965Y301035D01*
X614805Y299298D01*
X614397Y297250D01*
Y290750D01*
X614805Y288702D01*
X615965Y286965D01*
X617702Y285805D01*
X619750Y285397D01*
X628250D01*
X630298Y285805D01*
X632035Y286965D01*
X633142Y288621D01*
X633235Y288635D01*
X634412Y287937D01*
Y281063D01*
X633235Y280365D01*
X633142Y280379D01*
X632035Y282035D01*
X630298Y283195D01*
X628250Y283603D01*
X619750D01*
X617702Y283195D01*
X615965Y282035D01*
X614805Y280298D01*
X614397Y278250D01*
Y271750D01*
X614805Y269702D01*
X615965Y267965D01*
X617702Y266805D01*
X619712Y266405D01*
Y259386D01*
X618606Y259166D01*
X616704Y257896D01*
X615434Y255993D01*
X614987Y253750D01*
Y236250D01*
X615434Y234007D01*
X616704Y232104D01*
X618606Y230834D01*
X620850Y230387D01*
X628350D01*
X630593Y230834D01*
X632495Y232104D01*
X633187Y233139D01*
X633240Y233144D01*
X634498Y232815D01*
X634761Y231491D01*
X635756Y230003D01*
X680503Y185256D01*
X681991Y184261D01*
X683747Y183912D01*
X711663D01*
X711805Y183202D01*
X712965Y181465D01*
X714702Y180305D01*
X716750Y179897D01*
X725250D01*
X727298Y180305D01*
X729035Y181465D01*
X730195Y183202D01*
X730603Y185250D01*
Y191750D01*
X730195Y193798D01*
X729035Y195535D01*
X727298Y196695D01*
X725250Y197103D01*
X716750D01*
X714702Y196695D01*
X712965Y195535D01*
X711805Y193798D01*
X711663Y193088D01*
X685647D01*
X649522Y229214D01*
X650008Y230387D01*
X653750D01*
X655993Y230834D01*
X657896Y232104D01*
X659166Y234007D01*
X659613Y236250D01*
Y253750D01*
X659166Y255993D01*
X657896Y257896D01*
X655993Y259166D01*
X653750Y259613D01*
X646250D01*
X644858Y259336D01*
X643588Y260298D01*
Y292243D01*
X643239Y293998D01*
X642244Y295487D01*
X640487Y297244D01*
X638998Y298239D01*
X637243Y298588D01*
X633337D01*
X633195Y299298D01*
X632035Y301035D01*
X630298Y302195D01*
X629088Y302436D01*
Y324310D01*
X629663Y324884D01*
X630500Y326906D01*
Y327011D01*
X686900Y383412D01*
X866564D01*
X867318Y382105D01*
X869106Y380318D01*
X871294Y379054D01*
X873736Y378400D01*
X876264D01*
X878706Y379054D01*
X880894Y380318D01*
X882682Y382105D01*
X883946Y384295D01*
X884600Y386736D01*
Y389264D01*
X884010Y391467D01*
X889955Y397412D01*
X896873D01*
X897258Y396142D01*
X897018Y395982D01*
X895736Y394063D01*
X895286Y391800D01*
Y384775D01*
X849011Y338500D01*
X847906D01*
X845884Y337663D01*
X844337Y336115D01*
X843500Y334094D01*
Y333989D01*
X840099Y330588D01*
X681190D01*
X681115Y330663D01*
X679094Y331500D01*
X676906D01*
X674884Y330663D01*
X673337Y329115D01*
X672500Y327094D01*
Y324906D01*
X672573Y324729D01*
X672412Y323918D01*
Y302036D01*
X670702Y301695D01*
X668965Y300535D01*
X667805Y298798D01*
X667397Y296750D01*
Y290439D01*
X657330Y280371D01*
X656335Y278883D01*
X656217Y278288D01*
X655761Y277832D01*
X655000Y275995D01*
Y274005D01*
X655761Y272168D01*
X657168Y270761D01*
X659005Y270000D01*
X660995D01*
X662832Y270761D01*
X664239Y272168D01*
X665000Y274005D01*
Y274759D01*
X665076Y275140D01*
X666224Y276288D01*
X667397Y275802D01*
Y271250D01*
X667805Y269202D01*
X668965Y267465D01*
X670702Y266305D01*
X671612Y266124D01*
Y259605D01*
X669407Y259166D01*
X667505Y257896D01*
X666234Y255993D01*
X665787Y253750D01*
Y236250D01*
X666234Y234007D01*
X667505Y232104D01*
X669407Y230834D01*
X671650Y230387D01*
X679150D01*
X681394Y230834D01*
X683296Y232104D01*
X684566Y234007D01*
X685013Y236250D01*
Y253750D01*
X684566Y255993D01*
X683296Y257896D01*
X681394Y259166D01*
X680788Y259287D01*
Y265897D01*
X681250D01*
X683298Y266305D01*
X685035Y267465D01*
X686195Y269202D01*
X686603Y271250D01*
Y277750D01*
X686195Y279798D01*
X685035Y281535D01*
X683298Y282695D01*
X681250Y283103D01*
X675471D01*
X674846Y284373D01*
X675250Y284897D01*
X681250D01*
X683298Y285305D01*
X685035Y286465D01*
X686195Y288202D01*
X686603Y290250D01*
Y296750D01*
X686195Y298798D01*
X685035Y300535D01*
X683298Y301695D01*
X681588Y302036D01*
Y321412D01*
X842000D01*
X843756Y321761D01*
X845244Y322756D01*
X848875Y326386D01*
X866397Y308864D01*
Y303250D01*
X866805Y301202D01*
X867965Y299465D01*
X869702Y298305D01*
X871750Y297897D01*
X880250D01*
X882298Y298305D01*
X884035Y299465D01*
X885195Y301202D01*
X885603Y303250D01*
Y309750D01*
X885195Y311798D01*
X884035Y313535D01*
X882298Y314695D01*
X880250Y315103D01*
X873136D01*
X855864Y332375D01*
X901775Y378286D01*
X908800D01*
X911063Y378736D01*
X912982Y380018D01*
X914264Y381937D01*
X914714Y384200D01*
Y391800D01*
X914264Y394063D01*
X912982Y395982D01*
X912742Y396142D01*
X913127Y397412D01*
X940288D01*
X954536Y383164D01*
X953817Y382087D01*
X953027Y382414D01*
X949830Y383050D01*
X946570D01*
X943372Y382414D01*
X940361Y381166D01*
X937650Y379355D01*
X935345Y377050D01*
X933534Y374339D01*
X932286Y371327D01*
X931929Y369532D01*
X930659Y369657D01*
Y371750D01*
X930426Y372920D01*
X929763Y373913D01*
X928771Y374576D01*
X927600Y374809D01*
X911600D01*
X910430Y374576D01*
X909437Y373913D01*
X908774Y372920D01*
X908541Y371750D01*
Y347250D01*
X908774Y346079D01*
X909437Y345087D01*
X910430Y344424D01*
X911600Y344191D01*
X927600D01*
X928771Y344424D01*
X929763Y345087D01*
X930426Y346079D01*
X930659Y347250D01*
Y363343D01*
X931929Y363469D01*
X932286Y361673D01*
X933534Y358661D01*
X935345Y355950D01*
X937650Y353645D01*
X940361Y351834D01*
X943372Y350586D01*
X946570Y349950D01*
X949830D01*
X953027Y350586D01*
X956039Y351834D01*
X958750Y353645D01*
X961055Y355950D01*
X962866Y358661D01*
X964114Y361673D01*
X964750Y364870D01*
Y368130D01*
X964114Y371327D01*
X963787Y372117D01*
X964864Y372836D01*
X967412Y370288D01*
Y346900D01*
X956011Y335500D01*
X955906D01*
X953885Y334663D01*
X952337Y333116D01*
X951500Y331094D01*
Y328906D01*
X952337Y326884D01*
X952412Y326810D01*
Y318036D01*
X950702Y317695D01*
X948965Y316535D01*
X947805Y314799D01*
X947397Y312750D01*
Y306250D01*
X947805Y304202D01*
X948965Y302465D01*
X950702Y301305D01*
X952750Y300897D01*
X961250D01*
X963298Y301305D01*
X965035Y302465D01*
X966195Y304202D01*
X966603Y306250D01*
Y312750D01*
X966195Y314799D01*
X965035Y316535D01*
X963298Y317695D01*
X961588Y318036D01*
Y326810D01*
X961663Y326884D01*
X962500Y328906D01*
Y329011D01*
X975244Y341756D01*
X976239Y343244D01*
X976588Y345000D01*
Y372188D01*
X976239Y373944D01*
X975244Y375433D01*
X945433Y405244D01*
X943944Y406239D01*
X942188Y406588D01*
D02*
G37*
G36*
X78808Y404250D02*
X70500D01*
Y394942D01*
X72000D01*
X73762Y395174D01*
X75404Y395854D01*
X76814Y396936D01*
X77896Y398346D01*
X78576Y399988D01*
X78808Y401750D01*
Y404250D01*
D02*
G37*
G36*
X377558Y401250D02*
X369250D01*
Y391942D01*
X370750D01*
X372512Y392174D01*
X374154Y392854D01*
X375564Y393936D01*
X376646Y395346D01*
X377326Y396988D01*
X377558Y398750D01*
Y401250D01*
D02*
G37*
G36*
X581155Y380982D02*
X579655D01*
Y371674D01*
X587963D01*
Y374174D01*
X587732Y375936D01*
X587051Y377578D01*
X585969Y378988D01*
X584559Y380070D01*
X582917Y380750D01*
X581155Y380982D01*
D02*
G37*
G36*
X587963Y368174D02*
X579655D01*
Y358866D01*
X581155D01*
X582917Y359098D01*
X584559Y359778D01*
X585969Y360860D01*
X587051Y362270D01*
X587732Y363912D01*
X587963Y365674D01*
Y368174D01*
D02*
G37*
G36*
X192308Y346250D02*
X183000D01*
Y337942D01*
X185500D01*
X187262Y338174D01*
X188904Y338854D01*
X190314Y339936D01*
X191396Y341346D01*
X192076Y342988D01*
X192308Y344750D01*
Y346250D01*
D02*
G37*
G36*
X179500D02*
X170192D01*
Y344750D01*
X170424Y342988D01*
X171104Y341346D01*
X172186Y339936D01*
X173596Y338854D01*
X175238Y338174D01*
X177000Y337942D01*
X179500D01*
Y346250D01*
D02*
G37*
G36*
X217458Y346236D02*
X208150D01*
Y337928D01*
X210650D01*
X212412Y338160D01*
X214054Y338840D01*
X215464Y339922D01*
X216546Y341332D01*
X217226Y342974D01*
X217458Y344736D01*
Y346236D01*
D02*
G37*
G36*
X204650D02*
X195342D01*
Y344736D01*
X195574Y342974D01*
X196254Y341332D01*
X197336Y339922D01*
X198746Y338840D01*
X200388Y338160D01*
X202150Y337928D01*
X204650D01*
Y346236D01*
D02*
G37*
G36*
X555750Y346058D02*
X554250D01*
Y336750D01*
X562558D01*
Y339250D01*
X562326Y341012D01*
X561646Y342654D01*
X560564Y344064D01*
X559154Y345146D01*
X557512Y345826D01*
X555750Y346058D01*
D02*
G37*
G36*
X81558Y340250D02*
X72250D01*
Y331942D01*
X74750D01*
X76512Y332174D01*
X78154Y332854D01*
X79564Y333936D01*
X80646Y335346D01*
X81326Y336988D01*
X81558Y338750D01*
Y340250D01*
D02*
G37*
G36*
X68750D02*
X59442D01*
Y338750D01*
X59674Y336988D01*
X60354Y335346D01*
X61436Y333936D01*
X62846Y332854D01*
X64488Y332174D01*
X66250Y331942D01*
X68750D01*
Y340250D01*
D02*
G37*
G36*
X56308D02*
X47000D01*
Y331942D01*
X49500D01*
X51262Y332174D01*
X52904Y332854D01*
X54314Y333936D01*
X55396Y335346D01*
X56076Y336988D01*
X56308Y338750D01*
Y340250D01*
D02*
G37*
G36*
X43500D02*
X34192D01*
Y338750D01*
X34424Y336988D01*
X35104Y335346D01*
X36186Y333936D01*
X37596Y332854D01*
X39238Y332174D01*
X41000Y331942D01*
X43500D01*
Y340250D01*
D02*
G37*
G36*
X368215Y345638D02*
X361715D01*
X359666Y345230D01*
X358677Y344569D01*
X336500D01*
X334412Y344294D01*
X332466Y343488D01*
X330794Y342206D01*
X329294Y340706D01*
X328012Y339035D01*
X327206Y337088D01*
X326931Y335000D01*
X327206Y332912D01*
X328012Y330965D01*
X329294Y329294D01*
X330965Y328012D01*
X332912Y327206D01*
X335000Y326931D01*
X337088Y327206D01*
X339035Y328012D01*
X339580Y328431D01*
X357642D01*
X357930Y328000D01*
X359666Y326840D01*
X361715Y326432D01*
X368215D01*
X370263Y326840D01*
X372000Y328000D01*
X373160Y329737D01*
X373568Y331785D01*
Y340285D01*
X373160Y342333D01*
X372000Y344070D01*
X370263Y345230D01*
X368215Y345638D01*
D02*
G37*
G36*
X562558Y333250D02*
X554250D01*
Y323942D01*
X555750D01*
X557512Y324174D01*
X559154Y324854D01*
X560564Y325936D01*
X561646Y327346D01*
X562326Y328988D01*
X562558Y330750D01*
Y333250D01*
D02*
G37*
G36*
X387215Y345638D02*
X380715D01*
X378666Y345230D01*
X376930Y344070D01*
X375770Y342333D01*
X375362Y340285D01*
Y331785D01*
X375770Y329737D01*
X376930Y328000D01*
X377392Y327691D01*
Y323432D01*
X376202Y323195D01*
X374465Y322035D01*
X373476Y320555D01*
X372514Y320487D01*
X372087Y320589D01*
X371646Y321654D01*
X370564Y323064D01*
X369154Y324146D01*
X367512Y324826D01*
X365750Y325058D01*
X364250D01*
Y314000D01*
Y302942D01*
X365750D01*
X367512Y303174D01*
X369154Y303854D01*
X370564Y304936D01*
X371646Y306346D01*
X372087Y307411D01*
X372514Y307513D01*
X373476Y307445D01*
X374465Y305965D01*
X376202Y304805D01*
X377267Y304593D01*
Y284139D01*
X377011Y283756D01*
X376662Y282000D01*
Y277000D01*
X377011Y275244D01*
X378006Y273756D01*
X379494Y272761D01*
X381250Y272412D01*
X387250D01*
X389006Y272761D01*
X390494Y273756D01*
X391489Y275244D01*
X391838Y277000D01*
Y282000D01*
X391489Y283756D01*
X390494Y285244D01*
X389006Y286239D01*
X388483Y286343D01*
Y305930D01*
X388535Y305965D01*
X389695Y307702D01*
X390103Y309750D01*
Y318250D01*
X389695Y320298D01*
X388608Y321926D01*
Y326709D01*
X389263Y326840D01*
X391000Y328000D01*
X392160Y329737D01*
X392568Y331785D01*
Y340285D01*
X392160Y342333D01*
X391000Y344070D01*
X389263Y345230D01*
X387215Y345638D01*
D02*
G37*
G36*
X360750Y325058D02*
X359250D01*
X357488Y324826D01*
X355846Y324146D01*
X354436Y323064D01*
X353354Y321654D01*
X352674Y320012D01*
X352442Y318250D01*
Y315750D01*
X360750D01*
Y325058D01*
D02*
G37*
G36*
X105750Y314058D02*
X104250D01*
X102488Y313826D01*
X100846Y313146D01*
X99436Y312064D01*
X98354Y310654D01*
X97674Y309012D01*
X97442Y307250D01*
Y304750D01*
X105750D01*
Y314058D01*
D02*
G37*
G36*
X360750Y312250D02*
X352442D01*
Y309750D01*
X352674Y307988D01*
X353354Y306346D01*
X354436Y304936D01*
X355846Y303854D01*
X357488Y303174D01*
X359250Y302942D01*
X360750D01*
Y312250D01*
D02*
G37*
G36*
X105750Y301250D02*
X97442D01*
Y298750D01*
X97674Y296988D01*
X98354Y295346D01*
X99436Y293936D01*
X100846Y292854D01*
X102488Y292174D01*
X104250Y291942D01*
X105750D01*
Y301250D01*
D02*
G37*
G36*
X435000Y288059D02*
X410000D01*
X408829Y287826D01*
X407837Y287163D01*
X407551Y286734D01*
X406006Y286239D01*
X404250Y286588D01*
X398250D01*
X396494Y286239D01*
X395006Y285244D01*
X394011Y283756D01*
X393662Y282000D01*
Y277000D01*
X394011Y275244D01*
X395006Y273756D01*
X395517Y273414D01*
Y265253D01*
X394756Y264744D01*
X393761Y263256D01*
X393412Y261500D01*
Y256500D01*
X393761Y254744D01*
X394756Y253256D01*
X395392Y252830D01*
Y234323D01*
X392027Y230958D01*
X376500D01*
X374354Y230531D01*
X374186Y230419D01*
X366750D01*
X365384Y230147D01*
X364227Y229373D01*
X363453Y228216D01*
X363181Y226850D01*
Y223850D01*
X363453Y222484D01*
X364227Y221327D01*
X365384Y220553D01*
X366750Y220281D01*
X374186D01*
X374354Y220169D01*
X376500Y219742D01*
X394350D01*
X396496Y220169D01*
X398315Y221385D01*
X404965Y228035D01*
X406181Y229854D01*
X406608Y232000D01*
Y232391D01*
X407631Y232762D01*
X407878Y232810D01*
X408829Y232174D01*
X410000Y231941D01*
X412959D01*
X413108Y231971D01*
X413259Y231956D01*
X413689Y232087D01*
X414130Y232174D01*
X414256Y232258D01*
X414401Y232302D01*
X414748Y232587D01*
X415122Y232837D01*
X415207Y232963D01*
X415324Y233060D01*
X415473Y233241D01*
X417444D01*
X418750Y232981D01*
X438250D01*
X439616Y233253D01*
X440773Y234027D01*
X441547Y235184D01*
X441819Y236550D01*
Y239550D01*
X441547Y240916D01*
X440773Y242073D01*
X439616Y242847D01*
X438924Y242985D01*
X438215Y243303D01*
X438007Y244389D01*
X438059Y244648D01*
Y249785D01*
X437985Y250154D01*
X437966Y250531D01*
X437870Y250734D01*
X437826Y250955D01*
X437617Y251269D01*
X437455Y251609D01*
X437288Y251760D01*
X437163Y251947D01*
X436849Y252157D01*
X436711Y252282D01*
X436560Y252536D01*
X436463Y253815D01*
X437266Y254826D01*
X438481Y254721D01*
X438881Y253757D01*
X439963Y252347D01*
X441373Y251265D01*
X443015Y250585D01*
X444777Y250353D01*
X446277D01*
Y261411D01*
Y272469D01*
X444777D01*
X443015Y272237D01*
X441373Y271557D01*
X439963Y270475D01*
X438881Y269065D01*
X438481Y268101D01*
X437266Y267996D01*
X436463Y269007D01*
X436560Y270285D01*
X436711Y270540D01*
X436849Y270665D01*
X437163Y270874D01*
X437288Y271062D01*
X437455Y271213D01*
X437617Y271553D01*
X437826Y271867D01*
X437870Y272087D01*
X437966Y272291D01*
X437985Y272668D01*
X438059Y273037D01*
Y285000D01*
X437826Y286171D01*
X437163Y287163D01*
X436171Y287826D01*
X435000Y288059D01*
D02*
G37*
G36*
X299750Y287058D02*
X298250D01*
Y277750D01*
X306558D01*
Y280250D01*
X306326Y282012D01*
X305646Y283654D01*
X304564Y285064D01*
X303154Y286146D01*
X301512Y286826D01*
X299750Y287058D01*
D02*
G37*
G36*
X306558Y274250D02*
X298250D01*
Y264942D01*
X299750D01*
X301512Y265174D01*
X303154Y265854D01*
X304564Y266936D01*
X305646Y268346D01*
X306326Y269988D01*
X306558Y271750D01*
Y274250D01*
D02*
G37*
G36*
X451277Y272469D02*
X449777D01*
Y263161D01*
X458085D01*
Y265661D01*
X457853Y267423D01*
X457173Y269065D01*
X456091Y270475D01*
X454681Y271557D01*
X453039Y272237D01*
X451277Y272469D01*
D02*
G37*
G36*
X458085Y259661D02*
X449777D01*
Y250353D01*
X451277D01*
X453039Y250585D01*
X454681Y251265D01*
X456091Y252347D01*
X457173Y253757D01*
X457853Y255399D01*
X458085Y257161D01*
Y259661D01*
D02*
G37*
G36*
X133500Y259119D02*
X114500D01*
X113134Y258847D01*
X111977Y258073D01*
X111203Y256916D01*
X110931Y255550D01*
Y252550D01*
X111203Y251184D01*
X111977Y250027D01*
X113134Y249253D01*
X114500Y248981D01*
X133500D01*
X134866Y249253D01*
X136023Y250027D01*
X136797Y251184D01*
X137069Y252550D01*
Y255550D01*
X136797Y256916D01*
X136023Y258073D01*
X134866Y258847D01*
X133500Y259119D01*
D02*
G37*
G36*
X81500D02*
X62500D01*
X61134Y258847D01*
X59977Y258073D01*
X59203Y256916D01*
X58931Y255550D01*
Y252550D01*
X59203Y251184D01*
X59977Y250027D01*
X61134Y249253D01*
X62500Y248981D01*
X81500D01*
X82866Y249253D01*
X83178Y249462D01*
X94050D01*
X95391Y248120D01*
X95093Y246622D01*
X94227Y246263D01*
X82281D01*
X81500Y246419D01*
X62500D01*
X61134Y246147D01*
X59977Y245373D01*
X59203Y244216D01*
X58931Y242850D01*
Y239850D01*
X59203Y238484D01*
X59977Y237327D01*
X61134Y236553D01*
X62500Y236281D01*
X81500D01*
X82866Y236553D01*
X83665Y237087D01*
X95796D01*
X96005Y237000D01*
X97995D01*
X99832Y237761D01*
X101239Y239168D01*
X101622Y240093D01*
X103120Y240391D01*
X104912Y238599D01*
Y237779D01*
X105010Y237284D01*
Y235574D01*
X105173Y234759D01*
Y234006D01*
X105934Y232168D01*
X107340Y230761D01*
X109178Y230000D01*
X110931D01*
Y227150D01*
X111203Y225784D01*
X111977Y224627D01*
X113134Y223853D01*
X114500Y223581D01*
X133500D01*
X134866Y223853D01*
X136023Y224627D01*
X136797Y225784D01*
X137069Y227150D01*
Y230150D01*
X136797Y231516D01*
X136023Y232673D01*
X134866Y233447D01*
X133500Y233719D01*
X115364D01*
X115173Y234006D01*
Y235994D01*
X115364Y236281D01*
X133500D01*
X134866Y236553D01*
X136023Y237327D01*
X136797Y238484D01*
X137069Y239850D01*
Y242850D01*
X136797Y244216D01*
X136023Y245373D01*
X134866Y246147D01*
X133500Y246419D01*
X114500D01*
X113134Y246147D01*
X111977Y245373D01*
X111193Y245296D01*
X99194Y257294D01*
X97706Y258289D01*
X95950Y258638D01*
X83178D01*
X82866Y258847D01*
X81500Y259119D01*
D02*
G37*
G36*
X991250Y248778D02*
X990298Y248523D01*
X988702Y247601D01*
X987399Y246298D01*
X986477Y244702D01*
X986222Y243750D01*
X991250D01*
Y248778D01*
D02*
G37*
G36*
Y240250D02*
X986222D01*
X986477Y239298D01*
X987399Y237702D01*
X988702Y236399D01*
X990298Y235477D01*
X991250Y235222D01*
Y240250D01*
D02*
G37*
G36*
X387000Y266088D02*
X381000D01*
X379244Y265739D01*
X377756Y264744D01*
X377664Y264608D01*
X368000D01*
X367458Y264500D01*
X366906D01*
X366396Y264289D01*
X365854Y264181D01*
X365395Y263874D01*
X364884Y263663D01*
X364494Y263272D01*
X364035Y262965D01*
X363728Y262506D01*
X363337Y262115D01*
X363126Y261605D01*
X362819Y261146D01*
X362711Y260604D01*
X362500Y260094D01*
Y259542D01*
X362392Y259000D01*
X362500Y258458D01*
Y257906D01*
X362711Y257396D01*
X362819Y256854D01*
X363126Y256395D01*
X363337Y255884D01*
X363728Y255494D01*
X364035Y255035D01*
X364494Y254728D01*
X364884Y254337D01*
X365395Y254126D01*
X365854Y253819D01*
X366396Y253711D01*
X366906Y253500D01*
X367458D01*
X368000Y253392D01*
X377664D01*
X377756Y253256D01*
X378392Y252830D01*
Y243658D01*
X376500D01*
X374354Y243231D01*
X374186Y243119D01*
X366750D01*
X365384Y242847D01*
X365072Y242638D01*
X361050D01*
X359294Y242289D01*
X357806Y241294D01*
X339756Y223244D01*
X338761Y221756D01*
X338412Y220000D01*
Y212989D01*
X338000Y211995D01*
Y210005D01*
X338761Y208168D01*
X340168Y206761D01*
X342005Y206000D01*
X343995D01*
X345832Y206761D01*
X347239Y208168D01*
X348000Y210005D01*
Y211995D01*
X347588Y212989D01*
Y218099D01*
X362951Y233462D01*
X365072D01*
X365384Y233253D01*
X366750Y232981D01*
X374186D01*
X374354Y232869D01*
X376500Y232442D01*
X383500D01*
X385646Y232869D01*
X385814Y232981D01*
X386250D01*
X387616Y233253D01*
X388773Y234027D01*
X389547Y235184D01*
X389819Y236550D01*
Y239550D01*
X389608Y240610D01*
Y252830D01*
X390244Y253256D01*
X391239Y254744D01*
X391588Y256500D01*
Y261500D01*
X391239Y263256D01*
X390244Y264744D01*
X388756Y265739D01*
X387000Y266088D01*
D02*
G37*
G36*
X465137Y255858D02*
X463148D01*
X461310Y255096D01*
X459903Y253690D01*
X459492Y252696D01*
X454647Y247851D01*
X453652Y246362D01*
X453303Y244606D01*
Y236423D01*
X452593Y236282D01*
X450856Y235122D01*
X449696Y233385D01*
X449288Y231337D01*
Y229938D01*
X439928D01*
X439616Y230147D01*
X438250Y230419D01*
X418750D01*
X417384Y230147D01*
X416227Y229373D01*
X415453Y228216D01*
X415181Y226850D01*
Y223850D01*
X415453Y222484D01*
X416227Y221327D01*
X417384Y220553D01*
X418750Y220281D01*
X438250D01*
X439616Y220553D01*
X439928Y220762D01*
X449713D01*
X450856Y219052D01*
X451273Y218773D01*
X450888Y217503D01*
X439335D01*
X438250Y217719D01*
X418750D01*
X417384Y217447D01*
X416227Y216673D01*
X415453Y215516D01*
X415181Y214150D01*
Y211150D01*
X415453Y209784D01*
X416227Y208627D01*
X417384Y207853D01*
X418750Y207581D01*
X438250D01*
X439616Y207853D01*
X440324Y208326D01*
X448189D01*
X449231Y207057D01*
X449038Y206087D01*
Y197587D01*
X449446Y195538D01*
X450606Y193802D01*
X452343Y192641D01*
X454391Y192234D01*
X460891D01*
X462939Y192641D01*
X464676Y193802D01*
X465836Y195538D01*
X466244Y197587D01*
Y201643D01*
X466768Y201957D01*
X468038Y201238D01*
Y197587D01*
X468446Y195538D01*
X469606Y193802D01*
X471343Y192641D01*
X472053Y192500D01*
Y186173D01*
X471343Y186032D01*
X469606Y184872D01*
X468446Y183135D01*
X468038Y181087D01*
Y172587D01*
X468446Y170538D01*
X469606Y168802D01*
X471343Y167641D01*
X473391Y167234D01*
X479891D01*
X481939Y167641D01*
X483676Y168802D01*
X484836Y170538D01*
X485177Y172249D01*
X491605D01*
X491946Y170538D01*
X493106Y168802D01*
X494843Y167641D01*
X495826Y167446D01*
Y153017D01*
X495688Y152683D01*
Y150694D01*
X496449Y148856D01*
X497856Y147449D01*
X499693Y146688D01*
X501683D01*
X503520Y147449D01*
X504927Y148856D01*
X505688Y150694D01*
Y152683D01*
X505003Y154337D01*
Y167555D01*
X505439Y167641D01*
X507176Y168802D01*
X508336Y170538D01*
X508744Y172587D01*
Y181087D01*
X508336Y183135D01*
X507176Y184872D01*
X505439Y186032D01*
X503391Y186440D01*
X496891D01*
X494843Y186032D01*
X493106Y184872D01*
X491946Y183135D01*
X491605Y181425D01*
X485177D01*
X484836Y183135D01*
X483676Y184872D01*
X481939Y186032D01*
X481229Y186173D01*
Y192500D01*
X481939Y192641D01*
X483676Y193802D01*
X484836Y195538D01*
X485244Y197587D01*
Y206087D01*
X485044Y207091D01*
X485825Y208070D01*
X487201Y208123D01*
X487406Y207918D01*
X487818Y206923D01*
X489224Y205517D01*
X491062Y204756D01*
X493051D01*
X494889Y205517D01*
X496295Y206923D01*
X497057Y208761D01*
Y210750D01*
X496295Y212588D01*
X494889Y213995D01*
X493895Y214406D01*
X492057Y216244D01*
X490568Y217239D01*
X488812Y217588D01*
X484021D01*
X483636Y218858D01*
X483926Y219052D01*
X485086Y220788D01*
X485427Y222499D01*
X491355D01*
X491696Y220788D01*
X492856Y219052D01*
X494593Y217892D01*
X496641Y217484D01*
X503141D01*
X505189Y217892D01*
X506926Y219052D01*
X508086Y220788D01*
X508494Y222837D01*
Y231337D01*
X508086Y233385D01*
X506926Y235122D01*
X505189Y236282D01*
X503141Y236690D01*
X496641D01*
X494593Y236282D01*
X492856Y235122D01*
X491696Y233385D01*
X491355Y231675D01*
X485427D01*
X485086Y233385D01*
X483926Y235122D01*
X482189Y236282D01*
X480141Y236690D01*
X473641D01*
X471593Y236282D01*
X469856Y235122D01*
X468696Y233385D01*
X468288Y231337D01*
Y224583D01*
X467764Y224191D01*
X466494Y224826D01*
Y231337D01*
X466086Y233385D01*
X464926Y235122D01*
X463189Y236282D01*
X462479Y236423D01*
Y242706D01*
X465980Y246207D01*
X466975Y246619D01*
X468381Y248025D01*
X469142Y249863D01*
Y251852D01*
X468381Y253690D01*
X466975Y255096D01*
X465137Y255858D01*
D02*
G37*
G36*
X880250Y296103D02*
X871750D01*
X869702Y295695D01*
X867965Y294535D01*
X866805Y292798D01*
X866397Y290750D01*
Y284250D01*
X866805Y282202D01*
X867965Y280465D01*
X869702Y279305D01*
X871412Y278964D01*
Y239424D01*
X859139Y227152D01*
X857751Y227524D01*
X855249D01*
X852833Y226876D01*
X850667Y225626D01*
X848898Y223857D01*
X847647Y221691D01*
X847000Y219274D01*
Y216773D01*
X847647Y214357D01*
X848898Y212191D01*
X850667Y210422D01*
X852833Y209171D01*
X855249Y208524D01*
X857751D01*
X860167Y209171D01*
X862333Y210422D01*
X864102Y212191D01*
X865353Y214357D01*
X866000Y216773D01*
Y219274D01*
X865628Y220663D01*
X879244Y234279D01*
X880239Y235768D01*
X880588Y237524D01*
Y278964D01*
X882298Y279305D01*
X884035Y280465D01*
X885195Y282202D01*
X885603Y284250D01*
Y290750D01*
X885195Y292798D01*
X884035Y294535D01*
X882298Y295695D01*
X880250Y296103D01*
D02*
G37*
G36*
X924822Y228064D02*
X924770D01*
Y219294D01*
X933540D01*
Y219345D01*
X932856Y221899D01*
X931534Y224188D01*
X929665Y226058D01*
X927375Y227379D01*
X924822Y228064D01*
D02*
G37*
G36*
X922230D02*
X922178D01*
X919625Y227379D01*
X917335Y226058D01*
X915466Y224188D01*
X914144Y221899D01*
X913460Y219345D01*
Y219294D01*
X922230D01*
Y228064D01*
D02*
G37*
G36*
X133500Y221019D02*
X114500D01*
X113134Y220747D01*
X111977Y219973D01*
X111203Y218816D01*
X110931Y217450D01*
Y214450D01*
X111203Y213084D01*
X111977Y211927D01*
X113134Y211153D01*
X114500Y210881D01*
X133500D01*
X134866Y211153D01*
X136023Y211927D01*
X136797Y213084D01*
X137069Y214450D01*
Y217450D01*
X136797Y218816D01*
X136023Y219973D01*
X134866Y220747D01*
X133500Y221019D01*
D02*
G37*
G36*
X933540Y216754D02*
X924770D01*
Y207984D01*
X924822D01*
X927375Y208668D01*
X929665Y209990D01*
X931534Y211859D01*
X932856Y214148D01*
X933540Y216702D01*
Y216754D01*
D02*
G37*
G36*
X922230D02*
X913460D01*
Y216702D01*
X914144Y214148D01*
X915466Y211859D01*
X917335Y209990D01*
X919625Y208668D01*
X922178Y207984D01*
X922230D01*
Y216754D01*
D02*
G37*
G36*
X395000Y208059D02*
X391239Y208059D01*
X390798Y207971D01*
X390351Y207927D01*
X390217Y207855D01*
X390068Y207826D01*
X389694Y207576D01*
X389298Y207364D01*
X389202Y207247D01*
X389076Y207163D01*
X388826Y206789D01*
X388541Y206442D01*
X387942Y205322D01*
X387812Y204892D01*
X387757Y204759D01*
X387556D01*
X386250Y205019D01*
X366750D01*
X365384Y204747D01*
X364227Y203973D01*
X363453Y202816D01*
X363181Y201450D01*
Y198450D01*
X363453Y197084D01*
X364227Y195927D01*
X365384Y195153D01*
X366076Y195016D01*
X366785Y194697D01*
X366993Y193611D01*
X366941Y193352D01*
Y187377D01*
X365885Y186672D01*
X365512Y186826D01*
X363750Y187058D01*
X362250D01*
Y176000D01*
Y164942D01*
X363750D01*
X365512Y165174D01*
X366693Y165663D01*
X367241Y165512D01*
X367756Y165185D01*
X368001Y164912D01*
X368090Y164731D01*
X368130Y164533D01*
X368312Y164093D01*
X368479Y163842D01*
X368595Y163564D01*
X369689Y161926D01*
X369902Y161713D01*
X370070Y161462D01*
X371462Y160070D01*
X371713Y159902D01*
X371926Y159689D01*
X373564Y158595D01*
X373308Y157326D01*
X373261Y157256D01*
X372912Y155500D01*
Y150500D01*
X373261Y148744D01*
X374256Y147256D01*
X375744Y146261D01*
X377500Y145912D01*
X383500D01*
X385256Y146261D01*
X385639Y146517D01*
X394493D01*
X394805Y144952D01*
X395965Y143215D01*
X397525Y142173D01*
Y134545D01*
X396230Y133680D01*
X395070Y131943D01*
X394932Y131252D01*
X383644D01*
X381498Y130825D01*
X379679Y129610D01*
X374035Y123965D01*
X373728Y123506D01*
X373337Y123116D01*
X373126Y122605D01*
X372819Y122146D01*
X372711Y121604D01*
X372500Y121094D01*
Y120542D01*
X372392Y120000D01*
X372500Y119458D01*
Y118906D01*
X372711Y118396D01*
X372819Y117854D01*
X373126Y117395D01*
X373337Y116884D01*
X373728Y116494D01*
X374035Y116035D01*
X374494Y115728D01*
X374884Y115337D01*
X375395Y115126D01*
X375854Y114819D01*
X376396Y114711D01*
X376906Y114500D01*
X377458D01*
X378000Y114392D01*
X378542Y114500D01*
X379094D01*
X379604Y114711D01*
X380146Y114819D01*
X380605Y115126D01*
X381115Y115337D01*
X381506Y115728D01*
X381965Y116035D01*
X385967Y120037D01*
X394932D01*
X395070Y119346D01*
X396230Y117609D01*
X397966Y116449D01*
X400015Y116042D01*
X406515D01*
X408563Y116449D01*
X410300Y117609D01*
X411289Y119089D01*
X412251Y119157D01*
X412677Y119056D01*
X413119Y117990D01*
X414201Y116580D01*
X415611Y115498D01*
X417253Y114818D01*
X419015Y114586D01*
X420515D01*
Y125645D01*
Y136703D01*
X419015D01*
X417253Y136471D01*
X415611Y135791D01*
X414201Y134709D01*
X413119Y133299D01*
X412677Y132233D01*
X412251Y132131D01*
X411289Y132199D01*
X410300Y133680D01*
X408740Y134722D01*
Y142350D01*
X410035Y143215D01*
X411195Y144952D01*
X411603Y147000D01*
Y155500D01*
X411195Y157548D01*
X410035Y159285D01*
X408298Y160445D01*
X406250Y160853D01*
X403188D01*
X402662Y162123D01*
X403814Y163275D01*
X403982Y163526D01*
X404194Y163739D01*
X405836Y166196D01*
X405951Y166474D01*
X406119Y166724D01*
X406335Y167246D01*
X407782Y167420D01*
X408846Y166604D01*
X410488Y165924D01*
X412250Y165692D01*
X413750D01*
Y176750D01*
Y187808D01*
X412250D01*
X410488Y187576D01*
X409329Y187096D01*
X408059Y187768D01*
X408059Y195000D01*
X408059Y195985D01*
X408000Y196280D01*
Y196582D01*
X407616Y198514D01*
X407500Y198792D01*
X407442Y199087D01*
X406688Y200907D01*
X406520Y201158D01*
X406405Y201436D01*
X405311Y203074D01*
X405098Y203287D01*
X404930Y203538D01*
X403537Y204930D01*
X403287Y205098D01*
X403074Y205311D01*
X401436Y206405D01*
X401158Y206520D01*
X400907Y206688D01*
X399087Y207442D01*
X398792Y207500D01*
X398513Y207616D01*
X396774Y207962D01*
X396523D01*
X396278Y208019D01*
X395105Y208057D01*
X395055Y208049D01*
X395005Y208059D01*
X395001D01*
X395000Y208059D01*
D02*
G37*
G36*
X22580Y228000D02*
X19420D01*
X16368Y227182D01*
X13632Y225602D01*
X11398Y223368D01*
X9818Y220632D01*
X9000Y217580D01*
Y214420D01*
X9818Y211368D01*
X11398Y208632D01*
X13632Y206398D01*
X16368Y204818D01*
X19420Y204000D01*
X22580D01*
X25632Y204818D01*
X28368Y206398D01*
X30602Y208632D01*
X31619Y210392D01*
X39392D01*
Y205000D01*
X39819Y202854D01*
X41035Y201035D01*
X42854Y199819D01*
X45000Y199392D01*
X47146Y199819D01*
X48965Y201035D01*
X50181Y202854D01*
X50608Y205000D01*
Y216000D01*
X50500Y216542D01*
Y217094D01*
X50289Y217604D01*
X50181Y218146D01*
X49874Y218605D01*
X49663Y219116D01*
X49272Y219506D01*
X48965Y219965D01*
X48506Y220272D01*
X48116Y220663D01*
X47605Y220874D01*
X47146Y221181D01*
X46604Y221289D01*
X46094Y221500D01*
X45542D01*
X45000Y221608D01*
X31619D01*
X30602Y223368D01*
X28368Y225602D01*
X25632Y227182D01*
X22580Y228000D01*
D02*
G37*
G36*
X86548Y201500D02*
X73750D01*
Y196652D01*
X81500D01*
X83451Y197040D01*
X85105Y198145D01*
X86210Y199799D01*
X86548Y201500D01*
D02*
G37*
G36*
X70250D02*
X57452D01*
X57790Y199799D01*
X58895Y198145D01*
X60549Y197040D01*
X62500Y196652D01*
X70250D01*
Y201500D01*
D02*
G37*
G36*
X438250Y205019D02*
X418750D01*
X417384Y204747D01*
X416227Y203973D01*
X415453Y202816D01*
X415181Y201450D01*
Y198450D01*
X415453Y197084D01*
X416227Y195927D01*
X417384Y195153D01*
X418750Y194881D01*
X429912D01*
Y186087D01*
X429202Y185945D01*
X427465Y184785D01*
X426476Y183305D01*
X425514Y183237D01*
X425087Y183339D01*
X424646Y184404D01*
X423564Y185814D01*
X422154Y186896D01*
X420512Y187576D01*
X418750Y187808D01*
X417250D01*
Y176750D01*
Y165692D01*
X418750D01*
X420512Y165924D01*
X422154Y166604D01*
X423564Y167686D01*
X424646Y169096D01*
X425087Y170161D01*
X425514Y170263D01*
X426476Y170195D01*
X427465Y168715D01*
X429202Y167555D01*
X431250Y167147D01*
X437750D01*
X439798Y167555D01*
X441535Y168715D01*
X442695Y170452D01*
X443044Y172205D01*
X449114D01*
X449446Y170538D01*
X450606Y168802D01*
X452342Y167641D01*
X454391Y167234D01*
X460891D01*
X462939Y167641D01*
X464676Y168802D01*
X465836Y170538D01*
X466244Y172587D01*
Y181087D01*
X465836Y183135D01*
X464676Y184872D01*
X462939Y186032D01*
X460891Y186440D01*
X454391D01*
X452342Y186032D01*
X450606Y184872D01*
X449446Y183135D01*
X449097Y181382D01*
X443027D01*
X442695Y183048D01*
X441535Y184785D01*
X439798Y185945D01*
X439088Y186087D01*
Y195048D01*
X439616Y195153D01*
X440773Y195927D01*
X441547Y197084D01*
X441819Y198450D01*
Y201450D01*
X441547Y202816D01*
X440773Y203973D01*
X439616Y204747D01*
X438250Y205019D01*
D02*
G37*
G36*
X80000Y186556D02*
X73750D01*
Y178750D01*
X86556D01*
Y180000D01*
X86333Y181697D01*
X85678Y183278D01*
X84636Y184636D01*
X83278Y185678D01*
X81697Y186333D01*
X80000Y186556D01*
D02*
G37*
G36*
X70250D02*
X64000D01*
X62303Y186333D01*
X60722Y185678D01*
X59364Y184636D01*
X58322Y183278D01*
X57667Y181697D01*
X57444Y180000D01*
Y178750D01*
X70250D01*
Y186556D01*
D02*
G37*
G36*
X22580Y202600D02*
X19420D01*
X16368Y201782D01*
X13632Y200202D01*
X11398Y197968D01*
X9818Y195232D01*
X9000Y192180D01*
Y189020D01*
X9818Y185968D01*
X11398Y183232D01*
X13632Y180998D01*
X16368Y179418D01*
X19420Y178600D01*
X22580D01*
X25632Y179418D01*
X28368Y180998D01*
X30602Y183232D01*
X32182Y185968D01*
X33000Y189020D01*
Y192180D01*
X32182Y195232D01*
X30602Y197968D01*
X28368Y200202D01*
X25632Y201782D01*
X22580Y202600D01*
D02*
G37*
G36*
X358750Y187058D02*
X357250D01*
X355488Y186826D01*
X353846Y186146D01*
X352436Y185064D01*
X351354Y183654D01*
X350674Y182012D01*
X350442Y180250D01*
Y177750D01*
X358750D01*
Y187058D01*
D02*
G37*
G36*
X233769Y177891D02*
X225461D01*
Y168583D01*
X226961D01*
X228723Y168815D01*
X230365Y169495D01*
X231775Y170577D01*
X232857Y171987D01*
X233537Y173629D01*
X233769Y175391D01*
Y177891D01*
D02*
G37*
G36*
X86556Y175250D02*
X73750D01*
Y167444D01*
X80000D01*
X81697Y167667D01*
X83278Y168322D01*
X84636Y169364D01*
X85678Y170722D01*
X86333Y172303D01*
X86556Y174000D01*
Y175250D01*
D02*
G37*
G36*
X70250D02*
X57444D01*
Y174000D01*
X57667Y172303D01*
X58322Y170722D01*
X59364Y169364D01*
X60722Y168322D01*
X62303Y167667D01*
X64000Y167444D01*
X70250D01*
Y175250D01*
D02*
G37*
G36*
X358750Y174250D02*
X350442D01*
Y171750D01*
X350674Y169988D01*
X351354Y168346D01*
X352436Y166936D01*
X353846Y165854D01*
X355488Y165174D01*
X357250Y164942D01*
X358750D01*
Y174250D01*
D02*
G37*
G36*
X139500Y173565D02*
X128500D01*
X126542Y173307D01*
X124718Y172551D01*
X123151Y171349D01*
X121949Y169782D01*
X121193Y167958D01*
X120935Y166000D01*
Y162069D01*
X80146D01*
X80000Y162098D01*
X64000D01*
X62049Y161710D01*
X60395Y160605D01*
X59290Y158951D01*
X58902Y157000D01*
Y151000D01*
X59290Y149049D01*
X60395Y147395D01*
X62049Y146290D01*
X64000Y145902D01*
X80000D01*
X80146Y145931D01*
X120935D01*
Y143059D01*
X91000Y143059D01*
X84944Y143059D01*
X84845Y143039D01*
X84744Y143052D01*
X84263Y142923D01*
X83774Y142826D01*
X83689Y142770D01*
X83591Y142743D01*
X83196Y142440D01*
X82781Y142163D01*
X82725Y142079D01*
X82645Y142017D01*
X82395Y141585D01*
X82118Y141171D01*
X82099Y141071D01*
X82048Y140983D01*
X81617Y139713D01*
X81068Y139337D01*
X80281Y139042D01*
X80000Y139098D01*
X64000D01*
X63719Y139042D01*
X62932Y139338D01*
X62383Y139713D01*
X61952Y140983D01*
X61901Y141071D01*
X61882Y141170D01*
X61605Y141585D01*
X61355Y142017D01*
X61275Y142078D01*
X61219Y142163D01*
X60804Y142440D01*
X60409Y142743D01*
X60311Y142769D01*
X60226Y142826D01*
X59737Y142923D01*
X59256Y143052D01*
X59155Y143039D01*
X59056Y143059D01*
X51638Y143059D01*
X43044Y143059D01*
X42651Y142981D01*
X42252Y142954D01*
X42071Y142865D01*
X41873Y142826D01*
X41540Y142604D01*
X41182Y142427D01*
X41048Y142275D01*
X40881Y142163D01*
X40658Y141830D01*
X40395Y141529D01*
X39979Y140809D01*
X38763D01*
X37094Y141500D01*
X34906D01*
X33237Y140809D01*
X32048D01*
X31892Y140987D01*
X31736Y141254D01*
X31048Y142029D01*
X30974Y142085D01*
X30923Y142163D01*
X30501Y142444D01*
X30097Y142751D01*
X30008Y142774D01*
X29931Y142826D01*
X29434Y142925D01*
X28943Y143053D01*
X28851Y143041D01*
X28760Y143059D01*
X28212Y143059D01*
X27917Y143000D01*
X27615D01*
X26070Y142692D01*
X25791Y142577D01*
X25496Y142518D01*
X24040Y141915D01*
X23790Y141748D01*
X23511Y141633D01*
X22201Y140757D01*
X21988Y140544D01*
X21737Y140377D01*
X20623Y139263D01*
X20456Y139012D01*
X20243Y138799D01*
X19367Y137489D01*
X19252Y137210D01*
X19085Y136960D01*
X18482Y135504D01*
X18423Y135209D01*
X18307Y134930D01*
X18000Y133385D01*
Y133083D01*
X17941Y132788D01*
Y101000D01*
X17941Y99914D01*
X18174Y98743D01*
X19005Y96736D01*
X19669Y95744D01*
X21205Y94207D01*
X22197Y93544D01*
X24204Y92713D01*
X25375Y92480D01*
X26461Y92480D01*
X26943D01*
X27141Y92519D01*
X27343Y92506D01*
X27722Y92635D01*
X28114Y92713D01*
X28282Y92825D01*
X28473Y92890D01*
X28774Y93154D01*
X29086Y93363D01*
X29109Y93376D01*
X29760Y93481D01*
X30004Y93452D01*
X30629Y93231D01*
X31198Y92246D01*
X33246Y90198D01*
X35754Y88750D01*
X38552Y88000D01*
X41448D01*
X44246Y88750D01*
X46754Y90198D01*
X48802Y92246D01*
X49371Y93231D01*
X49996Y93452D01*
X50240Y93481D01*
X50891Y93376D01*
X50914Y93363D01*
X51227Y93154D01*
X51527Y92890D01*
X51718Y92825D01*
X51886Y92713D01*
X52278Y92635D01*
X52657Y92506D01*
X52859Y92519D01*
X53057Y92480D01*
X71392D01*
X72563Y92713D01*
X72819Y92884D01*
X73271Y93054D01*
X74266Y91566D01*
X75754Y90571D01*
X77510Y90222D01*
X81636D01*
X82262Y88952D01*
X81638Y88139D01*
X80732Y85949D01*
X80422Y83600D01*
Y72350D01*
X95000D01*
X109578D01*
Y75941D01*
X118398D01*
X119568Y76174D01*
X120303Y76479D01*
X121296Y77142D01*
X121858Y77704D01*
X122214Y78237D01*
X122521Y78696D01*
X122826Y79432D01*
X123059Y80602D01*
Y81000D01*
X123059Y81000D01*
Y91210D01*
X123059Y92480D01*
X149094D01*
X149194Y92500D01*
X149295Y92487D01*
X149776Y92616D01*
X150265Y92713D01*
X150349Y92769D01*
X150447Y92795D01*
X151900Y92583D01*
X152582Y91562D01*
X154546Y90250D01*
X156862Y89789D01*
X164737D01*
X167054Y90250D01*
X169018Y91562D01*
X170081Y93152D01*
X171328Y93603D01*
X171646Y93627D01*
X171770Y93542D01*
X172040Y93429D01*
X172282Y93263D01*
X172335Y93252D01*
X172339Y93250D01*
X172489Y93220D01*
X172585Y93200D01*
X172870Y93079D01*
X173163Y93078D01*
X173450Y93017D01*
X173475Y93017D01*
X173492Y93020D01*
X173509Y93017D01*
X173797Y93074D01*
X174064Y93072D01*
X174313Y93174D01*
X174648Y93237D01*
X174662Y93246D01*
X174680Y93250D01*
X174963Y93439D01*
X175169Y93523D01*
X175196Y93549D01*
X175767Y93597D01*
X176704Y93418D01*
X176750Y93398D01*
X177098Y92796D01*
X179216Y90678D01*
X181809Y89180D01*
X184450Y88473D01*
Y99780D01*
Y111087D01*
X181809Y110380D01*
X179329Y108947D01*
X178500Y109179D01*
X178059Y109361D01*
X178058Y132000D01*
X178058Y132001D01*
Y132002D01*
X178038Y132103D01*
X178052Y132204D01*
X177974Y133383D01*
X177922Y133577D01*
Y133778D01*
X177692Y134930D01*
X177577Y135209D01*
X177518Y135504D01*
X176915Y136960D01*
X176748Y137211D01*
X176632Y137489D01*
X175757Y138799D01*
X175544Y139012D01*
X175377Y139263D01*
X174262Y140377D01*
X174012Y140544D01*
X173799Y140757D01*
X172489Y141633D01*
X172210Y141748D01*
X171960Y141915D01*
X170504Y142519D01*
X170208Y142577D01*
X169930Y142692D01*
X168385Y143000D01*
X168083D01*
X167788Y143059D01*
X167000Y143059D01*
X147065Y143059D01*
Y145931D01*
X155766D01*
X157451Y144805D01*
X159500Y144397D01*
X166000D01*
X168048Y144805D01*
X169785Y145965D01*
X170945Y147702D01*
X171353Y149750D01*
Y158250D01*
X170945Y160298D01*
X169785Y162035D01*
X168048Y163195D01*
X166000Y163603D01*
X159500D01*
X157451Y163195D01*
X155766Y162069D01*
X147065D01*
Y166000D01*
X146807Y167958D01*
X146051Y169782D01*
X144849Y171349D01*
X143282Y172551D01*
X141458Y173307D01*
X139500Y173565D01*
D02*
G37*
G36*
X227000Y164808D02*
X225500D01*
Y155500D01*
X233808D01*
Y158000D01*
X233576Y159762D01*
X232896Y161404D01*
X231814Y162814D01*
X230404Y163896D01*
X228762Y164576D01*
X227000Y164808D01*
D02*
G37*
G36*
X467750Y162058D02*
X466250D01*
Y152750D01*
X474558D01*
Y155250D01*
X474326Y157012D01*
X473646Y158654D01*
X472564Y160064D01*
X471154Y161146D01*
X469512Y161826D01*
X467750Y162058D01*
D02*
G37*
G36*
X343995Y182000D02*
X342005D01*
X340168Y181239D01*
X338761Y179832D01*
X338000Y177995D01*
Y176005D01*
X338412Y175011D01*
Y166000D01*
X338761Y164244D01*
X339756Y162756D01*
X352013Y150498D01*
X353502Y149504D01*
X355257Y149155D01*
X356180D01*
X356261Y148744D01*
X357256Y147256D01*
X358744Y146261D01*
X360500Y145912D01*
X366500D01*
X368256Y146261D01*
X369744Y147256D01*
X370739Y148744D01*
X371088Y150500D01*
Y155500D01*
X370739Y157256D01*
X369744Y158744D01*
X368256Y159739D01*
X366500Y160088D01*
X360500D01*
X358744Y159739D01*
X357256Y158744D01*
X356790Y158699D01*
X347588Y167901D01*
Y175011D01*
X348000Y176005D01*
Y177995D01*
X347239Y179832D01*
X345832Y181239D01*
X343995Y182000D01*
D02*
G37*
G36*
X233808Y152000D02*
X225500D01*
Y142692D01*
X227000D01*
X228762Y142924D01*
X230404Y143604D01*
X231814Y144686D01*
X232896Y146096D01*
X233576Y147738D01*
X233808Y149500D01*
Y152000D01*
D02*
G37*
G36*
X425515Y136703D02*
X424015D01*
Y127394D01*
X432323D01*
Y129895D01*
X432091Y131657D01*
X431411Y133299D01*
X430329Y134709D01*
X428919Y135791D01*
X427277Y136471D01*
X425515Y136703D01*
D02*
G37*
G36*
X432323Y123895D02*
X424015D01*
Y114586D01*
X425515D01*
X427277Y114818D01*
X428919Y115498D01*
X430329Y116580D01*
X431411Y117990D01*
X432091Y119632D01*
X432323Y121394D01*
Y123895D01*
D02*
G37*
G36*
X653750Y134613D02*
X646250D01*
X644007Y134166D01*
X642104Y132895D01*
X640834Y130993D01*
X640387Y128750D01*
Y111250D01*
X640834Y109007D01*
X642104Y107105D01*
X644007Y105834D01*
X646250Y105387D01*
X653750D01*
X655993Y105834D01*
X657896Y107105D01*
X659166Y109007D01*
X659613Y111250D01*
Y128750D01*
X659166Y130993D01*
X657896Y132895D01*
X655993Y134166D01*
X653750Y134613D01*
D02*
G37*
G36*
X857822Y112016D02*
X857770D01*
Y103246D01*
X866540D01*
Y103298D01*
X865856Y105852D01*
X864534Y108141D01*
X862665Y110010D01*
X860375Y111332D01*
X857822Y112016D01*
D02*
G37*
G36*
X855230D02*
X855178D01*
X852625Y111332D01*
X850335Y110010D01*
X848466Y108141D01*
X847144Y105852D01*
X846460Y103298D01*
Y103246D01*
X855230D01*
Y112016D01*
D02*
G37*
G36*
X264150Y111087D02*
Y101530D01*
X273707D01*
X273000Y104171D01*
X271502Y106764D01*
X269384Y108882D01*
X266791Y110380D01*
X264150Y111087D01*
D02*
G37*
G36*
X260650D02*
X258009Y110380D01*
X255416Y108882D01*
X253298Y106764D01*
X251800Y104171D01*
X251093Y101530D01*
X260650D01*
Y111087D01*
D02*
G37*
G36*
X187950D02*
Y101530D01*
X197507D01*
X196800Y104171D01*
X195302Y106764D01*
X193184Y108882D01*
X190591Y110380D01*
X187950Y111087D01*
D02*
G37*
G36*
X866540Y100706D02*
X857770D01*
Y91936D01*
X857822D01*
X860375Y92620D01*
X862665Y93942D01*
X864534Y95812D01*
X865856Y98101D01*
X866540Y100654D01*
Y100706D01*
D02*
G37*
G36*
X855230D02*
X846460D01*
Y100654D01*
X847144Y98101D01*
X848466Y95812D01*
X850335Y93942D01*
X852625Y92620D01*
X855178Y91936D01*
X855230D01*
Y100706D01*
D02*
G37*
G36*
X289100Y109655D02*
X286500D01*
X283988Y108982D01*
X281737Y107682D01*
X279898Y105843D01*
X278598Y103592D01*
X277925Y101080D01*
Y98480D01*
X278598Y95968D01*
X279898Y93717D01*
X281737Y91878D01*
X283988Y90578D01*
X286500Y89905D01*
X289100D01*
X291612Y90578D01*
X293863Y91878D01*
X295702Y93717D01*
X297002Y95968D01*
X297675Y98480D01*
Y101080D01*
X297002Y103592D01*
X295702Y105843D01*
X293863Y107682D01*
X291612Y108982D01*
X289100Y109655D01*
D02*
G37*
G36*
X238300D02*
X235700D01*
X233188Y108982D01*
X230937Y107682D01*
X229098Y105843D01*
X227798Y103592D01*
X227125Y101080D01*
Y98480D01*
X227798Y95968D01*
X229098Y93717D01*
X230937Y91878D01*
X233188Y90578D01*
X235700Y89905D01*
X238300D01*
X240812Y90578D01*
X243063Y91878D01*
X244902Y93717D01*
X246202Y95968D01*
X246875Y98480D01*
Y101080D01*
X246202Y103592D01*
X244902Y105843D01*
X243063Y107682D01*
X240812Y108982D01*
X238300Y109655D01*
D02*
G37*
G36*
X273707Y98030D02*
X264150D01*
Y88473D01*
X266791Y89180D01*
X269384Y90678D01*
X271502Y92796D01*
X273000Y95389D01*
X273707Y98030D01*
D02*
G37*
G36*
X260650D02*
X251093D01*
X251800Y95389D01*
X253298Y92796D01*
X255416Y90678D01*
X258009Y89180D01*
X260650Y88473D01*
Y98030D01*
D02*
G37*
G36*
X197507D02*
X187950D01*
Y88473D01*
X190591Y89180D01*
X193184Y90678D01*
X195302Y92796D01*
X196800Y95389D01*
X197507Y98030D01*
D02*
G37*
G36*
X701274Y97613D02*
X699774D01*
Y88305D01*
X708082D01*
Y90805D01*
X707850Y92567D01*
X707170Y94209D01*
X706088Y95619D01*
X704678Y96701D01*
X703036Y97381D01*
X701274Y97613D01*
D02*
G37*
G36*
X481750Y89058D02*
X480250D01*
Y79750D01*
X488558D01*
Y82250D01*
X488326Y84012D01*
X487646Y85654D01*
X486564Y87064D01*
X485154Y88146D01*
X483512Y88826D01*
X481750Y89058D01*
D02*
G37*
G36*
X708082Y84805D02*
X699774D01*
Y75497D01*
X701274D01*
X703036Y75729D01*
X704678Y76409D01*
X706088Y77491D01*
X707170Y78901D01*
X707850Y80543D01*
X708082Y82305D01*
Y84805D01*
D02*
G37*
G36*
X41750Y85472D02*
Y74750D01*
X52472D01*
X51648Y77825D01*
X50002Y80675D01*
X47675Y83003D01*
X44825Y84648D01*
X41750Y85472D01*
D02*
G37*
G36*
X38250D02*
X35175Y84648D01*
X32325Y83003D01*
X29997Y80675D01*
X28352Y77825D01*
X27528Y74750D01*
X38250D01*
Y85472D01*
D02*
G37*
G36*
X52472Y71250D02*
X41750D01*
Y60528D01*
X44825Y61352D01*
X47675Y62997D01*
X50002Y65325D01*
X51648Y68175D01*
X52472Y71250D01*
D02*
G37*
G36*
X38250D02*
X27528D01*
X28352Y68175D01*
X29997Y65325D01*
X32325Y62997D01*
X35175Y61352D01*
X38250Y60528D01*
Y71250D01*
D02*
G37*
G36*
X109578Y68850D02*
X96750D01*
Y48522D01*
X100500D01*
X102850Y48832D01*
X105039Y49738D01*
X106919Y51181D01*
X108362Y53061D01*
X109268Y55251D01*
X109578Y57600D01*
Y68850D01*
D02*
G37*
G36*
X93250D02*
X80422D01*
Y57600D01*
X80732Y55251D01*
X81638Y53061D01*
X83081Y51181D01*
X84961Y49738D01*
X87150Y48832D01*
X89500Y48522D01*
X93250D01*
Y68850D01*
D02*
G37*
G36*
X143750Y25778D02*
Y20750D01*
X148778D01*
X148523Y21702D01*
X147601Y23298D01*
X146298Y24601D01*
X144702Y25523D01*
X143750Y25778D01*
D02*
G37*
G36*
X140250D02*
X139298Y25523D01*
X137702Y24601D01*
X136399Y23298D01*
X135477Y21702D01*
X135222Y20750D01*
X140250D01*
Y25778D01*
D02*
G37*
G36*
X396750Y30058D02*
X395250D01*
Y20750D01*
X403558D01*
Y23250D01*
X403326Y25012D01*
X402646Y26654D01*
X401564Y28064D01*
X400154Y29146D01*
X398512Y29826D01*
X396750Y30058D01*
D02*
G37*
G36*
X971724Y47500D02*
X968276D01*
X964895Y46828D01*
X961711Y45508D01*
X958844Y43593D01*
X956407Y41156D01*
X954492Y38289D01*
X953173Y35105D01*
X952500Y31724D01*
Y28276D01*
X953173Y24895D01*
X954492Y21711D01*
X956407Y18844D01*
X958844Y16407D01*
X961711Y14492D01*
X964895Y13173D01*
X968276Y12500D01*
X971724D01*
X975105Y13173D01*
X978289Y14492D01*
X981156Y16407D01*
X983593Y18844D01*
X985508Y21711D01*
X986827Y24895D01*
X987500Y28276D01*
Y31724D01*
X986827Y35105D01*
X985508Y38289D01*
X983593Y41156D01*
X981156Y43593D01*
X978289Y45508D01*
X975105Y46828D01*
X971724Y47500D01*
D02*
G37*
G36*
X31724D02*
X28276D01*
X24895Y46828D01*
X21711Y45508D01*
X18844Y43593D01*
X16407Y41156D01*
X14492Y38289D01*
X13173Y35105D01*
X12500Y31724D01*
Y28276D01*
X13173Y24895D01*
X14492Y21711D01*
X16407Y18844D01*
X18844Y16407D01*
X21711Y14492D01*
X24895Y13173D01*
X28276Y12500D01*
X31724D01*
X35105Y13173D01*
X38289Y14492D01*
X41156Y16407D01*
X43593Y18844D01*
X45508Y21711D01*
X46828Y24895D01*
X47500Y28276D01*
Y31724D01*
X46828Y35105D01*
X45508Y38289D01*
X43593Y41156D01*
X41156Y43593D01*
X38289Y45508D01*
X35105Y46828D01*
X31724Y47500D01*
D02*
G37*
G36*
X148778Y17250D02*
X143750D01*
Y12222D01*
X144702Y12477D01*
X146298Y13399D01*
X147601Y14702D01*
X148523Y16298D01*
X148778Y17250D01*
D02*
G37*
G36*
X140250D02*
X135222D01*
X135477Y16298D01*
X136399Y14702D01*
X137702Y13399D01*
X139298Y12477D01*
X140250Y12222D01*
Y17250D01*
D02*
G37*
G36*
X403558Y17250D02*
X395250D01*
Y7942D01*
X396750D01*
X398512Y8174D01*
X400154Y8854D01*
X401564Y9936D01*
X402646Y11346D01*
X403326Y12988D01*
X403558Y14750D01*
Y17250D01*
D02*
G37*
%LPD*%
G36*
X286750Y513222D02*
X287702Y513477D01*
X289298Y514399D01*
X290601Y515702D01*
X291523Y517298D01*
X291790Y518296D01*
X292125Y518599D01*
X293212Y518859D01*
X294239Y517832D01*
X294925Y516175D01*
X295000Y515002D01*
Y515000D01*
X295000Y515000D01*
X295000Y515000D01*
Y501899D01*
X293730Y500929D01*
X292750Y501058D01*
X291250D01*
Y490000D01*
Y478942D01*
X292750D01*
X293730Y479071D01*
X295000Y478101D01*
Y471985D01*
X293730Y471720D01*
X292805Y473105D01*
X291151Y474210D01*
X289450Y474548D01*
Y459750D01*
X287700D01*
Y458000D01*
X281102D01*
Y456175D01*
X279929Y455689D01*
X277588Y458030D01*
Y482000D01*
X277239Y483756D01*
X276244Y485244D01*
X275000Y486489D01*
Y515994D01*
X275761Y517832D01*
X276788Y518859D01*
X277875Y518599D01*
X278210Y518296D01*
X278477Y517298D01*
X279399Y515702D01*
X280702Y514399D01*
X282298Y513477D01*
X283250Y513222D01*
Y520000D01*
X286750D01*
Y513222D01*
D02*
G37*
G36*
X359203Y417731D02*
X360000Y415808D01*
Y410339D01*
X359476Y409555D01*
X358514Y409487D01*
X358087Y409589D01*
X357646Y410654D01*
X356564Y412064D01*
X355154Y413146D01*
X353512Y413826D01*
X351750Y414058D01*
X350250D01*
Y403000D01*
Y391942D01*
X351750D01*
X353512Y392174D01*
X355154Y392854D01*
X356564Y393936D01*
X357646Y395346D01*
X358087Y396411D01*
X358514Y396513D01*
X359476Y396445D01*
X360000Y395661D01*
X360000Y385000D01*
X360000Y384212D01*
X359692Y382666D01*
X359090Y381211D01*
X359008Y381088D01*
X330103D01*
Y381250D01*
X329695Y383298D01*
X328535Y385035D01*
X326798Y386195D01*
X324750Y386603D01*
X320000D01*
Y393332D01*
X321270Y394011D01*
X322349Y393290D01*
X324050Y392952D01*
Y407750D01*
X325800D01*
Y409500D01*
X332398D01*
Y417500D01*
X332736Y417912D01*
X359023D01*
X359203Y417731D01*
D02*
G37*
G36*
X545000Y342339D02*
X544476Y341555D01*
X543514Y341487D01*
X543087Y341589D01*
X542646Y342654D01*
X541564Y344064D01*
X540154Y345146D01*
X538512Y345826D01*
X536750Y346058D01*
X535250D01*
Y335000D01*
Y323942D01*
X536750D01*
X538512Y324174D01*
X540154Y324854D01*
X541564Y325936D01*
X542646Y327346D01*
X543087Y328411D01*
X543514Y328513D01*
X544476Y328445D01*
X545000Y327661D01*
Y325000D01*
X545000Y324015D01*
X544616Y322083D01*
X543862Y320263D01*
X542767Y318625D01*
X541375Y317232D01*
X539737Y316138D01*
X537917Y315384D01*
X535985Y315000D01*
X535000Y315000D01*
X533734Y315000D01*
X531250Y315494D01*
X528911Y316463D01*
X526806Y317870D01*
X525015Y319660D01*
X523608Y321766D01*
X522639Y324105D01*
X522145Y326589D01*
X522145Y327855D01*
Y359931D01*
X525100D01*
X526466Y360203D01*
X527623Y360977D01*
X528397Y362134D01*
X528538Y362843D01*
X529833D01*
X530090Y361549D01*
X531195Y359895D01*
X532849Y358790D01*
X534550Y358452D01*
Y373250D01*
X536300D01*
Y375000D01*
X542898D01*
Y380000D01*
X545000D01*
X545000Y342339D01*
D02*
G37*
%LPC*%
G36*
X287750Y501058D02*
X286250D01*
X284488Y500826D01*
X282846Y500146D01*
X281436Y499064D01*
X280354Y497654D01*
X279674Y496012D01*
X279442Y494250D01*
Y491750D01*
X287750D01*
Y501058D01*
D02*
G37*
G36*
Y488250D02*
X279442D01*
Y485750D01*
X279674Y483988D01*
X280354Y482346D01*
X281436Y480936D01*
X282846Y479854D01*
X284488Y479174D01*
X286250Y478942D01*
X287750D01*
Y488250D01*
D02*
G37*
G36*
X285950Y474548D02*
X284249Y474210D01*
X282595Y473105D01*
X281490Y471451D01*
X281102Y469500D01*
Y461500D01*
X285950D01*
Y474548D01*
D02*
G37*
G36*
X346750Y414058D02*
X345250D01*
X343488Y413826D01*
X341846Y413146D01*
X340436Y412064D01*
X339354Y410654D01*
X338674Y409012D01*
X338442Y407250D01*
Y404750D01*
X346750D01*
Y414058D01*
D02*
G37*
G36*
X332398Y406000D02*
X327550D01*
Y392952D01*
X329251Y393290D01*
X330905Y394395D01*
X332010Y396049D01*
X332398Y398000D01*
Y406000D01*
D02*
G37*
G36*
X346750Y401250D02*
X338442D01*
Y398750D01*
X338674Y396988D01*
X339354Y395346D01*
X340436Y393936D01*
X341846Y392854D01*
X343488Y392174D01*
X345250Y391942D01*
X346750D01*
Y401250D01*
D02*
G37*
G36*
X542898Y371500D02*
X538050D01*
Y358452D01*
X539751Y358790D01*
X541405Y359895D01*
X542510Y361549D01*
X542898Y363500D01*
Y371500D01*
D02*
G37*
G36*
X531750Y346058D02*
X530250D01*
X528488Y345826D01*
X526846Y345146D01*
X525436Y344064D01*
X524354Y342654D01*
X523674Y341012D01*
X523442Y339250D01*
Y336750D01*
X531750D01*
Y346058D01*
D02*
G37*
G36*
Y333250D02*
X523442D01*
Y330750D01*
X523674Y328988D01*
X524354Y327346D01*
X525436Y325936D01*
X526846Y324854D01*
X528488Y324174D01*
X530250Y323942D01*
X531750D01*
Y333250D01*
D02*
G37*
%LPD*%
G36*
X497511Y463730D02*
X496555Y462298D01*
X496147Y460250D01*
Y451750D01*
X496555Y449701D01*
X497715Y447965D01*
X499452Y446805D01*
X501500Y446397D01*
X505000D01*
Y438354D01*
X503730Y437968D01*
X503305Y438605D01*
X501651Y439710D01*
X499950Y440048D01*
Y425250D01*
X498200D01*
Y423500D01*
X491602D01*
Y420000D01*
X470427D01*
X470222Y421270D01*
X471270Y422071D01*
X472250Y421942D01*
X473750D01*
Y433000D01*
Y444058D01*
X472250D01*
X471270Y443929D01*
X470000Y444899D01*
Y451477D01*
X470577Y454375D01*
X471707Y457105D01*
X473349Y459562D01*
X475438Y461651D01*
X477895Y463293D01*
X480625Y464423D01*
X483523Y465000D01*
X485000D01*
Y465000D01*
X497047D01*
X497511Y463730D01*
D02*
G37*
%LPC*%
G36*
X478750Y444058D02*
X477250D01*
Y434750D01*
X485558D01*
Y437250D01*
X485326Y439012D01*
X484646Y440654D01*
X483564Y442064D01*
X482154Y443146D01*
X480512Y443826D01*
X478750Y444058D01*
D02*
G37*
G36*
X496450Y440048D02*
X494749Y439710D01*
X493095Y438605D01*
X491990Y436951D01*
X491602Y435000D01*
Y427000D01*
X496450D01*
Y440048D01*
D02*
G37*
G36*
X485558Y431250D02*
X477250D01*
Y421942D01*
X478750D01*
X480512Y422174D01*
X482154Y422854D01*
X483564Y423936D01*
X484646Y425346D01*
X485326Y426988D01*
X485558Y428750D01*
Y431250D01*
D02*
G37*
%LPD*%
G36*
X86953Y389734D02*
X87727Y388577D01*
X88884Y387803D01*
X90250Y387531D01*
X94396D01*
Y384968D01*
X90250D01*
X88884Y384697D01*
X87727Y383923D01*
X86953Y382766D01*
X86681Y381400D01*
Y378400D01*
X86953Y377034D01*
X87727Y375877D01*
X88884Y375103D01*
X89593Y374962D01*
Y373667D01*
X88299Y373410D01*
X86645Y372305D01*
X85540Y370651D01*
X85202Y368950D01*
X99750D01*
Y365450D01*
X85202D01*
X85540Y363749D01*
X86645Y362095D01*
X88299Y360990D01*
X89593Y360733D01*
Y359438D01*
X88884Y359297D01*
X87727Y358523D01*
X86953Y357366D01*
X86681Y356000D01*
Y354283D01*
X81995D01*
X81146Y355553D01*
X81326Y355988D01*
X81558Y357750D01*
Y359250D01*
X59442D01*
Y357750D01*
X59674Y355988D01*
X59854Y355553D01*
X59005Y354283D01*
X56745D01*
X55896Y355553D01*
X56076Y355988D01*
X56308Y357750D01*
Y359250D01*
X34192D01*
Y357750D01*
X34424Y355988D01*
X34557Y355667D01*
X33584Y354695D01*
X32478Y355154D01*
X30870Y356762D01*
X30000Y358863D01*
Y369390D01*
X30965Y370035D01*
X32181Y371854D01*
X32608Y374000D01*
X32527Y374403D01*
Y386670D01*
X33625Y387767D01*
X35263Y388862D01*
X37083Y389616D01*
X39015Y390000D01*
X40000Y390000D01*
X86900Y390000D01*
X86953Y389734D01*
D02*
G37*
G36*
X230000Y390000D02*
X230985D01*
X232917Y389616D01*
X234737Y388862D01*
X236375Y387767D01*
X237767Y386375D01*
X238862Y384737D01*
X239616Y382917D01*
X239956Y381205D01*
X240000Y380003D01*
Y380000D01*
X240000D01*
X240000Y380000D01*
X240000Y370000D01*
X240000Y369015D01*
X239616Y367083D01*
X238862Y365263D01*
X237768Y363625D01*
X236375Y362232D01*
X234737Y361138D01*
X232917Y360384D01*
X231179Y360039D01*
X230000Y360000D01*
X230000Y360000D01*
X230000Y360000D01*
X217783D01*
X216935Y361270D01*
X217226Y361974D01*
X217458Y363736D01*
Y365236D01*
X195342D01*
Y363736D01*
X195574Y361974D01*
X195865Y361270D01*
X195017Y360000D01*
X192628D01*
X191779Y361270D01*
X192076Y361988D01*
X192308Y363750D01*
Y365250D01*
X170192D01*
Y363750D01*
X170424Y361988D01*
X170721Y361270D01*
X169872Y360000D01*
X164005D01*
X163620Y361270D01*
X164855Y362095D01*
X165960Y363749D01*
X166298Y365450D01*
X151750D01*
Y368950D01*
X166298D01*
X165960Y370651D01*
X164855Y372305D01*
X163201Y373410D01*
X161907Y373667D01*
Y374962D01*
X162616Y375103D01*
X163773Y375877D01*
X164547Y377034D01*
X164819Y378400D01*
Y381400D01*
X164547Y382766D01*
X163773Y383923D01*
X162616Y384697D01*
X161250Y384968D01*
X150000D01*
Y387531D01*
X161250D01*
X162616Y387803D01*
X163773Y388577D01*
X164547Y389734D01*
X164600Y390000D01*
X230000Y390000D01*
D02*
G37*
G36*
X158042Y319731D02*
X159316Y319203D01*
X160462Y318437D01*
X161437Y317462D01*
X162203Y316316D01*
X162731Y315042D01*
X162898Y314201D01*
X163000Y313001D01*
Y313000D01*
X163000D01*
X163000Y313000D01*
X163000Y280000D01*
X163000Y279310D01*
X162731Y277958D01*
X162203Y276684D01*
X161437Y275538D01*
X160462Y274563D01*
X159316Y273797D01*
X158042Y273269D01*
X157226Y273107D01*
X156000Y273000D01*
X156000Y273000D01*
X156000Y273000D01*
X137378D01*
X136992Y274270D01*
X137105Y274345D01*
X138210Y275999D01*
X138548Y277700D01*
X124000D01*
Y279450D01*
X122250D01*
Y286048D01*
X117000D01*
Y293721D01*
X118270Y294152D01*
X118436Y293936D01*
X119846Y292854D01*
X121488Y292174D01*
X123250Y291942D01*
X124750D01*
Y303000D01*
Y314058D01*
X123250D01*
X121488Y313826D01*
X119846Y313146D01*
X118436Y312064D01*
X118270Y311848D01*
X117000Y312279D01*
Y316796D01*
X117609Y318266D01*
X118734Y319391D01*
X119992Y319912D01*
X157132D01*
X158042Y319731D01*
D02*
G37*
G36*
X284000Y289000D02*
X284597Y289000D01*
X285699Y288543D01*
X286543Y287699D01*
X287000Y286597D01*
Y286000D01*
X286726Y285636D01*
X286482Y285516D01*
X285150Y285382D01*
X284154Y286146D01*
X282512Y286826D01*
X280750Y287058D01*
X279250D01*
Y276000D01*
X277500D01*
D01*
X279250D01*
Y264942D01*
X280750D01*
X282512Y265174D01*
X284154Y265854D01*
X285564Y266936D01*
X285730Y267152D01*
X287000Y266721D01*
Y258557D01*
X286500Y258085D01*
X284930Y258297D01*
X284076Y259576D01*
X282091Y260902D01*
X279750Y261367D01*
X278500D01*
Y252750D01*
X276750D01*
Y251000D01*
X267632D01*
Y250250D01*
X268098Y247909D01*
X269424Y245924D01*
X271409Y244598D01*
X273058Y244270D01*
X272933Y243000D01*
X262000D01*
X261602Y243000D01*
X260867Y243304D01*
X260305Y243867D01*
X260000Y244602D01*
X260000Y245000D01*
X260000Y245000D01*
Y286597D01*
X260457Y287699D01*
X261301Y288543D01*
X262403Y289000D01*
X263000D01*
X263000Y289000D01*
X284000Y289000D01*
D02*
G37*
%LPC*%
G36*
X74750Y371058D02*
X72250D01*
Y362750D01*
X81558D01*
Y364250D01*
X81326Y366012D01*
X80646Y367654D01*
X79564Y369064D01*
X78154Y370146D01*
X76512Y370826D01*
X74750Y371058D01*
D02*
G37*
G36*
X68750D02*
X66250D01*
X64488Y370826D01*
X62846Y370146D01*
X61436Y369064D01*
X60354Y367654D01*
X59674Y366012D01*
X59442Y364250D01*
Y362750D01*
X68750D01*
Y371058D01*
D02*
G37*
G36*
X49500D02*
X47000D01*
Y362750D01*
X56308D01*
Y364250D01*
X56076Y366012D01*
X55396Y367654D01*
X54314Y369064D01*
X52904Y370146D01*
X51262Y370826D01*
X49500Y371058D01*
D02*
G37*
G36*
X43500D02*
X41000D01*
X39238Y370826D01*
X37596Y370146D01*
X36186Y369064D01*
X35104Y367654D01*
X34424Y366012D01*
X34192Y364250D01*
Y362750D01*
X43500D01*
Y371058D01*
D02*
G37*
G36*
X185500Y377058D02*
X183000D01*
Y368750D01*
X192308D01*
Y370250D01*
X192076Y372012D01*
X191396Y373654D01*
X190314Y375064D01*
X188904Y376146D01*
X187262Y376826D01*
X185500Y377058D01*
D02*
G37*
G36*
X179500D02*
X177000D01*
X175238Y376826D01*
X173596Y376146D01*
X172186Y375064D01*
X171104Y373654D01*
X170424Y372012D01*
X170192Y370250D01*
Y368750D01*
X179500D01*
Y377058D01*
D02*
G37*
G36*
X210650Y377044D02*
X208150D01*
Y368736D01*
X217458D01*
Y370236D01*
X217226Y371998D01*
X216546Y373640D01*
X215464Y375050D01*
X214054Y376132D01*
X212412Y376812D01*
X210650Y377044D01*
D02*
G37*
G36*
X204650D02*
X202150D01*
X200388Y376812D01*
X198746Y376132D01*
X197336Y375050D01*
X196254Y373640D01*
X195574Y371998D01*
X195342Y370236D01*
Y368736D01*
X204650D01*
Y377044D01*
D02*
G37*
G36*
X129750Y314058D02*
X128250D01*
Y304750D01*
X136558D01*
Y307250D01*
X136326Y309012D01*
X135646Y310654D01*
X134564Y312064D01*
X133154Y313146D01*
X131512Y313826D01*
X129750Y314058D01*
D02*
G37*
G36*
X136558Y301250D02*
X128250D01*
Y291942D01*
X129750D01*
X131512Y292174D01*
X133154Y292854D01*
X134564Y293936D01*
X135646Y295346D01*
X136326Y296988D01*
X136558Y298750D01*
Y301250D01*
D02*
G37*
G36*
X155750Y289778D02*
Y284750D01*
X160778D01*
X160523Y285702D01*
X159601Y287298D01*
X158298Y288601D01*
X156702Y289523D01*
X155750Y289778D01*
D02*
G37*
G36*
X152250D02*
X151298Y289523D01*
X149702Y288601D01*
X148399Y287298D01*
X147477Y285702D01*
X147222Y284750D01*
X152250D01*
Y289778D01*
D02*
G37*
G36*
X133500Y286048D02*
X125750D01*
Y281200D01*
X138548D01*
X138210Y282901D01*
X137105Y284555D01*
X135451Y285660D01*
X133500Y286048D01*
D02*
G37*
G36*
X160778Y281250D02*
X155750D01*
Y276222D01*
X156702Y276477D01*
X158298Y277399D01*
X159601Y278702D01*
X160523Y280298D01*
X160778Y281250D01*
D02*
G37*
G36*
X152250D02*
X147222D01*
X147477Y280298D01*
X148399Y278702D01*
X149702Y277399D01*
X151298Y276477D01*
X152250Y276222D01*
Y281250D01*
D02*
G37*
G36*
X275750Y287058D02*
X274250D01*
X272488Y286826D01*
X270846Y286146D01*
X269436Y285064D01*
X268354Y283654D01*
X267674Y282012D01*
X267442Y280250D01*
Y277750D01*
X275750D01*
Y287058D01*
D02*
G37*
G36*
Y274250D02*
X267442D01*
Y271750D01*
X267674Y269988D01*
X268354Y268346D01*
X269436Y266936D01*
X270846Y265854D01*
X272488Y265174D01*
X274250Y264942D01*
X275750D01*
Y274250D01*
D02*
G37*
G36*
X275000Y261367D02*
X273750D01*
X271409Y260902D01*
X269424Y259576D01*
X268098Y257591D01*
X267632Y255250D01*
Y254500D01*
X275000D01*
Y261367D01*
D02*
G37*
%LPD*%
G36*
X435000Y273037D02*
X433730Y272278D01*
X432277Y272469D01*
X430777D01*
Y261411D01*
X429027D01*
D01*
X430777D01*
Y250353D01*
X432277D01*
X433730Y250544D01*
X435000Y249785D01*
Y244648D01*
X430250D01*
Y238050D01*
X428500D01*
Y236300D01*
X413702D01*
X413765Y235982D01*
X412959Y235000D01*
X410000D01*
Y285000D01*
X435000D01*
Y273037D01*
D02*
G37*
%LPC*%
G36*
X427277Y272469D02*
X425777D01*
X424015Y272237D01*
X422373Y271557D01*
X420963Y270475D01*
X419881Y269065D01*
X419201Y267423D01*
X418969Y265661D01*
Y263161D01*
X427277D01*
Y272469D01*
D02*
G37*
G36*
Y259661D02*
X418969D01*
Y257161D01*
X419201Y255399D01*
X419881Y253757D01*
X420963Y252347D01*
X422373Y251265D01*
X424015Y250585D01*
X425777Y250353D01*
X427277D01*
Y259661D01*
D02*
G37*
G36*
X426750Y244648D02*
X418750D01*
X416799Y244260D01*
X415145Y243155D01*
X414040Y241501D01*
X413702Y239800D01*
X426750D01*
Y244648D01*
D02*
G37*
%LPD*%
G36*
X395000Y205000D02*
X395000Y205000D01*
X395005D01*
X396178Y204961D01*
X397917Y204616D01*
X399737Y203862D01*
X401375Y202767D01*
X402767Y201375D01*
X403862Y199737D01*
X404616Y197917D01*
X405000Y195985D01*
X405000Y195000D01*
X405000Y175000D01*
X405000Y175000D01*
Y173523D01*
X404423Y170625D01*
X403293Y167895D01*
X401651Y165438D01*
X399562Y163349D01*
X397105Y161707D01*
X394375Y160576D01*
X391477Y160000D01*
X383943D01*
X383500Y160088D01*
X378572D01*
X377083Y160384D01*
X375263Y161138D01*
X373625Y162232D01*
X372233Y163625D01*
X371138Y165263D01*
X370956Y165704D01*
X371999Y166504D01*
X372846Y165854D01*
X374488Y165174D01*
X376250Y164942D01*
X377750D01*
Y176000D01*
Y187058D01*
X376250D01*
X374488Y186826D01*
X372846Y186146D01*
X371436Y185064D01*
X371270Y184848D01*
X370000Y185279D01*
Y193352D01*
X374750D01*
Y199950D01*
X376500D01*
Y201700D01*
X391298D01*
X390960Y203401D01*
X390640Y203880D01*
X391239Y205000D01*
X395000Y205000D01*
X395000Y205000D01*
D02*
G37*
%LPC*%
G36*
X391298Y198200D02*
X378250D01*
Y193352D01*
X386250D01*
X388201Y193740D01*
X389855Y194845D01*
X390960Y196499D01*
X391298Y198200D01*
D02*
G37*
G36*
X382750Y187058D02*
X381250D01*
Y177750D01*
X389558D01*
Y180250D01*
X389326Y182012D01*
X388646Y183654D01*
X387564Y185064D01*
X386154Y186146D01*
X384512Y186826D01*
X382750Y187058D01*
D02*
G37*
G36*
X389558Y174250D02*
X381250D01*
Y164942D01*
X382750D01*
X384512Y165174D01*
X386154Y165854D01*
X387564Y166936D01*
X388646Y168346D01*
X389326Y169988D01*
X389558Y171750D01*
Y174250D01*
D02*
G37*
%LPD*%
G36*
X121210Y140000D02*
X121949Y138218D01*
X123151Y136651D01*
X124718Y135449D01*
X126542Y134693D01*
X128500Y134435D01*
X139500D01*
X141458Y134693D01*
X143282Y135449D01*
X144849Y136651D01*
X146051Y138218D01*
X146790Y140000D01*
X167000Y140000D01*
X167788Y140000D01*
X169333Y139692D01*
X170789Y139089D01*
X172099Y138214D01*
X173214Y137100D01*
X174089Y135789D01*
X174692Y134334D01*
X174921Y133181D01*
X175000Y132002D01*
Y132000D01*
X175000Y132000D01*
X175000Y132000D01*
X175000Y99000D01*
X175000Y98312D01*
X174473Y97039D01*
X173509Y96075D01*
X173484Y96076D01*
X172239Y96918D01*
Y98030D01*
X149361D01*
Y95843D01*
X149094Y95539D01*
X123059D01*
X123059Y114000D01*
X123059Y114597D01*
X123059Y114597D01*
X123059Y114597D01*
X122826Y115767D01*
X122826Y115767D01*
X122826Y115767D01*
X122369Y116870D01*
X121706Y117862D01*
X120862Y118706D01*
X119870Y119369D01*
X119324Y119595D01*
X119030Y119654D01*
X118753Y119769D01*
X117601Y119999D01*
X117298Y120000D01*
X117001Y120059D01*
X117001D01*
X117000Y120059D01*
X104000Y120059D01*
X103204Y120059D01*
X102034Y119826D01*
X100564Y119217D01*
X99571Y118554D01*
X98446Y117429D01*
X97783Y116436D01*
X97342Y115371D01*
X97266Y114990D01*
X97138Y114624D01*
X96971Y113423D01*
X96983Y113210D01*
X96941Y113000D01*
Y109339D01*
X92500D01*
X90744Y108989D01*
X89256Y107995D01*
X89191Y107898D01*
X87663Y107897D01*
X86836Y109136D01*
X84851Y110462D01*
X82510Y110927D01*
X81760D01*
Y99810D01*
X80010D01*
Y98060D01*
X71392D01*
Y95539D01*
X53057D01*
X52284Y96546D01*
X52472Y97250D01*
X40000D01*
X27528D01*
X27717Y96546D01*
X26943Y95539D01*
X26461D01*
X25375Y95539D01*
X23368Y96370D01*
X21831Y97906D01*
X21000Y99914D01*
X21000Y101000D01*
Y132788D01*
X21307Y134333D01*
X21911Y135789D01*
X22786Y137100D01*
X23900Y138214D01*
X25210Y139089D01*
X26666Y139692D01*
X28212Y140000D01*
X28760Y140000D01*
X29448Y139225D01*
X29613Y138938D01*
X29477Y138702D01*
X29222Y137750D01*
X42778D01*
X42523Y138702D01*
X42409Y138900D01*
X43044Y140000D01*
X51638Y140000D01*
X59056Y140000D01*
X59487Y138730D01*
X59364Y138636D01*
X58322Y137278D01*
X57667Y135697D01*
X57444Y134000D01*
Y132750D01*
X72000D01*
X86556D01*
Y134000D01*
X86333Y135697D01*
X85678Y137278D01*
X84636Y138636D01*
X84513Y138730D01*
X84944Y140000D01*
X91000Y140000D01*
X121210Y140000D01*
D02*
G37*
G36*
X117000Y117000D02*
X117000Y117000D01*
X117001D01*
X118153Y116769D01*
X118699Y116543D01*
X119543Y115699D01*
X120000Y114597D01*
X120000Y114000D01*
X120000Y81000D01*
X120000D01*
Y80602D01*
X119695Y79867D01*
X119133Y79304D01*
X118398Y79000D01*
X108065D01*
Y83600D01*
X107807Y85558D01*
X107051Y87382D01*
X106958Y87503D01*
X107319Y88311D01*
X107647Y88693D01*
X108240D01*
Y99810D01*
Y110927D01*
X107490D01*
X105149Y110462D01*
X103164Y109136D01*
X102337Y107897D01*
X100809Y107898D01*
X100744Y107995D01*
X100000Y108492D01*
Y113000D01*
X100168Y114201D01*
X100609Y115266D01*
X101734Y116391D01*
X103204Y117000D01*
X104000Y117000D01*
X117000Y117000D01*
X117000Y117000D01*
D02*
G37*
%LPC*%
G36*
X42778Y134250D02*
X37750D01*
Y129222D01*
X38702Y129477D01*
X40298Y130399D01*
X41601Y131702D01*
X42523Y133298D01*
X42778Y134250D01*
D02*
G37*
G36*
X34250D02*
X29222D01*
X29477Y133298D01*
X30399Y131702D01*
X31702Y130399D01*
X33298Y129477D01*
X34250Y129222D01*
Y134250D01*
D02*
G37*
G36*
X86556Y129250D02*
X73750D01*
Y121444D01*
X80000D01*
X81697Y121667D01*
X83278Y122322D01*
X84636Y123364D01*
X85678Y124722D01*
X86333Y126303D01*
X86556Y128000D01*
Y129250D01*
D02*
G37*
G36*
X70250D02*
X57444D01*
Y128000D01*
X57667Y126303D01*
X58322Y124722D01*
X59364Y123364D01*
X60722Y122322D01*
X62303Y121667D01*
X64000Y121444D01*
X70250D01*
Y129250D01*
D02*
G37*
G36*
X78260Y110927D02*
X77510D01*
X75169Y110462D01*
X73184Y109136D01*
X71858Y107151D01*
X71392Y104810D01*
Y101560D01*
X78260D01*
Y110927D01*
D02*
G37*
G36*
X164737Y111219D02*
X162550D01*
Y101530D01*
X172239D01*
Y103717D01*
X171984Y105659D01*
X171234Y107468D01*
X170042Y109022D01*
X168488Y110214D01*
X166679Y110963D01*
X164737Y111219D01*
D02*
G37*
G36*
X159050D02*
X156862D01*
X154921Y110963D01*
X153112Y110214D01*
X151558Y109022D01*
X150366Y107468D01*
X149616Y105659D01*
X149361Y103717D01*
Y101530D01*
X159050D01*
Y111219D01*
D02*
G37*
G36*
X41750Y111472D02*
Y100750D01*
X52472D01*
X51648Y103825D01*
X50002Y106675D01*
X47675Y109003D01*
X44825Y110648D01*
X41750Y111472D01*
D02*
G37*
G36*
X38250D02*
X35175Y110648D01*
X32325Y109003D01*
X29997Y106675D01*
X28352Y103825D01*
X27528Y100750D01*
X38250D01*
Y111472D01*
D02*
G37*
G36*
X112490Y110927D02*
X111740D01*
Y101560D01*
X118608D01*
Y104810D01*
X118142Y107151D01*
X116816Y109136D01*
X114831Y110462D01*
X112490Y110927D01*
D02*
G37*
G36*
X118608Y98060D02*
X111740D01*
Y88693D01*
X112490D01*
X114831Y89158D01*
X116816Y90484D01*
X118142Y92469D01*
X118608Y94810D01*
Y98060D01*
D02*
G37*
G36*
X439750Y86898D02*
X431750D01*
Y82050D01*
X444798D01*
X444460Y83751D01*
X443355Y85405D01*
X441701Y86510D01*
X439750Y86898D01*
D02*
G37*
G36*
X457750Y89058D02*
X456250D01*
X454488Y88826D01*
X452846Y88146D01*
X451436Y87064D01*
X450354Y85654D01*
X449674Y84012D01*
X449442Y82250D01*
Y79750D01*
X457750D01*
Y89058D01*
D02*
G37*
G36*
X376250Y40450D02*
X363202D01*
X363540Y38749D01*
X364645Y37095D01*
X366299Y35990D01*
X368250Y35602D01*
X376250D01*
Y40450D01*
D02*
G37*
G36*
X372750Y30058D02*
X371250D01*
X369488Y29826D01*
X367846Y29146D01*
X366436Y28064D01*
X365354Y26654D01*
X364674Y25012D01*
X364442Y23250D01*
Y20750D01*
X372750D01*
Y30058D01*
D02*
G37*
G36*
X355750Y22778D02*
Y17750D01*
X360778D01*
X360523Y18702D01*
X359601Y20298D01*
X358298Y21601D01*
X356702Y22523D01*
X355750Y22778D01*
D02*
G37*
G36*
X372750Y17250D02*
X364442D01*
Y14750D01*
X364674Y12988D01*
X365354Y11346D01*
X366436Y9936D01*
X367846Y8854D01*
X369488Y8174D01*
X371250Y7942D01*
X372750D01*
Y17250D01*
D02*
G37*
%LPD*%
D12*
X970000Y148476D02*
Y220000D01*
X923500Y101976D02*
X970000Y148476D01*
X876000Y237524D02*
Y287500D01*
X856500Y218024D02*
X876000Y237524D01*
X194000Y268000D02*
X215000Y247000D01*
X234000D01*
X224000Y487000D02*
X240500D01*
X197000Y460000D02*
X224000Y487000D01*
X160000Y460000D02*
X178500D01*
X197000D01*
X263257Y377000D02*
X302500D01*
X240500Y399757D02*
X263257Y377000D01*
X621000Y423000D02*
X653000D01*
X580250D02*
X621000D01*
X577750Y420500D02*
X580250Y423000D01*
X343000Y166000D02*
X355257Y153743D01*
X343000Y166000D02*
Y177000D01*
X362757Y153743D02*
X363500Y153000D01*
X355257Y153743D02*
X362757D01*
X362000Y82621D02*
X385379Y106000D01*
X363757Y55687D02*
X377213D01*
X362000Y57444D02*
Y82621D01*
Y57444D02*
X363757Y55687D01*
X377213D02*
X378000Y54900D01*
X415757Y19743D02*
Y29243D01*
Y19743D02*
X416500Y19000D01*
X404000Y41000D02*
X415757Y29243D01*
X404000Y41000D02*
Y59000D01*
X395400Y67600D02*
X404000Y59000D01*
X430000Y67600D02*
X448400D01*
X455580Y60420D01*
Y56920D02*
X459500Y53000D01*
X455580Y56920D02*
Y60420D01*
X648000Y64000D02*
X678243D01*
X459500Y54000D02*
X470500Y65000D01*
X648000D01*
X413485Y39061D02*
X426500Y26046D01*
X413485Y39061D02*
Y53143D01*
X430633Y23920D02*
X435500Y19053D01*
Y19000D02*
Y19053D01*
X428555Y23920D02*
X430633D01*
X426500Y25975D02*
X428555Y23920D01*
X426500Y25975D02*
Y26046D01*
X415243Y54900D02*
X438250D01*
X413485Y53143D02*
X415243Y54900D01*
X203000Y269000D02*
X215000Y257000D01*
X231000D02*
X233843Y254157D01*
X215000Y257000D02*
X231000D01*
X233843Y247157D02*
Y254157D01*
X203000Y269000D02*
Y279500D01*
X194000Y268000D02*
Y312000D01*
X233843Y247157D02*
X234000Y247000D01*
X343000Y220000D02*
X361050Y238050D01*
X343000Y211000D02*
Y220000D01*
X340000Y192000D02*
X360650Y212650D01*
X312000Y192000D02*
X340000D01*
X360650Y212650D02*
X376500D01*
X428765Y212915D02*
X463602D01*
X428500Y212650D02*
X428765Y212915D01*
X463602D02*
X468687Y218000D01*
X468804D02*
X476891Y226087D01*
X468687Y218000D02*
X468804D01*
X466641Y208812D02*
Y208883D01*
X457641Y201890D02*
X462508Y206756D01*
X464586D01*
X470758Y213000D02*
X488812D01*
X464586Y206756D02*
X466641Y208812D01*
Y208883D02*
X470758Y213000D01*
X887000Y466000D02*
X905000Y448000D01*
X653000Y423000D02*
X696000Y466000D01*
X887000D01*
X685000Y432000D02*
X891000D01*
X619000Y395000D02*
X648000D01*
X685000Y432000D01*
X849500Y332500D02*
X905000Y388000D01*
X849000Y332750D02*
Y333000D01*
Y332750D02*
X875250Y306500D01*
X876000D01*
X942188Y402000D02*
X972000Y372188D01*
X957000Y330000D02*
X972000Y345000D01*
Y372188D01*
X957000Y309500D02*
Y330000D01*
X678000Y326000D02*
X842000D01*
X849000Y333000D01*
X625000Y328000D02*
X685000Y388000D01*
X875000D01*
X875110Y389056D02*
X888054Y402000D01*
X942188D01*
X906000Y417000D02*
X908000Y419000D01*
X911646D01*
X905027Y417973D02*
X906000Y417000D01*
X891000Y432000D02*
X905027Y417973D01*
X52496Y227454D02*
X53691Y228650D01*
X72000D01*
X38550Y241400D02*
X52496Y227454D01*
X57950Y222000D01*
X21000Y241400D02*
X38550D01*
X57950Y222000D02*
X64000Y215950D01*
X91350D01*
X72000Y278500D02*
Y311000D01*
X85500Y324500D01*
X181500D02*
X194000Y312000D01*
X85500Y324500D02*
X181500D01*
X72000Y254050D02*
X95950D01*
X109500Y240500D01*
Y237779D02*
Y240500D01*
Y237779D02*
X109599Y237680D01*
Y235574D02*
X110173Y235000D01*
X109599Y235574D02*
Y237680D01*
X74376Y241675D02*
X96675D01*
X97000Y242000D01*
X73876Y241175D02*
X74376Y241675D01*
X50000Y275000D02*
X53500Y278500D01*
X50000Y266200D02*
X71655D01*
X50000D02*
Y275000D01*
X21400Y266200D02*
X50000D01*
X760000Y169500D02*
X813500D01*
X716080Y164580D02*
Y164633D01*
X675400Y120000D02*
Y123900D01*
X716080Y164580D01*
X720947Y169500D02*
X760000D01*
X716080Y164633D02*
X720947Y169500D01*
X624600Y120000D02*
Y139600D01*
X630000Y145000D01*
X732401D02*
X833000D01*
X731989Y145412D02*
X732401Y145000D01*
X833000D02*
X848000Y160000D01*
X957000D01*
X457891Y227087D02*
Y244606D01*
X464142Y250858D01*
X488812Y213000D02*
X492057Y209756D01*
X476891Y226087D02*
Y227087D01*
X457641Y201837D02*
Y201890D01*
X624500Y327500D02*
X625000Y328000D01*
X677000Y293500D02*
Y323918D01*
X678000Y324918D01*
Y326000D01*
X676947Y293500D02*
X677000D01*
X957000Y233000D02*
X970000Y220000D01*
X957000Y233000D02*
Y290500D01*
X813500Y169500D02*
X823000Y160000D01*
X639000Y233247D02*
X683747Y188500D01*
X721000D01*
X492000Y106000D02*
X501000Y115000D01*
X385379Y106000D02*
X492000D01*
X501000Y115000D02*
X576000D01*
X619600D01*
X206000Y237000D02*
X229000Y214000D01*
X233000Y210000D01*
X277000D01*
X183000Y260000D02*
X206000Y237000D01*
X239500Y277500D02*
X315000Y353000D01*
X426000D02*
X518891Y260109D01*
X315000Y353000D02*
X426000D01*
X226000Y277500D02*
X239500D01*
X518891Y227087D02*
Y260109D01*
X387750Y439750D02*
X391000Y443000D01*
Y458000D01*
X367000Y439750D02*
X387750D01*
X327300Y464697D02*
X347750D01*
X347875Y484875D02*
X348000Y485000D01*
X347750Y464750D02*
X347875Y464875D01*
Y484875D01*
X637243Y294000D02*
X639000Y292243D01*
X624000Y294000D02*
X637243D01*
X639000Y233247D02*
Y292243D01*
X624300Y245300D02*
Y274700D01*
Y245300D02*
X624600Y245000D01*
X624000Y275000D02*
X624300Y274700D01*
X675400Y245000D02*
X676200Y245800D01*
Y273700D01*
X677000Y274500D01*
X624500Y294500D02*
Y327500D01*
X624000Y294000D02*
X624500Y294500D01*
X660574Y275574D02*
Y277127D01*
X676947Y293500D01*
X660000Y275000D02*
X660574Y275574D01*
X550243Y139000D02*
X552000Y140757D01*
X533913Y227087D02*
X552000Y209000D01*
X519368Y139000D02*
X550243D01*
X552000Y140757D02*
Y209000D01*
X519141Y176837D02*
X544837D01*
X518891Y227087D02*
X533913D01*
X445500Y151000D02*
X457500Y139000D01*
X516287D01*
X677212Y88367D02*
Y118188D01*
Y88367D02*
X679024Y86555D01*
X675400Y120000D02*
X677212Y118188D01*
X679024Y86555D02*
X680000Y85579D01*
Y65757D02*
Y85579D01*
X678243Y64000D02*
X680000Y65757D01*
X496700Y376500D02*
X498200Y375000D01*
X322000Y376500D02*
X496700D01*
X321500Y377000D02*
X322000Y376500D01*
X498200Y373250D02*
Y375000D01*
X504625Y456125D02*
X504750Y456000D01*
X504625Y456125D02*
Y479875D01*
X504500Y480000D02*
X504625Y479875D01*
X523675Y425325D02*
Y455925D01*
X523750Y456000D01*
X523600Y425250D02*
X523675Y425325D01*
X504750Y454053D02*
X510900Y447903D01*
Y425250D02*
Y447903D01*
X504750Y454053D02*
Y456000D01*
X475500Y408000D02*
X514600D01*
X523600Y417000D01*
Y425250D01*
X456500Y392500D02*
Y408000D01*
Y392500D02*
X460000Y389000D01*
X503400D01*
X510900Y381500D01*
Y373250D02*
Y381500D01*
X496700Y346200D02*
Y371750D01*
X498200Y373250D01*
X493500Y343000D02*
X496700Y346200D01*
X510900Y344600D02*
X512500Y343000D01*
X510900Y344600D02*
Y373250D01*
X523600D02*
Y392600D01*
X526250Y395250D02*
X558750D01*
X523600Y392600D02*
X526250Y395250D01*
X558828Y370002D02*
X558905Y369924D01*
X558828Y370002D02*
Y395172D01*
X558750Y395250D02*
X558828Y395172D01*
X536300Y422000D02*
X537800Y420500D01*
X558750D01*
X536300Y422000D02*
Y425250D01*
X558875Y420625D02*
Y445875D01*
X558750Y420500D02*
X558875Y420625D01*
Y445875D02*
X559000Y446000D01*
X577750Y395250D02*
X577875Y395125D01*
X618875D01*
X619000Y395000D01*
X451150Y42000D02*
X468500D01*
X438250Y54900D02*
X451150Y42000D01*
X468500D02*
X478500Y52000D01*
Y53000D01*
X387500Y422500D02*
X484000Y519000D01*
X521743D02*
X523500Y517243D01*
Y480000D02*
Y505000D01*
Y517243D01*
X484000Y519000D02*
X521743D01*
X259500Y436947D02*
Y462000D01*
Y436947D02*
X268447Y428000D01*
X356250D02*
X367000Y438750D01*
X268447Y428000D02*
X356250D01*
X367000Y438750D02*
Y439750D01*
X313843Y420743D02*
X315600Y422500D01*
X387500D01*
X313843Y408493D02*
Y420743D01*
X313100Y407750D02*
X313843Y408493D01*
X347750Y464750D02*
X347875Y464625D01*
Y439875D02*
Y464625D01*
Y439875D02*
X348000Y439750D01*
X325800Y463197D02*
X327300Y464697D01*
X325800Y459750D02*
Y463197D01*
X286200Y412000D02*
X287700Y410500D01*
X259500Y412000D02*
X286200D01*
X287700Y407750D02*
Y410500D01*
X300400Y407750D02*
X301450Y406700D01*
Y378050D02*
Y406700D01*
Y378050D02*
X302500Y377000D01*
X240500Y399757D02*
Y412000D01*
X259500D02*
X260000Y412500D01*
Y422243D01*
X243000Y424000D02*
X258243D01*
X260000Y422243D01*
X241000Y426000D02*
X243000Y424000D01*
X241000Y426000D02*
Y436500D01*
X240500Y437000D02*
X241000Y436500D01*
X259500Y462000D02*
X259500Y462000D01*
X273000Y456129D02*
X285129Y444000D01*
X268743Y486257D02*
X273000Y482000D01*
Y456129D02*
Y482000D01*
X259500Y487250D02*
X260493Y486257D01*
X268743D01*
X240500Y487000D02*
Y513095D01*
X300400Y459750D02*
X313100D01*
X299243Y444000D02*
Y458593D01*
X285129Y444000D02*
X299243D01*
Y458593D02*
X300400Y459750D01*
X135000Y350550D02*
Y434234D01*
Y350550D02*
X143750Y341800D01*
X151750D01*
X190063Y329937D02*
X203000Y317000D01*
X144063Y329937D02*
X190063D01*
X125000Y349000D02*
X144063Y329937D01*
X203000Y296500D02*
Y317000D01*
X182964Y310965D02*
X183000Y310929D01*
Y296500D02*
Y310929D01*
X203000Y296500D02*
X226000D01*
X500141Y176837D02*
X500415Y176563D01*
Y151962D02*
Y176563D01*
Y151962D02*
X500688Y151688D01*
X422125Y151125D02*
X445375D01*
X378000Y67600D02*
Y80300D01*
Y67600D02*
X395400D01*
X433000Y199950D02*
X434500Y198450D01*
Y176750D02*
Y198450D01*
X428500Y199950D02*
X433000D01*
X456154Y225350D02*
X457891Y227087D01*
X428500Y225350D02*
X456154D01*
X476891Y227087D02*
X499891D01*
X476641Y176837D02*
X500141D01*
X476641Y201837D02*
X476641Y201837D01*
X476641Y176837D02*
Y201837D01*
X422000Y151250D02*
X422125Y151125D01*
X434500Y176750D02*
X434543Y176793D01*
X457598D02*
X457641Y176837D01*
X434543Y176793D02*
X457598D01*
X361050Y238050D02*
X376500D01*
X294000Y191750D02*
X294125Y191875D01*
X294000Y191750D02*
X294000Y191750D01*
X294125Y191875D02*
X311875D01*
X312000Y192000D01*
X148383Y234750D02*
X188250D01*
X251000Y172000D01*
X145000Y242000D02*
X188808D01*
X239058Y191750D01*
X125000Y349000D02*
Y377000D01*
X98985Y418765D02*
X99750Y418000D01*
X91350Y215950D02*
X113300Y194000D01*
X251000Y172000D02*
X277000D01*
X164000Y194000D02*
X191000Y221000D01*
X239058Y191750D02*
X277000D01*
X53500Y278500D02*
X72000D01*
X122100Y379900D02*
X125000Y377000D01*
X99750Y379900D02*
X122100D01*
X113300Y194000D02*
X164000D01*
X183000Y260000D02*
Y279500D01*
X294000Y171750D02*
Y191750D01*
X294000Y211965D02*
X294000Y211965D01*
X294000Y191750D02*
Y211965D01*
Y211965D02*
Y232250D01*
Y211965D02*
X294000Y211965D01*
X294000Y232250D02*
X294000Y232250D01*
X293875Y232375D02*
Y252625D01*
X293750Y252750D02*
X293875Y252625D01*
Y232375D02*
X294000Y232250D01*
X234000Y247000D02*
X248750Y232250D01*
X277000D01*
X21000Y266600D02*
X21400Y266200D01*
D13*
X26839Y393839D02*
X26920Y393759D01*
Y374080D02*
X27000Y374000D01*
X26839Y393839D02*
X38679Y405679D01*
X26920Y374080D02*
Y393759D01*
X45000Y205000D02*
Y216000D01*
X21000D02*
X45000D01*
X49429Y405679D02*
X49507Y405756D01*
X38679Y405679D02*
X49429D01*
X378000Y120000D02*
X383644Y125645D01*
X403265D01*
X383000Y315500D02*
Y328551D01*
X381500Y314000D02*
X383000Y315500D01*
X381500Y314000D02*
X382875Y312625D01*
Y280875D02*
Y312625D01*
X137506Y453494D02*
X151750Y439250D01*
X77494Y453494D02*
X137506D01*
X151750Y418000D02*
Y439250D01*
X403132Y125777D02*
Y151117D01*
X403000Y151250D02*
X403132Y151117D01*
Y125777D02*
X403265Y125645D01*
X381375Y152125D02*
X402125D01*
X380500Y153000D02*
X381375Y152125D01*
X402125D02*
X403000Y151250D01*
X276750Y252750D02*
X277125Y253125D01*
Y275625D02*
X277500Y276000D01*
X401000Y232000D02*
Y259000D01*
X394350Y225350D02*
X401000Y232000D01*
X376500Y225350D02*
X394350D01*
X383500Y238050D02*
X384000Y238550D01*
X376500Y238050D02*
X383500D01*
X384000Y238550D02*
Y259000D01*
X368000D02*
X384000D01*
X401125Y259125D02*
Y279375D01*
X401250Y279500D01*
X401000Y259000D02*
X401125Y259125D01*
X382875Y280875D02*
X384250Y279500D01*
X120858Y331142D02*
X121000Y331000D01*
X120858Y331142D02*
Y338871D01*
X117929Y341800D02*
X120858Y338871D01*
X99750Y341800D02*
X117929D01*
X68750Y431250D02*
X69000Y431500D01*
Y445000D01*
X77494Y453494D01*
X49750Y406000D02*
Y431250D01*
X49750Y431250D02*
X49750Y431250D01*
X98985Y418765D02*
Y441494D01*
D38*
X142000Y19000D02*
D03*
X348000Y485000D02*
D03*
X154000Y283000D02*
D03*
X178500Y460000D02*
D03*
X391000Y458000D02*
D03*
X625000Y328000D02*
D03*
X621000Y423000D02*
D03*
X619000Y395000D02*
D03*
X678000Y326000D02*
D03*
X957000Y330000D02*
D03*
X849000Y333000D02*
D03*
X368000Y259000D02*
D03*
X312000Y192000D02*
D03*
X382875Y296750D02*
D03*
X45000Y216000D02*
D03*
X378000Y120000D02*
D03*
X516000Y139000D02*
D03*
X26839Y393839D02*
D03*
X222000Y221000D02*
D03*
X234000Y247000D02*
D03*
X760000Y170000D02*
D03*
X648000Y65000D02*
D03*
X766000Y145000D02*
D03*
X576000Y115000D02*
D03*
X993000Y242000D02*
D03*
X654000Y517000D02*
D03*
X354000Y16000D02*
D03*
X285000Y520000D02*
D03*
X36000Y136000D02*
D03*
D39*
X68750Y431250D02*
D03*
X49750D02*
D03*
X223750Y153750D02*
D03*
X204750D02*
D03*
X181750Y154000D02*
D03*
X162750D02*
D03*
X259500Y513000D02*
D03*
X240500D02*
D03*
X259500Y487250D02*
D03*
X240500D02*
D03*
X347750Y464750D02*
D03*
X366750D02*
D03*
X240500Y437000D02*
D03*
X259500D02*
D03*
X240500Y412000D02*
D03*
X259500D02*
D03*
X504500Y505000D02*
D03*
X523500D02*
D03*
X321500Y377000D02*
D03*
X302500D02*
D03*
X504500Y480000D02*
D03*
X523500D02*
D03*
X504750Y456000D02*
D03*
X523750D02*
D03*
X493500Y343000D02*
D03*
X512500D02*
D03*
X475500Y408000D02*
D03*
X456500D02*
D03*
X500141Y176837D02*
D03*
X519141D02*
D03*
X558905Y369924D02*
D03*
X577905D02*
D03*
X559000Y446000D02*
D03*
X578000D02*
D03*
X464500Y151000D02*
D03*
X445500D02*
D03*
X698024Y86555D02*
D03*
X679024D02*
D03*
X434500Y176750D02*
D03*
X415500D02*
D03*
X499891Y227087D02*
D03*
X518891D02*
D03*
X476641Y176837D02*
D03*
X457641D02*
D03*
X457891Y227087D02*
D03*
X476891D02*
D03*
X457641Y201837D02*
D03*
X476641D02*
D03*
X362500Y314000D02*
D03*
X381500D02*
D03*
X383965Y336035D02*
D03*
X364965D02*
D03*
X478500Y53000D02*
D03*
X459500D02*
D03*
X416500Y19000D02*
D03*
X435500D02*
D03*
X296500Y276000D02*
D03*
X277500D02*
D03*
X68750Y406000D02*
D03*
X49750D02*
D03*
X223711Y179641D02*
D03*
X204711D02*
D03*
X117985Y441494D02*
D03*
X98985D02*
D03*
X289500Y490000D02*
D03*
X308500D02*
D03*
X429027Y261411D02*
D03*
X448027D02*
D03*
X475500Y433000D02*
D03*
X456500D02*
D03*
X459500Y78000D02*
D03*
X478500D02*
D03*
X348500Y403000D02*
D03*
X367500D02*
D03*
X533500Y335000D02*
D03*
X552500D02*
D03*
X379500Y176000D02*
D03*
X360500D02*
D03*
X374500Y19000D02*
D03*
X393500D02*
D03*
X367000Y439750D02*
D03*
X348000D02*
D03*
X240500Y462000D02*
D03*
X259500D02*
D03*
X403000Y151250D02*
D03*
X422000D02*
D03*
X422265Y125645D02*
D03*
X403265D02*
D03*
X577750Y395250D02*
D03*
X558750D02*
D03*
X577750Y420500D02*
D03*
X558750D02*
D03*
X107500Y303000D02*
D03*
X126500D02*
D03*
D40*
X183000Y279500D02*
D03*
Y296500D02*
D03*
X203000Y279500D02*
D03*
Y296500D02*
D03*
D41*
X957000Y290500D02*
D03*
Y309500D02*
D03*
X876000Y287500D02*
D03*
Y306500D02*
D03*
X226000Y277500D02*
D03*
Y296500D02*
D03*
X721000Y169500D02*
D03*
Y188500D02*
D03*
X624000Y275000D02*
D03*
Y294000D02*
D03*
X677000Y274500D02*
D03*
Y293500D02*
D03*
X45250Y342000D02*
D03*
Y361000D02*
D03*
X206400Y347986D02*
D03*
Y366986D02*
D03*
X70500Y342000D02*
D03*
Y361000D02*
D03*
X181250Y348000D02*
D03*
Y367000D02*
D03*
D42*
X380500Y153000D02*
D03*
X363500D02*
D03*
X384000Y259000D02*
D03*
X401000D02*
D03*
X293750Y252750D02*
D03*
X276750D02*
D03*
X401250Y279500D02*
D03*
X384250D02*
D03*
X294000Y191750D02*
D03*
X277000D02*
D03*
X294000Y171750D02*
D03*
X277000D02*
D03*
X294000Y211965D02*
D03*
X277000D02*
D03*
X294000Y232250D02*
D03*
X277000D02*
D03*
D43*
X624600Y245000D02*
D03*
X650000D02*
D03*
X675400D02*
D03*
Y120000D02*
D03*
X650000D02*
D03*
X624600D02*
D03*
D44*
X124000Y203250D02*
D03*
Y215950D02*
D03*
Y228650D02*
D03*
Y241350D02*
D03*
Y254050D02*
D03*
Y266750D02*
D03*
Y279450D02*
D03*
X72000Y203250D02*
D03*
Y215950D02*
D03*
Y228650D02*
D03*
Y241350D02*
D03*
Y254050D02*
D03*
Y266750D02*
D03*
Y279450D02*
D03*
X99750Y418000D02*
D03*
Y405300D02*
D03*
Y392600D02*
D03*
Y379900D02*
D03*
Y367200D02*
D03*
Y354500D02*
D03*
Y341800D02*
D03*
X151750Y418000D02*
D03*
Y405300D02*
D03*
Y392600D02*
D03*
Y379900D02*
D03*
Y367200D02*
D03*
Y354500D02*
D03*
Y341800D02*
D03*
D45*
X95000Y70600D02*
D03*
D46*
X80010Y99810D02*
D03*
X109990D02*
D03*
D47*
X95000Y96500D02*
D03*
D48*
X72000Y177000D02*
D03*
Y154000D02*
D03*
Y131000D02*
D03*
D49*
X134000Y154000D02*
D03*
D50*
X287700Y407750D02*
D03*
X300400D02*
D03*
X313100D02*
D03*
X325800D02*
D03*
X287700Y459750D02*
D03*
X300400D02*
D03*
X313100D02*
D03*
X325800D02*
D03*
X498200Y373250D02*
D03*
X510900D02*
D03*
X523600D02*
D03*
X536300D02*
D03*
X498200Y425250D02*
D03*
X510900D02*
D03*
X523600D02*
D03*
X536300D02*
D03*
D51*
X376500Y238050D02*
D03*
Y225350D02*
D03*
Y212650D02*
D03*
Y199950D02*
D03*
X428500Y238050D02*
D03*
Y225350D02*
D03*
Y212650D02*
D03*
Y199950D02*
D03*
X378000Y80300D02*
D03*
Y67600D02*
D03*
Y54900D02*
D03*
Y42200D02*
D03*
X430000Y80300D02*
D03*
Y67600D02*
D03*
Y54900D02*
D03*
Y42200D02*
D03*
D52*
X95000Y70600D02*
Y96500D01*
X335000Y335000D02*
X336500Y336500D01*
X364965D01*
X204990Y205990D02*
X205000Y205979D01*
X204711Y179641D02*
X205000Y179931D01*
Y205979D01*
X205250Y154250D02*
Y177750D01*
X204750Y153750D02*
X205250Y154250D01*
X181750Y154000D02*
X181875Y153875D01*
X204625D01*
X134000Y154000D02*
X162750D01*
X72000D02*
X134000D01*
D53*
X923500Y101976D02*
D03*
X856500D02*
D03*
X923500Y218024D02*
D03*
X957000Y160000D02*
D03*
X856500Y218024D02*
D03*
X823000Y160000D02*
D03*
D54*
X905000Y388000D02*
D03*
D55*
Y418000D02*
D03*
Y448000D02*
D03*
X875000Y388000D02*
D03*
Y418000D02*
D03*
Y448000D02*
D03*
D56*
X948200Y366500D02*
D03*
Y469500D02*
D03*
D57*
X40000Y99000D02*
D03*
Y73000D02*
D03*
D58*
X21000Y266800D02*
D03*
D59*
Y190600D02*
D03*
Y216000D02*
D03*
Y241400D02*
D03*
D60*
X287800Y99780D02*
D03*
X262400D02*
D03*
X237000D02*
D03*
X186200D02*
D03*
D61*
X160800D02*
D03*
D62*
X30000Y520000D02*
D03*
X960000D02*
D03*
X970000Y30000D02*
D03*
X30000D02*
D03*
D63*
X343000Y177000D02*
D03*
Y211000D02*
D03*
X27000Y374000D02*
D03*
X45000Y205000D02*
D03*
X97000Y242000D02*
D03*
X630000Y145000D02*
D03*
X731989Y145412D02*
D03*
X464142Y250858D02*
D03*
X492057Y209756D02*
D03*
X335000Y335000D02*
D03*
X660000Y275000D02*
D03*
X544837Y176837D02*
D03*
X501000Y115000D02*
D03*
X285620Y506937D02*
D03*
X160000Y460000D02*
D03*
X135000Y434234D02*
D03*
X196000Y324000D02*
D03*
X183000Y310929D02*
D03*
X500688Y151688D02*
D03*
X205000Y205979D02*
D03*
X148383Y234750D02*
D03*
X152000Y305000D02*
D03*
X145000Y242000D02*
D03*
X110173Y235000D02*
D03*
X112000Y83000D02*
D03*
X121000Y331000D02*
D03*
X233397Y374096D02*
D03*
X47667Y382695D02*
D03*
X425000Y280000D02*
D03*
X348000Y385000D02*
D03*
X399000Y187000D02*
D03*
X450000Y95000D02*
D03*
X353000Y37000D02*
D03*
X535000Y320000D02*
D03*
X475000Y450000D02*
D03*
X191000Y221000D02*
D03*
X206000Y237000D02*
D03*
M02*
