G04*
G04 #@! TF.GenerationSoftware,Altium Limited,Altium Designer,24.0.1 (36)*
G04*
G04 Layer_Physical_Order=2*
G04 Layer_Color=16711680*
%FSLAX44Y44*%
%MOMM*%
G71*
G04*
G04 #@! TF.SameCoordinates,83D3E5EA-02E8-40D7-8CE6-FF436373F7BA*
G04*
G04*
G04 #@! TF.FilePolarity,Positive*
G04*
G01*
G75*
%ADD12C,0.3000*%
%ADD13C,0.5000*%
%ADD53C,1.5000*%
%ADD54C,3.0000*%
G04:AMPARAMS|DCode=55|XSize=1.52mm|YSize=1.52mm|CornerRadius=0.38mm|HoleSize=0mm|Usage=FLASHONLY|Rotation=270.000|XOffset=0mm|YOffset=0mm|HoleType=Round|Shape=RoundedRectangle|*
%AMROUNDEDRECTD55*
21,1,1.5200,0.7600,0,0,270.0*
21,1,0.7600,1.5200,0,0,270.0*
1,1,0.7600,-0.3800,-0.3800*
1,1,0.7600,-0.3800,0.3800*
1,1,0.7600,0.3800,0.3800*
1,1,0.7600,0.3800,-0.3800*
%
%ADD55ROUNDEDRECTD55*%
%ADD56C,1.5200*%
%ADD57C,2.9100*%
%ADD58C,1.8000*%
G04:AMPARAMS|DCode=59|XSize=2mm|YSize=2mm|CornerRadius=0.5mm|HoleSize=0mm|Usage=FLASHONLY|Rotation=270.000|XOffset=0mm|YOffset=0mm|HoleType=Round|Shape=RoundedRectangle|*
%AMROUNDEDRECTD59*
21,1,2.0000,1.0000,0,0,270.0*
21,1,1.0000,2.0000,0,0,270.0*
1,1,1.0000,-0.5000,-0.5000*
1,1,1.0000,-0.5000,0.5000*
1,1,1.0000,0.5000,0.5000*
1,1,1.0000,0.5000,-0.5000*
%
%ADD59ROUNDEDRECTD59*%
%ADD60C,2.0000*%
%ADD61C,1.5750*%
G04:AMPARAMS|DCode=62|XSize=1.575mm|YSize=1.575mm|CornerRadius=0.3938mm|HoleSize=0mm|Usage=FLASHONLY|Rotation=0.000|XOffset=0mm|YOffset=0mm|HoleType=Round|Shape=RoundedRectangle|*
%AMROUNDEDRECTD62*
21,1,1.5750,0.7875,0,0,0.0*
21,1,0.7875,1.5750,0,0,0.0*
1,1,0.7875,0.3938,-0.3938*
1,1,0.7875,-0.3938,-0.3938*
1,1,0.7875,-0.3938,0.3938*
1,1,0.7875,0.3938,0.3938*
%
%ADD62ROUNDEDRECTD62*%
%ADD63C,0.6000*%
G36*
X945000Y5000D02*
X5000D01*
Y10000D01*
Y545000D01*
X945000D01*
Y5000D01*
D02*
G37*
%LPC*%
G36*
X921724Y537500D02*
X918276D01*
X914895Y536828D01*
X911711Y535508D01*
X908844Y533593D01*
X906407Y531156D01*
X904492Y528289D01*
X903173Y525105D01*
X902500Y521724D01*
Y518276D01*
X903173Y514895D01*
X904492Y511711D01*
X906407Y508844D01*
X908844Y506407D01*
X911711Y504492D01*
X914895Y503172D01*
X918276Y502500D01*
X921724D01*
X925105Y503172D01*
X928289Y504492D01*
X931156Y506407D01*
X933593Y508844D01*
X935508Y511711D01*
X936827Y514895D01*
X937500Y518276D01*
Y521724D01*
X936827Y525105D01*
X935508Y528289D01*
X933593Y531156D01*
X931156Y533593D01*
X928289Y535508D01*
X925105Y536828D01*
X921724Y537500D01*
D02*
G37*
G36*
X864600Y493809D02*
X848600D01*
X847430Y493576D01*
X846437Y492913D01*
X845774Y491921D01*
X845541Y490750D01*
Y466250D01*
X845774Y465079D01*
X846437Y464087D01*
X847430Y463424D01*
X848600Y463191D01*
X864600D01*
X865771Y463424D01*
X866763Y464087D01*
X867426Y465079D01*
X867659Y466250D01*
Y468343D01*
X868929Y468469D01*
X869286Y466673D01*
X870534Y463661D01*
X872345Y460950D01*
X874650Y458645D01*
X877361Y456834D01*
X880373Y455586D01*
X883570Y454950D01*
X886830D01*
X890027Y455586D01*
X893039Y456834D01*
X895750Y458645D01*
X898055Y460950D01*
X899866Y463661D01*
X901114Y466673D01*
X901750Y469870D01*
Y473130D01*
X901114Y476327D01*
X899866Y479339D01*
X898055Y482050D01*
X895750Y484355D01*
X893039Y486166D01*
X890027Y487414D01*
X886830Y488050D01*
X883570D01*
X880373Y487414D01*
X877361Y486166D01*
X874650Y484355D01*
X872345Y482050D01*
X870534Y479339D01*
X869286Y476327D01*
X868929Y474532D01*
X867659Y474657D01*
Y490750D01*
X867426Y491921D01*
X866763Y492913D01*
X865771Y493576D01*
X864600Y493809D01*
D02*
G37*
G36*
X813750Y461023D02*
Y451750D01*
X823023D01*
X822344Y454284D01*
X820882Y456816D01*
X818816Y458882D01*
X816284Y460344D01*
X813750Y461023D01*
D02*
G37*
G36*
X810250D02*
X807716Y460344D01*
X805184Y458882D01*
X803118Y456816D01*
X801656Y454284D01*
X800977Y451750D01*
X810250D01*
Y461023D01*
D02*
G37*
G36*
X843264Y459600D02*
X840736D01*
X838295Y458946D01*
X836105Y457682D01*
X834318Y455895D01*
X833054Y453705D01*
X832400Y451264D01*
Y448736D01*
X833054Y446295D01*
X834318Y444105D01*
X836105Y442318D01*
X838295Y441054D01*
X840736Y440400D01*
X843264D01*
X845705Y441054D01*
X847895Y442318D01*
X849682Y444105D01*
X850946Y446295D01*
X851600Y448736D01*
Y451264D01*
X850946Y453705D01*
X849682Y455895D01*
X847895Y457682D01*
X845705Y458946D01*
X843264Y459600D01*
D02*
G37*
G36*
X823023Y448250D02*
X813750D01*
Y438977D01*
X816284Y439656D01*
X818816Y441118D01*
X820882Y443185D01*
X822344Y445716D01*
X823023Y448250D01*
D02*
G37*
G36*
X810250D02*
X800977D01*
X801656Y445716D01*
X803118Y443185D01*
X805184Y441118D01*
X807716Y439656D01*
X810250Y438977D01*
Y448250D01*
D02*
G37*
G36*
X160995Y465000D02*
X159005D01*
X157168Y464239D01*
X155761Y462832D01*
X155000Y460995D01*
Y460723D01*
X133162Y438885D01*
X132168Y438473D01*
X130761Y437066D01*
X130000Y435229D01*
Y433240D01*
X130761Y431402D01*
X132168Y429995D01*
X134005Y429234D01*
X135995D01*
X137832Y429995D01*
X139239Y431402D01*
X139651Y432396D01*
X162539Y455284D01*
X163244Y455756D01*
X164085Y457014D01*
X164239Y457168D01*
X165000Y459005D01*
Y460995D01*
X164239Y462832D01*
X162832Y464239D01*
X160995Y465000D01*
D02*
G37*
G36*
X813750Y431023D02*
Y421750D01*
X823023D01*
X822344Y424284D01*
X820882Y426816D01*
X818816Y428882D01*
X816284Y430344D01*
X813750Y431023D01*
D02*
G37*
G36*
X810250D02*
X807716Y430344D01*
X805184Y428882D01*
X803118Y426816D01*
X801656Y424284D01*
X800977Y421750D01*
X810250D01*
Y431023D01*
D02*
G37*
G36*
X843264Y429600D02*
X840736D01*
X838295Y428946D01*
X836105Y427682D01*
X834318Y425895D01*
X833054Y423705D01*
X832400Y421264D01*
Y418736D01*
X833054Y416295D01*
X834318Y414105D01*
X836105Y412318D01*
X838295Y411054D01*
X840736Y410400D01*
X843264D01*
X845705Y411054D01*
X847895Y412318D01*
X849682Y414105D01*
X850946Y416295D01*
X851600Y418736D01*
Y421264D01*
X850946Y423705D01*
X849682Y425895D01*
X847895Y427682D01*
X845705Y428946D01*
X843264Y429600D01*
D02*
G37*
G36*
X810250Y418250D02*
X800977D01*
X801656Y415716D01*
X803118Y413184D01*
X805184Y411118D01*
X807716Y409656D01*
X810250Y408977D01*
Y418250D01*
D02*
G37*
G36*
X823023D02*
X813750D01*
Y408977D01*
X816284Y409656D01*
X818816Y411118D01*
X820882Y413184D01*
X822344Y415716D01*
X823023Y418250D01*
D02*
G37*
G36*
X31724Y537500D02*
X28276D01*
X24895Y536828D01*
X21711Y535508D01*
X18844Y533593D01*
X16407Y531156D01*
X14492Y528289D01*
X13173Y525105D01*
X12500Y521724D01*
Y518276D01*
X13173Y514895D01*
X14492Y511711D01*
X16407Y508844D01*
X18844Y506407D01*
X21711Y504492D01*
X24895Y503172D01*
X28276Y502500D01*
X31724D01*
X35105Y503172D01*
X38289Y504492D01*
X40753Y506138D01*
X41668Y505222D01*
X40165Y502973D01*
X40050Y502694D01*
X39883Y502444D01*
X38089Y498113D01*
X38030Y497817D01*
X37915Y497539D01*
X37000Y492941D01*
Y492640D01*
X36941Y492344D01*
Y490000D01*
Y380000D01*
Y379015D01*
X37000Y378720D01*
Y378418D01*
X37384Y376486D01*
X37500Y376208D01*
X37558Y375913D01*
X38312Y374093D01*
X38479Y373842D01*
X38595Y373564D01*
X39689Y371926D01*
X39902Y371713D01*
X40070Y371463D01*
X41462Y370070D01*
X41713Y369902D01*
X41926Y369689D01*
X43564Y368595D01*
X43842Y368479D01*
X44093Y368312D01*
X45912Y367558D01*
X46208Y367500D01*
X46486Y367384D01*
X48418Y367000D01*
X48720D01*
X49015Y366941D01*
X70985Y366941D01*
X71280Y367000D01*
X71582D01*
X73513Y367384D01*
X73792Y367500D01*
X74087Y367558D01*
X75907Y368312D01*
X76158Y368480D01*
X76436Y368595D01*
X78074Y369689D01*
X78287Y369902D01*
X78537Y370070D01*
X79930Y371463D01*
X80098Y371713D01*
X80311Y371926D01*
X81405Y373564D01*
X81520Y373842D01*
X81688Y374093D01*
X82442Y375913D01*
X82500Y376208D01*
X82615Y376486D01*
X83000Y378418D01*
Y378720D01*
X83059Y379015D01*
X83059Y379999D01*
X83059Y380000D01*
X83059Y459925D01*
X83140Y461585D01*
X83802Y464913D01*
X85072Y467979D01*
X86916Y470738D01*
X89262Y473084D01*
X92021Y474928D01*
X95087Y476198D01*
X98415Y476860D01*
X100077Y476941D01*
X389925Y476941D01*
X391585Y476859D01*
X394913Y476197D01*
X397979Y474928D01*
X400738Y473084D01*
X403084Y470738D01*
X404928Y467979D01*
X406198Y464913D01*
X406860Y461585D01*
X406941Y459922D01*
Y384359D01*
X406655Y384215D01*
X405671Y384052D01*
X404194Y386262D01*
X403981Y386475D01*
X403814Y386725D01*
X401725Y388814D01*
X401474Y388982D01*
X401261Y389195D01*
X398804Y390836D01*
X398526Y390952D01*
X398275Y391119D01*
X395545Y392250D01*
X395250Y392308D01*
X394971Y392424D01*
X392073Y393000D01*
X391772Y393000D01*
X391477Y393059D01*
X390001Y393058D01*
X389999Y393059D01*
X340000D01*
X230000Y393059D01*
X229015Y393059D01*
X228720Y393000D01*
X228418D01*
X226486Y392616D01*
X226208Y392500D01*
X225912Y392442D01*
X224093Y391688D01*
X223842Y391520D01*
X223564Y391405D01*
X221926Y390311D01*
X221713Y390098D01*
X221462Y389930D01*
X220070Y388537D01*
X219902Y388287D01*
X219689Y388074D01*
X218595Y386436D01*
X218479Y386158D01*
X218312Y385907D01*
X217558Y384087D01*
X217500Y383792D01*
X217384Y383513D01*
X217052Y381845D01*
Y381607D01*
X216996Y381376D01*
X216944Y380128D01*
X216954Y380064D01*
X216941Y380000D01*
Y370000D01*
X216941Y369015D01*
X217000Y368720D01*
Y368418D01*
X217384Y366486D01*
X217500Y366208D01*
X217558Y365913D01*
X218312Y364093D01*
X218479Y363842D01*
X218595Y363564D01*
X219689Y361926D01*
X219902Y361713D01*
X220070Y361463D01*
X221462Y360070D01*
X221713Y359902D01*
X221926Y359689D01*
X223564Y358595D01*
X223842Y358479D01*
X224093Y358312D01*
X225912Y357558D01*
X226208Y357500D01*
X226486Y357384D01*
X228418Y357000D01*
X228720D01*
X229015Y356941D01*
X230000Y356941D01*
X319925Y356941D01*
X321585Y356860D01*
X324913Y356198D01*
X327979Y354928D01*
X330738Y353084D01*
X333084Y350738D01*
X334928Y347979D01*
X336198Y344913D01*
X336533Y343229D01*
X335519Y341816D01*
X334424Y341598D01*
X332604Y340383D01*
X203704Y211483D01*
X203045Y211351D01*
X201226Y210136D01*
X201035Y209944D01*
X199819Y208125D01*
X199392Y205979D01*
X199819Y203833D01*
X201035Y202014D01*
X202854Y200798D01*
X205000Y200371D01*
X205962Y200563D01*
X206323D01*
X208469Y200990D01*
X210288Y202205D01*
X335768Y327685D01*
X336941Y327199D01*
Y321760D01*
X336941Y216420D01*
X337031Y215968D01*
X337080Y215509D01*
X337147Y215387D01*
X337174Y215250D01*
X337430Y214866D01*
X337651Y214461D01*
X337759Y214373D01*
X337837Y214257D01*
X338221Y214001D01*
X338579Y213711D01*
X338688Y213654D01*
X338000Y211995D01*
Y210005D01*
X338412Y209011D01*
Y207168D01*
X338303Y206941D01*
X337142Y206126D01*
X335971Y205893D01*
X334979Y205230D01*
X334394Y204646D01*
X333265Y203891D01*
X332011Y203372D01*
X330633Y203098D01*
X330633Y203098D01*
X330633D01*
X330605Y203092D01*
X329925Y203059D01*
X328795Y203059D01*
X240000Y203059D01*
X238030Y203059D01*
X237735Y203000D01*
X237433Y203000D01*
X233569Y202232D01*
X233291Y202116D01*
X232996Y202058D01*
X229356Y200550D01*
X229105Y200383D01*
X228827Y200267D01*
X225551Y198079D01*
X225338Y197866D01*
X225087Y197698D01*
X222302Y194912D01*
X222134Y194662D01*
X221921Y194449D01*
X219732Y191173D01*
X219617Y190895D01*
X219450Y190644D01*
X217942Y187004D01*
X217883Y186709D01*
X217768Y186430D01*
X217000Y182566D01*
X217000Y182265D01*
X216941Y181970D01*
X216941Y180000D01*
X216941Y180000D01*
X216941Y178804D01*
Y30000D01*
Y28030D01*
X217000Y27735D01*
Y27433D01*
X217769Y23570D01*
X217884Y23291D01*
X217943Y22996D01*
X219450Y19356D01*
X219618Y19105D01*
X219733Y18827D01*
X221922Y15551D01*
X222135Y15338D01*
X222302Y15088D01*
X225088Y12302D01*
X225338Y12135D01*
X225551Y11922D01*
X228827Y9733D01*
X229105Y9618D01*
X229356Y9450D01*
X232996Y7943D01*
X233291Y7884D01*
X233570Y7769D01*
X237433Y7000D01*
X237735D01*
X238030Y6941D01*
X531477D01*
X531773Y7000D01*
X532074D01*
X534972Y7576D01*
X535250Y7692D01*
X535546Y7750D01*
X538276Y8881D01*
X538526Y9049D01*
X538805Y9164D01*
X541261Y10805D01*
X541474Y11019D01*
X541725Y11186D01*
X543814Y13275D01*
X543981Y13526D01*
X544194Y13739D01*
X545836Y16195D01*
X545951Y16474D01*
X546119Y16724D01*
X547249Y19454D01*
X547308Y19750D01*
X547423Y20028D01*
X548000Y22926D01*
Y23227D01*
X548059Y23523D01*
X548059Y24999D01*
X548059Y25000D01*
Y96811D01*
X548059Y99780D01*
Y167895D01*
Y170510D01*
X548019Y170710D01*
X548032Y170913D01*
X548023Y170979D01*
X549136Y172249D01*
X561837D01*
X563593Y172598D01*
X565081Y173592D01*
X623244Y231756D01*
X624239Y233244D01*
X624588Y235000D01*
Y298011D01*
X625000Y299005D01*
Y300995D01*
X624239Y302832D01*
X622832Y304239D01*
X620995Y305000D01*
X619005D01*
X617168Y304239D01*
X615761Y302832D01*
X615000Y300995D01*
Y299005D01*
X615412Y298011D01*
Y236901D01*
X559936Y181425D01*
X549136D01*
X548023Y182695D01*
X548032Y182761D01*
X548019Y182964D01*
X548059Y183164D01*
Y202269D01*
X548059Y321449D01*
X548059Y322291D01*
X548000Y322587D01*
Y322888D01*
X547671Y324540D01*
X547556Y324818D01*
X547497Y325114D01*
X546853Y326670D01*
X546685Y326921D01*
X546570Y327199D01*
X545634Y328599D01*
X545421Y328812D01*
X545254Y329063D01*
X544063Y330254D01*
X543812Y330421D01*
X543599Y330634D01*
X542199Y331570D01*
X541920Y331685D01*
X541670Y331853D01*
X540113Y332497D01*
X539818Y332556D01*
X539540Y332671D01*
X538217Y332934D01*
X538001Y332934D01*
X537792Y332988D01*
X536626Y333054D01*
X536540Y333041D01*
X536455Y333058D01*
X536450D01*
X536449Y333059D01*
X529188D01*
X528893Y333000D01*
X528592D01*
X527000Y332683D01*
X526721Y332568D01*
X526426Y332509D01*
X524926Y331888D01*
X524676Y331721D01*
X524397Y331605D01*
X523048Y330704D01*
X522835Y330491D01*
X522584Y330323D01*
X521437Y329175D01*
X521269Y328925D01*
X521056Y328712D01*
X520154Y327362D01*
X520039Y327084D01*
X519872Y326833D01*
X519250Y325334D01*
X519192Y325038D01*
X519076Y324760D01*
X518760Y323168D01*
Y322867D01*
X518701Y322571D01*
Y321760D01*
X518701Y51835D01*
X518659Y50982D01*
X518312Y49238D01*
X517661Y47665D01*
X516715Y46249D01*
X515511Y45045D01*
X514095Y44099D01*
X512522Y43447D01*
X510778Y43101D01*
X509925Y43059D01*
X508792Y43059D01*
X260075Y43059D01*
X258905Y43116D01*
X256538Y43587D01*
X254378Y44482D01*
X252434Y45780D01*
X250781Y47434D01*
X249482Y49378D01*
X248587Y51538D01*
X248116Y53905D01*
X248059Y55075D01*
Y90145D01*
X247962Y90634D01*
X247896Y91128D01*
X247846Y91216D01*
X247826Y91315D01*
X247549Y91730D01*
X247300Y92162D01*
X247219Y92224D01*
X247163Y92308D01*
X246748Y92585D01*
X246353Y92888D01*
X245986Y93069D01*
X245439Y94557D01*
X245468Y94697D01*
X246202Y95968D01*
X246875Y98480D01*
Y101080D01*
X246202Y103592D01*
X245468Y104863D01*
X245439Y105003D01*
X245986Y106491D01*
X246353Y106672D01*
X246748Y106975D01*
X247163Y107252D01*
X247219Y107337D01*
X247300Y107398D01*
X247549Y107830D01*
X247826Y108244D01*
X247846Y108344D01*
X247896Y108432D01*
X247962Y108926D01*
X248059Y109415D01*
Y144925D01*
X248116Y146095D01*
X248587Y148462D01*
X249482Y150622D01*
X250781Y152566D01*
X252434Y154219D01*
X254378Y155518D01*
X256538Y156413D01*
X258905Y156883D01*
X260081Y156941D01*
X391477D01*
X391773Y157000D01*
X392074D01*
X394972Y157576D01*
X395250Y157692D01*
X395546Y157751D01*
X398276Y158881D01*
X398526Y159049D01*
X398805Y159164D01*
X401261Y160805D01*
X401474Y161019D01*
X401725Y161186D01*
X403814Y163275D01*
X403982Y163526D01*
X404194Y163739D01*
X405671Y165949D01*
X406655Y165785D01*
X406941Y165641D01*
Y140075D01*
X406860Y138415D01*
X406198Y135086D01*
X404928Y132020D01*
X403085Y129261D01*
X400738Y126915D01*
X397979Y125072D01*
X394914Y123802D01*
X391585Y123140D01*
X389924Y123059D01*
X388782Y123059D01*
X290000Y123059D01*
X289016Y123059D01*
X288720Y123000D01*
X288419Y123000D01*
X286486Y122616D01*
X286208Y122501D01*
X285912Y122442D01*
X284093Y121688D01*
X283842Y121521D01*
X283563Y121406D01*
X281926Y120311D01*
X281712Y120098D01*
X281462Y119931D01*
X280069Y118538D01*
X279902Y118287D01*
X279688Y118074D01*
X278594Y116436D01*
X278479Y116158D01*
X278312Y115907D01*
X277558Y114087D01*
X277499Y113791D01*
X277384Y113513D01*
X277052Y111845D01*
X277052Y111607D01*
X276996Y111376D01*
X276944Y110127D01*
X276954Y110063D01*
X276941Y110000D01*
Y109568D01*
X277038Y109080D01*
X277104Y108585D01*
X277154Y108497D01*
X277174Y108398D01*
X277451Y107983D01*
X277700Y107552D01*
X277781Y107490D01*
X277837Y107406D01*
X278252Y107128D01*
X278647Y106825D01*
X278969Y106666D01*
X279021Y106620D01*
X279465Y105137D01*
X279440Y105050D01*
X278598Y103592D01*
X277925Y101080D01*
Y98480D01*
X278598Y95968D01*
X279436Y94517D01*
X279463Y94422D01*
X279153Y93023D01*
X278981Y92863D01*
X278852Y92764D01*
X278529Y92586D01*
X278031Y92167D01*
X277948Y92063D01*
X277837Y91989D01*
X277577Y91600D01*
X277285Y91235D01*
X277248Y91108D01*
X277174Y90997D01*
X277083Y90538D01*
X276952Y90089D01*
X276967Y89957D01*
X276941Y89826D01*
Y89015D01*
X277000Y88720D01*
Y88418D01*
X277384Y86486D01*
X277500Y86208D01*
X277558Y85913D01*
X278312Y84093D01*
X278479Y83842D01*
X278595Y83564D01*
X279689Y81926D01*
X279902Y81713D01*
X280070Y81462D01*
X281462Y80070D01*
X281713Y79902D01*
X281926Y79689D01*
X283564Y78595D01*
X283842Y78479D01*
X284093Y78312D01*
X285912Y77558D01*
X286208Y77500D01*
X286486Y77384D01*
X288418Y77000D01*
X288720D01*
X289015Y76941D01*
X471970D01*
X472265Y77000D01*
X472566D01*
X476430Y77769D01*
X476709Y77884D01*
X477004Y77943D01*
X480644Y79450D01*
X480894Y79618D01*
X481173Y79733D01*
X484448Y81922D01*
X484661Y82135D01*
X484912Y82302D01*
X487698Y85088D01*
X487865Y85338D01*
X488078Y85551D01*
X490267Y88827D01*
X490382Y89105D01*
X490549Y89356D01*
X492057Y92995D01*
X492116Y93291D01*
X492231Y93569D01*
X493000Y97433D01*
Y97734D01*
X493058Y98030D01*
X493058Y99998D01*
X493059Y100000D01*
Y116375D01*
X493059Y204759D01*
X494889Y205517D01*
X496295Y206923D01*
X497057Y208761D01*
Y210750D01*
X496645Y211744D01*
Y222943D01*
X496296Y224699D01*
X495301Y226188D01*
X492084Y229405D01*
X492163Y230985D01*
X492411Y231357D01*
X492826Y231977D01*
X493059Y233148D01*
Y247253D01*
Y250858D01*
Y370000D01*
X493059Y461960D01*
Y475460D01*
Y490000D01*
X493059Y492344D01*
X493000Y492640D01*
Y492941D01*
X492085Y497539D01*
X491970Y497817D01*
X491911Y498112D01*
X490117Y502444D01*
X489950Y502694D01*
X489835Y502973D01*
X487230Y506871D01*
X487017Y507084D01*
X486850Y507334D01*
X483535Y510649D01*
X483284Y510816D01*
X483071Y511030D01*
X479173Y513634D01*
X478895Y513749D01*
X478644Y513917D01*
X474313Y515711D01*
X474018Y515770D01*
X473739Y515885D01*
X469141Y516800D01*
X468840D01*
X468545Y516858D01*
X466201D01*
X466200Y516858D01*
X61455D01*
X61160Y516800D01*
X60859D01*
X56261Y515885D01*
X55982Y515770D01*
X55687Y515711D01*
X51356Y513917D01*
X51105Y513749D01*
X50827Y513634D01*
X46929Y511030D01*
X46716Y510816D01*
X46465Y510649D01*
X46047Y510231D01*
X45060Y511040D01*
X45508Y511711D01*
X46828Y514895D01*
X47500Y518276D01*
Y521724D01*
X46828Y525105D01*
X45508Y528289D01*
X43593Y531156D01*
X41156Y533593D01*
X38289Y535508D01*
X35105Y536828D01*
X31724Y537500D01*
D02*
G37*
G36*
X813264Y399600D02*
X810736D01*
X808295Y398946D01*
X806105Y397682D01*
X804318Y395895D01*
X803054Y393705D01*
X802400Y391264D01*
Y388736D01*
X803054Y386295D01*
X804318Y384105D01*
X806105Y382318D01*
X808295Y381054D01*
X810736Y380400D01*
X813264D01*
X815705Y381054D01*
X817895Y382318D01*
X819682Y384105D01*
X820946Y386295D01*
X821600Y388736D01*
Y391264D01*
X820946Y393705D01*
X819682Y395895D01*
X817895Y397682D01*
X815705Y398946D01*
X813264Y399600D01*
D02*
G37*
G36*
X845800Y399714D02*
X838200D01*
X835937Y399263D01*
X834018Y397982D01*
X832737Y396063D01*
X832286Y393800D01*
Y386200D01*
X832737Y383937D01*
X834018Y382018D01*
X835937Y380737D01*
X838200Y380286D01*
X845800D01*
X848063Y380737D01*
X849982Y382018D01*
X851264Y383937D01*
X851714Y386200D01*
Y393800D01*
X851264Y396063D01*
X849982Y397982D01*
X848063Y399263D01*
X845800Y399714D01*
D02*
G37*
G36*
X886830Y385050D02*
X883570D01*
X880373Y384414D01*
X877361Y383166D01*
X874650Y381355D01*
X872345Y379050D01*
X870534Y376339D01*
X869286Y373327D01*
X868929Y371531D01*
X867659Y371657D01*
Y373750D01*
X867426Y374921D01*
X866763Y375913D01*
X865771Y376576D01*
X864600Y376809D01*
X848600D01*
X847430Y376576D01*
X846437Y375913D01*
X845774Y374921D01*
X845541Y373750D01*
Y349250D01*
X845774Y348079D01*
X846437Y347087D01*
X847430Y346424D01*
X848600Y346191D01*
X864600D01*
X865771Y346424D01*
X866763Y347087D01*
X867426Y348079D01*
X867659Y349250D01*
Y365343D01*
X868929Y365468D01*
X869286Y363673D01*
X870534Y360661D01*
X872345Y357950D01*
X874650Y355645D01*
X877361Y353834D01*
X880373Y352586D01*
X883570Y351950D01*
X886830D01*
X890027Y352586D01*
X893039Y353834D01*
X895750Y355645D01*
X898055Y357950D01*
X899866Y360661D01*
X901114Y363673D01*
X901750Y366870D01*
Y370130D01*
X901114Y373327D01*
X899866Y376339D01*
X898055Y379050D01*
X895750Y381355D01*
X893039Y383166D01*
X890027Y384414D01*
X886830Y385050D01*
D02*
G37*
G36*
X196995Y329000D02*
X195005D01*
X193168Y328239D01*
X191761Y326832D01*
X191324Y325777D01*
X181101Y315555D01*
X180168Y315168D01*
X178761Y313761D01*
X178000Y311924D01*
Y309934D01*
X178761Y308097D01*
X180168Y306690D01*
X182005Y305929D01*
X183995D01*
X185832Y306690D01*
X187239Y308097D01*
X187676Y309152D01*
X197899Y319375D01*
X198832Y319761D01*
X200239Y321168D01*
X201000Y323005D01*
Y324995D01*
X200239Y326832D01*
X198832Y328239D01*
X196995Y329000D01*
D02*
G37*
G36*
X27000Y379608D02*
X24854Y379181D01*
X23035Y377965D01*
X21819Y376146D01*
X21392Y374000D01*
X21819Y371854D01*
X23035Y370035D01*
X31392Y361677D01*
Y278086D01*
X30122Y277460D01*
X29530Y277915D01*
X27827Y278620D01*
X26000Y278860D01*
X16000D01*
X14173Y278620D01*
X12470Y277915D01*
X11007Y276793D01*
X9886Y275330D01*
X9180Y273627D01*
X8940Y271800D01*
Y261800D01*
X9180Y259973D01*
X9886Y258270D01*
X11007Y256807D01*
X12470Y255686D01*
X14173Y254980D01*
X16000Y254740D01*
X26000D01*
X27827Y254980D01*
X29530Y255686D01*
X30122Y256140D01*
X31392Y255513D01*
Y249774D01*
X30122Y249248D01*
X28368Y251002D01*
X25632Y252582D01*
X22580Y253400D01*
X19420D01*
X16368Y252582D01*
X13632Y251002D01*
X11398Y248768D01*
X9818Y246032D01*
X9000Y242980D01*
Y239820D01*
X9818Y236768D01*
X11398Y234032D01*
X13632Y231798D01*
X16368Y230218D01*
X19420Y229400D01*
X22580D01*
X25632Y230218D01*
X28368Y231798D01*
X30122Y233552D01*
X31392Y233026D01*
Y224374D01*
X30122Y223848D01*
X28368Y225602D01*
X25632Y227182D01*
X22580Y228000D01*
X19420D01*
X16368Y227182D01*
X13632Y225602D01*
X11398Y223368D01*
X9818Y220632D01*
X9000Y217580D01*
Y214420D01*
X9818Y211368D01*
X11398Y208632D01*
X13632Y206398D01*
X16368Y204818D01*
X19420Y204000D01*
X22580D01*
X24264Y204451D01*
X25661Y203511D01*
X25696Y203227D01*
X24543Y202074D01*
X22580Y202600D01*
X19420D01*
X16368Y201782D01*
X13632Y200202D01*
X11398Y197968D01*
X9818Y195232D01*
X9000Y192180D01*
Y189020D01*
X9818Y185968D01*
X11398Y183232D01*
X13632Y180998D01*
X16368Y179418D01*
X19420Y178600D01*
X22580D01*
X25632Y179418D01*
X28368Y180998D01*
X30602Y183232D01*
X32182Y185968D01*
X33000Y189020D01*
Y192180D01*
X32474Y194143D01*
X39658Y201328D01*
X40922Y201203D01*
X41035Y201035D01*
X42854Y199819D01*
X45000Y199392D01*
X47146Y199819D01*
X48965Y201035D01*
X88478Y240547D01*
X89464Y239737D01*
X89174Y239303D01*
X88941Y238133D01*
X88941Y85000D01*
Y83917D01*
X89000Y83621D01*
Y83320D01*
X89423Y81195D01*
X89538Y80916D01*
X89597Y80621D01*
X90426Y78619D01*
X90593Y78369D01*
X90709Y78090D01*
X91912Y76289D01*
X92126Y76076D01*
X92293Y75825D01*
X93825Y74293D01*
X94076Y74125D01*
X94289Y73913D01*
X96090Y72709D01*
X96369Y72593D01*
X96619Y72426D01*
X98621Y71597D01*
X98916Y71538D01*
X99195Y71423D01*
X101320Y71000D01*
X101621D01*
X101917Y70941D01*
X103000D01*
X103000Y70941D01*
X154000D01*
X154886Y70941D01*
X155182Y71000D01*
X155483D01*
X157222Y71346D01*
X157500Y71461D01*
X157796Y71520D01*
X159434Y72198D01*
X159684Y72366D01*
X159962Y72481D01*
X161436Y73466D01*
X161649Y73679D01*
X161900Y73846D01*
X163153Y75100D01*
X163321Y75350D01*
X163534Y75563D01*
X164519Y77038D01*
X164634Y77316D01*
X164802Y77566D01*
X165480Y79204D01*
X165539Y79500D01*
X165654Y79778D01*
X166000Y81517D01*
Y81818D01*
X166059Y82114D01*
Y83000D01*
X166059Y83000D01*
Y89789D01*
X166008Y90042D01*
X167054Y90250D01*
X169018Y91562D01*
X170331Y93526D01*
X170791Y95843D01*
Y103717D01*
X170331Y106034D01*
X169018Y107998D01*
X167054Y109311D01*
X166008Y109518D01*
X166059Y109771D01*
X166059Y237000D01*
Y313000D01*
Y313689D01*
X166000Y313985D01*
Y314286D01*
X165731Y315639D01*
X165616Y315917D01*
X165557Y316212D01*
X165029Y317486D01*
X164862Y317737D01*
X164747Y318015D01*
X163981Y319162D01*
X163768Y319375D01*
X163600Y319625D01*
X162625Y320600D01*
X162375Y320768D01*
X162162Y320980D01*
X161015Y321747D01*
X160737Y321862D01*
X160486Y322029D01*
X159212Y322557D01*
X158917Y322616D01*
X158639Y322731D01*
X157286Y323000D01*
X156985D01*
X156690Y323059D01*
X126608D01*
Y331000D01*
X126181Y333146D01*
X124965Y334965D01*
X123146Y336181D01*
X121000Y336608D01*
X118854Y336181D01*
X117035Y334965D01*
X115819Y333146D01*
X115392Y331000D01*
Y283323D01*
X43781Y211712D01*
X42608Y212198D01*
Y364000D01*
X42181Y366146D01*
X40965Y367965D01*
X30965Y377965D01*
X29146Y379181D01*
X27000Y379608D01*
D02*
G37*
G36*
X869822Y228064D02*
X869770D01*
Y219294D01*
X878540D01*
Y219345D01*
X877856Y221899D01*
X876534Y224188D01*
X874665Y226058D01*
X872375Y227379D01*
X869822Y228064D01*
D02*
G37*
G36*
X867230D02*
X867178D01*
X864625Y227379D01*
X862335Y226058D01*
X860466Y224188D01*
X859144Y221899D01*
X858460Y219345D01*
Y219294D01*
X867230D01*
Y228064D01*
D02*
G37*
G36*
X206995Y242000D02*
X205005D01*
X203168Y241239D01*
X201761Y239832D01*
X201000Y237995D01*
Y237989D01*
X188309Y225297D01*
X188168Y225239D01*
X186761Y223832D01*
X186000Y221995D01*
Y220005D01*
X186761Y218168D01*
X188168Y216761D01*
X190005Y216000D01*
X191995D01*
X193832Y216761D01*
X195239Y218168D01*
X196000Y220005D01*
Y220011D01*
X208692Y232703D01*
X208832Y232761D01*
X210239Y234168D01*
X211000Y236005D01*
Y237995D01*
X210239Y239832D01*
X208832Y241239D01*
X206995Y242000D01*
D02*
G37*
G36*
X802751Y227524D02*
X800249D01*
X797833Y226876D01*
X795667Y225626D01*
X793898Y223857D01*
X792647Y221691D01*
X792000Y219274D01*
Y216773D01*
X792647Y214357D01*
X793898Y212191D01*
X795667Y210422D01*
X797833Y209171D01*
X800249Y208524D01*
X802751D01*
X805167Y209171D01*
X807333Y210422D01*
X809102Y212191D01*
X810353Y214357D01*
X811000Y216773D01*
Y219274D01*
X810353Y221691D01*
X809102Y223857D01*
X807333Y225626D01*
X805167Y226876D01*
X802751Y227524D01*
D02*
G37*
G36*
X878540Y216754D02*
X869770D01*
Y207984D01*
X869822D01*
X872375Y208668D01*
X874665Y209990D01*
X876534Y211859D01*
X877856Y214148D01*
X878540Y216702D01*
Y216754D01*
D02*
G37*
G36*
X867230D02*
X858460D01*
Y216702D01*
X859144Y214148D01*
X860466Y211859D01*
X862335Y209990D01*
X864625Y208668D01*
X867178Y207984D01*
X867230D01*
Y216754D01*
D02*
G37*
G36*
X903251Y169500D02*
X900749D01*
X898333Y168853D01*
X896167Y167602D01*
X894398Y165833D01*
X893147Y163667D01*
X892500Y161251D01*
Y158749D01*
X892872Y157361D01*
X885099Y149588D01*
X770754D01*
X770587Y150858D01*
X771667Y151147D01*
X773833Y152398D01*
X775602Y154167D01*
X776853Y156333D01*
X777500Y158749D01*
Y161251D01*
X776853Y163667D01*
X775602Y165833D01*
X773833Y167602D01*
X771667Y168853D01*
X769251Y169500D01*
X766749D01*
X764333Y168853D01*
X762167Y167602D01*
X760398Y165833D01*
X759147Y163667D01*
X758500Y161251D01*
Y158749D01*
X759147Y156333D01*
X760398Y154167D01*
X762167Y152398D01*
X764333Y151147D01*
X765413Y150858D01*
X765246Y149588D01*
X599489D01*
X598495Y150000D01*
X596505D01*
X594668Y149239D01*
X593261Y147832D01*
X592500Y145995D01*
Y144005D01*
X593261Y142168D01*
X594668Y140761D01*
X596505Y140000D01*
X598495D01*
X599489Y140412D01*
X887000D01*
X888756Y140761D01*
X890244Y141756D01*
X899361Y150872D01*
X900749Y150500D01*
X903251D01*
X905667Y151147D01*
X907833Y152398D01*
X909602Y154167D01*
X910853Y156333D01*
X911500Y158749D01*
Y161251D01*
X910853Y163667D01*
X909602Y165833D01*
X907833Y167602D01*
X905667Y168853D01*
X903251Y169500D01*
D02*
G37*
G36*
X501683Y156688D02*
X499693D01*
X497856Y155927D01*
X496449Y154520D01*
X495688Y152683D01*
Y150694D01*
X496256Y149323D01*
Y116612D01*
X496000Y115995D01*
Y114005D01*
X496761Y112168D01*
X498168Y110761D01*
X500005Y110000D01*
X501995D01*
X503832Y110761D01*
X505239Y112168D01*
X506000Y114005D01*
Y115995D01*
X505432Y117365D01*
Y150076D01*
X505688Y150694D01*
Y152683D01*
X504927Y154520D01*
X503520Y155927D01*
X501683Y156688D01*
D02*
G37*
G36*
X802822Y112016D02*
X802770D01*
Y103246D01*
X811540D01*
Y103298D01*
X810856Y105852D01*
X809534Y108141D01*
X807665Y110010D01*
X805375Y111332D01*
X802822Y112016D01*
D02*
G37*
G36*
X800230D02*
X800178D01*
X797625Y111332D01*
X795335Y110010D01*
X793466Y108141D01*
X792144Y105852D01*
X791460Y103298D01*
Y103246D01*
X800230D01*
Y112016D01*
D02*
G37*
G36*
X264150Y111087D02*
Y101530D01*
X273707D01*
X273000Y104171D01*
X271502Y106764D01*
X269384Y108882D01*
X266791Y110380D01*
X264150Y111087D01*
D02*
G37*
G36*
X260650D02*
X258009Y110380D01*
X255416Y108882D01*
X253298Y106764D01*
X251800Y104171D01*
X251093Y101530D01*
X260650D01*
Y111087D01*
D02*
G37*
G36*
X187950D02*
Y101530D01*
X197507D01*
X196800Y104171D01*
X195302Y106764D01*
X193184Y108882D01*
X190591Y110380D01*
X187950Y111087D01*
D02*
G37*
G36*
X184450D02*
X181809Y110380D01*
X179216Y108882D01*
X177098Y106764D01*
X175600Y104171D01*
X174893Y101530D01*
X184450D01*
Y111087D01*
D02*
G37*
G36*
X869751Y111476D02*
X867249D01*
X864833Y110829D01*
X862667Y109578D01*
X860898Y107809D01*
X859648Y105643D01*
X859000Y103227D01*
Y100726D01*
X859648Y98309D01*
X860898Y96143D01*
X862667Y94375D01*
X864833Y93124D01*
X867249Y92476D01*
X869751D01*
X872167Y93124D01*
X874333Y94375D01*
X876102Y96143D01*
X877353Y98309D01*
X878000Y100726D01*
Y103227D01*
X877353Y105643D01*
X876102Y107809D01*
X874333Y109578D01*
X872167Y110829D01*
X869751Y111476D01*
D02*
G37*
G36*
X811540Y100706D02*
X802770D01*
Y91936D01*
X802822D01*
X805375Y92620D01*
X807665Y93942D01*
X809534Y95812D01*
X810856Y98101D01*
X811540Y100654D01*
Y100706D01*
D02*
G37*
G36*
X800230D02*
X791460D01*
Y100654D01*
X792144Y98101D01*
X793466Y95812D01*
X795335Y93942D01*
X797625Y92620D01*
X800178Y91936D01*
X800230D01*
Y100706D01*
D02*
G37*
G36*
X42023Y112752D02*
X39127D01*
X36329Y112003D01*
X33821Y110555D01*
X31773Y108507D01*
X30324Y105998D01*
X29575Y103201D01*
Y100304D01*
X30324Y97507D01*
X31773Y94998D01*
X33821Y92950D01*
X36329Y91502D01*
X39127Y90752D01*
X42023D01*
X44821Y91502D01*
X47329Y92950D01*
X49377Y94998D01*
X50825Y97507D01*
X51575Y100304D01*
Y103201D01*
X50825Y105998D01*
X49377Y108507D01*
X47329Y110555D01*
X44821Y112003D01*
X42023Y112752D01*
D02*
G37*
G36*
X273707Y98030D02*
X264150D01*
Y88473D01*
X266791Y89180D01*
X269384Y90678D01*
X271502Y92796D01*
X273000Y95389D01*
X273707Y98030D01*
D02*
G37*
G36*
X260650D02*
X251093D01*
X251800Y95389D01*
X253298Y92796D01*
X255416Y90678D01*
X258009Y89180D01*
X260650Y88473D01*
Y98030D01*
D02*
G37*
G36*
X197507D02*
X187950D01*
Y88473D01*
X190591Y89180D01*
X193184Y90678D01*
X195302Y92796D01*
X196800Y95389D01*
X197507Y98030D01*
D02*
G37*
G36*
X184450D02*
X174893D01*
X175600Y95389D01*
X177098Y92796D01*
X179216Y90678D01*
X181809Y89180D01*
X184450Y88473D01*
Y98030D01*
D02*
G37*
G36*
X42325Y88224D02*
Y77502D01*
X53047D01*
X52223Y80577D01*
X50577Y83428D01*
X48250Y85755D01*
X45400Y87401D01*
X42325Y88224D01*
D02*
G37*
G36*
X38825D02*
X35750Y87401D01*
X32900Y85755D01*
X30572Y83428D01*
X28927Y80577D01*
X28103Y77502D01*
X38825D01*
Y88224D01*
D02*
G37*
G36*
X53047Y74002D02*
X42325D01*
Y63280D01*
X45400Y64104D01*
X48250Y65750D01*
X50577Y68077D01*
X52223Y70928D01*
X53047Y74002D01*
D02*
G37*
G36*
X38825D02*
X28103D01*
X28927Y70928D01*
X30572Y68077D01*
X32900Y65750D01*
X35750Y64104D01*
X38825Y63280D01*
Y74002D01*
D02*
G37*
G36*
X921724Y47500D02*
X918276D01*
X914895Y46828D01*
X911711Y45508D01*
X908844Y43593D01*
X906407Y41156D01*
X904492Y38289D01*
X903173Y35105D01*
X902500Y31724D01*
Y28276D01*
X903173Y24895D01*
X904492Y21711D01*
X906407Y18844D01*
X908844Y16407D01*
X911711Y14492D01*
X914895Y13173D01*
X918276Y12500D01*
X921724D01*
X925105Y13173D01*
X928289Y14492D01*
X931156Y16407D01*
X933593Y18844D01*
X935508Y21711D01*
X936827Y24895D01*
X937500Y28276D01*
Y31724D01*
X936827Y35105D01*
X935508Y38289D01*
X933593Y41156D01*
X931156Y43593D01*
X928289Y45508D01*
X925105Y46828D01*
X921724Y47500D01*
D02*
G37*
G36*
X31724D02*
X28276D01*
X24895Y46828D01*
X21711Y45508D01*
X18844Y43593D01*
X16407Y41156D01*
X14492Y38289D01*
X13173Y35105D01*
X12500Y31724D01*
Y28276D01*
X13173Y24895D01*
X14492Y21711D01*
X16407Y18844D01*
X18844Y16407D01*
X21711Y14492D01*
X24895Y13173D01*
X28276Y12500D01*
X31724D01*
X35105Y13173D01*
X38289Y14492D01*
X41156Y16407D01*
X43593Y18844D01*
X45508Y21711D01*
X46828Y24895D01*
X47500Y28276D01*
Y31724D01*
X46828Y35105D01*
X45508Y38289D01*
X43593Y41156D01*
X41156Y43593D01*
X38289Y45508D01*
X35105Y46828D01*
X31724Y47500D01*
D02*
G37*
%LPD*%
G36*
X390000Y390000D02*
X390000Y390000D01*
X391477Y390000D01*
X394375Y389424D01*
X397105Y388293D01*
X399562Y386651D01*
X401651Y384562D01*
X403293Y382105D01*
X404423Y379375D01*
X405000Y376478D01*
X405000Y375000D01*
X405000Y175000D01*
X405000Y175000D01*
X405000Y173523D01*
X404423Y170625D01*
X403293Y167895D01*
X401651Y165438D01*
X399562Y163349D01*
X397105Y161707D01*
X394375Y160576D01*
X391477Y160000D01*
X260000D01*
X260000Y160000D01*
X258530Y159928D01*
X255646Y159354D01*
X252929Y158229D01*
X250484Y156595D01*
X248405Y154516D01*
X246771Y152071D01*
X245646Y149354D01*
X245072Y146470D01*
X245000Y145000D01*
Y109415D01*
X243861Y108853D01*
X242737Y109716D01*
X239970Y110862D01*
X238750Y111023D01*
Y99780D01*
Y88537D01*
X239970Y88698D01*
X242737Y89844D01*
X243861Y90707D01*
X245000Y90145D01*
Y55000D01*
X245072Y53530D01*
X245646Y50645D01*
X246771Y47929D01*
X248405Y45484D01*
X250484Y43405D01*
X252929Y41771D01*
X255646Y40646D01*
X258530Y40072D01*
X260000Y40000D01*
X508792Y40000D01*
X510000Y40000D01*
X510000Y40000D01*
X510000Y40000D01*
X511152Y40057D01*
X511240Y40074D01*
X513414Y40506D01*
X515544Y41388D01*
X517461Y42669D01*
X519091Y44299D01*
X520372Y46216D01*
X521254Y48346D01*
X521703Y50607D01*
X521760Y51760D01*
X521760Y321760D01*
Y322571D01*
X522076Y324163D01*
X522698Y325663D01*
X523599Y327013D01*
X524747Y328160D01*
X526097Y329062D01*
X527596Y329683D01*
X529188Y330000D01*
X536449D01*
X536449Y330000D01*
X536449Y330000D01*
X536455D01*
X537621Y329934D01*
X538943Y329671D01*
X540499Y329027D01*
X541900Y328091D01*
X543091Y326900D01*
X544027Y325499D01*
X544671Y323943D01*
X545000Y322291D01*
X545000Y321449D01*
X545000Y202269D01*
Y183164D01*
X544837Y181935D01*
X542886Y181547D01*
X541232Y180442D01*
X540127Y178788D01*
X539739Y176837D01*
X540127Y174886D01*
X541232Y173232D01*
X542886Y172127D01*
X544837Y171739D01*
X545000Y170510D01*
Y167895D01*
Y99780D01*
X545000Y96811D01*
Y25000D01*
X545000Y25000D01*
X545000Y23523D01*
X544423Y20625D01*
X543293Y17895D01*
X541651Y15438D01*
X539562Y13349D01*
X537105Y11707D01*
X534375Y10576D01*
X531477Y10000D01*
X238030D01*
X234166Y10769D01*
X230526Y12276D01*
X227251Y14465D01*
X224465Y17251D01*
X222276Y20526D01*
X220769Y24166D01*
X220000Y28030D01*
Y30000D01*
Y178804D01*
X220000Y180000D01*
X220000Y180000D01*
X220000Y180000D01*
X220000Y181970D01*
X220768Y185834D01*
X222276Y189474D01*
X224464Y192750D01*
X227250Y195535D01*
X230526Y197724D01*
X234166Y199232D01*
X238030Y200000D01*
X240000Y200000D01*
X328795Y200000D01*
X330000Y200000D01*
X330000Y200000D01*
X330000Y200000D01*
X330980Y200048D01*
X331230Y200098D01*
X332903Y200430D01*
X334714Y201180D01*
X336344Y202269D01*
X337142Y203067D01*
X338412Y202541D01*
Y179133D01*
X338290Y178951D01*
X337902Y177000D01*
X338290Y175049D01*
X339395Y173395D01*
X341049Y172290D01*
X343000Y171902D01*
X344951Y172290D01*
X346605Y173395D01*
X347710Y175049D01*
X348098Y177000D01*
X347710Y178951D01*
X347588Y179133D01*
Y208867D01*
X347710Y209049D01*
X348098Y211000D01*
X347710Y212951D01*
X346605Y214605D01*
X344951Y215710D01*
X343000Y216098D01*
X341270Y215754D01*
X340000Y216420D01*
X340000Y321760D01*
Y331917D01*
X340535Y332452D01*
X341750Y334271D01*
X342177Y336417D01*
X341750Y338563D01*
X340535Y340383D01*
X339962Y340765D01*
X339904Y341960D01*
X339139Y345806D01*
X337638Y349428D01*
X335460Y352688D01*
X332688Y355460D01*
X329428Y357638D01*
X325806Y359139D01*
X321960Y359904D01*
X320000Y360000D01*
X230000Y360000D01*
X229015Y360000D01*
X227083Y360384D01*
X225263Y361138D01*
X223625Y362232D01*
X222232Y363625D01*
X221138Y365263D01*
X220384Y367083D01*
X220000Y369015D01*
X220000Y370000D01*
Y380000D01*
X220000Y380000D01*
X220052Y381248D01*
X220384Y382917D01*
X221138Y384737D01*
X222232Y386375D01*
X223625Y387767D01*
X225263Y388862D01*
X227083Y389616D01*
X229015Y390000D01*
X230000Y390000D01*
X340000Y390000D01*
X389999D01*
X390000Y390000D01*
D02*
G37*
G36*
X466200Y513800D02*
X468545D01*
X473143Y512885D01*
X477474Y511091D01*
X481372Y508486D01*
X484687Y505171D01*
X487291Y501273D01*
X489085Y496942D01*
X490000Y492344D01*
X490000Y490000D01*
Y475460D01*
Y461960D01*
X490000Y370000D01*
Y250858D01*
Y247253D01*
Y233148D01*
X488827Y232662D01*
X468895Y252594D01*
X468852Y252809D01*
X467747Y254463D01*
X466093Y255568D01*
X464142Y255956D01*
X462191Y255568D01*
X460537Y254463D01*
X459432Y252809D01*
X459044Y250858D01*
X459432Y248907D01*
X460537Y247253D01*
X462191Y246148D01*
X462406Y246105D01*
X487468Y221043D01*
Y211889D01*
X487347Y211707D01*
X486959Y209756D01*
X487347Y207805D01*
X488452Y206151D01*
X490000Y205116D01*
X490000Y116375D01*
Y100000D01*
X490000Y100000D01*
X490000Y98030D01*
X489231Y94166D01*
X487723Y90526D01*
X485535Y87251D01*
X482749Y84465D01*
X479473Y82276D01*
X475834Y80768D01*
X471970Y80000D01*
X289015D01*
X287083Y80384D01*
X285263Y81138D01*
X283625Y82233D01*
X282232Y83625D01*
X281138Y85263D01*
X280384Y87083D01*
X280000Y89015D01*
Y89826D01*
X280498Y90246D01*
X281132Y90558D01*
X282063Y89844D01*
X284830Y88698D01*
X286050Y88537D01*
Y99780D01*
Y111023D01*
X284830Y110862D01*
X282063Y109716D01*
X281139Y109007D01*
X280000Y109568D01*
Y110000D01*
X280052Y111248D01*
X280384Y112917D01*
X281138Y114737D01*
X282232Y116375D01*
X283625Y117768D01*
X285263Y118862D01*
X287083Y119616D01*
X289015Y120000D01*
X290000Y120000D01*
X388782Y120000D01*
X390000Y120000D01*
X390000Y120000D01*
X391960Y120096D01*
X395806Y120861D01*
X399428Y122361D01*
X402688Y124539D01*
X405461Y127312D01*
X407639Y130572D01*
X409139Y134194D01*
X409904Y138040D01*
X410000Y140000D01*
X410000Y460000D01*
X410000Y460000D01*
X410000Y460000D01*
X409904Y461960D01*
X409139Y465806D01*
X407638Y469428D01*
X405460Y472688D01*
X402688Y475460D01*
X399428Y477638D01*
X395806Y479138D01*
X391960Y479903D01*
X390000Y480000D01*
X100000Y480000D01*
X100000Y480000D01*
X98040Y479904D01*
X94194Y479139D01*
X90572Y477639D01*
X87312Y475460D01*
X84540Y472688D01*
X82362Y469428D01*
X80861Y465806D01*
X80096Y461960D01*
X80000Y460000D01*
X80000Y380000D01*
X80000Y380000D01*
X80000Y379015D01*
X79616Y377083D01*
X78862Y375263D01*
X77767Y373625D01*
X76375Y372233D01*
X74737Y371138D01*
X72917Y370384D01*
X70985Y370000D01*
X49015Y370000D01*
X47083Y370384D01*
X45263Y371138D01*
X43625Y372233D01*
X42232Y373625D01*
X41138Y375263D01*
X40384Y377083D01*
X40000Y379015D01*
Y380000D01*
Y490000D01*
Y492344D01*
X40915Y496942D01*
X42709Y501273D01*
X45313Y505171D01*
X48628Y508486D01*
X52526Y511091D01*
X56857Y512885D01*
X61455Y513800D01*
X466200D01*
Y513800D01*
D02*
G37*
%LPC*%
G36*
X235250Y111023D02*
X234030Y110862D01*
X231263Y109716D01*
X228887Y107893D01*
X227064Y105517D01*
X225918Y102750D01*
X225757Y101530D01*
X235250D01*
Y111023D01*
D02*
G37*
G36*
Y98030D02*
X225757D01*
X225918Y96811D01*
X227064Y94043D01*
X228887Y91667D01*
X231263Y89844D01*
X234030Y88698D01*
X235250Y88537D01*
Y98030D01*
D02*
G37*
G36*
X289550Y111023D02*
Y101530D01*
X299043D01*
X298882Y102750D01*
X297736Y105517D01*
X295913Y107893D01*
X293537Y109716D01*
X290770Y110862D01*
X289550Y111023D01*
D02*
G37*
G36*
X299043Y98030D02*
X289550D01*
Y88537D01*
X290770Y88698D01*
X293537Y89844D01*
X295913Y91667D01*
X297736Y94043D01*
X298882Y96811D01*
X299043Y98030D01*
D02*
G37*
%LPD*%
G36*
X158042Y319731D02*
X159316Y319203D01*
X160462Y318437D01*
X161437Y317462D01*
X162203Y316316D01*
X162731Y315042D01*
X163000Y313689D01*
Y313000D01*
Y237000D01*
X163000Y109771D01*
X156862D01*
X154546Y109311D01*
X152582Y107998D01*
X151270Y106034D01*
X150809Y103717D01*
Y95843D01*
X151270Y93526D01*
X152582Y91562D01*
X154546Y90250D01*
X156862Y89789D01*
X163000D01*
Y83000D01*
X163000Y83000D01*
Y82114D01*
X162654Y80375D01*
X161976Y78737D01*
X160991Y77263D01*
X159737Y76009D01*
X158263Y75024D01*
X156625Y74346D01*
X154886Y74000D01*
X154000Y74000D01*
X103000D01*
Y74000D01*
X101917D01*
X99791Y74423D01*
X97789Y75252D01*
X95988Y76456D01*
X94456Y77988D01*
X93252Y79790D01*
X92423Y81791D01*
X92000Y83917D01*
Y85000D01*
X92000Y238133D01*
X93270Y238659D01*
X94168Y237761D01*
X96005Y237000D01*
X97057D01*
X97500Y236912D01*
X104560D01*
X105173Y235994D01*
Y234006D01*
X105934Y232168D01*
X107340Y230761D01*
X109178Y230000D01*
X111167D01*
X111860Y230287D01*
X146093D01*
X147388Y229750D01*
X149377D01*
X151215Y230512D01*
X152622Y231918D01*
X153383Y233756D01*
Y235745D01*
X152622Y237583D01*
X151215Y238989D01*
X149465Y239714D01*
X150000Y241005D01*
Y242995D01*
X149239Y244832D01*
X147832Y246239D01*
X145995Y247000D01*
X144005D01*
X142168Y246239D01*
X142017Y246088D01*
X99983D01*
X99832Y246239D01*
X97995Y247000D01*
X96727D01*
X96201Y248270D01*
X124965Y277035D01*
X126181Y278854D01*
X126608Y281000D01*
Y320000D01*
X156690D01*
X158042Y319731D01*
D02*
G37*
D12*
X597500Y145000D02*
X887000D01*
X902000Y160000D01*
X620000Y235000D02*
Y300000D01*
X561837Y176837D02*
X620000Y235000D01*
X343000Y177000D02*
Y211000D01*
X97500Y241500D02*
X144500D01*
X97000Y242000D02*
X97500Y241500D01*
X492057Y209756D02*
Y222943D01*
X464142Y250858D02*
X492057Y222943D01*
X544837Y176837D02*
X561837D01*
X500844Y115156D02*
X501000Y115000D01*
X500844Y115156D02*
Y151532D01*
X500688Y151688D02*
X500844Y151532D01*
X159766Y459000D02*
X160000D01*
X135000Y434234D02*
X159766Y459000D01*
X196000Y323965D02*
Y324000D01*
X183000Y310965D02*
X196000Y323965D01*
X183000Y310929D02*
Y310965D01*
X110297Y234875D02*
X148258D01*
X148383Y234750D01*
X110173Y235000D02*
X110297Y234875D01*
X144500Y241500D02*
X145000Y242000D01*
X191000Y221000D02*
Y221500D01*
X206000Y236500D01*
Y237000D01*
D13*
X206323Y206171D02*
X336570Y336417D01*
X205191Y206171D02*
X206323D01*
X205000Y205979D02*
X205191Y206171D01*
X27000Y374000D02*
X37000Y364000D01*
Y206600D02*
Y364000D01*
X21000Y190600D02*
X37000Y206600D01*
X45000Y205000D02*
X121000Y281000D01*
Y331000D01*
D53*
X868500Y101976D02*
D03*
X801500D02*
D03*
X868500Y218024D02*
D03*
X902000Y160000D02*
D03*
X801500Y218024D02*
D03*
X768000Y160000D02*
D03*
D54*
X30000Y520000D02*
D03*
X920000D02*
D03*
Y30000D02*
D03*
X30000D02*
D03*
D55*
X842000Y390000D02*
D03*
D56*
Y420000D02*
D03*
Y450000D02*
D03*
X812000Y390000D02*
D03*
Y420000D02*
D03*
Y450000D02*
D03*
D57*
X885200Y368500D02*
D03*
Y471500D02*
D03*
D58*
X40575Y101753D02*
D03*
Y75753D02*
D03*
D59*
X21000Y266800D02*
D03*
D60*
Y190600D02*
D03*
Y216000D02*
D03*
Y241400D02*
D03*
D61*
X287800Y99780D02*
D03*
X262400D02*
D03*
X237000D02*
D03*
X186200D02*
D03*
D62*
X160800D02*
D03*
D63*
X336570Y336417D02*
D03*
X597500Y145000D02*
D03*
X620000Y300000D02*
D03*
X343000Y177000D02*
D03*
Y211000D02*
D03*
X27000Y374000D02*
D03*
X45000Y205000D02*
D03*
X97000Y242000D02*
D03*
X464142Y250858D02*
D03*
X492057Y209756D02*
D03*
X544837Y176837D02*
D03*
X501000Y115000D02*
D03*
X285620Y506937D02*
D03*
X160000Y460000D02*
D03*
X135000Y434234D02*
D03*
X196000Y324000D02*
D03*
X183000Y310929D02*
D03*
X500688Y151688D02*
D03*
X205000Y205979D02*
D03*
X148383Y234750D02*
D03*
X152000Y305000D02*
D03*
X145000Y242000D02*
D03*
X110173Y235000D02*
D03*
X112000Y83000D02*
D03*
X121000Y331000D02*
D03*
X233397Y374096D02*
D03*
X47667Y382695D02*
D03*
X425000Y280000D02*
D03*
X348000Y385000D02*
D03*
X399000Y187000D02*
D03*
X450000Y95000D02*
D03*
X353000Y37000D02*
D03*
X535000Y320000D02*
D03*
X475000Y450000D02*
D03*
X191000Y221000D02*
D03*
X206000Y237000D02*
D03*
M02*
