G04*
G04 #@! TF.GenerationSoftware,Altium Limited,Altium Designer,24.0.1 (36)*
G04*
G04 Layer_Physical_Order=1*
G04 Layer_Color=255*
%FSLAX44Y44*%
%MOMM*%
G71*
G04*
G04 #@! TF.SameCoordinates,0B949CC5-81DD-4DDC-A94B-3872E86EF17A*
G04*
G04*
G04 #@! TF.FilePolarity,Positive*
G04*
G01*
G75*
%ADD10C,0.3000*%
G04:AMPARAMS|DCode=37|XSize=1.5mm|YSize=1.3mm|CornerRadius=0.325mm|HoleSize=0mm|Usage=FLASHONLY|Rotation=270.000|XOffset=0mm|YOffset=0mm|HoleType=Round|Shape=RoundedRectangle|*
%AMROUNDEDRECTD37*
21,1,1.5000,0.6500,0,0,270.0*
21,1,0.8500,1.3000,0,0,270.0*
1,1,0.6500,-0.3250,-0.4250*
1,1,0.6500,-0.3250,0.4250*
1,1,0.6500,0.3250,0.4250*
1,1,0.6500,0.3250,-0.4250*
%
%ADD37ROUNDEDRECTD37*%
%ADD38C,0.7000*%
G04:AMPARAMS|DCode=39|XSize=0.6mm|YSize=2.2mm|CornerRadius=0.15mm|HoleSize=0mm|Usage=FLASHONLY|Rotation=90.000|XOffset=0mm|YOffset=0mm|HoleType=Round|Shape=RoundedRectangle|*
%AMROUNDEDRECTD39*
21,1,0.6000,1.9000,0,0,90.0*
21,1,0.3000,2.2000,0,0,90.0*
1,1,0.3000,0.9500,0.1500*
1,1,0.3000,0.9500,-0.1500*
1,1,0.3000,-0.9500,-0.1500*
1,1,0.3000,-0.9500,0.1500*
%
%ADD39ROUNDEDRECTD39*%
G04:AMPARAMS|DCode=40|XSize=0.6mm|YSize=2.25mm|CornerRadius=0.15mm|HoleSize=0mm|Usage=FLASHONLY|Rotation=90.000|XOffset=0mm|YOffset=0mm|HoleType=Round|Shape=RoundedRectangle|*
%AMROUNDEDRECTD40*
21,1,0.6000,1.9500,0,0,90.0*
21,1,0.3000,2.2500,0,0,90.0*
1,1,0.3000,0.9750,0.1500*
1,1,0.3000,0.9750,-0.1500*
1,1,0.3000,-0.9750,-0.1500*
1,1,0.3000,-0.9750,0.1500*
%
%ADD40ROUNDEDRECTD40*%
G04:AMPARAMS|DCode=41|XSize=1.5mm|YSize=1.3mm|CornerRadius=0.325mm|HoleSize=0mm|Usage=FLASHONLY|Rotation=180.000|XOffset=0mm|YOffset=0mm|HoleType=Round|Shape=RoundedRectangle|*
%AMROUNDEDRECTD41*
21,1,1.5000,0.6500,0,0,180.0*
21,1,0.8500,1.3000,0,0,180.0*
1,1,0.6500,-0.4250,0.3250*
1,1,0.6500,0.4250,0.3250*
1,1,0.6500,0.4250,-0.3250*
1,1,0.6500,-0.4250,-0.3250*
%
%ADD41ROUNDEDRECTD41*%
G04:AMPARAMS|DCode=42|XSize=1mm|YSize=1.1mm|CornerRadius=0.25mm|HoleSize=0mm|Usage=FLASHONLY|Rotation=0.000|XOffset=0mm|YOffset=0mm|HoleType=Round|Shape=RoundedRectangle|*
%AMROUNDEDRECTD42*
21,1,1.0000,0.6000,0,0,0.0*
21,1,0.5000,1.1000,0,0,0.0*
1,1,0.5000,0.2500,-0.3000*
1,1,0.5000,-0.2500,-0.3000*
1,1,0.5000,-0.2500,0.3000*
1,1,0.5000,0.2500,0.3000*
%
%ADD42ROUNDEDRECTD42*%
G04:AMPARAMS|DCode=43|XSize=1mm|YSize=1.1mm|CornerRadius=0.25mm|HoleSize=0mm|Usage=FLASHONLY|Rotation=90.000|XOffset=0mm|YOffset=0mm|HoleType=Round|Shape=RoundedRectangle|*
%AMROUNDEDRECTD43*
21,1,1.0000,0.6000,0,0,90.0*
21,1,0.5000,1.1000,0,0,90.0*
1,1,0.5000,0.3000,0.2500*
1,1,0.5000,0.3000,-0.2500*
1,1,0.5000,-0.3000,-0.2500*
1,1,0.5000,-0.3000,0.2500*
%
%ADD43ROUNDEDRECTD43*%
G04:AMPARAMS|DCode=44|XSize=2.5mm|YSize=1.5mm|CornerRadius=0.375mm|HoleSize=0mm|Usage=FLASHONLY|Rotation=90.000|XOffset=0mm|YOffset=0mm|HoleType=Round|Shape=RoundedRectangle|*
%AMROUNDEDRECTD44*
21,1,2.5000,0.7500,0,0,90.0*
21,1,1.7500,1.5000,0,0,90.0*
1,1,0.7500,0.3750,0.8750*
1,1,0.7500,0.3750,-0.8750*
1,1,0.7500,-0.3750,-0.8750*
1,1,0.7500,-0.3750,0.8750*
%
%ADD44ROUNDEDRECTD44*%
G04:AMPARAMS|DCode=45|XSize=2.2mm|YSize=3.7mm|CornerRadius=0.55mm|HoleSize=0mm|Usage=FLASHONLY|Rotation=180.000|XOffset=0mm|YOffset=0mm|HoleType=Round|Shape=RoundedRectangle|*
%AMROUNDEDRECTD45*
21,1,2.2000,2.6000,0,0,180.0*
21,1,1.1000,3.7000,0,0,180.0*
1,1,1.1000,-0.5500,1.3000*
1,1,1.1000,0.5500,1.3000*
1,1,1.1000,0.5500,-1.3000*
1,1,1.1000,-0.5500,-1.3000*
%
%ADD45ROUNDEDRECTD45*%
G04:AMPARAMS|DCode=46|XSize=1mm|YSize=1.5mm|CornerRadius=0.25mm|HoleSize=0mm|Usage=FLASHONLY|Rotation=180.000|XOffset=0mm|YOffset=0mm|HoleType=Round|Shape=RoundedRectangle|*
%AMROUNDEDRECTD46*
21,1,1.0000,1.0000,0,0,180.0*
21,1,0.5000,1.5000,0,0,180.0*
1,1,0.5000,-0.2500,0.5000*
1,1,0.5000,0.2500,0.5000*
1,1,0.5000,0.2500,-0.5000*
1,1,0.5000,-0.2500,-0.5000*
%
%ADD46ROUNDEDRECTD46*%
G04:AMPARAMS|DCode=47|XSize=1mm|YSize=2.1501mm|CornerRadius=0.25mm|HoleSize=0mm|Usage=FLASHONLY|Rotation=180.000|XOffset=0mm|YOffset=0mm|HoleType=Round|Shape=RoundedRectangle|*
%AMROUNDEDRECTD47*
21,1,1.0000,1.6501,0,0,180.0*
21,1,0.5000,2.1501,0,0,180.0*
1,1,0.5000,-0.2500,0.8250*
1,1,0.5000,0.2500,0.8250*
1,1,0.5000,0.2500,-0.8250*
1,1,0.5000,-0.2500,-0.8250*
%
%ADD47ROUNDEDRECTD47*%
G04:AMPARAMS|DCode=48|XSize=1.2mm|YSize=2.2mm|CornerRadius=0.3mm|HoleSize=0mm|Usage=FLASHONLY|Rotation=90.000|XOffset=0mm|YOffset=0mm|HoleType=Round|Shape=RoundedRectangle|*
%AMROUNDEDRECTD48*
21,1,1.2000,1.6000,0,0,90.0*
21,1,0.6000,2.2000,0,0,90.0*
1,1,0.6000,0.8000,0.3000*
1,1,0.6000,0.8000,-0.3000*
1,1,0.6000,-0.8000,-0.3000*
1,1,0.6000,-0.8000,0.3000*
%
%ADD48ROUNDEDRECTD48*%
G04:AMPARAMS|DCode=49|XSize=3.5mm|YSize=2.2mm|CornerRadius=0.55mm|HoleSize=0mm|Usage=FLASHONLY|Rotation=90.000|XOffset=0mm|YOffset=0mm|HoleType=Round|Shape=RoundedRectangle|*
%AMROUNDEDRECTD49*
21,1,3.5000,1.1000,0,0,90.0*
21,1,2.4000,2.2000,0,0,90.0*
1,1,1.1000,0.5500,1.2000*
1,1,1.1000,0.5500,-1.2000*
1,1,1.1000,-0.5500,-1.2000*
1,1,1.1000,-0.5500,1.2000*
%
%ADD49ROUNDEDRECTD49*%
G04:AMPARAMS|DCode=50|XSize=0.6mm|YSize=2.25mm|CornerRadius=0.15mm|HoleSize=0mm|Usage=FLASHONLY|Rotation=180.000|XOffset=0mm|YOffset=0mm|HoleType=Round|Shape=RoundedRectangle|*
%AMROUNDEDRECTD50*
21,1,0.6000,1.9500,0,0,180.0*
21,1,0.3000,2.2500,0,0,180.0*
1,1,0.3000,-0.1500,0.9750*
1,1,0.3000,0.1500,0.9750*
1,1,0.3000,0.1500,-0.9750*
1,1,0.3000,-0.1500,-0.9750*
%
%ADD50ROUNDEDRECTD50*%
%ADD51C,0.5000*%
%ADD52C,1.0000*%
%ADD53C,1.5000*%
%ADD54C,3.0000*%
G04:AMPARAMS|DCode=55|XSize=1.52mm|YSize=1.52mm|CornerRadius=0.38mm|HoleSize=0mm|Usage=FLASHONLY|Rotation=270.000|XOffset=0mm|YOffset=0mm|HoleType=Round|Shape=RoundedRectangle|*
%AMROUNDEDRECTD55*
21,1,1.5200,0.7600,0,0,270.0*
21,1,0.7600,1.5200,0,0,270.0*
1,1,0.7600,-0.3800,-0.3800*
1,1,0.7600,-0.3800,0.3800*
1,1,0.7600,0.3800,0.3800*
1,1,0.7600,0.3800,-0.3800*
%
%ADD55ROUNDEDRECTD55*%
%ADD56C,1.5200*%
%ADD57C,2.9100*%
%ADD58C,1.8000*%
G04:AMPARAMS|DCode=59|XSize=2mm|YSize=2mm|CornerRadius=0.5mm|HoleSize=0mm|Usage=FLASHONLY|Rotation=270.000|XOffset=0mm|YOffset=0mm|HoleType=Round|Shape=RoundedRectangle|*
%AMROUNDEDRECTD59*
21,1,2.0000,1.0000,0,0,270.0*
21,1,1.0000,2.0000,0,0,270.0*
1,1,1.0000,-0.5000,-0.5000*
1,1,1.0000,-0.5000,0.5000*
1,1,1.0000,0.5000,0.5000*
1,1,1.0000,0.5000,-0.5000*
%
%ADD59ROUNDEDRECTD59*%
%ADD60C,2.0000*%
%ADD61C,1.5750*%
G04:AMPARAMS|DCode=62|XSize=1.575mm|YSize=1.575mm|CornerRadius=0.3938mm|HoleSize=0mm|Usage=FLASHONLY|Rotation=0.000|XOffset=0mm|YOffset=0mm|HoleType=Round|Shape=RoundedRectangle|*
%AMROUNDEDRECTD62*
21,1,1.5750,0.7875,0,0,0.0*
21,1,0.7875,1.5750,0,0,0.0*
1,1,0.7875,0.3938,-0.3938*
1,1,0.7875,-0.3938,-0.3938*
1,1,0.7875,-0.3938,0.3938*
1,1,0.7875,0.3938,0.3938*
%
%ADD62ROUNDEDRECTD62*%
%ADD63C,0.6000*%
G36*
X875000Y695000D02*
Y695000D01*
X876970Y695000D01*
X880834Y694231D01*
X884473Y692724D01*
X887749Y690535D01*
X890535Y687749D01*
X892724Y684473D01*
X894231Y680834D01*
X895000Y676970D01*
X895000Y675000D01*
X895000Y25000D01*
X895000Y25000D01*
Y23030D01*
X894231Y19166D01*
X892724Y15526D01*
X890535Y12251D01*
X887749Y9465D01*
X884473Y7276D01*
X880834Y5769D01*
X876970Y5000D01*
X624861D01*
X624055Y5982D01*
X624059Y6000D01*
Y15417D01*
X624317D01*
Y26475D01*
Y37534D01*
X624059D01*
X624059Y45520D01*
X624029Y45669D01*
X624044Y45820D01*
X623914Y46250D01*
X623826Y46690D01*
X623742Y46817D01*
X623698Y46962D01*
X623413Y47309D01*
X623163Y47683D01*
X623037Y47767D01*
X622941Y47884D01*
X622545Y48096D01*
X622171Y48346D01*
X622022Y48375D01*
X621888Y48447D01*
X620618Y48832D01*
X620467Y48847D01*
X620327Y48905D01*
X619878D01*
X619430Y48949D01*
X618819Y50040D01*
Y51200D01*
X618547Y52565D01*
X617773Y53723D01*
X616616Y54497D01*
X615250Y54768D01*
X596260D01*
X595458Y55021D01*
X594904Y55500D01*
X594700Y56142D01*
X595155Y57037D01*
X595354Y57220D01*
X595615Y57358D01*
X595750Y57331D01*
X615250D01*
X616616Y57603D01*
X617773Y58376D01*
X618547Y59534D01*
X618819Y60900D01*
Y63900D01*
X618547Y65265D01*
X617773Y66423D01*
X616616Y67197D01*
X615250Y67468D01*
X595750D01*
X594384Y67197D01*
X593474Y66588D01*
X580989D01*
X579995Y67000D01*
X578005D01*
X577473Y66779D01*
X573588D01*
Y121000D01*
X573239Y122756D01*
X572245Y124244D01*
X559588Y136901D01*
Y138011D01*
X560000Y139005D01*
Y140995D01*
X559588Y141989D01*
Y158965D01*
X561299Y159305D01*
X563035Y160465D01*
X564196Y162202D01*
X564603Y164250D01*
Y170750D01*
X564196Y172799D01*
X563035Y174535D01*
X561299Y175696D01*
X559250Y176103D01*
X550750D01*
X548702Y175696D01*
X546965Y174535D01*
X545805Y172799D01*
X545664Y172088D01*
X543829D01*
X537588Y178330D01*
Y227099D01*
X545901Y235412D01*
X549988D01*
Y231250D01*
X550434Y229007D01*
X551705Y227105D01*
X553607Y225834D01*
X555850Y225388D01*
X563350D01*
X565594Y225834D01*
X567142Y226868D01*
X568412Y226364D01*
Y219900D01*
X551756Y203244D01*
X550761Y201756D01*
X550412Y200000D01*
Y195035D01*
X548702Y194695D01*
X546965Y193535D01*
X545805Y191798D01*
X545397Y189750D01*
Y183250D01*
X545805Y181201D01*
X546965Y179465D01*
X548702Y178305D01*
X550750Y177897D01*
X559250D01*
X561299Y178305D01*
X563035Y179465D01*
X564196Y181201D01*
X564603Y183250D01*
Y189750D01*
X564196Y191798D01*
X563035Y193535D01*
X561299Y194695D01*
X559588Y195035D01*
Y198100D01*
X576244Y214756D01*
X577239Y216244D01*
X577588Y218000D01*
Y225435D01*
X578708Y226033D01*
X579007Y225834D01*
X581250Y225388D01*
X588750D01*
X590994Y225834D01*
X592896Y227105D01*
X594167Y229007D01*
X594613Y231250D01*
Y248750D01*
X594167Y250994D01*
X592896Y252896D01*
X590994Y254167D01*
X588750Y254613D01*
X581250D01*
X579007Y254167D01*
X578708Y253967D01*
X577588Y254566D01*
Y292407D01*
X577239Y294163D01*
X576244Y295651D01*
X547588Y324308D01*
Y417099D01*
X551900Y421412D01*
X605412D01*
Y419036D01*
X603701Y418695D01*
X601965Y417535D01*
X600804Y415798D01*
X600397Y413750D01*
Y407250D01*
X600804Y405202D01*
X601965Y403465D01*
X603701Y402305D01*
X605750Y401897D01*
X614250D01*
X616298Y402305D01*
X618035Y403465D01*
X619195Y405202D01*
X619337Y405912D01*
X627500D01*
X629256Y406261D01*
X630744Y407256D01*
X754901Y531412D01*
X779100D01*
X787286Y523225D01*
Y516200D01*
X787736Y513937D01*
X789018Y512019D01*
X790937Y510737D01*
X792412Y510443D01*
Y451000D01*
X792691Y449593D01*
X791562Y448927D01*
X787500Y452989D01*
Y454094D01*
X786663Y456115D01*
X785116Y457663D01*
X783094Y458500D01*
X781989D01*
X771588Y468901D01*
Y511564D01*
X772894Y512318D01*
X774682Y514106D01*
X775946Y516295D01*
X776600Y518736D01*
Y521264D01*
X775946Y523706D01*
X774682Y525895D01*
X772894Y527682D01*
X770705Y528946D01*
X768264Y529600D01*
X765736D01*
X763294Y528946D01*
X761105Y527682D01*
X759318Y525895D01*
X758054Y523706D01*
X757400Y521264D01*
Y518736D01*
X758054Y516295D01*
X759318Y514106D01*
X761105Y512318D01*
X762412Y511564D01*
Y467000D01*
X762761Y465244D01*
X763755Y463756D01*
X777133Y450379D01*
X777337Y449884D01*
X778885Y448337D01*
X779379Y448133D01*
X803412Y424100D01*
Y414036D01*
X801701Y413695D01*
X799965Y412535D01*
X798804Y410799D01*
X798464Y409088D01*
X710337D01*
X710195Y409799D01*
X709035Y411535D01*
X707298Y412695D01*
X705250Y413103D01*
X696750D01*
X694701Y412695D01*
X692965Y411535D01*
X691805Y409799D01*
X691663Y409088D01*
X685500D01*
X683744Y408739D01*
X682256Y407744D01*
X621100Y346588D01*
X577829D01*
X577588Y346829D01*
Y350435D01*
X578708Y351033D01*
X579007Y350834D01*
X581250Y350388D01*
X588750D01*
X590994Y350834D01*
X592896Y352105D01*
X594167Y354007D01*
X594613Y356250D01*
Y373750D01*
X594167Y375994D01*
X592896Y377896D01*
X590994Y379167D01*
X588750Y379613D01*
X581250D01*
X579007Y379167D01*
X578708Y378967D01*
X577588Y379566D01*
Y408743D01*
X577239Y410499D01*
X576244Y411987D01*
X574487Y413744D01*
X572998Y414739D01*
X571243Y415088D01*
X569337D01*
X569196Y415798D01*
X568035Y417535D01*
X566299Y418695D01*
X564250Y419103D01*
X555750D01*
X553702Y418695D01*
X551965Y417535D01*
X550805Y415798D01*
X550397Y413750D01*
Y407250D01*
X550805Y405202D01*
X551965Y403465D01*
X553702Y402305D01*
X555750Y401897D01*
X564250D01*
X566299Y402305D01*
X567142Y402868D01*
X568412Y402189D01*
Y399811D01*
X567142Y399132D01*
X566299Y399695D01*
X564250Y400103D01*
X555750D01*
X553702Y399695D01*
X551965Y398535D01*
X550805Y396798D01*
X550397Y394750D01*
Y388250D01*
X550805Y386201D01*
X551965Y384465D01*
X553702Y383304D01*
X555212Y383004D01*
Y379486D01*
X553607Y379167D01*
X551705Y377896D01*
X550434Y375994D01*
X549988Y373750D01*
Y356250D01*
X550434Y354007D01*
X551705Y352105D01*
X553607Y350834D01*
X555850Y350388D01*
X563350D01*
X565594Y350834D01*
X567142Y351868D01*
X568412Y351364D01*
Y344929D01*
X568761Y343173D01*
X569756Y341685D01*
X572685Y338756D01*
X574173Y337761D01*
X575929Y337412D01*
X623000D01*
X624756Y337761D01*
X626244Y338756D01*
X687401Y399912D01*
X691663D01*
X691805Y399202D01*
X692965Y397465D01*
X694701Y396305D01*
X696750Y395897D01*
X705250D01*
X707298Y396305D01*
X709035Y397465D01*
X710195Y399202D01*
X710337Y399912D01*
X798998D01*
X799965Y398465D01*
X801701Y397305D01*
X803750Y396897D01*
X812250D01*
X814298Y397305D01*
X816035Y398465D01*
X817195Y400202D01*
X817603Y402250D01*
Y408750D01*
X817195Y410799D01*
X816035Y412535D01*
X814298Y413695D01*
X812588Y414036D01*
Y426000D01*
X812308Y427407D01*
X813437Y428074D01*
X813756Y427756D01*
X813756Y427756D01*
X829412Y412100D01*
Y360900D01*
X797756Y329244D01*
X796761Y327756D01*
X796412Y326000D01*
Y307036D01*
X794702Y306696D01*
X792965Y305535D01*
X791805Y303799D01*
X791397Y301750D01*
Y295250D01*
X791805Y293202D01*
X792965Y291465D01*
X794702Y290305D01*
X796750Y289897D01*
X805250D01*
X807298Y290305D01*
X809035Y291465D01*
X810195Y293202D01*
X810603Y295250D01*
Y301750D01*
X810195Y303799D01*
X809035Y305535D01*
X807298Y306696D01*
X805588Y307036D01*
Y324100D01*
X837244Y355756D01*
X838239Y357244D01*
X838588Y359000D01*
Y414000D01*
X838239Y415756D01*
X837244Y417244D01*
X820244Y434244D01*
X820244Y434244D01*
X813500Y440989D01*
Y441094D01*
X812663Y443116D01*
X811115Y444663D01*
X809094Y445500D01*
X808989D01*
X801588Y452901D01*
Y475575D01*
X802858Y476339D01*
X803600Y476191D01*
X819600D01*
X820770Y476424D01*
X821763Y477087D01*
X822426Y478079D01*
X822659Y479250D01*
Y495344D01*
X823929Y495469D01*
X824286Y493673D01*
X825534Y490661D01*
X827345Y487950D01*
X829650Y485645D01*
X832361Y483834D01*
X835373Y482586D01*
X838570Y481950D01*
X841830D01*
X845027Y482586D01*
X848039Y483834D01*
X850750Y485645D01*
X853055Y487950D01*
X854866Y490661D01*
X856114Y493673D01*
X856750Y496870D01*
Y500130D01*
X856114Y503327D01*
X854866Y506339D01*
X853055Y509050D01*
X850750Y511355D01*
X848039Y513167D01*
X845027Y514414D01*
X841830Y515050D01*
X838570D01*
X835373Y514414D01*
X832361Y513167D01*
X829650Y511355D01*
X827345Y509050D01*
X825534Y506339D01*
X824286Y503327D01*
X823929Y501531D01*
X822659Y501656D01*
Y503750D01*
X822426Y504921D01*
X821763Y505913D01*
X820770Y506576D01*
X819600Y506809D01*
X803600D01*
X802858Y506661D01*
X801588Y507425D01*
Y510443D01*
X803063Y510737D01*
X804981Y512019D01*
X806263Y513937D01*
X806713Y516200D01*
Y523800D01*
X806263Y526063D01*
X804981Y527982D01*
X803063Y529264D01*
X800800Y529714D01*
X793775D01*
X784244Y539244D01*
X782756Y540239D01*
X781000Y540588D01*
X775082D01*
X774556Y541858D01*
X775882Y543185D01*
X777343Y545716D01*
X778023Y548250D01*
X767000D01*
X755977D01*
X756656Y545716D01*
X758118Y543185D01*
X759444Y541858D01*
X758918Y540588D01*
X753000D01*
X751244Y540239D01*
X749756Y539244D01*
X625600Y415088D01*
X619337D01*
X619195Y415798D01*
X618035Y417535D01*
X616298Y418695D01*
X614588Y419036D01*
Y424243D01*
X614239Y425998D01*
X613244Y427487D01*
X611487Y429244D01*
X609998Y430239D01*
X608242Y430588D01*
X550000D01*
X548244Y430239D01*
X546756Y429244D01*
X539756Y422244D01*
X538761Y420756D01*
X538412Y419000D01*
Y322407D01*
X538761Y320651D01*
X539756Y319163D01*
X568412Y290506D01*
Y253637D01*
X567142Y253132D01*
X565594Y254167D01*
X563350Y254613D01*
X555850D01*
X553607Y254167D01*
X551705Y252896D01*
X550434Y250994D01*
X549988Y248750D01*
Y244588D01*
X544000D01*
X542244Y244239D01*
X540756Y243244D01*
X529756Y232244D01*
X528761Y230756D01*
X528412Y229000D01*
Y176429D01*
X528761Y174673D01*
X529756Y173185D01*
X538685Y164256D01*
X540173Y163261D01*
X541929Y162912D01*
X545664D01*
X545805Y162202D01*
X546965Y160465D01*
X548702Y159305D01*
X550412Y158965D01*
Y141989D01*
X550000Y140995D01*
Y139005D01*
X550412Y138011D01*
Y135000D01*
X550761Y133244D01*
X551756Y131756D01*
X564412Y119099D01*
Y67367D01*
X549122D01*
X542408Y74081D01*
X540919Y75076D01*
X539163Y75425D01*
X519177D01*
X518837Y77135D01*
X517676Y78872D01*
X515940Y80032D01*
X513891Y80440D01*
X507391D01*
X505343Y80032D01*
X503606Y78872D01*
X502446Y77135D01*
X502038Y75087D01*
Y66587D01*
X502446Y64538D01*
X503606Y62802D01*
X505343Y61641D01*
X506053Y61500D01*
Y55174D01*
X505343Y55032D01*
X503606Y53872D01*
X502446Y52136D01*
X502038Y50087D01*
Y41587D01*
X502446Y39539D01*
X503606Y37802D01*
X505343Y36642D01*
X507391Y36234D01*
X513891D01*
X515940Y36642D01*
X517676Y37802D01*
X518837Y39539D01*
X519244Y41587D01*
Y50087D01*
X518837Y52136D01*
X517676Y53872D01*
X515940Y55032D01*
X515229Y55174D01*
Y61500D01*
X515940Y61641D01*
X517676Y62802D01*
X518837Y64538D01*
X519177Y66249D01*
X537263D01*
X543977Y59534D01*
X545466Y58540D01*
X547222Y58190D01*
X566241D01*
X567906Y57500D01*
X570094D01*
X570345Y57604D01*
X570350Y57603D01*
X576549D01*
X578005Y57000D01*
X579995D01*
X580989Y57412D01*
X582030D01*
X583001Y56142D01*
X582941Y55842D01*
X582941Y15906D01*
X583174Y14735D01*
X583562Y14155D01*
X583384Y13568D01*
X581837Y12021D01*
X581000Y10000D01*
Y7812D01*
X581639Y6270D01*
X580968Y5000D01*
X420181D01*
X419935Y5262D01*
X419541Y6270D01*
X420405Y7564D01*
X420600Y8035D01*
X420823Y8495D01*
X420828Y8584D01*
X420862Y8666D01*
Y8942D01*
X424750D01*
X426512Y9174D01*
X428154Y9854D01*
X429564Y10936D01*
X430646Y12346D01*
X431326Y13988D01*
X431558Y15750D01*
Y18250D01*
X421500D01*
Y21750D01*
X431558D01*
Y24250D01*
X431326Y26012D01*
X430646Y27654D01*
X429564Y29064D01*
X428154Y30146D01*
X426512Y30826D01*
X424750Y31058D01*
X422059D01*
X422059Y36363D01*
X421989Y36712D01*
X421976Y37067D01*
X421874Y37292D01*
X421826Y37533D01*
X421628Y37829D01*
X421480Y38153D01*
X421300Y38321D01*
X421163Y38526D01*
X420867Y38723D01*
X420606Y38966D01*
X420172Y39234D01*
X419547Y40584D01*
X419819Y41950D01*
Y44950D01*
X419547Y46316D01*
X418773Y47473D01*
X417616Y48247D01*
X416907Y48388D01*
Y49683D01*
X418201Y49940D01*
X419855Y51045D01*
X420960Y52699D01*
X421298Y54400D01*
X406500D01*
Y57900D01*
X421298D01*
X420960Y59601D01*
X419855Y61255D01*
X418201Y62360D01*
X417363Y62526D01*
X417250Y63844D01*
X418032Y64262D01*
X420743D01*
X422499Y64611D01*
X423987Y65606D01*
X425745Y67363D01*
X426739Y68851D01*
X427088Y70607D01*
Y111833D01*
X446945Y131690D01*
X448116Y131064D01*
X448070Y130837D01*
Y130622D01*
X448017Y130414D01*
X447946Y129173D01*
X447958Y129086D01*
X447941Y129000D01*
Y119058D01*
X447250D01*
Y108000D01*
Y96942D01*
X447941D01*
Y88148D01*
X448174Y86977D01*
X447960Y86461D01*
X447384Y86347D01*
X446227Y85573D01*
X445453Y84416D01*
X445182Y83050D01*
Y80050D01*
X445453Y78684D01*
X446227Y77527D01*
X447384Y76753D01*
X448750Y76481D01*
X468250D01*
X469520Y76734D01*
X469649Y76423D01*
X469757Y76028D01*
X470353Y74840D01*
X470455Y74708D01*
X470428Y74621D01*
X469616Y73647D01*
X468250Y73918D01*
X448750D01*
X447384Y73647D01*
X446227Y72873D01*
X445453Y71716D01*
X445182Y70350D01*
Y67350D01*
X445453Y65984D01*
X446227Y64827D01*
X447384Y64053D01*
X448750Y63781D01*
X468250D01*
X469616Y64053D01*
X469928Y64262D01*
X483630D01*
X484606Y62802D01*
X486343Y61641D01*
X488391Y61234D01*
X494891D01*
X496939Y61641D01*
X498676Y62802D01*
X499836Y64538D01*
X500244Y66587D01*
Y75087D01*
X499836Y77135D01*
X498676Y78872D01*
X496939Y80032D01*
X496354Y80148D01*
Y86725D01*
X497189Y86891D01*
X498926Y88052D01*
X500086Y89788D01*
X500494Y91837D01*
Y100337D01*
X500086Y102385D01*
X498926Y104122D01*
X497189Y105282D01*
X495141Y105690D01*
X488641D01*
X486592Y105282D01*
X486179Y105006D01*
X485059Y105604D01*
X485059Y130000D01*
X485059Y130788D01*
X485000Y131083D01*
Y131385D01*
X484692Y132930D01*
X484577Y133209D01*
X484518Y133504D01*
X483915Y134960D01*
X483748Y135210D01*
X483633Y135489D01*
X482757Y136799D01*
X482544Y137012D01*
X482467Y137127D01*
X482599Y137719D01*
X482990Y138445D01*
X484798Y138805D01*
X486535Y139965D01*
X487695Y141702D01*
X488103Y143750D01*
Y149365D01*
X489373Y149978D01*
X489897Y149563D01*
Y143750D01*
X490305Y141702D01*
X491465Y139965D01*
X493202Y138805D01*
X495250Y138397D01*
X501750D01*
X503798Y138805D01*
X505535Y139965D01*
X506695Y141702D01*
X507025Y143359D01*
X514152D01*
X548303Y109208D01*
Y105423D01*
X547593Y105282D01*
X545856Y104122D01*
X544696Y102385D01*
X544288Y100337D01*
Y91837D01*
X544696Y89788D01*
X545856Y88052D01*
X547593Y86891D01*
X549641Y86484D01*
X556141D01*
X558190Y86891D01*
X559926Y88052D01*
X561086Y89788D01*
X561494Y91837D01*
Y100337D01*
X561086Y102385D01*
X559926Y104122D01*
X558190Y105282D01*
X557479Y105423D01*
Y111109D01*
X557130Y112865D01*
X556135Y114353D01*
X519297Y151191D01*
X517809Y152186D01*
X516053Y152535D01*
X507046D01*
X506695Y154298D01*
X505535Y156035D01*
X503798Y157195D01*
X501750Y157603D01*
X495333D01*
X490691Y162244D01*
X489203Y163239D01*
X487447Y163588D01*
X461658D01*
X459588Y165658D01*
Y166965D01*
X461299Y167305D01*
X463035Y168465D01*
X464196Y170202D01*
X464286Y170655D01*
X465243D01*
X466999Y171004D01*
X468487Y171999D01*
X507244Y210756D01*
X508239Y212244D01*
X508588Y214000D01*
Y377243D01*
X508239Y378998D01*
X507244Y380487D01*
X505487Y382244D01*
X503998Y383239D01*
X502243Y383588D01*
X496036D01*
X495695Y385298D01*
X494535Y387035D01*
X492798Y388195D01*
X490750Y388603D01*
X484250D01*
X482202Y388195D01*
X480465Y387035D01*
X479305Y385298D01*
X478897Y383250D01*
Y374750D01*
X479305Y372702D01*
X480465Y370965D01*
X482202Y369805D01*
X484250Y369397D01*
X490750D01*
X492798Y369805D01*
X494535Y370965D01*
X495695Y372702D01*
X496036Y374412D01*
X499412D01*
Y215900D01*
X465157Y181646D01*
X463522Y181807D01*
X463035Y182535D01*
X461299Y183696D01*
X459250Y184103D01*
X450750D01*
X448702Y183696D01*
X446965Y182535D01*
X445805Y180799D01*
X445397Y178750D01*
Y172250D01*
X445805Y170202D01*
X446965Y168465D01*
X448702Y167305D01*
X450412Y166965D01*
Y163757D01*
X450761Y162002D01*
X451756Y160513D01*
X456513Y155756D01*
X458002Y154761D01*
X459757Y154412D01*
X469350D01*
X470176Y153201D01*
X469886Y152588D01*
X456767D01*
X455011Y152239D01*
X453522Y151244D01*
X441770Y139492D01*
X440500Y140018D01*
Y140995D01*
X439739Y142832D01*
X438571Y144000D01*
X439739Y145168D01*
X440500Y147005D01*
Y148995D01*
X439739Y150832D01*
X438332Y152239D01*
X436495Y153000D01*
X434506D01*
X433511Y152588D01*
X402000D01*
X400244Y152239D01*
X398756Y151244D01*
X391040Y143529D01*
X390046Y142041D01*
X389697Y140285D01*
Y134412D01*
X389529Y134379D01*
X388041Y133384D01*
X387046Y131896D01*
X386697Y130140D01*
Y125140D01*
X387046Y123384D01*
X388041Y121895D01*
X389304Y121051D01*
Y114415D01*
X388201Y114196D01*
X386465Y113035D01*
X385305Y111299D01*
X384964Y109588D01*
X381000D01*
X379244Y109239D01*
X377756Y108244D01*
X373756Y104244D01*
X372761Y102756D01*
X372412Y101000D01*
Y81103D01*
X370750D01*
X368702Y80695D01*
X366965Y79535D01*
X365805Y77798D01*
X365514Y76338D01*
X358849D01*
X358244Y77244D01*
X356756Y78239D01*
X355000Y78588D01*
X350000D01*
X348244Y78239D01*
X346755Y77244D01*
X345761Y75756D01*
X345412Y74000D01*
Y68000D01*
X345761Y66244D01*
X346755Y64756D01*
X348244Y63761D01*
X350000Y63412D01*
X355000D01*
X356756Y63761D01*
X358244Y64756D01*
X359239Y66244D01*
X359421Y67162D01*
X365831D01*
X366965Y65465D01*
X368702Y64304D01*
X370750Y63897D01*
X379250D01*
X381299Y64304D01*
X383035Y65465D01*
X384196Y67201D01*
X384603Y69250D01*
Y75750D01*
X384196Y77798D01*
X383035Y79535D01*
X381588Y80502D01*
Y99100D01*
X382901Y100412D01*
X384964D01*
X385305Y98702D01*
X386465Y96965D01*
X388201Y95805D01*
X390250Y95397D01*
X396750D01*
X398798Y95805D01*
X400535Y96965D01*
X401695Y98702D01*
X402103Y100750D01*
Y109250D01*
X401695Y111299D01*
X400535Y113035D01*
X398798Y114196D01*
X398480Y114259D01*
Y120789D01*
X399041Y120901D01*
X400529Y121895D01*
X401524Y123384D01*
X401873Y125140D01*
Y130140D01*
X401524Y131896D01*
X400529Y133384D01*
X399041Y134379D01*
X398873Y134412D01*
Y138384D01*
X403900Y143412D01*
X411127D01*
X411653Y142142D01*
X408756Y139244D01*
X407761Y137756D01*
X407412Y136000D01*
Y134554D01*
X406529Y134379D01*
X405041Y133384D01*
X404046Y131896D01*
X403697Y130140D01*
Y125140D01*
X404046Y123384D01*
X405041Y121895D01*
X406529Y120901D01*
X407304Y120747D01*
Y114216D01*
X407202Y114196D01*
X405465Y113035D01*
X404305Y111299D01*
X403897Y109250D01*
Y100750D01*
X404305Y98702D01*
X405465Y96965D01*
X406412Y96333D01*
Y86618D01*
X396750D01*
X395385Y86347D01*
X394227Y85573D01*
X393453Y84416D01*
X393182Y83050D01*
Y80050D01*
X393453Y78684D01*
X394227Y77527D01*
X395385Y76753D01*
X396750Y76481D01*
X416250D01*
X416382Y76508D01*
X417416Y75665D01*
Y74734D01*
X416382Y73892D01*
X416250Y73918D01*
X396750D01*
X395385Y73647D01*
X394227Y72873D01*
X393453Y71716D01*
X393249Y70690D01*
X393106Y70594D01*
X383080Y60568D01*
X382985D01*
X381299Y61696D01*
X379250Y62103D01*
X370750D01*
X368702Y61696D01*
X366965Y60535D01*
X365805Y58799D01*
X365713Y58338D01*
X359322D01*
X359239Y58756D01*
X358244Y60244D01*
X356756Y61239D01*
X355000Y61588D01*
X350000D01*
X348244Y61239D01*
X346755Y60244D01*
X345761Y58756D01*
X345412Y57000D01*
Y51000D01*
X345761Y49244D01*
X346755Y47756D01*
X348244Y46761D01*
X350000Y46412D01*
X355000D01*
X356756Y46761D01*
X358244Y47756D01*
X359184Y49162D01*
X365614D01*
X365805Y48202D01*
X366965Y46465D01*
X368702Y45305D01*
X370750Y44897D01*
X379250D01*
X381085Y45262D01*
X381674Y44795D01*
X382053Y44282D01*
X381558Y43087D01*
X381500Y42792D01*
X381384Y42513D01*
X381000Y40582D01*
Y40280D01*
X380941Y39985D01*
Y19000D01*
X380941Y17523D01*
X381000Y17227D01*
Y16926D01*
X381576Y14028D01*
X381692Y13750D01*
X381750Y13454D01*
X382881Y10724D01*
X383049Y10474D01*
X383164Y10195D01*
X384805Y7739D01*
X385018Y7526D01*
X385186Y7275D01*
X386191Y6270D01*
X385665Y5000D01*
X25000D01*
X25000Y5000D01*
X23030D01*
X19166Y5769D01*
X15526Y7276D01*
X12251Y9465D01*
X9465Y12251D01*
X7276Y15526D01*
X5768Y19166D01*
X5000Y23030D01*
Y25000D01*
X5000Y673804D01*
X5000Y675000D01*
X5000D01*
X5000Y675000D01*
X5000Y675000D01*
X5000Y676970D01*
X5768Y680834D01*
X7276Y684473D01*
X9465Y687749D01*
X12251Y690535D01*
X15526Y692724D01*
X19166Y694231D01*
X23030Y695000D01*
X25000Y695000D01*
X875000Y695000D01*
X875000Y695000D01*
D02*
G37*
G36*
X474000Y138000D02*
X474000Y138000D01*
X474002D01*
X475173Y137923D01*
X476333Y137692D01*
X477789Y137089D01*
X479100Y136214D01*
X480214Y135100D01*
X481089Y133789D01*
X481693Y132333D01*
X482000Y130788D01*
X482000Y130000D01*
X482000Y85000D01*
X482000Y85000D01*
Y84126D01*
X481659Y82412D01*
X480990Y80798D01*
X480019Y79345D01*
X478783Y78109D01*
X477331Y77138D01*
X475716Y76469D01*
X474002Y76128D01*
X473171Y76128D01*
X473088Y76210D01*
X472492Y77399D01*
X472960Y78099D01*
X473298Y79800D01*
X458500D01*
Y81550D01*
X456750D01*
Y88148D01*
X451000D01*
Y98940D01*
X452535Y99965D01*
X453524Y101446D01*
X454485Y101514D01*
X454913Y101412D01*
X455354Y100346D01*
X456436Y98936D01*
X457846Y97854D01*
X459488Y97174D01*
X461250Y96942D01*
X462750D01*
Y108000D01*
Y119058D01*
X461250D01*
X459488Y118827D01*
X457846Y118146D01*
X456436Y117064D01*
X455354Y115654D01*
X454913Y114589D01*
X454485Y114487D01*
X453524Y114555D01*
X452535Y116035D01*
X451000Y117061D01*
Y129000D01*
X451000Y129000D01*
X451071Y130241D01*
X451346Y131625D01*
X452024Y133263D01*
X453009Y134737D01*
X454263Y135991D01*
X455737Y136976D01*
X457375Y137654D01*
X459114Y138000D01*
X460000Y138000D01*
X474000Y138000D01*
X474000Y138000D01*
D02*
G37*
G36*
X591990Y54572D02*
X591040Y53151D01*
X590702Y51450D01*
X605500D01*
Y49700D01*
X607250D01*
Y43102D01*
X615250D01*
X617201Y43490D01*
X618855Y44595D01*
X619730Y45905D01*
X621000Y45520D01*
X621000Y35717D01*
X620768Y35671D01*
X619032Y34510D01*
X618042Y33030D01*
X617081Y32962D01*
X616654Y33064D01*
X616213Y34130D01*
X615131Y35540D01*
X613721Y36621D01*
X612079Y37302D01*
X610316Y37534D01*
X608816D01*
Y26475D01*
Y15417D01*
X610316D01*
X612079Y15649D01*
X613721Y16329D01*
X615131Y17411D01*
X616213Y18821D01*
X616654Y19887D01*
X617081Y19989D01*
X618042Y19921D01*
X619032Y18440D01*
X620768Y17280D01*
X621000Y17234D01*
Y6000D01*
X594283D01*
X593396Y7156D01*
X586500D01*
Y10656D01*
X593278D01*
X593023Y11608D01*
X592101Y13204D01*
X590798Y14507D01*
X589202Y15429D01*
X587421Y15906D01*
X586000D01*
X586000Y55842D01*
X591585D01*
X591990Y54572D01*
D02*
G37*
G36*
X392510Y47604D02*
X392040Y46901D01*
X391702Y45200D01*
X406500D01*
Y43450D01*
X408250D01*
Y36852D01*
X416250D01*
X417730Y37146D01*
X419000Y36363D01*
X419000Y29603D01*
X418250D01*
X416202Y29195D01*
X414465Y28035D01*
X413476Y26555D01*
X412514Y26487D01*
X412088Y26589D01*
X411646Y27654D01*
X410564Y29064D01*
X409154Y30146D01*
X407512Y30826D01*
X405750Y31058D01*
X404250D01*
Y20000D01*
Y8942D01*
X405750D01*
X407512Y9174D01*
X409154Y9854D01*
X410564Y10936D01*
X411646Y12346D01*
X412088Y13411D01*
X412514Y13513D01*
X413476Y13445D01*
X414465Y11965D01*
X416202Y10805D01*
X417055Y10635D01*
X417862Y9263D01*
X416768Y7625D01*
X415375Y6232D01*
X413737Y5138D01*
X411917Y4384D01*
X409985Y4000D01*
X409000Y4000D01*
X399000D01*
X397523Y4000D01*
X394625Y4576D01*
X391895Y5707D01*
X389438Y7349D01*
X387349Y9438D01*
X385707Y11895D01*
X384576Y14625D01*
X384000Y17523D01*
X384000Y19000D01*
Y39985D01*
X384384Y41917D01*
X385138Y43737D01*
X386232Y45374D01*
X387625Y46767D01*
X389263Y47862D01*
X391083Y48615D01*
X391747Y48748D01*
X392510Y47604D01*
D02*
G37*
%LPC*%
G36*
X282363Y685291D02*
X281855Y685190D01*
X281342Y685116D01*
X281272Y685074D01*
X281193Y685059D01*
X279198Y684232D01*
X278947Y684065D01*
X278669Y683950D01*
X276376Y682417D01*
X276163Y682204D01*
X275912Y682037D01*
X273962Y680087D01*
X273795Y679836D01*
X273582Y679623D01*
X272050Y677330D01*
X271935Y677052D01*
X271767Y676802D01*
X270712Y674254D01*
X270653Y673958D01*
X270538Y673680D01*
X270000Y670975D01*
Y670761D01*
X268811Y670478D01*
X268716Y670486D01*
X268646Y670654D01*
X267564Y672064D01*
X266154Y673146D01*
X264512Y673826D01*
X262750Y674058D01*
X261250D01*
Y663000D01*
Y651942D01*
X262750D01*
X264512Y652174D01*
X266154Y652854D01*
X267564Y653936D01*
X268646Y655346D01*
X268671Y655406D01*
X269941Y655154D01*
Y637910D01*
X268671Y637150D01*
X268103Y637453D01*
Y641500D01*
X267696Y643549D01*
X266535Y645285D01*
X264799Y646445D01*
X262750Y646853D01*
X256250D01*
X254202Y646445D01*
X252465Y645285D01*
X251305Y643549D01*
X250897Y641500D01*
Y633000D01*
X251305Y630952D01*
X252465Y629215D01*
X254202Y628055D01*
X256250Y627647D01*
X262750D01*
X263797Y627856D01*
X264367Y627742D01*
X265030D01*
X266412Y626360D01*
Y621465D01*
X265292Y620866D01*
X264799Y621195D01*
X262750Y621603D01*
X256250D01*
X254202Y621195D01*
X252465Y620035D01*
X251476Y618555D01*
X250515Y618487D01*
X250088Y618588D01*
X249646Y619654D01*
X248564Y621064D01*
X247154Y622146D01*
X245512Y622826D01*
X243750Y623058D01*
X242250D01*
Y612000D01*
Y600942D01*
X243750D01*
X245512Y601174D01*
X247154Y601854D01*
X248564Y602936D01*
X249646Y604346D01*
X250088Y605411D01*
X250515Y605513D01*
X251476Y605445D01*
X252465Y603965D01*
X254202Y602805D01*
X254912Y602663D01*
Y596336D01*
X254202Y596195D01*
X252465Y595035D01*
X251305Y593298D01*
X250897Y591250D01*
Y582750D01*
X251305Y580701D01*
X251868Y579858D01*
X251189Y578588D01*
X248811D01*
X248132Y579858D01*
X248695Y580701D01*
X249103Y582750D01*
Y591250D01*
X248695Y593298D01*
X247535Y595035D01*
X245798Y596195D01*
X243750Y596603D01*
X237250D01*
X235202Y596195D01*
X233465Y595035D01*
X232305Y593298D01*
X231897Y591250D01*
Y582750D01*
X232305Y580701D01*
X233465Y578965D01*
X235202Y577804D01*
X236412Y577564D01*
Y576000D01*
X236761Y574244D01*
X237677Y572873D01*
X237508Y572175D01*
X237135Y571580D01*
X235202Y571195D01*
X233465Y570035D01*
X232305Y568298D01*
X231897Y566250D01*
Y557750D01*
X232305Y555702D01*
X233465Y553965D01*
X235202Y552805D01*
X235912Y552663D01*
Y549757D01*
X236261Y548001D01*
X237256Y546513D01*
X260013Y523756D01*
X261502Y522761D01*
X263257Y522412D01*
X293964D01*
X294305Y520701D01*
X295465Y518965D01*
X297201Y517804D01*
X299250Y517397D01*
X305750D01*
X307671Y517779D01*
X308023Y517712D01*
X308941Y517221D01*
Y515000D01*
Y375000D01*
X308941Y374114D01*
X309000Y373818D01*
X309000Y373517D01*
X309346Y371778D01*
X309461Y371500D01*
X309520Y371204D01*
X310198Y369566D01*
X310366Y369316D01*
X310481Y369038D01*
X311466Y367564D01*
X311679Y367351D01*
X311846Y367100D01*
X313100Y365846D01*
X313350Y365679D01*
X313563Y365466D01*
X315037Y364481D01*
X315315Y364366D01*
X315566Y364198D01*
X317204Y363520D01*
X317499Y363461D01*
X317778Y363346D01*
X319516Y363000D01*
X319818D01*
X320113Y362941D01*
X321000Y362941D01*
X321000Y362941D01*
X332788D01*
X333083Y363000D01*
X333385D01*
X334930Y363307D01*
X335208Y363423D01*
X335504Y363481D01*
X336960Y364085D01*
X337210Y364252D01*
X337489Y364367D01*
X338799Y365243D01*
X339012Y365456D01*
X339262Y365623D01*
X340377Y366737D01*
X340544Y366988D01*
X340757Y367201D01*
X341632Y368511D01*
X341748Y368789D01*
X341915Y369040D01*
X342518Y370496D01*
X342577Y370791D01*
X342692Y371069D01*
X342999Y372615D01*
Y372916D01*
X343058Y373212D01*
X343058Y373998D01*
X343059Y374000D01*
Y448871D01*
X343088Y449459D01*
X343331Y450682D01*
X343447Y450964D01*
X343477Y451112D01*
X343549Y451246D01*
X343593Y451693D01*
X343680Y452134D01*
X343651Y452283D01*
X343666Y452434D01*
X344309Y453256D01*
X346128Y454471D01*
X352276Y460619D01*
X354094D01*
X354270Y459736D01*
X355430Y458000D01*
X357167Y456839D01*
X359215Y456432D01*
X365715D01*
X367764Y456839D01*
X368643Y455900D01*
X368685Y455837D01*
X368811Y455753D01*
X368907Y455635D01*
X369303Y455424D01*
X369677Y455174D01*
X369826Y455145D01*
X369959Y455073D01*
X370407Y455029D01*
X370847Y454941D01*
X373083D01*
X373523Y455029D01*
X373971Y455073D01*
X374104Y455145D01*
X374253Y455174D01*
X374627Y455424D01*
X375023Y455635D01*
X375119Y455753D01*
X375246Y455837D01*
X375287Y455900D01*
X375612Y456247D01*
X376735Y455936D01*
X376811Y455886D01*
Y450062D01*
X376036Y449907D01*
X374299Y448747D01*
X373310Y447267D01*
X372349Y447199D01*
X371922Y447300D01*
X371480Y448366D01*
X370398Y449776D01*
X368988Y450858D01*
X367346Y451538D01*
X365584Y451770D01*
X364084D01*
Y440712D01*
Y429654D01*
X365584D01*
X367346Y429886D01*
X368988Y430566D01*
X370398Y431648D01*
X371480Y433058D01*
X371922Y434123D01*
X372349Y434225D01*
X373310Y434157D01*
X374299Y432677D01*
X376036Y431517D01*
X377090Y431307D01*
Y426268D01*
X376522Y424897D01*
Y422709D01*
X377298Y420835D01*
Y416299D01*
X376994Y416239D01*
X375506Y415244D01*
X374511Y413756D01*
X374162Y412000D01*
Y407000D01*
X374511Y405244D01*
X375506Y403756D01*
X376994Y402761D01*
X378750Y402412D01*
X384750D01*
X386506Y402761D01*
X387994Y403756D01*
X388989Y405244D01*
X389338Y407000D01*
Y412000D01*
X388989Y413756D01*
X387994Y415244D01*
X386506Y416239D01*
X386474Y416245D01*
Y420478D01*
X386684Y420688D01*
X387522Y422709D01*
Y424897D01*
X386684Y426919D01*
X386266Y427337D01*
Y431444D01*
X386633Y431517D01*
X388369Y432677D01*
X389530Y434414D01*
X389937Y436462D01*
Y444962D01*
X389530Y447010D01*
X388369Y448747D01*
X386633Y449907D01*
X385988Y450036D01*
Y456038D01*
X386790Y456397D01*
X387156Y456420D01*
X387643Y455900D01*
X387684Y455837D01*
X387811Y455753D01*
X387907Y455635D01*
X388303Y455424D01*
X388677Y455174D01*
X388825Y455145D01*
X388959Y455073D01*
X389407Y455029D01*
X389847Y454941D01*
X547000Y454941D01*
X548026Y454941D01*
X548321Y455000D01*
X548623D01*
X550635Y455400D01*
X550913Y455516D01*
X551209Y455574D01*
X553104Y456359D01*
X553355Y456527D01*
X553633Y456642D01*
X555339Y457782D01*
X555552Y457995D01*
X555802Y458162D01*
X557253Y459613D01*
X557421Y459864D01*
X557634Y460077D01*
X558773Y461783D01*
X558889Y462061D01*
X559056Y462312D01*
X559841Y464207D01*
X559900Y464502D01*
X560015Y464781D01*
X560416Y466793D01*
Y467094D01*
X560474Y467390D01*
X560474Y468414D01*
X560475Y468416D01*
X560475Y476397D01*
X560473Y476407D01*
X560475Y476416D01*
Y479222D01*
X561745Y480076D01*
X562987Y479912D01*
X564487D01*
Y490971D01*
Y502029D01*
X562987D01*
X561745Y501865D01*
X560475Y502719D01*
Y510321D01*
X562155D01*
X564204Y510729D01*
X565940Y511889D01*
X566929Y513369D01*
X567890Y513437D01*
X568318Y513335D01*
X568759Y512270D01*
X569841Y510860D01*
X571251Y509778D01*
X572893Y509098D01*
X574655Y508866D01*
X576156D01*
Y519924D01*
Y530982D01*
X574655D01*
X572893Y530750D01*
X571251Y530070D01*
X569841Y528988D01*
X568759Y527578D01*
X568318Y526512D01*
X567890Y526411D01*
X566929Y526479D01*
X565940Y527959D01*
X564204Y529119D01*
X563416Y529276D01*
Y535929D01*
X564048Y536054D01*
X565785Y537215D01*
X566945Y538951D01*
X567353Y541000D01*
Y549500D01*
X566945Y551548D01*
X565785Y553285D01*
X564048Y554445D01*
X562000Y554853D01*
X555500D01*
X553451Y554445D01*
X551715Y553285D01*
X550554Y551548D01*
X550214Y549838D01*
X526250D01*
X525322Y549653D01*
X524495Y549489D01*
X524494Y549489D01*
X524494Y549489D01*
X523746Y548989D01*
X523006Y548494D01*
X520356Y545845D01*
X520356Y545844D01*
X520355Y545844D01*
X519881Y545134D01*
X519361Y544356D01*
X519361Y544356D01*
X519361Y544356D01*
X519180Y543449D01*
X519012Y542601D01*
X519012Y542600D01*
X519012Y542600D01*
Y534678D01*
X518803Y534366D01*
X518531Y533000D01*
Y513500D01*
X518803Y512134D01*
X519576Y510976D01*
X520734Y510203D01*
X522100Y509931D01*
X524671D01*
X525941Y509010D01*
X525941Y501075D01*
X525914Y500511D01*
X525679Y499331D01*
X525248Y498290D01*
X524622Y497353D01*
X524185Y496917D01*
X523575Y496997D01*
X523083Y497219D01*
X522846Y497430D01*
X522507Y499133D01*
X521347Y500869D01*
X519610Y502030D01*
X517562Y502437D01*
X516204D01*
Y522534D01*
X515968Y523718D01*
Y533000D01*
X515697Y534366D01*
X515488Y534678D01*
Y537243D01*
X515139Y538998D01*
X514144Y540487D01*
X512387Y542244D01*
X510898Y543239D01*
X509142Y543588D01*
X461901D01*
X461088Y544400D01*
Y548663D01*
X461799Y548805D01*
X463535Y549965D01*
X464695Y551702D01*
X465103Y553750D01*
Y561130D01*
X466273Y561995D01*
X466677Y561826D01*
X466897Y561589D01*
Y553750D01*
X467304Y551702D01*
X468465Y549965D01*
X470201Y548805D01*
X472250Y548397D01*
X478750D01*
X480798Y548805D01*
X482535Y549965D01*
X483695Y551702D01*
X484035Y553412D01*
X514600D01*
X516356Y553761D01*
X517844Y554756D01*
X525020Y561931D01*
X525100D01*
X526465Y562203D01*
X527623Y562976D01*
X528397Y564134D01*
X528668Y565500D01*
Y585000D01*
X528397Y586365D01*
X528263Y586565D01*
Y596648D01*
X529049Y596805D01*
X530785Y597965D01*
X531945Y599701D01*
X532353Y601750D01*
Y610250D01*
X531945Y612298D01*
X530785Y614035D01*
X529049Y615195D01*
X527000Y615603D01*
X520500D01*
X518452Y615195D01*
X516715Y614035D01*
X515555Y612298D01*
X515147Y610250D01*
Y601750D01*
X515555Y599701D01*
X516715Y597965D01*
X518452Y596805D01*
X519087Y596678D01*
Y586790D01*
X518803Y586365D01*
X518531Y585000D01*
Y568420D01*
X517142Y567030D01*
X515968Y567516D01*
Y585000D01*
X515697Y586365D01*
X515488Y586678D01*
Y589100D01*
X515139Y590856D01*
X514144Y592345D01*
X510742Y595746D01*
X510907Y597378D01*
X511785Y597965D01*
X512945Y599701D01*
X513353Y601750D01*
Y610250D01*
X512945Y612298D01*
X511785Y614035D01*
X510048Y615195D01*
X509213Y615362D01*
Y620688D01*
X509798Y620805D01*
X511535Y621965D01*
X512695Y623702D01*
X513103Y625750D01*
Y634250D01*
X512695Y636298D01*
X511535Y638035D01*
X509798Y639195D01*
X507750Y639603D01*
X501250D01*
X499202Y639195D01*
X497465Y638035D01*
X496305Y636298D01*
X495897Y634250D01*
Y625750D01*
X496305Y623702D01*
X497465Y621965D01*
X499202Y620805D01*
X500037Y620638D01*
Y615630D01*
X498910Y614966D01*
X498905Y614968D01*
X498061Y615812D01*
X498061Y615812D01*
X496987Y616529D01*
X496708Y616645D01*
X496458Y616812D01*
X493791Y617917D01*
X493495Y617975D01*
X493217Y618091D01*
X490386Y618654D01*
X490085D01*
X489789Y618713D01*
X479654D01*
X479653Y618713D01*
X478274Y618713D01*
X477979Y618654D01*
X477677D01*
X474971Y618115D01*
X474693Y618000D01*
X474397Y617941D01*
X471848Y616885D01*
X471598Y616718D01*
X471319Y616603D01*
X469025Y615070D01*
X468812Y614857D01*
X468562Y614689D01*
X466610Y612738D01*
X466443Y612488D01*
X466230Y612275D01*
X464697Y609981D01*
X464582Y609702D01*
X464414Y609452D01*
X463358Y606903D01*
X463300Y606607D01*
X463185Y606329D01*
X462646Y603623D01*
Y603321D01*
X462587Y603026D01*
Y594524D01*
X461952Y594099D01*
X461317Y593852D01*
X459750Y594058D01*
X458250D01*
Y583000D01*
Y571942D01*
X459750D01*
X461317Y572148D01*
X461952Y571901D01*
X462587Y571476D01*
Y569334D01*
X462646Y569039D01*
Y568737D01*
X462779Y568067D01*
X462232Y567580D01*
X461652Y567225D01*
X459750Y567603D01*
X453250D01*
X451202Y567195D01*
X449465Y566035D01*
X448305Y564299D01*
X447897Y562250D01*
Y553750D01*
X448305Y551702D01*
X449465Y549965D01*
X451202Y548805D01*
X451912Y548663D01*
Y542500D01*
X452261Y540744D01*
X453256Y539256D01*
X456756Y535756D01*
X458244Y534761D01*
X460000Y534412D01*
X492117D01*
X493159Y533142D01*
X493131Y533000D01*
Y531588D01*
X463989D01*
X462994Y532000D01*
X461005D01*
X459168Y531239D01*
X457761Y529832D01*
X457000Y527994D01*
Y526005D01*
X457761Y524168D01*
X459168Y522761D01*
X461005Y522000D01*
X462994D01*
X463989Y522412D01*
X493131D01*
Y513500D01*
X493363Y512336D01*
Y502437D01*
X492062D01*
X490013Y502030D01*
X488277Y500869D01*
X487116Y499133D01*
X486709Y497084D01*
Y495237D01*
X368897Y495237D01*
X368309Y495266D01*
X367083Y495510D01*
X365998Y495959D01*
X365022Y496611D01*
X364191Y497442D01*
X363539Y498418D01*
X363089Y499503D01*
X362845Y500729D01*
X362817Y501318D01*
X362817Y517804D01*
X362817Y545167D01*
X363771Y546005D01*
X364250Y545942D01*
X365750D01*
Y557000D01*
X367500D01*
Y558750D01*
X377558D01*
Y561250D01*
X377326Y563012D01*
X376646Y564654D01*
X375564Y566064D01*
X374811Y566642D01*
X375242Y567912D01*
X408500D01*
X410256Y568261D01*
X411744Y569256D01*
X492900Y650412D01*
X515964D01*
X516304Y648701D01*
X517465Y646965D01*
X519201Y645805D01*
X519412Y645763D01*
Y639436D01*
X518202Y639195D01*
X516465Y638035D01*
X515305Y636298D01*
X514897Y634250D01*
Y625750D01*
X515305Y623702D01*
X516465Y621965D01*
X518202Y620805D01*
X520250Y620397D01*
X526750D01*
X528799Y620805D01*
X530535Y621965D01*
X531696Y623702D01*
X532103Y625750D01*
Y634250D01*
X531696Y636298D01*
X530535Y638035D01*
X528799Y639195D01*
X528588Y639237D01*
Y645564D01*
X529798Y645805D01*
X531535Y646965D01*
X532524Y648445D01*
X533485Y648513D01*
X533913Y648411D01*
X534354Y647346D01*
X535436Y645936D01*
X536846Y644854D01*
X538488Y644174D01*
X540250Y643942D01*
X541750D01*
Y655000D01*
Y666058D01*
X540250D01*
X538488Y665826D01*
X536846Y665146D01*
X535436Y664064D01*
X534354Y662654D01*
X533913Y661588D01*
X533485Y661487D01*
X532524Y661555D01*
X531535Y663035D01*
X529798Y664195D01*
X527750Y664603D01*
X521250D01*
X519201Y664195D01*
X517465Y663035D01*
X516304Y661298D01*
X515964Y659588D01*
X491000D01*
X489244Y659239D01*
X487756Y658244D01*
X406599Y577088D01*
X363486D01*
X363000Y578261D01*
X364886Y580147D01*
X370250D01*
X372299Y580555D01*
X374035Y581715D01*
X375196Y583452D01*
X375536Y585162D01*
X387750D01*
X389506Y585511D01*
X390994Y586506D01*
X394244Y589756D01*
X395239Y591244D01*
X395588Y593000D01*
Y604810D01*
X395663Y604884D01*
X396500Y606906D01*
Y609094D01*
X395663Y611115D01*
X394116Y612663D01*
X392094Y613500D01*
X389906D01*
X387885Y612663D01*
X386337Y611115D01*
X385500Y609094D01*
Y606906D01*
X386337Y604884D01*
X386412Y604810D01*
Y594901D01*
X385849Y594338D01*
X375536D01*
X375196Y596049D01*
X374035Y597785D01*
X372299Y598945D01*
X370250Y599353D01*
X363750D01*
X361702Y598945D01*
X359965Y597785D01*
X358805Y596049D01*
X358397Y594000D01*
Y587246D01*
X357873Y586853D01*
X356603Y587489D01*
Y594000D01*
X356195Y596049D01*
X355035Y597785D01*
X353298Y598945D01*
X352463Y599112D01*
Y605438D01*
X353048Y605554D01*
X354785Y606715D01*
X355774Y608195D01*
X356735Y608263D01*
X357163Y608161D01*
X357604Y607096D01*
X358686Y605686D01*
X360096Y604604D01*
X361738Y603923D01*
X363500Y603692D01*
X365000D01*
Y614750D01*
Y625808D01*
X363500D01*
X361738Y625576D01*
X360096Y624896D01*
X358686Y623814D01*
X357604Y622404D01*
X357163Y621338D01*
X356735Y621236D01*
X355774Y621305D01*
X354785Y622785D01*
X353048Y623945D01*
X352463Y624062D01*
Y631685D01*
X352663Y631885D01*
X353500Y633906D01*
Y636094D01*
X352663Y638116D01*
X351115Y639663D01*
X349094Y640500D01*
X346906D01*
X344884Y639663D01*
X343337Y638116D01*
X342500Y636094D01*
Y633906D01*
X343287Y632006D01*
Y624111D01*
X342452Y623945D01*
X340715Y622785D01*
X339555Y621048D01*
X339204Y619285D01*
X330868D01*
Y619500D01*
X330597Y620866D01*
X329823Y622023D01*
X328665Y622797D01*
X327300Y623069D01*
X324300D01*
X322934Y622797D01*
X321776Y622023D01*
X321003Y620866D01*
X320731Y619500D01*
Y600000D01*
X321003Y598634D01*
X321776Y597477D01*
X322934Y596703D01*
X324300Y596432D01*
X327300D01*
X328665Y596703D01*
X329823Y597477D01*
X330597Y598634D01*
X330868Y600000D01*
Y610109D01*
X339225D01*
X339555Y608451D01*
X340715Y606715D01*
X342452Y605554D01*
X343287Y605388D01*
Y599062D01*
X342701Y598945D01*
X340965Y597785D01*
X339805Y596049D01*
X339397Y594000D01*
Y585500D01*
X339724Y583858D01*
X338970Y582588D01*
X270348D01*
X268103Y584833D01*
Y591250D01*
X267696Y593298D01*
X266535Y595035D01*
X264799Y596195D01*
X264088Y596336D01*
Y602663D01*
X264799Y602805D01*
X266535Y603965D01*
X266740Y604271D01*
X268308Y604332D01*
X281884Y590756D01*
X283373Y589761D01*
X285129Y589412D01*
X298642D01*
X300398Y589761D01*
X301887Y590756D01*
X303644Y592513D01*
X304639Y594002D01*
X304988Y595757D01*
Y598322D01*
X305197Y598634D01*
X305468Y600000D01*
Y605162D01*
X308031D01*
Y600000D01*
X308303Y598634D01*
X309076Y597477D01*
X310234Y596703D01*
X311600Y596432D01*
X314600D01*
X315965Y596703D01*
X317123Y597477D01*
X317897Y598634D01*
X318168Y600000D01*
Y619500D01*
X317897Y620866D01*
X317123Y622023D01*
X315965Y622797D01*
X314600Y623069D01*
X311600D01*
X310234Y622797D01*
X309076Y622023D01*
X308303Y620866D01*
X308031Y619500D01*
Y614338D01*
X305468D01*
Y619500D01*
X305197Y620866D01*
X304423Y622023D01*
X303918Y622361D01*
X304059Y623069D01*
Y627879D01*
X304032Y628013D01*
X304047Y628149D01*
X303916Y628594D01*
X303826Y629049D01*
X303750Y629163D01*
X303711Y629295D01*
X303421Y629656D01*
X303163Y630042D01*
X303216Y630779D01*
X303228Y630830D01*
X303494Y631436D01*
X304285Y631965D01*
X305274Y633445D01*
X306236Y633513D01*
X306662Y633411D01*
X307104Y632346D01*
X308186Y630936D01*
X309596Y629854D01*
X311238Y629174D01*
X313000Y628942D01*
X314500D01*
Y640000D01*
Y651058D01*
X313000D01*
X311238Y650826D01*
X309596Y650146D01*
X308186Y649064D01*
X307104Y647654D01*
X306662Y646589D01*
X306236Y646487D01*
X305274Y646555D01*
X304285Y648035D01*
X303885Y648302D01*
X303608Y648697D01*
X303632Y649999D01*
X303743Y650144D01*
X303770Y650242D01*
X303826Y650326D01*
X303923Y650815D01*
X304052Y651296D01*
X304039Y651397D01*
X304059Y651497D01*
Y671000D01*
X304059Y671001D01*
X304059Y672182D01*
X304000Y672477D01*
Y672779D01*
X303539Y675097D01*
X303423Y675375D01*
X303365Y675671D01*
X302460Y677855D01*
X302293Y678105D01*
X302178Y678383D01*
X300864Y680349D01*
X300651Y680562D01*
X300484Y680812D01*
X300433Y680863D01*
X300182Y681031D01*
X300020Y681193D01*
X299809Y681281D01*
X299440Y681527D01*
X299006Y681613D01*
X298918Y681650D01*
X298822D01*
X298270Y681759D01*
X297099Y681527D01*
X296401Y681237D01*
X295047Y681618D01*
X294782Y681828D01*
X294662Y682115D01*
X293115Y683662D01*
X291094Y684500D01*
X288906D01*
X287237Y683809D01*
X285171D01*
X284738Y684264D01*
X284283Y684586D01*
X283836Y684919D01*
X283680Y684994D01*
X283601Y685014D01*
X283534Y685059D01*
X283025Y685160D01*
X282523Y685287D01*
X282443Y685276D01*
X282363Y685291D01*
D02*
G37*
G36*
X257750Y674058D02*
X256250D01*
X254488Y673826D01*
X252846Y673146D01*
X251436Y672064D01*
X250354Y670654D01*
X249913Y669589D01*
X249485Y669487D01*
X248524Y669555D01*
X247535Y671035D01*
X245798Y672196D01*
X243750Y672603D01*
X237250D01*
X235202Y672196D01*
X233465Y671035D01*
X232305Y669299D01*
X231897Y667250D01*
Y658750D01*
X232305Y656702D01*
X233465Y654965D01*
X235202Y653805D01*
X235912Y653663D01*
Y646587D01*
X235202Y646445D01*
X233465Y645285D01*
X232305Y643549D01*
X231915Y641588D01*
X224000D01*
X222244Y641239D01*
X220756Y640245D01*
X195100Y614588D01*
X181690D01*
X181616Y614663D01*
X179594Y615500D01*
X177406D01*
X175385Y614663D01*
X175310Y614588D01*
X161989D01*
X160994Y615000D01*
X159005D01*
X157168Y614239D01*
X155761Y612832D01*
X155000Y610994D01*
Y609005D01*
X155761Y607168D01*
X157168Y605761D01*
X159005Y605000D01*
X160994D01*
X161989Y605412D01*
X175310D01*
X175385Y605337D01*
X177406Y604500D01*
X179594D01*
X181616Y605337D01*
X181690Y605412D01*
X197000D01*
X198756Y605761D01*
X200244Y606756D01*
X225901Y632412D01*
X232014D01*
X232305Y630952D01*
X233465Y629215D01*
X235202Y628055D01*
X237250Y627647D01*
X243750D01*
X245798Y628055D01*
X247535Y629215D01*
X248695Y630952D01*
X249103Y633000D01*
Y641500D01*
X248695Y643549D01*
X247535Y645285D01*
X245798Y646445D01*
X245088Y646587D01*
Y653663D01*
X245798Y653805D01*
X247535Y654965D01*
X248524Y656445D01*
X249485Y656514D01*
X249913Y656412D01*
X250354Y655346D01*
X251436Y653936D01*
X252846Y652854D01*
X254488Y652174D01*
X256250Y651942D01*
X257750D01*
Y663000D01*
Y674058D01*
D02*
G37*
G36*
X654250Y674278D02*
Y669250D01*
X659278D01*
X659023Y670202D01*
X658102Y671798D01*
X656798Y673101D01*
X655202Y674023D01*
X654250Y674278D01*
D02*
G37*
G36*
X650750D02*
X649798Y674023D01*
X648202Y673101D01*
X646899Y671798D01*
X645977Y670202D01*
X645722Y669250D01*
X650750D01*
Y674278D01*
D02*
G37*
G36*
X659278Y665750D02*
X654250D01*
Y660722D01*
X655202Y660977D01*
X656798Y661899D01*
X658102Y663202D01*
X659023Y664798D01*
X659278Y665750D01*
D02*
G37*
G36*
X650750D02*
X645722D01*
X645977Y664798D01*
X646899Y663202D01*
X648202Y661899D01*
X649798Y660977D01*
X650750Y660722D01*
Y665750D01*
D02*
G37*
G36*
X546750Y666058D02*
X545250D01*
Y656750D01*
X553558D01*
Y659250D01*
X553326Y661012D01*
X552646Y662654D01*
X551564Y664064D01*
X550154Y665146D01*
X548512Y665826D01*
X546750Y666058D01*
D02*
G37*
G36*
X871723Y687500D02*
X868276D01*
X864895Y686827D01*
X861711Y685508D01*
X858844Y683593D01*
X856407Y681155D01*
X854492Y678289D01*
X853172Y675104D01*
X852500Y671723D01*
Y668276D01*
X853172Y664895D01*
X854492Y661711D01*
X856407Y658844D01*
X858844Y656407D01*
X861711Y654492D01*
X864895Y653172D01*
X868276Y652500D01*
X871723D01*
X875104Y653172D01*
X878289Y654492D01*
X881155Y656407D01*
X883593Y658844D01*
X885508Y661711D01*
X886827Y664895D01*
X887500Y668276D01*
Y671723D01*
X886827Y675104D01*
X885508Y678289D01*
X883593Y681155D01*
X881155Y683593D01*
X878289Y685508D01*
X875104Y686827D01*
X871723Y687500D01*
D02*
G37*
G36*
X31724D02*
X28276D01*
X24896Y686827D01*
X21711Y685508D01*
X18844Y683593D01*
X16407Y681155D01*
X14492Y678289D01*
X13173Y675104D01*
X12500Y671723D01*
Y668276D01*
X13173Y664895D01*
X14492Y661711D01*
X16407Y658844D01*
X18844Y656407D01*
X21711Y654492D01*
X24896Y653172D01*
X28276Y652500D01*
X31724D01*
X35105Y653172D01*
X38289Y654492D01*
X41156Y656407D01*
X43593Y658844D01*
X45508Y661711D01*
X46828Y664895D01*
X47500Y668276D01*
Y671723D01*
X46828Y675104D01*
X45508Y678289D01*
X43593Y681155D01*
X41156Y683593D01*
X38289Y685508D01*
X35105Y686827D01*
X31724Y687500D01*
D02*
G37*
G36*
X553558Y653250D02*
X545250D01*
Y643942D01*
X546750D01*
X548512Y644174D01*
X550154Y644854D01*
X551564Y645936D01*
X552646Y647346D01*
X553326Y648988D01*
X553558Y650750D01*
Y653250D01*
D02*
G37*
G36*
X319500Y651058D02*
X318000D01*
Y641750D01*
X326308D01*
Y644250D01*
X326076Y646012D01*
X325396Y647654D01*
X324314Y649064D01*
X322904Y650146D01*
X321262Y650826D01*
X319500Y651058D01*
D02*
G37*
G36*
X326308Y638250D02*
X318000D01*
Y628942D01*
X319500D01*
X321262Y629174D01*
X322904Y629854D01*
X324314Y630936D01*
X325396Y632346D01*
X326076Y633988D01*
X326308Y635750D01*
Y638250D01*
D02*
G37*
G36*
X370000Y625808D02*
X368500D01*
Y616500D01*
X376808D01*
Y619000D01*
X376576Y620762D01*
X375896Y622404D01*
X374814Y623814D01*
X373404Y624896D01*
X371762Y625576D01*
X370000Y625808D01*
D02*
G37*
G36*
X238750Y623058D02*
X237250D01*
X235488Y622826D01*
X233846Y622146D01*
X232436Y621064D01*
X231354Y619654D01*
X230674Y618012D01*
X230442Y616250D01*
Y613750D01*
X238750D01*
Y623058D01*
D02*
G37*
G36*
X376808Y613000D02*
X368500D01*
Y603692D01*
X370000D01*
X371762Y603923D01*
X373404Y604604D01*
X374814Y605686D01*
X375896Y607096D01*
X376576Y608738D01*
X376808Y610500D01*
Y613000D01*
D02*
G37*
G36*
X576250Y607058D02*
X574750D01*
X572988Y606826D01*
X571346Y606146D01*
X569936Y605064D01*
X568854Y603654D01*
X568413Y602589D01*
X567987Y602487D01*
X567024Y602555D01*
X566035Y604035D01*
X564299Y605195D01*
X562250Y605603D01*
X555750D01*
X553702Y605195D01*
X551965Y604035D01*
X550805Y602298D01*
X550397Y600250D01*
Y591750D01*
X550805Y589702D01*
X551965Y587965D01*
X553702Y586805D01*
X554287Y586688D01*
Y579861D01*
X553451Y579695D01*
X551715Y578535D01*
X550554Y576798D01*
X550214Y575088D01*
X541368D01*
Y585000D01*
X541097Y586365D01*
X540323Y587523D01*
X539165Y588297D01*
X537800Y588568D01*
X534800D01*
X533434Y588297D01*
X532276Y587523D01*
X531503Y586365D01*
X531231Y585000D01*
Y565500D01*
X531503Y564134D01*
X532276Y562976D01*
X533434Y562203D01*
X534800Y561931D01*
X537800D01*
X539165Y562203D01*
X540323Y562976D01*
X541097Y564134D01*
X541368Y565500D01*
Y565912D01*
X550214D01*
X550554Y564202D01*
X551715Y562465D01*
X553451Y561305D01*
X555500Y560897D01*
X562000D01*
X564048Y561305D01*
X565785Y562465D01*
X566945Y564202D01*
X567353Y566250D01*
Y574750D01*
X566945Y576798D01*
X565785Y578535D01*
X564048Y579695D01*
X563463Y579812D01*
Y586638D01*
X564299Y586805D01*
X566035Y587965D01*
X567024Y589445D01*
X567987Y589513D01*
X568413Y589411D01*
X568854Y588346D01*
X569936Y586936D01*
X571346Y585854D01*
X572988Y585174D01*
X574750Y584942D01*
X576250D01*
Y596000D01*
Y607058D01*
D02*
G37*
G36*
X238750Y610250D02*
X230442D01*
Y607750D01*
X230674Y605988D01*
X231354Y604346D01*
X232436Y602936D01*
X233846Y601854D01*
X235488Y601174D01*
X237250Y600942D01*
X238750D01*
Y610250D01*
D02*
G37*
G36*
X581250Y607058D02*
X579750D01*
Y597750D01*
X588058D01*
Y600250D01*
X587826Y602012D01*
X587146Y603654D01*
X586064Y605064D01*
X584654Y606146D01*
X583012Y606826D01*
X581250Y607058D01*
D02*
G37*
G36*
X819600Y623809D02*
X803600D01*
X802430Y623576D01*
X801437Y622913D01*
X800774Y621921D01*
X800541Y620750D01*
Y596250D01*
X800774Y595079D01*
X801437Y594087D01*
X802430Y593424D01*
X803600Y593191D01*
X819600D01*
X820770Y593424D01*
X821763Y594087D01*
X822426Y595079D01*
X822659Y596250D01*
Y598344D01*
X823929Y598469D01*
X824286Y596673D01*
X825534Y593661D01*
X827345Y590950D01*
X829650Y588645D01*
X832361Y586834D01*
X835373Y585586D01*
X838570Y584950D01*
X841830D01*
X845027Y585586D01*
X848039Y586834D01*
X850750Y588645D01*
X853055Y590950D01*
X854866Y593661D01*
X856114Y596673D01*
X856750Y599870D01*
Y603130D01*
X856114Y606328D01*
X854866Y609339D01*
X853055Y612050D01*
X850750Y614355D01*
X848039Y616166D01*
X845027Y617414D01*
X841830Y618050D01*
X838570D01*
X835373Y617414D01*
X832361Y616166D01*
X829650Y614355D01*
X827345Y612050D01*
X825534Y609339D01*
X824286Y606328D01*
X823929Y604531D01*
X822659Y604656D01*
Y620750D01*
X822426Y621921D01*
X821763Y622913D01*
X820770Y623576D01*
X819600Y623809D01*
D02*
G37*
G36*
X588058Y594250D02*
X579750D01*
Y584942D01*
X581250D01*
X583012Y585174D01*
X584654Y585854D01*
X586064Y586936D01*
X587146Y588346D01*
X587826Y589988D01*
X588058Y591750D01*
Y594250D01*
D02*
G37*
G36*
X454750Y594058D02*
X453250D01*
X451488Y593826D01*
X449846Y593146D01*
X448436Y592064D01*
X447354Y590654D01*
X446674Y589012D01*
X446442Y587250D01*
Y584750D01*
X454750D01*
Y594058D01*
D02*
G37*
G36*
Y581250D02*
X446442D01*
Y578750D01*
X446674Y576988D01*
X447354Y575346D01*
X448436Y573936D01*
X449846Y572854D01*
X451488Y572174D01*
X453250Y571942D01*
X454750D01*
Y581250D01*
D02*
G37*
G36*
X785714Y595874D02*
X719286D01*
X717530Y595525D01*
X716042Y594530D01*
X699099Y577588D01*
X624190D01*
X624116Y577662D01*
X622094Y578500D01*
X619906D01*
X617885Y577662D01*
X617810Y577588D01*
X585418D01*
X584785Y578535D01*
X583049Y579695D01*
X581000Y580103D01*
X574500D01*
X572452Y579695D01*
X570715Y578535D01*
X569555Y576798D01*
X569147Y574750D01*
Y566250D01*
X569555Y564202D01*
X570715Y562465D01*
X572452Y561305D01*
X574500Y560897D01*
X581000D01*
X583049Y561305D01*
X584785Y562465D01*
X585945Y564202D01*
X586353Y566250D01*
Y568412D01*
X617810D01*
X617885Y568337D01*
X619906Y567500D01*
X622094D01*
X624116Y568337D01*
X624190Y568412D01*
X701000D01*
X702756Y568761D01*
X704244Y569756D01*
X721187Y586698D01*
X756780D01*
X757415Y585598D01*
X756656Y584285D01*
X755977Y581750D01*
X767000D01*
X778023D01*
X777343Y584285D01*
X776585Y585598D01*
X777220Y586698D01*
X783813D01*
X787790Y582721D01*
X787400Y581264D01*
Y578736D01*
X788054Y576295D01*
X789318Y574105D01*
X791105Y572318D01*
X793294Y571054D01*
X795736Y570400D01*
X798264D01*
X800705Y571054D01*
X802894Y572318D01*
X804682Y574105D01*
X805946Y576295D01*
X806600Y578736D01*
Y581264D01*
X805946Y583705D01*
X804682Y585895D01*
X802894Y587682D01*
X800705Y588946D01*
X798264Y589600D01*
X795736D01*
X794279Y589210D01*
X788958Y594530D01*
X787469Y595525D01*
X785714Y595874D01*
D02*
G37*
G36*
X778023Y578250D02*
X768750D01*
Y568977D01*
X771284Y569656D01*
X773815Y571118D01*
X775882Y573185D01*
X777343Y575716D01*
X778023Y578250D01*
D02*
G37*
G36*
X765250D02*
X755977D01*
X756656Y575716D01*
X758118Y573185D01*
X760184Y571118D01*
X762715Y569656D01*
X765250Y568977D01*
Y578250D01*
D02*
G37*
G36*
X377558Y555250D02*
X369250D01*
Y545942D01*
X370750D01*
X372512Y546174D01*
X374154Y546854D01*
X375564Y547936D01*
X376646Y549346D01*
X377326Y550988D01*
X377558Y552750D01*
Y555250D01*
D02*
G37*
G36*
X785000Y566588D02*
X732000D01*
X730244Y566239D01*
X728756Y565244D01*
X713099Y549588D01*
X622190D01*
X622116Y549663D01*
X620094Y550500D01*
X617906D01*
X616007Y549713D01*
X586310D01*
X585945Y551548D01*
X584785Y553285D01*
X583049Y554445D01*
X581000Y554853D01*
X574500D01*
X572452Y554445D01*
X570715Y553285D01*
X569555Y551548D01*
X569147Y549500D01*
Y541000D01*
X569555Y538951D01*
X570715Y537215D01*
X572452Y536054D01*
X574500Y535647D01*
X581000D01*
X583049Y536054D01*
X584785Y537215D01*
X585945Y538951D01*
X586261Y540537D01*
X615685D01*
X615885Y540337D01*
X617906Y539500D01*
X620094D01*
X622116Y540337D01*
X622190Y540412D01*
X715000D01*
X716756Y540761D01*
X718244Y541755D01*
X733901Y557412D01*
X756995D01*
X757729Y556142D01*
X756656Y554285D01*
X755977Y551750D01*
X767000D01*
X778023D01*
X777343Y554285D01*
X776271Y556142D01*
X777004Y557412D01*
X783099D01*
X787790Y552721D01*
X787400Y551264D01*
Y548736D01*
X788054Y546295D01*
X789318Y544106D01*
X791105Y542318D01*
X793294Y541054D01*
X795736Y540400D01*
X798264D01*
X800705Y541054D01*
X802894Y542318D01*
X804682Y544106D01*
X805946Y546295D01*
X806600Y548736D01*
Y551264D01*
X805946Y553705D01*
X804682Y555895D01*
X802894Y557682D01*
X800705Y558946D01*
X798264Y559600D01*
X795736D01*
X794279Y559210D01*
X788244Y565244D01*
X786756Y566239D01*
X785000Y566588D01*
D02*
G37*
G36*
X581156Y530982D02*
X579655D01*
Y521674D01*
X587964D01*
Y524174D01*
X587732Y525936D01*
X587052Y527578D01*
X585970Y528988D01*
X584560Y530070D01*
X582918Y530750D01*
X581156Y530982D01*
D02*
G37*
G36*
X587964Y518174D02*
X579655D01*
Y508866D01*
X581156D01*
X582918Y509098D01*
X584560Y509778D01*
X585970Y510860D01*
X587052Y512270D01*
X587732Y513912D01*
X587964Y515674D01*
Y518174D01*
D02*
G37*
G36*
X569487Y502029D02*
X567987D01*
Y492721D01*
X576295D01*
Y495221D01*
X576063Y496983D01*
X575383Y498625D01*
X574301Y500035D01*
X572891Y501117D01*
X571249Y501797D01*
X569487Y502029D01*
D02*
G37*
G36*
X576295Y489221D02*
X567987D01*
Y479912D01*
X569487D01*
X571249Y480144D01*
X572891Y480825D01*
X574301Y481906D01*
X575383Y483316D01*
X576063Y484958D01*
X576295Y486721D01*
Y489221D01*
D02*
G37*
G36*
X360584Y451770D02*
X359084D01*
X357322Y451538D01*
X355680Y450858D01*
X354270Y449776D01*
X353188Y448366D01*
X352508Y446724D01*
X352276Y444962D01*
Y442462D01*
X360584D01*
Y451770D01*
D02*
G37*
G36*
X128043Y439744D02*
X119735D01*
Y430436D01*
X121235D01*
X122997Y430668D01*
X124639Y431348D01*
X126049Y432430D01*
X127131Y433840D01*
X127811Y435482D01*
X128043Y437244D01*
Y439744D01*
D02*
G37*
G36*
X360584Y438962D02*
X352276D01*
Y436462D01*
X352508Y434700D01*
X353188Y433058D01*
X354270Y431648D01*
X355680Y430566D01*
X357322Y429886D01*
X359084Y429654D01*
X360584D01*
Y438962D01*
D02*
G37*
G36*
X137506Y458082D02*
X77494D01*
X75738Y457733D01*
X74250Y456738D01*
X65756Y448244D01*
X64761Y446756D01*
X64412Y445000D01*
Y440636D01*
X63451Y440445D01*
X61715Y439285D01*
X60554Y437548D01*
X60147Y435500D01*
Y427000D01*
X60554Y424952D01*
X61715Y423215D01*
X63451Y422055D01*
X65500Y421647D01*
X72000D01*
X74048Y422055D01*
X75785Y423215D01*
X76945Y424952D01*
X77353Y427000D01*
Y435500D01*
X76945Y437548D01*
X75785Y439285D01*
X74048Y440445D01*
X73588Y440537D01*
Y443100D01*
X79394Y448906D01*
X90195D01*
X90608Y448133D01*
X90759Y447636D01*
X90383Y445744D01*
Y437244D01*
X90790Y435195D01*
X91950Y433459D01*
X93378Y432505D01*
Y423068D01*
X90250D01*
X88884Y422797D01*
X87727Y422023D01*
X86953Y420866D01*
X86681Y419500D01*
Y416500D01*
X86953Y415134D01*
X87727Y413977D01*
X88884Y413203D01*
X90250Y412931D01*
X109250D01*
X110616Y413203D01*
X111773Y413977D01*
X112547Y415134D01*
X112818Y416500D01*
Y419500D01*
X112547Y420866D01*
X111773Y422023D01*
X110616Y422797D01*
X109250Y423068D01*
X104593D01*
Y432505D01*
X106020Y433459D01*
X107009Y434939D01*
X107972Y435007D01*
X108398Y434905D01*
X108839Y433840D01*
X109921Y432430D01*
X111331Y431348D01*
X112973Y430668D01*
X114735Y430436D01*
X116235D01*
Y441494D01*
X117985D01*
Y443244D01*
X128043D01*
Y445744D01*
X127811Y447506D01*
X127669Y447850D01*
X128375Y448906D01*
X135606D01*
X147162Y437350D01*
Y423068D01*
X142250D01*
X140884Y422797D01*
X140858Y422779D01*
X139588Y423458D01*
Y432245D01*
X140000Y433239D01*
Y435229D01*
X139239Y437066D01*
X137832Y438473D01*
X135995Y439234D01*
X134005D01*
X132168Y438473D01*
X130761Y437066D01*
X130000Y435229D01*
Y433239D01*
X130412Y432245D01*
Y379848D01*
X130168Y379652D01*
X129485Y379598D01*
X128465Y379914D01*
X128244Y380244D01*
X128244Y380245D01*
X128244Y380245D01*
X125344Y383144D01*
X124568Y383663D01*
X123856Y384139D01*
X123856Y384139D01*
X123855Y384139D01*
X122973Y384314D01*
X122100Y384488D01*
X111032D01*
X110250Y384906D01*
X110363Y386223D01*
X111201Y386390D01*
X112855Y387495D01*
X113960Y389149D01*
X114298Y390850D01*
X99750D01*
Y394350D01*
X114298D01*
X113960Y396051D01*
X112855Y397705D01*
X111201Y398810D01*
X109907Y399067D01*
Y400362D01*
X110616Y400503D01*
X111773Y401277D01*
X112547Y402434D01*
X112818Y403800D01*
Y406800D01*
X112547Y408166D01*
X111773Y409323D01*
X110616Y410097D01*
X109250Y410368D01*
X90250D01*
X88884Y410097D01*
X87727Y409323D01*
X86953Y408166D01*
X86681Y406800D01*
Y403800D01*
X86953Y402434D01*
X87727Y401277D01*
X88884Y400503D01*
X89593Y400362D01*
Y399067D01*
X88299Y398810D01*
X86645Y397705D01*
X85540Y396051D01*
X85152Y394100D01*
Y393059D01*
X40000Y393059D01*
X39015Y393059D01*
X38720Y393000D01*
X38418D01*
X36486Y392616D01*
X36208Y392500D01*
X35912Y392442D01*
X34093Y391688D01*
X33842Y391520D01*
X33564Y391405D01*
X31926Y390311D01*
X31713Y390098D01*
X31462Y389930D01*
X30070Y388537D01*
X29902Y388287D01*
X29689Y388074D01*
X28595Y386436D01*
X28479Y386158D01*
X28312Y385907D01*
X27558Y384087D01*
X27499Y383792D01*
X27384Y383514D01*
X27037Y381770D01*
Y381518D01*
X26980Y381271D01*
X26943Y380098D01*
X26951Y380049D01*
X26941Y380000D01*
Y358863D01*
X27174Y357692D01*
X28044Y355591D01*
X28707Y354599D01*
X30316Y352991D01*
X31308Y352328D01*
X32414Y351869D01*
X33585Y351637D01*
X34755Y351869D01*
X35748Y352532D01*
X36349Y353133D01*
X36734Y353503D01*
X38069Y353395D01*
X38695Y352976D01*
X38764Y352015D01*
X38662Y351587D01*
X37596Y351146D01*
X36186Y350064D01*
X35104Y348654D01*
X34424Y347012D01*
X34192Y345250D01*
Y343750D01*
X56308D01*
Y345250D01*
X56076Y347012D01*
X55396Y348654D01*
X54314Y350064D01*
X52904Y351146D01*
X52606Y351270D01*
X52432Y352716D01*
X52777Y352970D01*
X54114Y352715D01*
X54202Y352584D01*
X54415Y352371D01*
X54582Y352120D01*
X54833Y351953D01*
X55045Y351740D01*
X55324Y351625D01*
X55574Y351457D01*
X55870Y351399D01*
X56148Y351283D01*
X56449D01*
X56745Y351224D01*
X59005D01*
X59301Y351283D01*
X59602D01*
X59880Y351399D01*
X60176Y351457D01*
X60426Y351625D01*
X60705Y351740D01*
X60918Y351953D01*
X61168Y352120D01*
X61335Y352371D01*
X61549Y352584D01*
X61636Y352715D01*
X62973Y352969D01*
X63318Y352716D01*
X63144Y351270D01*
X62846Y351146D01*
X61436Y350064D01*
X60354Y348654D01*
X59674Y347012D01*
X59442Y345250D01*
Y343750D01*
X81558D01*
Y345250D01*
X81326Y347012D01*
X80646Y348654D01*
X79564Y350064D01*
X78154Y351146D01*
X77856Y351270D01*
X77682Y352716D01*
X78027Y352970D01*
X79364Y352715D01*
X79451Y352584D01*
X79664Y352371D01*
X79832Y352120D01*
X80082Y351953D01*
X80295Y351740D01*
X80574Y351625D01*
X80824Y351457D01*
X81119Y351399D01*
X81398Y351283D01*
X81699D01*
X81994Y351224D01*
X86681D01*
X87163Y351320D01*
X87727Y350476D01*
X88884Y349703D01*
X90250Y349431D01*
X109250D01*
X110616Y349703D01*
X111773Y350476D01*
X112547Y351634D01*
X112818Y353000D01*
Y356000D01*
X112547Y357365D01*
X111773Y358523D01*
X110616Y359297D01*
X109250Y359568D01*
X92652D01*
Y360733D01*
X92626Y360861D01*
X92858Y361537D01*
X93543Y362076D01*
X93668Y362131D01*
X109250D01*
X110616Y362403D01*
X111773Y363176D01*
X112547Y364334D01*
X112818Y365700D01*
Y368700D01*
X112547Y370065D01*
X111773Y371223D01*
X110616Y371997D01*
X109250Y372268D01*
X93668D01*
X93543Y372323D01*
X92858Y372862D01*
X92626Y373538D01*
X92652Y373667D01*
Y374831D01*
X109250D01*
X110616Y375103D01*
X110928Y375312D01*
X120200D01*
X120412Y375099D01*
Y349000D01*
X120596Y348073D01*
X120564Y348006D01*
X119496Y347096D01*
X117929Y347408D01*
X99750D01*
X97604Y346981D01*
X97436Y346868D01*
X90250D01*
X88884Y346597D01*
X87727Y345823D01*
X86953Y344665D01*
X86681Y343300D01*
Y340300D01*
X86953Y338934D01*
X87727Y337776D01*
X88884Y337003D01*
X90250Y336731D01*
X97436D01*
X97604Y336619D01*
X99750Y336192D01*
X115251D01*
Y332500D01*
X115436Y331570D01*
X114630Y330588D01*
X87000D01*
X85244Y330239D01*
X83756Y329244D01*
X68756Y314244D01*
X67761Y312756D01*
X67412Y311000D01*
Y284519D01*
X62500D01*
X61134Y284247D01*
X59977Y283473D01*
X59719Y283088D01*
X32900D01*
X31144Y282739D01*
X29655Y281744D01*
X26682Y278771D01*
X26000Y278861D01*
X16000D01*
X14172Y278620D01*
X12470Y277915D01*
X11007Y276793D01*
X9885Y275331D01*
X9180Y273628D01*
X8939Y271800D01*
Y261800D01*
X9180Y259973D01*
X9885Y258270D01*
X11007Y256808D01*
X12470Y255686D01*
X14172Y254980D01*
X16000Y254740D01*
X26000D01*
X27827Y254980D01*
X29530Y255686D01*
X30992Y256808D01*
X32114Y258270D01*
X32820Y259973D01*
X33035Y261612D01*
X71655D01*
X72005Y261681D01*
X81500D01*
X82866Y261953D01*
X84023Y262727D01*
X84797Y263884D01*
X85069Y265250D01*
Y268250D01*
X84797Y269616D01*
X84023Y270773D01*
X82866Y271547D01*
X81500Y271819D01*
X62500D01*
X61134Y271547D01*
X59998Y270788D01*
X33060D01*
Y271800D01*
X33017Y272129D01*
X34800Y273912D01*
X72000D01*
X73756Y274261D01*
X73936Y274381D01*
X81500D01*
X82866Y274653D01*
X84023Y275427D01*
X84797Y276584D01*
X85069Y277950D01*
Y280950D01*
X84797Y282316D01*
X84023Y283473D01*
X82866Y284247D01*
X81500Y284519D01*
X76588D01*
Y309099D01*
X88901Y321412D01*
X114805D01*
X115254Y320142D01*
X114783Y319436D01*
X114174Y317966D01*
X113941Y316796D01*
Y314377D01*
X112885Y313671D01*
X112512Y313826D01*
X110750Y314058D01*
X109250D01*
Y303000D01*
Y291942D01*
X110750D01*
X112512Y292174D01*
X112885Y292328D01*
X113941Y291623D01*
Y286048D01*
X114174Y284877D01*
X113983Y284416D01*
X113134Y284247D01*
X111976Y283473D01*
X111203Y282316D01*
X110931Y280950D01*
Y277950D01*
X111203Y276584D01*
X111976Y275427D01*
X113134Y274653D01*
X114500Y274381D01*
X133500D01*
X134065Y273382D01*
X134188Y272976D01*
X133853Y272412D01*
X133212Y271819D01*
X114500D01*
X113134Y271547D01*
X111976Y270773D01*
X111203Y269616D01*
X110931Y268250D01*
Y265250D01*
X111203Y263884D01*
X111976Y262727D01*
X113134Y261953D01*
X114500Y261681D01*
X133500D01*
X134866Y261953D01*
X136023Y262727D01*
X136797Y263884D01*
X137068Y265250D01*
Y268250D01*
X136973Y268731D01*
X137046Y268950D01*
X137990Y269941D01*
X156000D01*
X156132Y269967D01*
X156265Y269953D01*
X157491Y270059D01*
X157654Y270107D01*
X157823D01*
X158638Y270269D01*
X158917Y270384D01*
X159212Y270443D01*
X160486Y270971D01*
X160737Y271138D01*
X161015Y271253D01*
X162162Y272019D01*
X162375Y272232D01*
X162625Y272400D01*
X163600Y273375D01*
X163768Y273625D01*
X163981Y273838D01*
X164747Y274985D01*
X164862Y275263D01*
X165029Y275514D01*
X165557Y276788D01*
X165616Y277083D01*
X165731Y277361D01*
X166000Y278714D01*
Y279015D01*
X166059Y279311D01*
X166059Y280000D01*
X166059Y313000D01*
X166059Y313000D01*
Y313001D01*
X166033Y313129D01*
X166048Y313259D01*
X165946Y314460D01*
X165898Y314626D01*
Y314798D01*
X165731Y315639D01*
X165616Y315917D01*
X165557Y316212D01*
X165029Y317486D01*
X164862Y317737D01*
X164747Y318015D01*
X163981Y319161D01*
X163768Y319375D01*
X163600Y319625D01*
X163083Y320142D01*
X163609Y321412D01*
X178099D01*
X182409Y317103D01*
X181850Y315865D01*
X180168Y315168D01*
X178761Y313762D01*
X178000Y311924D01*
Y309935D01*
X178412Y308940D01*
Y303517D01*
X177256Y302744D01*
X176261Y301256D01*
X175912Y299500D01*
Y293500D01*
X176261Y291744D01*
X177256Y290256D01*
X178744Y289261D01*
X180500Y288912D01*
X185500D01*
X187256Y289261D01*
X188142Y289853D01*
X189412Y289174D01*
Y286826D01*
X188142Y286147D01*
X187256Y286739D01*
X185500Y287088D01*
X180500D01*
X178744Y286739D01*
X177256Y285745D01*
X176261Y284256D01*
X175912Y282500D01*
Y276500D01*
X176261Y274744D01*
X177256Y273256D01*
X178412Y272483D01*
Y260000D01*
X178761Y258244D01*
X179756Y256756D01*
X188653Y247858D01*
X188127Y246588D01*
X146989D01*
X145995Y247000D01*
X144005D01*
X142168Y246239D01*
X140761Y244832D01*
X140000Y242995D01*
Y241006D01*
X140761Y239168D01*
X142168Y237761D01*
X143918Y237037D01*
X143383Y235745D01*
Y233756D01*
X144144Y231918D01*
X145551Y230512D01*
X147388Y229750D01*
X149377D01*
X150372Y230162D01*
X183586D01*
X187916Y225832D01*
X187706Y224777D01*
X186299Y223370D01*
X185887Y222376D01*
X162099Y198588D01*
X137124D01*
X136445Y199858D01*
X136797Y200384D01*
X137068Y201750D01*
Y204750D01*
X136797Y206116D01*
X136023Y207273D01*
X134866Y208047D01*
X133500Y208319D01*
X114500D01*
X113134Y208047D01*
X111976Y207273D01*
X111203Y206116D01*
X110931Y204750D01*
Y204517D01*
X109758Y204031D01*
X94594Y219194D01*
X93106Y220189D01*
X91350Y220538D01*
X83178D01*
X82866Y220747D01*
X81500Y221019D01*
X73259D01*
X72256Y221689D01*
X70500Y222038D01*
X65302D01*
X65119Y222311D01*
X65798Y223581D01*
X81500D01*
X82866Y223853D01*
X84023Y224627D01*
X84797Y225784D01*
X85069Y227150D01*
Y230150D01*
X84797Y231516D01*
X84023Y232673D01*
X82866Y233447D01*
X81500Y233718D01*
X62500D01*
X61134Y233447D01*
X60822Y233238D01*
X60251D01*
X48844Y244645D01*
X47356Y245639D01*
X45600Y245988D01*
X32194D01*
X32182Y246032D01*
X30602Y248768D01*
X28368Y251003D01*
X25632Y252582D01*
X22580Y253400D01*
X19420D01*
X16368Y252582D01*
X13632Y251003D01*
X11397Y248768D01*
X9818Y246032D01*
X9000Y242980D01*
Y239820D01*
X9818Y236768D01*
X11397Y234032D01*
X13632Y231798D01*
X16368Y230218D01*
X19420Y229400D01*
X20920D01*
X21007Y229270D01*
X20328Y228000D01*
X19420D01*
X16368Y227183D01*
X13632Y225603D01*
X11397Y223368D01*
X9818Y220632D01*
X9000Y217580D01*
Y214420D01*
X9818Y211368D01*
X11397Y208632D01*
X13632Y206398D01*
X16368Y204818D01*
X19420Y204000D01*
X22580D01*
X25632Y204818D01*
X28368Y206398D01*
X30602Y208632D01*
X31619Y210392D01*
X45000D01*
X45000Y210392D01*
X53999D01*
X54000Y210392D01*
X56146Y210819D01*
X57965Y212035D01*
X58171Y212343D01*
X59699D01*
X59977Y211927D01*
X61134Y211153D01*
X61843Y211012D01*
Y209717D01*
X60549Y209460D01*
X58895Y208355D01*
X57790Y206701D01*
X57452Y205000D01*
X72000D01*
X86548D01*
X86210Y206701D01*
X85105Y208355D01*
X83451Y209460D01*
X82613Y209627D01*
X82500Y210944D01*
X83282Y211362D01*
X89450D01*
X110056Y190756D01*
X111545Y189761D01*
X113300Y189412D01*
X164000D01*
X165756Y189761D01*
X167244Y190756D01*
X192376Y215887D01*
X193370Y216299D01*
X194777Y217706D01*
X195967Y217942D01*
X202083Y211826D01*
X201959Y210562D01*
X201035Y209945D01*
X199819Y208125D01*
X199392Y205979D01*
Y188823D01*
X197676Y187676D01*
X196516Y185940D01*
X196108Y183891D01*
Y175391D01*
X196516Y173343D01*
X197676Y171606D01*
X199412Y170446D01*
X199642Y170400D01*
Y162983D01*
X199452Y162945D01*
X197953Y161944D01*
X188846D01*
X188785Y162035D01*
X187048Y163195D01*
X185000Y163603D01*
X178500D01*
X176451Y163195D01*
X174715Y162035D01*
X173554Y160298D01*
X173147Y158250D01*
Y149750D01*
X173554Y147701D01*
X174715Y145965D01*
X176451Y144804D01*
X178500Y144397D01*
X185000D01*
X187048Y144804D01*
X188547Y145806D01*
X197654D01*
X197715Y145715D01*
X199452Y144555D01*
X201500Y144147D01*
X208000D01*
X210048Y144555D01*
X211785Y145715D01*
X212774Y147195D01*
X213736Y147263D01*
X214162Y147161D01*
X214604Y146096D01*
X215686Y144686D01*
X217096Y143604D01*
X218738Y142924D01*
X220500Y142692D01*
X222000D01*
Y153750D01*
Y164808D01*
X220500D01*
X218738Y164576D01*
X217096Y163896D01*
X215686Y162814D01*
X214604Y161404D01*
X214162Y160339D01*
X213736Y160237D01*
X212774Y160305D01*
X211785Y161785D01*
X210858Y162405D01*
Y171013D01*
X211746Y171606D01*
X212735Y173086D01*
X213697Y173154D01*
X214123Y173052D01*
X214564Y171987D01*
X215646Y170577D01*
X217057Y169495D01*
X218699Y168815D01*
X220461Y168583D01*
X221961D01*
Y179641D01*
X225461D01*
Y168583D01*
X226961D01*
X228723Y168815D01*
X230365Y169495D01*
X231775Y170577D01*
X232857Y171987D01*
X233537Y173629D01*
X233769Y175391D01*
Y178481D01*
X234942Y178967D01*
X245154Y168755D01*
X246642Y167761D01*
X248398Y167412D01*
X269816D01*
X270756Y166006D01*
X272244Y165011D01*
X274000Y164662D01*
X280000D01*
X281756Y165011D01*
X283244Y166006D01*
X284239Y167494D01*
X284588Y169250D01*
Y174250D01*
X284239Y176006D01*
X283244Y177494D01*
X281756Y178489D01*
X280000Y178838D01*
X274000D01*
X272244Y178489D01*
X270756Y177494D01*
X270150Y176588D01*
X250298D01*
X240898Y185988D01*
X241384Y187162D01*
X269983D01*
X270756Y186005D01*
X272244Y185011D01*
X274000Y184662D01*
X280000D01*
X281756Y185011D01*
X283244Y186005D01*
X284239Y187494D01*
X284588Y189250D01*
Y194250D01*
X284239Y196006D01*
X283244Y197494D01*
X281756Y198489D01*
X280000Y198838D01*
X274000D01*
X272244Y198489D01*
X270756Y197494D01*
X269983Y196338D01*
X240958D01*
X233154Y204142D01*
X233680Y205412D01*
X271966D01*
X272244Y205226D01*
X274000Y204877D01*
X280000D01*
X281756Y205226D01*
X283245Y206220D01*
X284239Y207709D01*
X284589Y209465D01*
Y214465D01*
X284239Y216220D01*
X283245Y217709D01*
X281756Y218704D01*
X280000Y219053D01*
X274000D01*
X272244Y218704D01*
X270756Y217709D01*
X269761Y216220D01*
X269437Y214588D01*
X234900D01*
X227500Y221989D01*
Y222094D01*
X226663Y224116D01*
X225116Y225663D01*
X223094Y226500D01*
X222989D01*
X209244Y240244D01*
X203650Y245838D01*
X203239Y246832D01*
X201832Y248239D01*
X200838Y248650D01*
X187588Y261901D01*
Y271710D01*
X188142Y272042D01*
X189412Y271322D01*
Y268000D01*
X189761Y266244D01*
X190756Y264756D01*
X190756Y264756D01*
X211756Y243756D01*
X213244Y242761D01*
X215000Y242412D01*
X230810D01*
X230885Y242337D01*
X232906Y241500D01*
X233011D01*
X245506Y229006D01*
X246994Y228011D01*
X248750Y227662D01*
X269983D01*
X270756Y226506D01*
X272244Y225511D01*
X274000Y225162D01*
X280000D01*
X281756Y225511D01*
X283244Y226506D01*
X284239Y227994D01*
X284588Y229750D01*
Y234750D01*
X284239Y236506D01*
X283244Y237994D01*
X281756Y238989D01*
X280000Y239338D01*
X275141D01*
X274823Y240608D01*
X274874Y240636D01*
X274970Y240753D01*
X275096Y240837D01*
X275346Y241211D01*
X275631Y241558D01*
X275675Y241703D01*
X275759Y241829D01*
X275847Y242270D01*
X275977Y242700D01*
X276102Y243970D01*
X276061Y244392D01*
X276059Y244419D01*
X276940Y245584D01*
X277115Y245662D01*
X279750D01*
X281506Y246011D01*
X282994Y247006D01*
X283989Y248494D01*
X284338Y250250D01*
Y253370D01*
X285529Y254206D01*
X286162Y253917D01*
Y250250D01*
X286511Y248494D01*
X287506Y247006D01*
X288994Y246011D01*
X289287Y245953D01*
Y238997D01*
X289244Y238989D01*
X287756Y237994D01*
X286761Y236506D01*
X286412Y234750D01*
Y229750D01*
X286761Y227994D01*
X287756Y226506D01*
X289244Y225511D01*
X289412Y225478D01*
Y218737D01*
X289245Y218704D01*
X287756Y217709D01*
X286762Y216220D01*
X286412Y214465D01*
Y209465D01*
X286762Y207709D01*
X287756Y206220D01*
X289245Y205226D01*
X289412Y205193D01*
Y198522D01*
X289244Y198489D01*
X287756Y197494D01*
X286761Y196006D01*
X286412Y194250D01*
Y189250D01*
X286761Y187494D01*
X287756Y186005D01*
X289244Y185011D01*
X289412Y184978D01*
Y178522D01*
X289244Y178489D01*
X287756Y177494D01*
X286761Y176006D01*
X286412Y174250D01*
Y169250D01*
X286761Y167494D01*
X287756Y166006D01*
X289244Y165011D01*
X291000Y164662D01*
X297000D01*
X298756Y165011D01*
X300244Y166006D01*
X301239Y167494D01*
X301588Y169250D01*
Y174250D01*
X301239Y176006D01*
X300244Y177494D01*
X298756Y178489D01*
X298588Y178522D01*
Y184978D01*
X298756Y185011D01*
X300244Y186005D01*
X301100Y187287D01*
X312875D01*
X314631Y187636D01*
X316119Y188631D01*
X324989Y197500D01*
X325094D01*
X327116Y198337D01*
X328663Y199884D01*
X329500Y201906D01*
Y204094D01*
X328663Y206115D01*
X328588Y206190D01*
Y277745D01*
X329858Y277985D01*
X330680Y276756D01*
X332168Y275761D01*
X333924Y275412D01*
X339924D01*
X341680Y275761D01*
X343168Y276756D01*
X344163Y278244D01*
X344512Y280000D01*
Y285000D01*
X344163Y286756D01*
X343168Y288244D01*
X341680Y289239D01*
X341588Y289257D01*
Y337100D01*
X342915Y338426D01*
X343821Y338540D01*
X344607Y337460D01*
X344000Y335995D01*
Y334005D01*
X344761Y332168D01*
X346168Y330761D01*
X348005Y330000D01*
X349995D01*
X351832Y330761D01*
X353239Y332168D01*
X353651Y333162D01*
X358110Y337622D01*
X362034D01*
X362347Y337413D01*
X363712Y337141D01*
X381232D01*
X382085Y336200D01*
X382068Y336030D01*
X382086Y335848D01*
X381738Y335221D01*
X381177Y334680D01*
X380967Y334578D01*
X363712D01*
X362347Y334307D01*
X361189Y333533D01*
X360415Y332375D01*
X360144Y331010D01*
Y328010D01*
X360415Y326644D01*
X361189Y325486D01*
X361113Y324963D01*
X360908Y324147D01*
X360837Y324100D01*
X360615Y323767D01*
X360351Y323466D01*
X360286Y323275D01*
X360174Y323107D01*
X360096Y322715D01*
X359967Y322336D01*
X359981Y322135D01*
X359941Y321937D01*
Y317058D01*
X359750D01*
Y306000D01*
Y294942D01*
X359941D01*
Y293000D01*
X359941Y292311D01*
X360000Y292015D01*
Y291714D01*
X360269Y290361D01*
X360384Y290083D01*
X360443Y289788D01*
X360557Y289512D01*
X359531Y288670D01*
X358680Y289239D01*
X356924Y289588D01*
X350924D01*
X349168Y289239D01*
X347679Y288244D01*
X346685Y286756D01*
X346336Y285000D01*
Y280000D01*
X346685Y278244D01*
X347679Y276756D01*
X349168Y275761D01*
X350924Y275412D01*
X356924D01*
X358680Y275761D01*
X360168Y276756D01*
X360606Y277412D01*
X367564D01*
X367805Y276201D01*
X368965Y274465D01*
X370445Y273476D01*
X370513Y272513D01*
X370411Y272087D01*
X369346Y271646D01*
X367936Y270564D01*
X366854Y269154D01*
X366174Y267512D01*
X365942Y265750D01*
Y264250D01*
X388058D01*
Y265750D01*
X387826Y267512D01*
X387146Y269154D01*
X386064Y270564D01*
X384654Y271646D01*
X383589Y272087D01*
X383487Y272513D01*
X383555Y273476D01*
X385035Y274465D01*
X386196Y276201D01*
X386436Y277412D01*
X389878D01*
X389953Y277337D01*
X391974Y276500D01*
X394162D01*
X396184Y277337D01*
X396258Y277412D01*
X399897D01*
Y276750D01*
X400305Y274701D01*
X401465Y272965D01*
X403202Y271805D01*
X405250Y271397D01*
X411750D01*
X413799Y271805D01*
X415535Y272965D01*
X416696Y274701D01*
X417103Y276750D01*
Y285250D01*
X416696Y287298D01*
X415535Y289035D01*
X413799Y290195D01*
X411750Y290603D01*
X405250D01*
X403202Y290195D01*
X402211Y290807D01*
X402059Y290959D01*
X402059Y292117D01*
X402059Y329000D01*
X402059Y329000D01*
Y329001D01*
X402039Y329099D01*
X402052Y329199D01*
X401976Y330369D01*
X401924Y330565D01*
Y330768D01*
X401693Y331930D01*
X401577Y332209D01*
X401519Y332504D01*
X400915Y333960D01*
X400748Y334210D01*
X400633Y334489D01*
X399757Y335799D01*
X399544Y336012D01*
X399377Y336263D01*
X398263Y337377D01*
X398012Y337544D01*
X397799Y337757D01*
X396489Y338633D01*
X396211Y338748D01*
X395960Y338915D01*
X394504Y339519D01*
X394208Y339577D01*
X393930Y339693D01*
X392385Y340000D01*
X392083Y340000D01*
X391788Y340059D01*
X391000Y340059D01*
X387781Y340059D01*
X386781Y341329D01*
Y343710D01*
X386509Y345075D01*
X385736Y346233D01*
X384578Y347007D01*
X383212Y347278D01*
X363712D01*
X362347Y347007D01*
X362034Y346798D01*
X356210D01*
X354454Y346449D01*
X352966Y345454D01*
X347605Y340094D01*
X346663Y340885D01*
X347500Y342906D01*
Y343409D01*
X358970Y354879D01*
X360144Y354393D01*
Y353410D01*
X360415Y352044D01*
X361189Y350886D01*
X362347Y350113D01*
X363712Y349841D01*
X383212D01*
X384578Y350113D01*
X384891Y350322D01*
X393910D01*
X395666Y350671D01*
X397154Y351665D01*
X401744Y356256D01*
X402739Y357744D01*
X403088Y359500D01*
Y380989D01*
X403171Y381039D01*
X404441Y380319D01*
Y368500D01*
X404441Y367860D01*
X404500Y367564D01*
Y367263D01*
X404750Y366007D01*
X404865Y365729D01*
X404924Y365433D01*
X405414Y364250D01*
X405581Y364000D01*
X405696Y363722D01*
X406408Y362657D01*
X406621Y362444D01*
X406788Y362193D01*
X407622Y361359D01*
X407711Y361300D01*
X407776Y361216D01*
X408204Y360970D01*
X408615Y360696D01*
X408719Y360676D01*
X408812Y360622D01*
X409301Y360560D01*
X409785Y360463D01*
X409890Y360484D01*
X409996Y360471D01*
X410472Y360600D01*
X410956Y360696D01*
X411044Y360756D01*
X411147Y360784D01*
X412235Y361325D01*
X412330Y361398D01*
X412443Y361438D01*
X412799Y361761D01*
X413180Y362054D01*
X413239Y362159D01*
X413328Y362239D01*
X413446Y362397D01*
X413479Y362467D01*
X413533Y362522D01*
X413649Y362801D01*
X414406D01*
X415712Y362541D01*
X435212D01*
X436518Y362801D01*
X438631D01*
X439400Y362191D01*
X439821Y361974D01*
X440223Y361724D01*
X440348Y361703D01*
X440461Y361645D01*
X440933Y361606D01*
X441400Y361529D01*
X441524Y361558D01*
X441651Y361547D01*
X442102Y361692D01*
X442563Y361799D01*
X443110Y362046D01*
X443555Y362366D01*
X444011Y362670D01*
X444039Y362712D01*
X444080Y362741D01*
X444370Y363207D01*
X444674Y363663D01*
X445326Y365235D01*
X445559Y366406D01*
X445559Y367500D01*
Y372715D01*
X445559Y380353D01*
X448777D01*
X450539Y380585D01*
X452181Y381265D01*
X453591Y382347D01*
X454673Y383757D01*
X455354Y385399D01*
X455586Y387161D01*
Y389661D01*
X445527D01*
Y393161D01*
X455586D01*
Y395661D01*
X455354Y397423D01*
X454673Y399065D01*
X453591Y400475D01*
X452181Y401557D01*
X450539Y402237D01*
X448777Y402469D01*
X445559D01*
Y405500D01*
X445559Y405500D01*
Y405503D01*
X445551Y405540D01*
X445558Y405576D01*
X445530Y406747D01*
X445472Y407006D01*
Y407271D01*
X445096Y409159D01*
X444981Y409438D01*
X444922Y409733D01*
X444131Y411644D01*
X443964Y411895D01*
X443848Y412173D01*
X442699Y413893D01*
X442486Y414106D01*
X442319Y414356D01*
X440856Y415819D01*
X440606Y415986D01*
X440393Y416199D01*
X438673Y417348D01*
X438395Y417463D01*
X438144Y417631D01*
X436233Y418422D01*
X435938Y418481D01*
X435659Y418596D01*
X433631Y419000D01*
X433330D01*
X433034Y419059D01*
X432000Y419059D01*
X418000Y419059D01*
X417999Y419058D01*
X416966D01*
X416670Y419000D01*
X416369D01*
X414340Y418596D01*
X414062Y418481D01*
X413767Y418422D01*
X411856Y417631D01*
X411605Y417463D01*
X411327Y417348D01*
X409607Y416199D01*
X409394Y415986D01*
X409144Y415819D01*
X407681Y414356D01*
X407514Y414105D01*
X407301Y413893D01*
X407191Y413728D01*
X405835Y413985D01*
X404994Y415244D01*
X403506Y416239D01*
X401750Y416588D01*
X395750D01*
X393994Y416239D01*
X392506Y415244D01*
X391511Y413756D01*
X391162Y412000D01*
Y407000D01*
X391511Y405244D01*
X392506Y403756D01*
X393994Y402761D01*
X394037Y402753D01*
Y395797D01*
X393744Y395739D01*
X392256Y394744D01*
X391261Y393256D01*
X390912Y391500D01*
Y386500D01*
X391261Y384744D01*
X392256Y383256D01*
X393744Y382261D01*
X393912Y382228D01*
Y361401D01*
X392009Y359498D01*
X384891D01*
X384578Y359707D01*
X383212Y359978D01*
X365729D01*
X365243Y361152D01*
X366632Y362541D01*
X383212D01*
X384578Y362813D01*
X385736Y363586D01*
X386509Y364744D01*
X386781Y366110D01*
Y369110D01*
X386509Y370475D01*
X386088Y371106D01*
Y382228D01*
X386256Y382261D01*
X387744Y383256D01*
X388739Y384744D01*
X389088Y386500D01*
Y391500D01*
X388739Y393256D01*
X387744Y394744D01*
X386256Y395739D01*
X384500Y396088D01*
X378500D01*
X376744Y395739D01*
X375256Y394744D01*
X374261Y393256D01*
X373912Y391500D01*
Y386500D01*
X374261Y384744D01*
X375256Y383256D01*
X376744Y382261D01*
X376912Y382228D01*
Y372678D01*
X363712D01*
X362347Y372407D01*
X361189Y371633D01*
X360415Y370475D01*
X360144Y369110D01*
Y369030D01*
X340408Y349294D01*
X338885Y348663D01*
X337337Y347116D01*
X336500Y345094D01*
Y344989D01*
X333756Y342244D01*
X332761Y340756D01*
X332412Y339000D01*
Y289287D01*
X332168Y289239D01*
X330680Y288244D01*
X329858Y287015D01*
X328588Y287255D01*
Y309011D01*
X329000Y310005D01*
Y311995D01*
X328239Y313832D01*
X326832Y315239D01*
X324995Y316000D01*
X323005D01*
X321168Y315239D01*
X319761Y313832D01*
X319000Y311995D01*
Y310005D01*
X319412Y309011D01*
Y206190D01*
X319337Y206115D01*
X318500Y204094D01*
Y203989D01*
X310974Y196463D01*
X300933D01*
X300244Y197494D01*
X298756Y198489D01*
X298588Y198522D01*
Y205192D01*
X298756Y205226D01*
X300245Y206220D01*
X301239Y207709D01*
X301589Y209465D01*
Y214465D01*
X301239Y216220D01*
X300245Y217709D01*
X298756Y218704D01*
X298588Y218737D01*
Y225478D01*
X298756Y225511D01*
X300244Y226506D01*
X301239Y227994D01*
X301588Y229750D01*
Y234750D01*
X301239Y236506D01*
X300244Y237994D01*
X298756Y238989D01*
X298463Y239047D01*
Y246003D01*
X298506Y246011D01*
X299994Y247006D01*
X300989Y248494D01*
X301338Y250250D01*
Y255250D01*
X300989Y257006D01*
X299994Y258494D01*
X298506Y259489D01*
X296750Y259838D01*
X290750D01*
X290059Y260406D01*
Y264623D01*
X291115Y265328D01*
X291488Y265174D01*
X293250Y264942D01*
X294750D01*
Y276000D01*
Y287058D01*
X293250D01*
X291488Y286826D01*
X291284Y286742D01*
X290612Y286961D01*
X289873Y287532D01*
X289826Y287767D01*
X289369Y288870D01*
X288706Y289862D01*
X287862Y290706D01*
X286870Y291369D01*
X285767Y291826D01*
X285767Y291826D01*
X285767Y291826D01*
X284597Y292059D01*
X284000Y292059D01*
X263000Y292059D01*
X263000Y292059D01*
X262403D01*
X261233Y291826D01*
X261024Y291740D01*
X260305Y292816D01*
X282244Y314756D01*
X283239Y316244D01*
X283588Y318000D01*
Y395011D01*
X284000Y396005D01*
Y397995D01*
X283239Y399832D01*
X281832Y401239D01*
X279995Y402000D01*
X278005D01*
X276168Y401239D01*
X274761Y399832D01*
X274000Y397995D01*
Y396005D01*
X274412Y395011D01*
Y319900D01*
X236600Y282088D01*
X235337D01*
X235196Y282799D01*
X234035Y284535D01*
X232299Y285696D01*
X230250Y286103D01*
X221750D01*
X219702Y285696D01*
X217965Y284535D01*
X216805Y282799D01*
X216397Y280750D01*
Y274250D01*
X216805Y272202D01*
X217965Y270465D01*
X219702Y269305D01*
X221750Y268897D01*
X230250D01*
X232299Y269305D01*
X234035Y270465D01*
X235196Y272202D01*
X235337Y272912D01*
X238500D01*
X240256Y273261D01*
X241745Y274256D01*
X256184Y288695D01*
X257260Y287976D01*
X257174Y287767D01*
X256941Y286597D01*
Y245000D01*
X256941Y245000D01*
X256941Y244602D01*
X256941Y244602D01*
X256941Y244602D01*
X257071Y243947D01*
X257174Y243432D01*
X257174Y243432D01*
X257174Y243431D01*
X257479Y242696D01*
X258142Y241704D01*
X258704Y241141D01*
X259697Y240478D01*
X260432Y240174D01*
X261602Y239941D01*
X262000Y239941D01*
X271383D01*
X271768Y238671D01*
X270756Y237994D01*
X269983Y236838D01*
X250650D01*
X239500Y247989D01*
Y248094D01*
X238663Y250115D01*
X238431Y250347D01*
Y254157D01*
X238082Y255912D01*
X237087Y257401D01*
X234244Y260244D01*
X232756Y261239D01*
X231000Y261588D01*
X216900D01*
X207588Y270900D01*
Y272483D01*
X208744Y273256D01*
X209739Y274744D01*
X210088Y276500D01*
Y282500D01*
X209739Y284256D01*
X208744Y285745D01*
X207256Y286739D01*
X205500Y287088D01*
X200500D01*
X199416Y288000D01*
X200489Y288903D01*
X200521Y288912D01*
X205500D01*
X207256Y289261D01*
X208744Y290256D01*
X209739Y291744D01*
X209772Y291912D01*
X216663D01*
X216805Y291201D01*
X217965Y289465D01*
X219702Y288305D01*
X221750Y287897D01*
X230250D01*
X232299Y288305D01*
X234035Y289465D01*
X235196Y291201D01*
X235603Y293250D01*
Y299750D01*
X235196Y301798D01*
X234035Y303535D01*
X232299Y304695D01*
X230250Y305103D01*
X221750D01*
X219702Y304695D01*
X217965Y303535D01*
X216805Y301798D01*
X216663Y301088D01*
X209772D01*
X209739Y301256D01*
X208744Y302744D01*
X207588Y303517D01*
Y317000D01*
X207239Y318756D01*
X206244Y320244D01*
X200651Y325837D01*
X200239Y326832D01*
X198832Y328239D01*
X197838Y328651D01*
X190852Y335637D01*
X191396Y336346D01*
X192076Y337988D01*
X192308Y339750D01*
Y341250D01*
X170192D01*
Y339750D01*
X170309Y338858D01*
X169300Y337588D01*
X165175D01*
X164496Y338858D01*
X164547Y338934D01*
X164818Y340300D01*
Y343300D01*
X164547Y344665D01*
X163773Y345823D01*
X162616Y346597D01*
X161250Y346868D01*
X145170D01*
X143781Y348258D01*
X144267Y349431D01*
X161250D01*
X162616Y349703D01*
X163773Y350476D01*
X164547Y351634D01*
X164818Y353000D01*
Y356000D01*
X165591Y356941D01*
X170192D01*
X170732Y357049D01*
X172055Y356702D01*
X173215Y354965D01*
X174695Y353976D01*
X174763Y353015D01*
X174661Y352588D01*
X173596Y352146D01*
X172186Y351064D01*
X171104Y349654D01*
X170424Y348012D01*
X170192Y346250D01*
Y344750D01*
X192308D01*
Y346250D01*
X192076Y348012D01*
X191396Y349654D01*
X190314Y351064D01*
X188904Y352146D01*
X187838Y352588D01*
X187737Y353015D01*
X187805Y353976D01*
X189285Y354965D01*
X190445Y356702D01*
X191767Y357049D01*
X192308Y356941D01*
X195342D01*
X195886Y357049D01*
X197205Y356688D01*
X198365Y354951D01*
X199845Y353962D01*
X199913Y353001D01*
X199811Y352573D01*
X198746Y352132D01*
X197336Y351050D01*
X196254Y349640D01*
X195574Y347998D01*
X195342Y346236D01*
Y344736D01*
X217458D01*
Y346236D01*
X217226Y347998D01*
X216546Y349640D01*
X215464Y351050D01*
X214054Y352132D01*
X212988Y352573D01*
X212887Y353001D01*
X212955Y353962D01*
X214435Y354951D01*
X215595Y356688D01*
X216915Y357049D01*
X217458Y356941D01*
X230000D01*
X230050Y356951D01*
X230100Y356943D01*
X231279Y356982D01*
X231524Y357039D01*
X231776D01*
X233514Y357384D01*
X233792Y357500D01*
X234087Y357558D01*
X235907Y358312D01*
X236158Y358479D01*
X236436Y358595D01*
X238074Y359689D01*
X238287Y359902D01*
X238537Y360070D01*
X239930Y361462D01*
X240098Y361713D01*
X240311Y361926D01*
X241405Y363564D01*
X241520Y363842D01*
X241688Y364093D01*
X242442Y365913D01*
X242500Y366208D01*
X242616Y366486D01*
X243000Y368418D01*
Y368720D01*
X243059Y369015D01*
X243059Y370000D01*
X243059Y380000D01*
X243059Y380000D01*
Y380003D01*
X243048Y380058D01*
X243057Y380114D01*
X243013Y381316D01*
X242956Y381555D01*
Y381801D01*
X242616Y383513D01*
X242500Y383792D01*
X242442Y384087D01*
X241688Y385907D01*
X241520Y386158D01*
X241405Y386436D01*
X240311Y388074D01*
X240098Y388287D01*
X239930Y388537D01*
X238538Y389930D01*
X238287Y390098D01*
X238074Y390311D01*
X236436Y391405D01*
X236158Y391521D01*
X235907Y391688D01*
X234087Y392442D01*
X233792Y392500D01*
X233514Y392616D01*
X231582Y393000D01*
X231280D01*
X230985Y393059D01*
X230000D01*
X164818Y393059D01*
Y394100D01*
X164547Y395466D01*
X163773Y396623D01*
X162616Y397397D01*
X161250Y397668D01*
X142250D01*
X140884Y397397D01*
X140858Y397379D01*
X139588Y398058D01*
Y399841D01*
X140858Y400520D01*
X140884Y400503D01*
X142250Y400231D01*
X161250D01*
X162616Y400503D01*
X163773Y401277D01*
X164547Y402434D01*
X164818Y403800D01*
Y406800D01*
X164547Y408166D01*
X163773Y409323D01*
X162616Y410097D01*
X161250Y410368D01*
X142250D01*
X140884Y410097D01*
X140858Y410079D01*
X139588Y410758D01*
Y412541D01*
X140858Y413220D01*
X140884Y413203D01*
X142250Y412931D01*
X161250D01*
X162616Y413203D01*
X163773Y413977D01*
X164547Y415134D01*
X164818Y416500D01*
Y419500D01*
X164547Y420866D01*
X163773Y422023D01*
X162616Y422797D01*
X161250Y423068D01*
X156338D01*
Y439250D01*
X155989Y441006D01*
X154994Y442494D01*
X140750Y456738D01*
X139262Y457733D01*
X137506Y458082D01*
D02*
G37*
G36*
X72000Y417058D02*
X70500D01*
Y407750D01*
X78808D01*
Y410250D01*
X78576Y412012D01*
X77896Y413654D01*
X76814Y415064D01*
X75404Y416146D01*
X73762Y416826D01*
X72000Y417058D01*
D02*
G37*
G36*
X78808Y404250D02*
X70500D01*
Y394942D01*
X72000D01*
X73762Y395174D01*
X75404Y395854D01*
X76814Y396936D01*
X77896Y398346D01*
X78576Y399988D01*
X78808Y401750D01*
Y404250D01*
D02*
G37*
G36*
X53000Y440853D02*
X46500D01*
X44452Y440445D01*
X42715Y439285D01*
X41555Y437548D01*
X41147Y435500D01*
Y427000D01*
X41555Y424952D01*
X42715Y423215D01*
X44142Y422261D01*
Y414989D01*
X42715Y414035D01*
X41555Y412298D01*
X41147Y410250D01*
Y409608D01*
X29929D01*
X27783Y409181D01*
X25964Y407965D01*
X22507Y404508D01*
X22232Y404097D01*
X22035Y403965D01*
X16035Y397965D01*
X14819Y396146D01*
X14392Y394000D01*
Y378000D01*
X14819Y375854D01*
X16035Y374035D01*
X17854Y372819D01*
X20000Y372392D01*
X22146Y372819D01*
X23965Y374035D01*
X25181Y375854D01*
X25608Y378000D01*
Y391677D01*
X29965Y396035D01*
X30240Y396446D01*
X30437Y396578D01*
X32252Y398392D01*
X42429D01*
X42715Y397965D01*
X44452Y396805D01*
X46500Y396397D01*
X53000D01*
X55048Y396805D01*
X56785Y397965D01*
X57774Y399445D01*
X58736Y399513D01*
X59163Y399411D01*
X59604Y398346D01*
X60686Y396936D01*
X62096Y395854D01*
X63738Y395174D01*
X65500Y394942D01*
X67000D01*
Y406000D01*
Y417058D01*
X65500D01*
X63738Y416826D01*
X62096Y416146D01*
X60686Y415064D01*
X59604Y413654D01*
X59163Y412589D01*
X58736Y412487D01*
X57774Y412555D01*
X56785Y414035D01*
X55358Y414989D01*
Y422261D01*
X56785Y423215D01*
X57945Y424952D01*
X58353Y427000D01*
Y435500D01*
X57945Y437548D01*
X56785Y439285D01*
X55048Y440445D01*
X53000Y440853D01*
D02*
G37*
G36*
X471750Y388603D02*
X465250D01*
X463202Y388195D01*
X461465Y387035D01*
X460305Y385298D01*
X459897Y383250D01*
Y374750D01*
X460305Y372702D01*
X461465Y370965D01*
X463202Y369805D01*
X463412Y369763D01*
Y363436D01*
X462201Y363195D01*
X460465Y362035D01*
X459305Y360299D01*
X459055Y359043D01*
X437571D01*
X436578Y359707D01*
X435212Y359978D01*
X415712D01*
X414347Y359707D01*
X413189Y358933D01*
X412415Y357775D01*
X412144Y356410D01*
Y353410D01*
X412415Y352044D01*
X413189Y350886D01*
X414347Y350113D01*
X415712Y349841D01*
X435212D01*
X435341Y349867D01*
X458897D01*
Y349750D01*
X459305Y347702D01*
X460465Y345965D01*
X462201Y344805D01*
X464250Y344397D01*
X470750D01*
X472798Y344805D01*
X474535Y345965D01*
X475695Y347702D01*
X476103Y349750D01*
Y358250D01*
X475695Y360299D01*
X474535Y362035D01*
X472798Y363195D01*
X472588Y363237D01*
Y369564D01*
X473798Y369805D01*
X475535Y370965D01*
X476695Y372702D01*
X477103Y374750D01*
Y383250D01*
X476695Y385298D01*
X475535Y387035D01*
X473798Y388195D01*
X471750Y388603D01*
D02*
G37*
G36*
X812250Y395103D02*
X803750D01*
X801701Y394695D01*
X799965Y393535D01*
X798804Y391798D01*
X798397Y389750D01*
Y383250D01*
X798804Y381202D01*
X799965Y379465D01*
X801701Y378305D01*
X803412Y377964D01*
Y359114D01*
X799682Y355384D01*
X799251Y355500D01*
X796749D01*
X794333Y354853D01*
X792167Y353602D01*
X790398Y351833D01*
X789147Y349667D01*
X788500Y347251D01*
Y344749D01*
X789147Y342333D01*
X790398Y340167D01*
X792167Y338398D01*
X794333Y337147D01*
X796749Y336500D01*
X799251D01*
X801667Y337147D01*
X803833Y338398D01*
X805602Y340167D01*
X806853Y342333D01*
X807500Y344749D01*
Y347251D01*
X806871Y349596D01*
X811244Y353969D01*
X812239Y355458D01*
X812588Y357213D01*
Y377964D01*
X814298Y378305D01*
X816035Y379465D01*
X817195Y381202D01*
X817603Y383250D01*
Y389750D01*
X817195Y391798D01*
X816035Y393535D01*
X814298Y394695D01*
X812250Y395103D01*
D02*
G37*
G36*
X614250Y400103D02*
X605750D01*
X603701Y399695D01*
X601965Y398535D01*
X600804Y396798D01*
X600397Y394750D01*
Y388250D01*
X600804Y386201D01*
X601965Y384465D01*
X603701Y383304D01*
X605612Y382924D01*
Y379406D01*
X604407Y379167D01*
X602505Y377896D01*
X601234Y375994D01*
X600788Y373750D01*
Y356250D01*
X601234Y354007D01*
X602505Y352105D01*
X604407Y350834D01*
X606650Y350388D01*
X614150D01*
X616394Y350834D01*
X618296Y352105D01*
X619567Y354007D01*
X620013Y356250D01*
Y373750D01*
X619567Y375994D01*
X618296Y377896D01*
X616394Y379167D01*
X614788Y379486D01*
Y383004D01*
X616298Y383304D01*
X618035Y384465D01*
X619195Y386201D01*
X619603Y388250D01*
Y394750D01*
X619195Y396798D01*
X618035Y398535D01*
X616298Y399695D01*
X614250Y400103D01*
D02*
G37*
G36*
X732322Y356040D02*
X732270D01*
Y347270D01*
X741040D01*
Y347322D01*
X740356Y349875D01*
X739034Y352165D01*
X737165Y354034D01*
X734875Y355356D01*
X732322Y356040D01*
D02*
G37*
G36*
X729730D02*
X729678D01*
X727125Y355356D01*
X724835Y354034D01*
X722966Y352165D01*
X721644Y349875D01*
X720960Y347322D01*
Y347270D01*
X729730D01*
Y356040D01*
D02*
G37*
G36*
X741040Y344730D02*
X732270D01*
Y335960D01*
X732322D01*
X734875Y336644D01*
X737165Y337966D01*
X739034Y339835D01*
X740356Y342125D01*
X741040Y344678D01*
Y344730D01*
D02*
G37*
G36*
X729730D02*
X720960D01*
Y344678D01*
X721644Y342125D01*
X722966Y339835D01*
X724835Y337966D01*
X727125Y336644D01*
X729678Y335960D01*
X729730D01*
Y344730D01*
D02*
G37*
G36*
X217458Y341236D02*
X208150D01*
Y332928D01*
X210650D01*
X212412Y333159D01*
X214054Y333840D01*
X215464Y334922D01*
X216546Y336332D01*
X217226Y337974D01*
X217458Y339736D01*
Y341236D01*
D02*
G37*
G36*
X204650D02*
X195342D01*
Y339736D01*
X195574Y337974D01*
X196254Y336332D01*
X197336Y334922D01*
X198746Y333840D01*
X200388Y333159D01*
X202150Y332928D01*
X204650D01*
Y341236D01*
D02*
G37*
G36*
X81558Y340250D02*
X72250D01*
Y331942D01*
X74750D01*
X76512Y332174D01*
X78154Y332854D01*
X79564Y333936D01*
X80646Y335346D01*
X81326Y336988D01*
X81558Y338750D01*
Y340250D01*
D02*
G37*
G36*
X68750D02*
X59442D01*
Y338750D01*
X59674Y336988D01*
X60354Y335346D01*
X61436Y333936D01*
X62846Y332854D01*
X64488Y332174D01*
X66250Y331942D01*
X68750D01*
Y340250D01*
D02*
G37*
G36*
X56308D02*
X47000D01*
Y331942D01*
X49500D01*
X51262Y332174D01*
X52904Y332854D01*
X54314Y333936D01*
X55396Y335346D01*
X56076Y336988D01*
X56308Y338750D01*
Y340250D01*
D02*
G37*
G36*
X43500D02*
X34192D01*
Y338750D01*
X34424Y336988D01*
X35104Y335346D01*
X36186Y333936D01*
X37596Y332854D01*
X39238Y332174D01*
X41000Y331942D01*
X43500D01*
Y340250D01*
D02*
G37*
G36*
X489750Y363603D02*
X483250D01*
X481202Y363195D01*
X479465Y362035D01*
X478305Y360299D01*
X477897Y358250D01*
Y349750D01*
X478305Y347702D01*
X479465Y345965D01*
X481162Y344831D01*
Y334103D01*
X480750D01*
X478702Y333695D01*
X476965Y332535D01*
X475805Y330799D01*
X475763Y330588D01*
X457901D01*
X443244Y345244D01*
X441756Y346239D01*
X440000Y346588D01*
X437204D01*
X436578Y347007D01*
X435212Y347278D01*
X415712D01*
X414347Y347007D01*
X413189Y346233D01*
X412415Y345075D01*
X412144Y343710D01*
Y340710D01*
X412415Y339344D01*
X413189Y338186D01*
X414347Y337413D01*
X415712Y337141D01*
X435212D01*
X436573Y337412D01*
X438100D01*
X440240Y335271D01*
X439754Y334098D01*
X436890D01*
X436578Y334307D01*
X435212Y334578D01*
X415712D01*
X414347Y334307D01*
X413189Y333533D01*
X412415Y332375D01*
X412144Y331010D01*
Y328010D01*
X412415Y326644D01*
X413189Y325486D01*
X414347Y324713D01*
X415712Y324441D01*
X435212D01*
X436578Y324713D01*
X436890Y324922D01*
X439590D01*
X447412Y317099D01*
Y290436D01*
X446202Y290196D01*
X444465Y289035D01*
X443305Y287299D01*
X442997Y285752D01*
X436003D01*
X435695Y287298D01*
X434535Y289035D01*
X432798Y290195D01*
X430750Y290603D01*
X424250D01*
X422201Y290195D01*
X420465Y289035D01*
X419305Y287298D01*
X418897Y285250D01*
Y276750D01*
X419305Y274701D01*
X420465Y272965D01*
X422201Y271805D01*
X424250Y271397D01*
X430750D01*
X432798Y271805D01*
X434535Y272965D01*
X435695Y274701D01*
X436035Y276412D01*
X442965D01*
X443305Y274702D01*
X444465Y272965D01*
X446202Y271805D01*
X447162Y271614D01*
Y254385D01*
X447000Y253995D01*
Y252005D01*
X447412Y251011D01*
Y228190D01*
X447337Y228116D01*
X446500Y226094D01*
Y223906D01*
X447337Y221885D01*
X447412Y221810D01*
Y201833D01*
X446965Y201535D01*
X445805Y199798D01*
X445397Y197750D01*
Y191250D01*
X445805Y189202D01*
X446965Y187465D01*
X448702Y186305D01*
X450750Y185897D01*
X459250D01*
X461299Y186305D01*
X463035Y187465D01*
X464196Y189202D01*
X464603Y191250D01*
Y197750D01*
X464196Y199798D01*
X463035Y201535D01*
X461299Y202695D01*
X459250Y203103D01*
X456588D01*
Y221810D01*
X456663Y221885D01*
X457500Y223906D01*
Y226094D01*
X456663Y228116D01*
X456588Y228190D01*
Y251011D01*
X457000Y252005D01*
Y253995D01*
X456338Y255592D01*
Y271713D01*
X456798Y271805D01*
X458535Y272965D01*
X459524Y274445D01*
X460485Y274514D01*
X460913Y274412D01*
X461354Y273346D01*
X462436Y271936D01*
X463846Y270854D01*
X465488Y270174D01*
X467250Y269942D01*
X468750D01*
Y281000D01*
Y292059D01*
X467250D01*
X465488Y291826D01*
X463846Y291146D01*
X462436Y290064D01*
X461354Y288654D01*
X460913Y287589D01*
X460485Y287487D01*
X459524Y287555D01*
X458535Y289035D01*
X456798Y290196D01*
X456588Y290237D01*
Y319000D01*
X456361Y320142D01*
X457146Y321314D01*
X457305Y321412D01*
X475564D01*
X475805Y320202D01*
X476965Y318465D01*
X478445Y317476D01*
X478513Y316515D01*
X478412Y316087D01*
X477346Y315646D01*
X475936Y314564D01*
X474854Y313154D01*
X474174Y311512D01*
X473942Y309750D01*
Y308250D01*
X485000D01*
X496058D01*
Y309750D01*
X495826Y311512D01*
X495146Y313154D01*
X494064Y314564D01*
X492654Y315646D01*
X491589Y316087D01*
X491487Y316515D01*
X491555Y317476D01*
X493035Y318465D01*
X494196Y320202D01*
X494603Y322250D01*
Y328750D01*
X494196Y330799D01*
X493035Y332535D01*
X491298Y333695D01*
X490338Y333886D01*
Y344514D01*
X491799Y344805D01*
X493535Y345965D01*
X494695Y347702D01*
X495103Y349750D01*
Y358250D01*
X494695Y360299D01*
X493535Y362035D01*
X491799Y363195D01*
X489750Y363603D01*
D02*
G37*
G36*
X356250Y317058D02*
X354750D01*
X352988Y316826D01*
X351346Y316146D01*
X349936Y315064D01*
X348854Y313654D01*
X348174Y312012D01*
X347942Y310250D01*
Y307750D01*
X356250D01*
Y317058D01*
D02*
G37*
G36*
X105750Y314058D02*
X104250D01*
X102488Y313826D01*
X100846Y313146D01*
X99436Y312064D01*
X98354Y310654D01*
X97674Y309012D01*
X97442Y307250D01*
Y304750D01*
X105750D01*
Y314058D01*
D02*
G37*
G36*
X496058Y304750D02*
X486750D01*
Y296442D01*
X489250D01*
X491012Y296674D01*
X492654Y297354D01*
X494064Y298436D01*
X495146Y299846D01*
X495826Y301488D01*
X496058Y303250D01*
Y304750D01*
D02*
G37*
G36*
X483250D02*
X473942D01*
Y303250D01*
X474174Y301488D01*
X474854Y299846D01*
X475936Y298436D01*
X477346Y297354D01*
X478988Y296674D01*
X480750Y296442D01*
X483250D01*
Y304750D01*
D02*
G37*
G36*
X356250Y304250D02*
X347942D01*
Y301750D01*
X348174Y299988D01*
X348854Y298346D01*
X349936Y296936D01*
X351346Y295854D01*
X352988Y295174D01*
X354750Y294942D01*
X356250D01*
Y304250D01*
D02*
G37*
G36*
X105750Y301250D02*
X97442D01*
Y298750D01*
X97674Y296988D01*
X98354Y295346D01*
X99436Y293936D01*
X100846Y292854D01*
X102488Y292174D01*
X104250Y291942D01*
X105750D01*
Y301250D01*
D02*
G37*
G36*
X473750Y292059D02*
X472250D01*
Y282750D01*
X480558D01*
Y285250D01*
X480326Y287012D01*
X479646Y288654D01*
X478564Y290064D01*
X477154Y291146D01*
X475512Y291826D01*
X473750Y292059D01*
D02*
G37*
G36*
X705250Y394103D02*
X696750D01*
X694701Y393695D01*
X692965Y392535D01*
X691805Y390798D01*
X691397Y388750D01*
Y382250D01*
X691805Y380201D01*
X692965Y378465D01*
X694662Y377331D01*
Y297051D01*
X693833Y296829D01*
X691667Y295579D01*
X689898Y293810D01*
X688904Y292088D01*
X636500D01*
X634744Y291739D01*
X633256Y290745D01*
X607756Y265244D01*
X606761Y263756D01*
X606412Y262000D01*
Y254565D01*
X604407Y254167D01*
X602505Y252896D01*
X601234Y250994D01*
X600788Y248750D01*
Y231250D01*
X601234Y229007D01*
X602505Y227105D01*
X604407Y225834D01*
X605812Y225554D01*
Y220000D01*
X606161Y218244D01*
X607156Y216756D01*
X612000Y211912D01*
Y211406D01*
X612837Y209385D01*
X614384Y207838D01*
X615662Y207308D01*
X619412Y203558D01*
Y181436D01*
X618201Y181195D01*
X616465Y180035D01*
X615304Y178298D01*
X614897Y176250D01*
Y167750D01*
X615304Y165702D01*
X616465Y163965D01*
X618201Y162805D01*
X618412Y162763D01*
Y146989D01*
X618000Y145995D01*
Y144005D01*
X618412Y143011D01*
Y92924D01*
X617142Y92245D01*
X616616Y92597D01*
X615250Y92868D01*
X595750D01*
X594384Y92597D01*
X593227Y91823D01*
X592453Y90666D01*
X592182Y89300D01*
Y86300D01*
X592453Y84934D01*
X593227Y83777D01*
X594384Y83003D01*
X595750Y82731D01*
X600912D01*
Y80168D01*
X595750D01*
X594384Y79897D01*
X593227Y79123D01*
X592453Y77965D01*
X592182Y76600D01*
Y73600D01*
X592453Y72234D01*
X593227Y71076D01*
X594384Y70303D01*
X595750Y70031D01*
X615250D01*
X616616Y70303D01*
X616768Y70404D01*
X622107D01*
X625412Y67099D01*
Y45718D01*
X625761Y43962D01*
X626756Y42473D01*
X630581Y38648D01*
X629987Y37445D01*
X629317Y37534D01*
X627817D01*
Y28225D01*
X636125D01*
Y30725D01*
X636036Y31396D01*
X637239Y31990D01*
X640907Y28322D01*
Y21957D01*
X641315Y19909D01*
X642475Y18172D01*
X644212Y17012D01*
X646260Y16605D01*
X652760D01*
X654809Y17012D01*
X656545Y18172D01*
X657706Y19909D01*
X658113Y21957D01*
Y30457D01*
X657706Y32506D01*
X656545Y34242D01*
X654809Y35403D01*
X652760Y35810D01*
X646396D01*
X634588Y47618D01*
Y69000D01*
X634489Y69497D01*
X635569Y70578D01*
X635900Y70512D01*
X646072D01*
X646384Y70303D01*
X647750Y70031D01*
X667250D01*
X668616Y70303D01*
X669773Y71076D01*
X670547Y72234D01*
X670818Y73600D01*
Y76600D01*
X670547Y77965D01*
X669773Y79123D01*
X668616Y79897D01*
X667250Y80168D01*
X649976D01*
X649797Y80368D01*
X649704Y81461D01*
X649996Y82120D01*
X650181Y82378D01*
X650717Y82731D01*
X667250D01*
X668616Y83003D01*
X669773Y83777D01*
X670547Y84934D01*
X670818Y86300D01*
Y89300D01*
X670547Y90666D01*
X671172Y92016D01*
X671606Y92284D01*
X671867Y92526D01*
X672163Y92724D01*
X672300Y92929D01*
X672480Y93096D01*
X672628Y93420D01*
X672826Y93716D01*
X672874Y93958D01*
X672976Y94182D01*
X672989Y94538D01*
X673059Y94887D01*
Y99942D01*
X674334D01*
Y111000D01*
Y122058D01*
X673059D01*
Y142000D01*
X672826Y143170D01*
X672163Y144163D01*
X671171Y144826D01*
X670000Y145059D01*
X635000D01*
X633829Y144826D01*
X632837Y144163D01*
X632174Y143170D01*
X631941Y142000D01*
Y87207D01*
X630768Y86721D01*
X627588Y89901D01*
Y143011D01*
X628000Y144005D01*
Y145995D01*
X627588Y146989D01*
Y162564D01*
X628798Y162805D01*
X630535Y163965D01*
X631524Y165445D01*
X632485Y165513D01*
X632913Y165411D01*
X633354Y164346D01*
X634436Y162936D01*
X635846Y161854D01*
X637488Y161174D01*
X639250Y160942D01*
X640750D01*
Y172000D01*
Y183058D01*
X639250D01*
X637488Y182826D01*
X635846Y182146D01*
X634436Y181064D01*
X633354Y179654D01*
X632913Y178589D01*
X632485Y178487D01*
X631524Y178555D01*
X630535Y180035D01*
X628798Y181195D01*
X628588Y181237D01*
Y205459D01*
X628239Y207215D01*
X627244Y208703D01*
X623000Y212948D01*
Y213594D01*
X622163Y215616D01*
X620616Y217163D01*
X619098Y217792D01*
X614988Y221901D01*
Y225554D01*
X616394Y225834D01*
X618296Y227105D01*
X619567Y229007D01*
X620013Y231250D01*
Y235412D01*
X635100D01*
X697500Y173011D01*
Y172906D01*
X698338Y170885D01*
X699885Y169338D01*
X701906Y168500D01*
X702012D01*
X706412Y164100D01*
Y69436D01*
X705202Y69195D01*
X703465Y68035D01*
X702305Y66299D01*
X701897Y64250D01*
Y62590D01*
X701682Y62268D01*
X701399Y60849D01*
X701373Y60715D01*
X700394Y60811D01*
X700103Y61960D01*
Y64250D01*
X699695Y66299D01*
X698535Y68035D01*
X696798Y69195D01*
X694750Y69603D01*
X688250D01*
X686201Y69195D01*
X684465Y68035D01*
X683765Y66988D01*
X668928D01*
X668616Y67197D01*
X667250Y67468D01*
X647750D01*
X646384Y67197D01*
X645227Y66423D01*
X644453Y65265D01*
X644181Y63900D01*
Y60900D01*
X644453Y59534D01*
X645227Y58376D01*
X646384Y57603D01*
X647093Y57462D01*
Y56167D01*
X645799Y55910D01*
X644145Y54805D01*
X643040Y53151D01*
X642702Y51450D01*
X657500D01*
X672298D01*
X671960Y53151D01*
X670855Y54805D01*
X669201Y55910D01*
X668363Y56076D01*
X668250Y57394D01*
X669032Y57812D01*
X682897D01*
Y55750D01*
X683304Y53702D01*
X684465Y51965D01*
X685412Y51332D01*
Y34901D01*
X681307Y30796D01*
X677046D01*
X676706Y32506D01*
X675545Y34242D01*
X673809Y35403D01*
X671760Y35810D01*
X665260D01*
X663212Y35403D01*
X661475Y34242D01*
X660315Y32506D01*
X659908Y30457D01*
Y21957D01*
X660315Y19909D01*
X661475Y18172D01*
X663212Y17012D01*
X665260Y16605D01*
X671760D01*
X673809Y17012D01*
X675545Y18172D01*
X676706Y19909D01*
X677046Y21619D01*
X683207D01*
X684963Y21969D01*
X686452Y22963D01*
X693244Y29756D01*
X694239Y31244D01*
X694588Y33000D01*
Y50397D01*
X694750D01*
X696798Y50805D01*
X698535Y51965D01*
X699695Y53702D01*
X700103Y55750D01*
Y58386D01*
X700394Y59535D01*
X701373Y59631D01*
X701399Y59497D01*
X701682Y58078D01*
X701897Y57755D01*
Y55750D01*
X702305Y53702D01*
X703465Y51965D01*
X705202Y50805D01*
X707250Y50397D01*
X713750D01*
X715798Y50805D01*
X717535Y51965D01*
X718695Y53702D01*
X719103Y55750D01*
Y64250D01*
X718695Y66299D01*
X717535Y68035D01*
X715798Y69195D01*
X715588Y69237D01*
Y166000D01*
X715239Y167756D01*
X714244Y169245D01*
X708500Y174989D01*
Y175094D01*
X707663Y177116D01*
X706116Y178663D01*
X704094Y179500D01*
X703989D01*
X640245Y243244D01*
X638756Y244239D01*
X637000Y244588D01*
X620013D01*
Y248750D01*
X619567Y250994D01*
X618296Y252896D01*
X616394Y254167D01*
X615588Y254327D01*
Y260100D01*
X638401Y282912D01*
X689454D01*
X689898Y282144D01*
X691667Y280375D01*
X693833Y279124D01*
X696249Y278477D01*
X698751D01*
X701167Y279124D01*
X703333Y280375D01*
X705102Y282144D01*
X706352Y284310D01*
X707000Y286726D01*
Y289227D01*
X706352Y291644D01*
X705102Y293810D01*
X703838Y295074D01*
Y376897D01*
X705250D01*
X707298Y377304D01*
X709035Y378465D01*
X710195Y380201D01*
X710603Y382250D01*
Y388750D01*
X710195Y390798D01*
X709035Y392535D01*
X707298Y393695D01*
X705250Y394103D01*
D02*
G37*
G36*
X299750Y287058D02*
X298250D01*
Y277750D01*
X306558D01*
Y280250D01*
X306326Y282012D01*
X305646Y283654D01*
X304564Y285064D01*
X303154Y286146D01*
X301512Y286826D01*
X299750Y287058D01*
D02*
G37*
G36*
X480558Y279250D02*
X472250D01*
Y269942D01*
X473750D01*
X475512Y270174D01*
X477154Y270854D01*
X478564Y271936D01*
X479646Y273346D01*
X480326Y274988D01*
X480558Y276750D01*
Y279250D01*
D02*
G37*
G36*
X306558Y274250D02*
X298250D01*
Y264942D01*
X299750D01*
X301512Y265174D01*
X303154Y265854D01*
X304564Y266936D01*
X305646Y268346D01*
X306326Y269988D01*
X306558Y271750D01*
Y274250D01*
D02*
G37*
G36*
X388058Y260750D02*
X378750D01*
Y252442D01*
X381250D01*
X383012Y252674D01*
X384654Y253354D01*
X386064Y254436D01*
X387146Y255846D01*
X387826Y257488D01*
X388058Y259250D01*
Y260750D01*
D02*
G37*
G36*
X375250D02*
X365942D01*
Y259250D01*
X366174Y257488D01*
X366854Y255846D01*
X367936Y254436D01*
X369346Y253354D01*
X370988Y252674D01*
X372750Y252442D01*
X375250D01*
Y260750D01*
D02*
G37*
G36*
X133500Y259118D02*
X114500D01*
X113134Y258847D01*
X111976Y258073D01*
X111203Y256916D01*
X110931Y255550D01*
Y252550D01*
X111203Y251184D01*
X111976Y250027D01*
X113134Y249253D01*
X114500Y248981D01*
X133500D01*
X134866Y249253D01*
X136023Y250027D01*
X136797Y251184D01*
X137068Y252550D01*
Y255550D01*
X136797Y256916D01*
X136023Y258073D01*
X134866Y258847D01*
X133500Y259118D01*
D02*
G37*
G36*
X81500D02*
X62500D01*
X61134Y258847D01*
X59977Y258073D01*
X59203Y256916D01*
X58931Y255550D01*
Y252550D01*
X59203Y251184D01*
X59977Y250027D01*
X61134Y249253D01*
X62500Y248981D01*
X81500D01*
X82866Y249253D01*
X83178Y249462D01*
X94050D01*
X95391Y248120D01*
X95093Y246622D01*
X94226Y246263D01*
X82281D01*
X81500Y246418D01*
X62500D01*
X61134Y246147D01*
X59977Y245373D01*
X59203Y244216D01*
X58931Y242850D01*
Y239850D01*
X59203Y238484D01*
X59977Y237327D01*
X61134Y236553D01*
X62500Y236281D01*
X81500D01*
X82866Y236553D01*
X83665Y237087D01*
X95796D01*
X96006Y237000D01*
X97995D01*
X99832Y237761D01*
X101239Y239168D01*
X101622Y240093D01*
X101710Y240128D01*
X102912Y239889D01*
Y235500D01*
X103000Y235058D01*
Y234005D01*
X103761Y232168D01*
X105168Y230761D01*
X107006Y230000D01*
X108995D01*
X109706Y230295D01*
X109740Y230291D01*
X110931Y229427D01*
Y227150D01*
X111203Y225784D01*
X111976Y224627D01*
X113134Y223853D01*
X114500Y223581D01*
X133500D01*
X134866Y223853D01*
X136023Y224627D01*
X136797Y225784D01*
X137068Y227150D01*
Y230150D01*
X136797Y231516D01*
X136023Y232673D01*
X134866Y233447D01*
X133500Y233718D01*
X114500D01*
X113512Y234623D01*
X113512Y235377D01*
X114330Y236126D01*
X114572Y236281D01*
X133500D01*
X134866Y236553D01*
X136023Y237327D01*
X136797Y238484D01*
X137068Y239850D01*
Y242850D01*
X136797Y244216D01*
X136023Y245373D01*
X134866Y246147D01*
X133500Y246418D01*
X114500D01*
X113134Y246147D01*
X111976Y245373D01*
X111163D01*
X110716Y245773D01*
X99194Y257294D01*
X97706Y258289D01*
X95950Y258638D01*
X83178D01*
X82866Y258847D01*
X81500Y259118D01*
D02*
G37*
G36*
X805250Y288103D02*
X796750D01*
X794702Y287695D01*
X792965Y286535D01*
X791805Y284798D01*
X791397Y282750D01*
Y276250D01*
X791805Y274202D01*
X792965Y272465D01*
X794702Y271305D01*
X796412Y270964D01*
Y265900D01*
X765052Y234541D01*
X739321D01*
X738602Y235786D01*
X736833Y237555D01*
X734667Y238806D01*
X732251Y239453D01*
X729749D01*
X727333Y238806D01*
X725167Y237555D01*
X723398Y235786D01*
X722147Y233620D01*
X721500Y231204D01*
Y228702D01*
X722147Y226286D01*
X723398Y224120D01*
X725167Y222351D01*
X727333Y221100D01*
X729749Y220453D01*
X732251D01*
X734667Y221100D01*
X736833Y222351D01*
X738602Y224120D01*
X739321Y225365D01*
X766953D01*
X768709Y225714D01*
X770197Y226709D01*
X804244Y260756D01*
X805239Y262244D01*
X805588Y264000D01*
Y270964D01*
X807298Y271305D01*
X809035Y272465D01*
X810195Y274202D01*
X810603Y276250D01*
Y282750D01*
X810195Y284798D01*
X809035Y286535D01*
X807298Y287695D01*
X805250Y288103D01*
D02*
G37*
G36*
X799322Y239993D02*
X799270D01*
Y231223D01*
X808040D01*
Y231275D01*
X807356Y233828D01*
X806034Y236118D01*
X804165Y237987D01*
X801875Y239309D01*
X799322Y239993D01*
D02*
G37*
G36*
X796730D02*
X796678D01*
X794125Y239309D01*
X791835Y237987D01*
X789966Y236118D01*
X788644Y233828D01*
X787960Y231275D01*
Y231223D01*
X796730D01*
Y239993D01*
D02*
G37*
G36*
X808040Y228683D02*
X799270D01*
Y219913D01*
X799322D01*
X801875Y220597D01*
X804165Y221919D01*
X806034Y223788D01*
X807356Y226078D01*
X808040Y228631D01*
Y228683D01*
D02*
G37*
G36*
X796730D02*
X787960D01*
Y228631D01*
X788644Y226078D01*
X789966Y223788D01*
X791835Y221919D01*
X794125Y220597D01*
X796678Y219913D01*
X796730D01*
Y228683D01*
D02*
G37*
G36*
X133500Y221019D02*
X114500D01*
X113134Y220747D01*
X111976Y219973D01*
X111203Y218816D01*
X110931Y217450D01*
Y214450D01*
X111203Y213084D01*
X111976Y211927D01*
X113134Y211153D01*
X114500Y210881D01*
X133500D01*
X134866Y211153D01*
X136023Y211927D01*
X136797Y213084D01*
X137068Y214450D01*
Y217450D01*
X136797Y218816D01*
X136023Y219973D01*
X134866Y220747D01*
X133500Y221019D01*
D02*
G37*
G36*
X86548Y201500D02*
X73750D01*
Y196652D01*
X81500D01*
X83451Y197040D01*
X85105Y198145D01*
X86210Y199799D01*
X86548Y201500D01*
D02*
G37*
G36*
X70250D02*
X57452D01*
X57790Y199799D01*
X58895Y198145D01*
X60549Y197040D01*
X62500Y196652D01*
X70250D01*
Y201500D01*
D02*
G37*
G36*
X70000Y186556D02*
X63750D01*
Y178750D01*
X76556D01*
Y180000D01*
X76333Y181697D01*
X75678Y183278D01*
X74636Y184636D01*
X73278Y185678D01*
X71697Y186333D01*
X70000Y186556D01*
D02*
G37*
G36*
X60250D02*
X54000D01*
X52303Y186333D01*
X50722Y185678D01*
X49364Y184636D01*
X48322Y183278D01*
X47667Y181697D01*
X47444Y180000D01*
Y178750D01*
X60250D01*
Y186556D01*
D02*
G37*
G36*
X22580Y202600D02*
X19420D01*
X16368Y201782D01*
X13632Y200203D01*
X11397Y197968D01*
X9818Y195232D01*
X9000Y192180D01*
Y189020D01*
X9818Y185968D01*
X11397Y183232D01*
X13632Y180998D01*
X16368Y179418D01*
X19420Y178600D01*
X22580D01*
X25632Y179418D01*
X28368Y180998D01*
X30602Y183232D01*
X32182Y185968D01*
X33000Y189020D01*
Y192180D01*
X32182Y195232D01*
X30602Y197968D01*
X28368Y200203D01*
X25632Y201782D01*
X22580Y202600D01*
D02*
G37*
G36*
X645750Y183058D02*
X644250D01*
Y173750D01*
X652558D01*
Y176250D01*
X652326Y178012D01*
X651646Y179654D01*
X650564Y181064D01*
X649154Y182146D01*
X647512Y182826D01*
X645750Y183058D01*
D02*
G37*
G36*
X76556Y175250D02*
X63750D01*
Y167444D01*
X70000D01*
X71697Y167667D01*
X73278Y168322D01*
X74636Y169364D01*
X75678Y170722D01*
X76333Y172303D01*
X76556Y174000D01*
Y175250D01*
D02*
G37*
G36*
X60250D02*
X47444D01*
Y174000D01*
X47667Y172303D01*
X48322Y170722D01*
X49364Y169364D01*
X50722Y168322D01*
X52303Y167667D01*
X54000Y167444D01*
X60250D01*
Y175250D01*
D02*
G37*
G36*
X129500Y173565D02*
X118500D01*
X116542Y173307D01*
X114718Y172551D01*
X113151Y171349D01*
X111949Y169782D01*
X111193Y167958D01*
X110935Y166000D01*
Y162069D01*
X72000D01*
X70884Y161922D01*
X70000Y162098D01*
X54000D01*
X52049Y161710D01*
X50395Y160605D01*
X49290Y158951D01*
X48902Y157000D01*
Y151000D01*
X49290Y149049D01*
X50395Y147395D01*
X52049Y146290D01*
X54000Y145902D01*
X70000D01*
X70884Y146078D01*
X72000Y145931D01*
X110935D01*
Y143059D01*
X91000D01*
X74945Y143059D01*
X74845Y143039D01*
X74745Y143052D01*
X74263Y142923D01*
X73774Y142826D01*
X73690Y142769D01*
X73592Y142743D01*
X73196Y142440D01*
X72782Y142163D01*
X72725Y142078D01*
X72645Y142017D01*
X72396Y141585D01*
X72119Y141170D01*
X72099Y141071D01*
X72048Y140983D01*
X71617Y139713D01*
X71068Y139338D01*
X70281Y139042D01*
X70000Y139098D01*
X54000D01*
X53719Y139042D01*
X52932Y139337D01*
X52383Y139713D01*
X51952Y140983D01*
X51901Y141071D01*
X51881Y141170D01*
X51604Y141585D01*
X51355Y142017D01*
X51274Y142078D01*
X51218Y142163D01*
X50804Y142440D01*
X50408Y142743D01*
X50310Y142769D01*
X50226Y142826D01*
X49737Y142923D01*
X49255Y143052D01*
X49155Y143039D01*
X49055Y143059D01*
X41770Y143059D01*
X40569Y143933D01*
X40500Y144012D01*
Y144094D01*
X39663Y146115D01*
X38115Y147662D01*
X36094Y148500D01*
X33906D01*
X31885Y147662D01*
X30337Y146115D01*
X29500Y144094D01*
X29285Y143826D01*
X28230Y143059D01*
X28212D01*
X27917Y143000D01*
X27615Y143000D01*
X26070Y142693D01*
X25791Y142577D01*
X25496Y142519D01*
X24040Y141916D01*
X23790Y141748D01*
X23511Y141633D01*
X22201Y140757D01*
X21988Y140544D01*
X21737Y140377D01*
X20623Y139263D01*
X20456Y139012D01*
X20243Y138799D01*
X19367Y137489D01*
X19252Y137210D01*
X19084Y136960D01*
X18481Y135504D01*
X18422Y135208D01*
X18307Y134930D01*
X18089Y133830D01*
Y133638D01*
X18038Y133452D01*
X17949Y132219D01*
X17963Y132109D01*
X17941Y132000D01*
Y101000D01*
X17941Y99914D01*
X18174Y98743D01*
X19005Y96736D01*
X19005Y96736D01*
X19005Y96736D01*
X19339Y96237D01*
X19668Y95744D01*
X19668Y95744D01*
X19668Y95743D01*
X21205Y94207D01*
X21205Y94207D01*
X22197Y93544D01*
X24204Y92713D01*
X25375Y92480D01*
X26461Y92480D01*
X28606D01*
X28706Y92500D01*
X28807Y92487D01*
X29288Y92616D01*
X29777Y92713D01*
X29861Y92769D01*
X29959Y92795D01*
X30355Y93099D01*
X30724Y93346D01*
X30798Y93380D01*
X31162Y93436D01*
X31310Y93425D01*
X32260Y93196D01*
X32952Y91996D01*
X35001Y89948D01*
X37509Y88500D01*
X40307Y87750D01*
X43203D01*
X46000Y88500D01*
X48509Y89948D01*
X50557Y91996D01*
X51250Y93196D01*
X52200Y93425D01*
X52348Y93436D01*
X52711Y93380D01*
X52785Y93346D01*
X53155Y93099D01*
X53550Y92795D01*
X53648Y92769D01*
X53732Y92713D01*
X54221Y92616D01*
X54703Y92487D01*
X54803Y92500D01*
X54903Y92480D01*
X71393D01*
X72563Y92713D01*
X72819Y92884D01*
X73271Y93054D01*
X74266Y91566D01*
X75754Y90571D01*
X77510Y90222D01*
X81636D01*
X82262Y88952D01*
X81639Y88139D01*
X80732Y85949D01*
X80422Y83600D01*
Y72350D01*
X95000D01*
X109578D01*
Y82882D01*
X126941D01*
X127735Y82882D01*
X128030Y82941D01*
X128331Y82941D01*
X129888Y83251D01*
X130167Y83366D01*
X130462Y83425D01*
X131929Y84032D01*
X132179Y84200D01*
X132458Y84315D01*
X133778Y85197D01*
X133991Y85410D01*
X134241Y85577D01*
X135364Y86700D01*
X135531Y86950D01*
X135744Y87163D01*
X136626Y88483D01*
X136741Y88762D01*
X136909Y89012D01*
X137516Y90479D01*
X137575Y90774D01*
X137690Y91053D01*
X137961Y92415D01*
X138059Y92480D01*
X147259Y92480D01*
X147587Y92545D01*
X147921Y92552D01*
X148167Y92661D01*
X148430Y92713D01*
X148708Y92898D01*
X149013Y93033D01*
X149199Y93227D01*
X149422Y93376D01*
X149608Y93654D01*
X149839Y93895D01*
X150123Y94341D01*
X151737Y94760D01*
X151839Y94722D01*
X152546Y94249D01*
X154862Y93789D01*
X162737D01*
X165054Y94249D01*
X166795Y95413D01*
X167018Y95562D01*
X168433Y95422D01*
X168846Y95161D01*
X169239Y94871D01*
X169832Y94592D01*
X170193Y94502D01*
X170537Y94360D01*
X170767D01*
X170990Y94304D01*
X171358Y94360D01*
X171731D01*
X171943Y94448D01*
X172170Y94482D01*
X172489Y94674D01*
X172833Y94816D01*
X173269Y95108D01*
X173482Y95321D01*
X173732Y95488D01*
X174228Y95984D01*
X175079Y96778D01*
X175919Y95975D01*
X177215Y94678D01*
X179809Y93180D01*
X182450Y92473D01*
Y103780D01*
Y115087D01*
X179809Y114380D01*
X179158Y114004D01*
X178058Y114639D01*
X178058Y132000D01*
X178058Y132788D01*
X178000Y133083D01*
X178000Y133385D01*
X177692Y134930D01*
X177577Y135209D01*
X177518Y135504D01*
X176915Y136960D01*
X176748Y137210D01*
X176633Y137489D01*
X175757Y138799D01*
X175544Y139012D01*
X175377Y139263D01*
X174263Y140377D01*
X174012Y140544D01*
X173799Y140757D01*
X172489Y141633D01*
X172210Y141748D01*
X171960Y141916D01*
X170504Y142519D01*
X170208Y142577D01*
X169930Y142693D01*
X168787Y142920D01*
X168588D01*
X168396Y142972D01*
X167206Y143052D01*
X167103Y143038D01*
X167001Y143059D01*
X167000D01*
X167000Y143059D01*
X137065D01*
Y145931D01*
X155766D01*
X157452Y144804D01*
X159500Y144397D01*
X166000D01*
X168048Y144804D01*
X169785Y145965D01*
X170945Y147701D01*
X171353Y149750D01*
Y158250D01*
X170945Y160298D01*
X169785Y162035D01*
X168048Y163195D01*
X166000Y163603D01*
X159500D01*
X157452Y163195D01*
X155766Y162069D01*
X137065D01*
Y166000D01*
X136807Y167958D01*
X136051Y169782D01*
X134849Y171349D01*
X133282Y172551D01*
X131458Y173307D01*
X129500Y173565D01*
D02*
G37*
G36*
X652558Y170250D02*
X644250D01*
Y160942D01*
X645750D01*
X647512Y161174D01*
X649154Y161854D01*
X650564Y162936D01*
X651646Y164346D01*
X652326Y165988D01*
X652558Y167750D01*
Y170250D01*
D02*
G37*
G36*
X227000Y164808D02*
X225500D01*
Y155500D01*
X233808D01*
Y158000D01*
X233576Y159762D01*
X232896Y161404D01*
X231814Y162814D01*
X230404Y163896D01*
X228762Y164576D01*
X227000Y164808D01*
D02*
G37*
G36*
X863750Y152778D02*
Y147750D01*
X868778D01*
X868523Y148702D01*
X867601Y150298D01*
X866298Y151601D01*
X864702Y152523D01*
X863750Y152778D01*
D02*
G37*
G36*
X860250D02*
X859298Y152523D01*
X857702Y151601D01*
X856399Y150298D01*
X855477Y148702D01*
X855222Y147750D01*
X860250D01*
Y152778D01*
D02*
G37*
G36*
X233808Y152000D02*
X225500D01*
Y142692D01*
X227000D01*
X228762Y142924D01*
X230404Y143604D01*
X231814Y144686D01*
X232896Y146096D01*
X233576Y147738D01*
X233808Y149500D01*
Y152000D01*
D02*
G37*
G36*
X868778Y144250D02*
X863750D01*
Y139222D01*
X864702Y139477D01*
X866298Y140399D01*
X867601Y141702D01*
X868523Y143298D01*
X868778Y144250D01*
D02*
G37*
G36*
X860250D02*
X855222D01*
X855477Y143298D01*
X856399Y141702D01*
X857702Y140399D01*
X859298Y139477D01*
X860250Y139222D01*
Y144250D01*
D02*
G37*
G36*
X679334Y122058D02*
X677834D01*
Y112750D01*
X686142D01*
Y115250D01*
X685910Y117012D01*
X685230Y118654D01*
X684148Y120064D01*
X682738Y121146D01*
X681096Y121826D01*
X679334Y122058D01*
D02*
G37*
G36*
X443750Y119058D02*
X442250D01*
X440488Y118827D01*
X438846Y118146D01*
X437436Y117064D01*
X436354Y115654D01*
X435674Y114012D01*
X435442Y112250D01*
Y109750D01*
X443750D01*
Y119058D01*
D02*
G37*
G36*
X262150Y115087D02*
Y105530D01*
X271707D01*
X271000Y108171D01*
X269502Y110764D01*
X267384Y112882D01*
X264790Y114380D01*
X262150Y115087D01*
D02*
G37*
G36*
X258650D02*
X256009Y114380D01*
X253416Y112882D01*
X251298Y110764D01*
X249800Y108171D01*
X249093Y105530D01*
X258650D01*
Y115087D01*
D02*
G37*
G36*
X185950D02*
Y105530D01*
X195507D01*
X194800Y108171D01*
X193302Y110764D01*
X191184Y112882D01*
X188591Y114380D01*
X185950Y115087D01*
D02*
G37*
G36*
X686142Y109250D02*
X677834D01*
Y99942D01*
X679334D01*
X681096Y100174D01*
X682738Y100854D01*
X684148Y101936D01*
X685230Y103346D01*
X685910Y104988D01*
X686142Y106750D01*
Y109250D01*
D02*
G37*
G36*
X443750Y106250D02*
X435442D01*
Y103750D01*
X435674Y101988D01*
X436354Y100346D01*
X437436Y98936D01*
X438846Y97854D01*
X440488Y97174D01*
X442250Y96942D01*
X443750D01*
Y106250D01*
D02*
G37*
G36*
X287100Y113655D02*
X284500D01*
X281988Y112982D01*
X279736Y111682D01*
X277898Y109843D01*
X276598Y107592D01*
X275925Y105080D01*
Y102480D01*
X276598Y99968D01*
X277898Y97717D01*
X279736Y95878D01*
X281988Y94578D01*
X284500Y93905D01*
X287100D01*
X289611Y94578D01*
X291863Y95878D01*
X293702Y97717D01*
X295002Y99968D01*
X295675Y102480D01*
Y105080D01*
X295002Y107592D01*
X293702Y109843D01*
X291863Y111682D01*
X289611Y112982D01*
X287100Y113655D01*
D02*
G37*
G36*
X236300D02*
X233700D01*
X231188Y112982D01*
X228937Y111682D01*
X227098Y109843D01*
X225798Y107592D01*
X225125Y105080D01*
Y102480D01*
X225798Y99968D01*
X227098Y97717D01*
X228937Y95878D01*
X231188Y94578D01*
X233700Y93905D01*
X236300D01*
X238811Y94578D01*
X241063Y95878D01*
X242902Y97717D01*
X244202Y99968D01*
X244875Y102480D01*
Y105080D01*
X244202Y107592D01*
X242902Y109843D01*
X241063Y111682D01*
X238811Y112982D01*
X236300Y113655D01*
D02*
G37*
G36*
X271707Y102030D02*
X262150D01*
Y92473D01*
X264790Y93180D01*
X267384Y94678D01*
X269502Y96796D01*
X271000Y99389D01*
X271707Y102030D01*
D02*
G37*
G36*
X258650D02*
X249093D01*
X249800Y99389D01*
X251298Y96796D01*
X253416Y94678D01*
X256009Y93180D01*
X258650Y92473D01*
Y102030D01*
D02*
G37*
G36*
X195507D02*
X185950D01*
Y92473D01*
X188591Y93180D01*
X191184Y94678D01*
X193302Y96796D01*
X194800Y99389D01*
X195507Y102030D01*
D02*
G37*
G36*
X511995Y118000D02*
X510005D01*
X508168Y117239D01*
X506761Y115832D01*
X506000Y113995D01*
Y112005D01*
X506357Y111143D01*
Y105434D01*
X505593Y105282D01*
X503856Y104122D01*
X502696Y102385D01*
X502288Y100337D01*
Y91837D01*
X502696Y89788D01*
X503856Y88052D01*
X505593Y86891D01*
X507641Y86484D01*
X514141D01*
X516190Y86891D01*
X517926Y88052D01*
X519086Y89788D01*
X519427Y91499D01*
X525355D01*
X525695Y89788D01*
X526856Y88052D01*
X528592Y86891D01*
X530641Y86484D01*
X537141D01*
X539189Y86891D01*
X540926Y88052D01*
X542086Y89788D01*
X542494Y91837D01*
Y100337D01*
X542086Y102385D01*
X540926Y104122D01*
X539189Y105282D01*
X537141Y105690D01*
X530641D01*
X528592Y105282D01*
X526856Y104122D01*
X525695Y102385D01*
X525355Y100675D01*
X519427D01*
X519086Y102385D01*
X517926Y104122D01*
X516190Y105282D01*
X515534Y105413D01*
Y110880D01*
X516000Y112005D01*
Y113995D01*
X515239Y115832D01*
X513832Y117239D01*
X511995Y118000D01*
D02*
G37*
G36*
X43505Y85222D02*
Y74500D01*
X54227D01*
X53403Y77575D01*
X51757Y80425D01*
X49430Y82752D01*
X46579Y84398D01*
X43505Y85222D01*
D02*
G37*
G36*
X40005D02*
X36930Y84398D01*
X34079Y82752D01*
X31752Y80425D01*
X30106Y77575D01*
X29283Y74500D01*
X40005D01*
Y85222D01*
D02*
G37*
G36*
X832750Y297477D02*
X830249D01*
X827833Y296829D01*
X825666Y295579D01*
X823898Y293810D01*
X822647Y291644D01*
X822000Y289227D01*
Y286726D01*
X822647Y284310D01*
X823898Y282144D01*
X825666Y280375D01*
X826911Y279656D01*
Y121400D01*
X793011Y87500D01*
X792906D01*
X790884Y86663D01*
X789337Y85115D01*
X788500Y83094D01*
Y82989D01*
X773100Y67588D01*
X753989D01*
X752995Y68000D01*
X751005D01*
X749168Y67239D01*
X747761Y65832D01*
X747000Y63995D01*
Y62005D01*
X747761Y60168D01*
X749168Y58761D01*
X751005Y58000D01*
X752995D01*
X753989Y58412D01*
X775000D01*
X776756Y58761D01*
X778244Y59756D01*
X794989Y76500D01*
X795094D01*
X797115Y77337D01*
X798663Y78885D01*
X799500Y80906D01*
Y81011D01*
X834744Y116255D01*
X835739Y117744D01*
X836088Y119499D01*
Y279656D01*
X837333Y280375D01*
X839101Y282144D01*
X840352Y284310D01*
X841000Y286726D01*
Y289227D01*
X840352Y291644D01*
X839101Y293810D01*
X837333Y295579D01*
X835166Y296829D01*
X832750Y297477D01*
D02*
G37*
G36*
X54227Y71000D02*
X43505D01*
Y60278D01*
X46579Y61102D01*
X49430Y62748D01*
X51757Y65075D01*
X53403Y67925D01*
X54227Y71000D01*
D02*
G37*
G36*
X40005D02*
X29283D01*
X30106Y67925D01*
X31752Y65075D01*
X34079Y62748D01*
X36930Y61102D01*
X40005Y60278D01*
Y71000D01*
D02*
G37*
G36*
X438994Y77000D02*
X437005D01*
X435168Y76239D01*
X433761Y74832D01*
X433000Y72995D01*
Y71005D01*
X433412Y70011D01*
Y61000D01*
X433761Y59244D01*
X434756Y57756D01*
X439606Y52906D01*
X441094Y51911D01*
X442850Y51562D01*
X447072D01*
X447384Y51353D01*
X448750Y51081D01*
X468250D01*
X469616Y51353D01*
X470773Y52127D01*
X471547Y53284D01*
X471819Y54650D01*
Y57650D01*
X471547Y59016D01*
X470773Y60173D01*
X469616Y60947D01*
X468250Y61219D01*
X448750D01*
X447384Y60947D01*
X447072Y60738D01*
X444751D01*
X442588Y62901D01*
Y70011D01*
X443000Y71005D01*
Y72995D01*
X442239Y74832D01*
X440832Y76239D01*
X438994Y77000D01*
D02*
G37*
G36*
X109578Y68850D02*
X96750D01*
Y48522D01*
X100500D01*
X102850Y48832D01*
X105039Y49738D01*
X106919Y51181D01*
X108362Y53061D01*
X109269Y55251D01*
X109578Y57600D01*
Y68850D01*
D02*
G37*
G36*
X93250D02*
X80422D01*
Y57600D01*
X80732Y55251D01*
X81639Y53061D01*
X83081Y51181D01*
X84961Y49738D01*
X87151Y48832D01*
X89500Y48522D01*
X93250D01*
Y68850D01*
D02*
G37*
G36*
X494891Y55440D02*
X488391D01*
X486343Y55032D01*
X484606Y53872D01*
X483446Y52136D01*
X483038Y50087D01*
Y48038D01*
X469928D01*
X469616Y48247D01*
X468250Y48519D01*
X448750D01*
X447384Y48247D01*
X446227Y47473D01*
X445453Y46316D01*
X445182Y44950D01*
Y41950D01*
X445453Y40584D01*
X446227Y39427D01*
X447384Y38653D01*
X448750Y38381D01*
X468250D01*
X469616Y38653D01*
X469928Y38862D01*
X483898D01*
X484606Y37802D01*
X486343Y36642D01*
X486912Y36528D01*
Y29337D01*
X486202Y29195D01*
X484465Y28035D01*
X483305Y26298D01*
X482897Y24250D01*
Y15750D01*
X483305Y13702D01*
X484465Y11965D01*
X486202Y10805D01*
X488250Y10397D01*
X494750D01*
X496799Y10805D01*
X498535Y11965D01*
X499524Y13445D01*
X500487Y13513D01*
X500913Y13411D01*
X501354Y12346D01*
X502436Y10936D01*
X503846Y9854D01*
X505488Y9174D01*
X507250Y8942D01*
X508750D01*
Y20000D01*
Y31058D01*
X507250D01*
X505488Y30826D01*
X503846Y30146D01*
X502436Y29064D01*
X501354Y27654D01*
X500913Y26589D01*
X500487Y26487D01*
X499524Y26555D01*
X498535Y28035D01*
X496799Y29195D01*
X496088Y29337D01*
Y36472D01*
X496939Y36642D01*
X498676Y37802D01*
X499836Y39539D01*
X500244Y41587D01*
Y50087D01*
X499836Y52136D01*
X498676Y53872D01*
X496939Y55032D01*
X494891Y55440D01*
D02*
G37*
G36*
X672298Y47950D02*
X659250D01*
Y43102D01*
X667250D01*
X669201Y43490D01*
X670855Y44595D01*
X671960Y46249D01*
X672298Y47950D01*
D02*
G37*
G36*
X655750D02*
X642702D01*
X643040Y46249D01*
X644145Y44595D01*
X645799Y43490D01*
X647750Y43102D01*
X655750D01*
Y47950D01*
D02*
G37*
G36*
X513750Y31058D02*
X512250D01*
Y21750D01*
X520558D01*
Y24250D01*
X520326Y26012D01*
X519646Y27654D01*
X518564Y29064D01*
X517154Y30146D01*
X515512Y30826D01*
X513750Y31058D01*
D02*
G37*
G36*
X226750Y22778D02*
Y17750D01*
X231778D01*
X231523Y18702D01*
X230601Y20298D01*
X229298Y21601D01*
X227702Y22523D01*
X226750Y22778D01*
D02*
G37*
G36*
X223250D02*
X222298Y22523D01*
X220702Y21601D01*
X219398Y20298D01*
X218477Y18702D01*
X218222Y17750D01*
X223250D01*
Y22778D01*
D02*
G37*
G36*
X636125Y24725D02*
X627817D01*
Y15417D01*
X629317D01*
X631079Y15649D01*
X632721Y16329D01*
X634131Y17411D01*
X635213Y18821D01*
X635893Y20463D01*
X636125Y22225D01*
Y24725D01*
D02*
G37*
G36*
X871723Y47500D02*
X868276D01*
X864895Y46828D01*
X861711Y45508D01*
X858844Y43593D01*
X856407Y41156D01*
X854492Y38289D01*
X853172Y35105D01*
X852500Y31724D01*
Y28277D01*
X853172Y24896D01*
X854492Y21711D01*
X856407Y18844D01*
X858844Y16407D01*
X861711Y14492D01*
X864895Y13173D01*
X868276Y12500D01*
X871723D01*
X875104Y13173D01*
X878289Y14492D01*
X881155Y16407D01*
X883593Y18844D01*
X885508Y21711D01*
X886827Y24896D01*
X887500Y28277D01*
Y31724D01*
X886827Y35105D01*
X885508Y38289D01*
X883593Y41156D01*
X881155Y43593D01*
X878289Y45508D01*
X875104Y46828D01*
X871723Y47500D01*
D02*
G37*
G36*
X31724D02*
X28276D01*
X24896Y46828D01*
X21711Y45508D01*
X18844Y43593D01*
X16407Y41156D01*
X14492Y38289D01*
X13173Y35105D01*
X12500Y31724D01*
Y28277D01*
X13173Y24896D01*
X14492Y21711D01*
X16407Y18844D01*
X18844Y16407D01*
X21711Y14492D01*
X24896Y13173D01*
X28276Y12500D01*
X31724D01*
X35105Y13173D01*
X38289Y14492D01*
X41156Y16407D01*
X43593Y18844D01*
X45508Y21711D01*
X46828Y24896D01*
X47500Y28277D01*
Y31724D01*
X46828Y35105D01*
X45508Y38289D01*
X43593Y41156D01*
X41156Y43593D01*
X38289Y45508D01*
X35105Y46828D01*
X31724Y47500D01*
D02*
G37*
G36*
X231778Y14250D02*
X226750D01*
Y9222D01*
X227702Y9477D01*
X229298Y10398D01*
X230601Y11702D01*
X231523Y13298D01*
X231778Y14250D01*
D02*
G37*
G36*
X223250D02*
X218222D01*
X218477Y13298D01*
X219398Y11702D01*
X220702Y10398D01*
X222298Y9477D01*
X223250Y9222D01*
Y14250D01*
D02*
G37*
G36*
X520558Y18250D02*
X512250D01*
Y8942D01*
X513750D01*
X515512Y9174D01*
X517154Y9854D01*
X518564Y10936D01*
X519646Y12346D01*
X520326Y13988D01*
X520558Y15750D01*
Y18250D01*
D02*
G37*
%LPD*%
G36*
X282520Y682158D02*
X283344Y681290D01*
X283357Y681254D01*
X283222Y680750D01*
X290000D01*
Y679000D01*
X291750D01*
Y672222D01*
X292702Y672477D01*
X294298Y673398D01*
X295601Y674702D01*
X296523Y676298D01*
X297000Y678078D01*
Y678175D01*
X298270Y678701D01*
X298321Y678650D01*
X299634Y676684D01*
X300539Y674500D01*
X301000Y672182D01*
X301000Y671000D01*
X301000D01*
X301000Y671000D01*
Y651497D01*
X300500Y651058D01*
X299000D01*
Y640000D01*
Y628942D01*
X299730D01*
X301000Y627879D01*
Y623069D01*
X298900D01*
X297534Y622797D01*
X296376Y622023D01*
X295603Y620866D01*
X295462Y620157D01*
X294167D01*
X293910Y621451D01*
X292805Y623105D01*
X291151Y624210D01*
X289450Y624548D01*
Y609750D01*
X287700D01*
Y608000D01*
X281102D01*
Y606175D01*
X279928Y605689D01*
X275588Y610029D01*
Y628260D01*
X275239Y630016D01*
X274244Y631505D01*
X273000Y632749D01*
Y669000D01*
Y670379D01*
X273538Y673083D01*
X274593Y675631D01*
X276125Y677924D01*
X278075Y679874D01*
X280368Y681406D01*
X282363Y682233D01*
X282520Y682158D01*
D02*
G37*
G36*
X492621Y615091D02*
X495287Y613986D01*
X496362Y613268D01*
X496555Y612298D01*
X496147Y610250D01*
Y601750D01*
X496555Y599701D01*
X497715Y597965D01*
X499451Y596805D01*
X499655Y596764D01*
Y595757D01*
X500004Y594002D01*
X500998Y592513D01*
X502294Y591218D01*
X502230Y590791D01*
X502193Y590720D01*
X500811Y589877D01*
X499950Y590048D01*
Y575250D01*
X498200D01*
Y573500D01*
X491602D01*
Y565500D01*
X491928Y563858D01*
X491221Y562588D01*
X484035D01*
X483695Y564299D01*
X482535Y566035D01*
X480798Y567195D01*
X478750Y567603D01*
X472250D01*
X470201Y567195D01*
X468465Y566035D01*
X468074Y565449D01*
X467607D01*
X466718Y565707D01*
X466044Y567334D01*
X465646Y569334D01*
Y574182D01*
X466916Y574613D01*
X467436Y573936D01*
X468846Y572854D01*
X470488Y572174D01*
X472250Y571942D01*
X473750D01*
Y583000D01*
Y594058D01*
X472250D01*
X470488Y593826D01*
X468846Y593146D01*
X467436Y592064D01*
X466916Y591387D01*
X465646Y591818D01*
Y603026D01*
X466185Y605732D01*
X467240Y608281D01*
X468773Y610575D01*
X470724Y612527D01*
X473019Y614059D01*
X475568Y615115D01*
X478274Y615654D01*
X479654Y615654D01*
X479654Y615654D01*
X489789D01*
X492621Y615091D01*
D02*
G37*
G36*
X341189Y566642D02*
X340436Y566064D01*
X339354Y564654D01*
X338674Y563012D01*
X338442Y561250D01*
Y558750D01*
X348500D01*
Y557000D01*
X350250D01*
Y545942D01*
X351750D01*
X353512Y546174D01*
X355154Y546854D01*
X356564Y547936D01*
X357646Y549346D01*
X358087Y550411D01*
X358515Y550513D01*
X359476Y550445D01*
X359758Y550023D01*
X359758Y517804D01*
X359758Y501242D01*
X359758Y501242D01*
X359801Y500354D01*
X360148Y498611D01*
X360828Y496969D01*
X361815Y495492D01*
X363072Y494236D01*
X364549Y493248D01*
X366191Y492569D01*
X367933Y492222D01*
X368822Y492178D01*
X486709Y492178D01*
Y488584D01*
X487116Y486536D01*
X488277Y484799D01*
X490013Y483639D01*
X492062Y483232D01*
X498562D01*
X500610Y483639D01*
X502347Y484799D01*
X503507Y486536D01*
X503915Y488584D01*
Y490936D01*
X504517Y491200D01*
X505709Y490345D01*
Y488584D01*
X506117Y486536D01*
X507277Y484799D01*
X509014Y483639D01*
X511062Y483232D01*
X517562D01*
X519610Y483639D01*
X521347Y484799D01*
X522507Y486536D01*
X522915Y488584D01*
Y492631D01*
X524337Y493220D01*
X525775Y494181D01*
X526997Y495403D01*
X527958Y496841D01*
X528620Y498439D01*
X528957Y500135D01*
X529000Y501000D01*
X529000Y511014D01*
X530270Y511279D01*
X531195Y509895D01*
X532849Y508790D01*
X534550Y508452D01*
Y523250D01*
Y538048D01*
X532849Y537710D01*
X531195Y536605D01*
X530797Y536009D01*
X529672Y536611D01*
X530138Y537737D01*
X531232Y539375D01*
X532519Y540662D01*
X550214D01*
X550554Y538951D01*
X551715Y537215D01*
X553451Y536054D01*
X554239Y535898D01*
Y529245D01*
X553607Y529119D01*
X551870Y527959D01*
X550710Y526222D01*
X550302Y524174D01*
Y515674D01*
X550710Y513625D01*
X551870Y511889D01*
X553607Y510729D01*
X555655Y510321D01*
X557416D01*
Y499304D01*
X556146Y498934D01*
X555302Y500035D01*
X553891Y501117D01*
X552249Y501797D01*
X550487Y502029D01*
X548987D01*
Y490971D01*
Y479912D01*
X550487D01*
X552249Y480144D01*
X553891Y480825D01*
X555302Y481906D01*
X556146Y483007D01*
X557416Y482637D01*
X557416Y476416D01*
X557415Y476416D01*
X557416Y476413D01*
X557416Y476409D01*
X557416Y476404D01*
X557416Y476400D01*
X557416Y476397D01*
X557416Y468416D01*
X557416Y468416D01*
X557416Y467390D01*
X557015Y465378D01*
X556230Y463482D01*
X555090Y461776D01*
X553640Y460325D01*
X551934Y459185D01*
X550038Y458400D01*
X548026Y458000D01*
X547000Y458000D01*
X389847Y458000D01*
X389249Y459120D01*
X389660Y459736D01*
X390068Y461785D01*
Y470285D01*
X389660Y472333D01*
X388500Y474070D01*
X386763Y475230D01*
X384715Y475638D01*
X378215D01*
X376166Y475230D01*
X374430Y474070D01*
X373270Y472333D01*
X372862Y470285D01*
Y461785D01*
X373270Y459736D01*
X373681Y459120D01*
X373083Y458000D01*
X370847D01*
X370249Y459120D01*
X370661Y459736D01*
X371068Y461785D01*
Y470285D01*
X370661Y472333D01*
X369500Y474070D01*
X367764Y475230D01*
X365715Y475638D01*
X359215D01*
X357167Y475230D01*
X355430Y474070D01*
X354270Y472333D01*
X354171Y471834D01*
X349953D01*
X347807Y471407D01*
X345988Y470192D01*
X338198Y462402D01*
X336982Y460582D01*
X336555Y458436D01*
X336982Y456290D01*
X338198Y454471D01*
X340017Y453255D01*
X340023Y453254D01*
X340622Y452134D01*
X340390Y451575D01*
X340044Y449834D01*
X340000Y448947D01*
Y374000D01*
X340000Y374000D01*
X340000Y373212D01*
X339692Y371666D01*
X339089Y370210D01*
X338214Y368900D01*
X337099Y367786D01*
X335789Y366910D01*
X334333Y366307D01*
X332788Y366000D01*
X321000D01*
X320999Y366000D01*
X320113Y366000D01*
X318374Y366346D01*
X316737Y367024D01*
X315263Y368009D01*
X314009Y369263D01*
X313024Y370737D01*
X312346Y372375D01*
X312000Y374114D01*
X312000Y375000D01*
Y515000D01*
Y520751D01*
X313270Y520876D01*
X313305Y520701D01*
X314465Y518965D01*
X316202Y517804D01*
X318250Y517397D01*
X324750D01*
X326799Y517804D01*
X328535Y518965D01*
X329696Y520701D01*
X330036Y522412D01*
X335867D01*
X336049Y522290D01*
X338000Y521902D01*
X339951Y522290D01*
X341605Y523395D01*
X342710Y525049D01*
X343098Y527000D01*
X342710Y528951D01*
X341605Y530605D01*
X339951Y531710D01*
X338000Y532098D01*
X336049Y531710D01*
X335867Y531588D01*
X330036D01*
X329696Y533298D01*
X328535Y535035D01*
X326799Y536195D01*
X324750Y536603D01*
X318250D01*
X316202Y536195D01*
X314465Y535035D01*
X313305Y533298D01*
X313270Y533124D01*
X312000Y533249D01*
X312000Y544432D01*
X314600D01*
X315965Y544703D01*
X317123Y545477D01*
X317897Y546634D01*
X318038Y547343D01*
X319333D01*
X319590Y546049D01*
X320695Y544395D01*
X322349Y543290D01*
X324050Y542952D01*
Y557750D01*
X325800D01*
Y559500D01*
X332398D01*
Y567500D01*
X332736Y567912D01*
X340757D01*
X341189Y566642D01*
D02*
G37*
%LPC*%
G36*
X288250Y677250D02*
X283222D01*
X283477Y676298D01*
X284398Y674702D01*
X285702Y673398D01*
X287298Y672477D01*
X288250Y672222D01*
Y677250D01*
D02*
G37*
G36*
X295500Y651058D02*
X294000D01*
X292238Y650826D01*
X290596Y650146D01*
X289186Y649064D01*
X288104Y647654D01*
X287424Y646012D01*
X287192Y644250D01*
Y641750D01*
X295500D01*
Y651058D01*
D02*
G37*
G36*
Y638250D02*
X287192D01*
Y635750D01*
X287424Y633988D01*
X288104Y632346D01*
X289186Y630936D01*
X290596Y629854D01*
X292238Y629174D01*
X294000Y628942D01*
X295500D01*
Y638250D01*
D02*
G37*
G36*
X285950Y624548D02*
X284249Y624210D01*
X282595Y623105D01*
X281490Y621451D01*
X281102Y619500D01*
Y611500D01*
X285950D01*
Y624548D01*
D02*
G37*
G36*
X478750Y594058D02*
X477250D01*
Y584750D01*
X485558D01*
Y587250D01*
X485326Y589012D01*
X484646Y590654D01*
X483564Y592064D01*
X482154Y593146D01*
X480512Y593826D01*
X478750Y594058D01*
D02*
G37*
G36*
X496450Y590048D02*
X494749Y589710D01*
X493095Y588605D01*
X491990Y586951D01*
X491602Y585000D01*
Y577000D01*
X496450D01*
Y590048D01*
D02*
G37*
G36*
X485558Y581250D02*
X477250D01*
Y571942D01*
X478750D01*
X480512Y572174D01*
X482154Y572854D01*
X483564Y573936D01*
X484646Y575346D01*
X485326Y576988D01*
X485558Y578750D01*
Y581250D01*
D02*
G37*
G36*
X346750Y555250D02*
X338442D01*
Y552750D01*
X338674Y550988D01*
X339354Y549346D01*
X340436Y547936D01*
X341846Y546854D01*
X343488Y546174D01*
X345250Y545942D01*
X346750D01*
Y555250D01*
D02*
G37*
G36*
X332398Y556000D02*
X327550D01*
Y542952D01*
X329251Y543290D01*
X330905Y544395D01*
X332010Y546049D01*
X332398Y548000D01*
Y556000D01*
D02*
G37*
G36*
X538050Y538048D02*
Y525000D01*
X542898D01*
Y533000D01*
X542510Y534951D01*
X541405Y536605D01*
X539751Y537710D01*
X538050Y538048D01*
D02*
G37*
G36*
X542898Y521500D02*
X538050D01*
Y508452D01*
X539751Y508790D01*
X541405Y509895D01*
X542510Y511549D01*
X542898Y513500D01*
Y521500D01*
D02*
G37*
G36*
X545487Y502029D02*
X543987D01*
X542225Y501797D01*
X540583Y501117D01*
X539173Y500035D01*
X538091Y498625D01*
X537411Y496983D01*
X537179Y495221D01*
Y492721D01*
X545487D01*
Y502029D01*
D02*
G37*
G36*
Y489221D02*
X537179D01*
Y486721D01*
X537411Y484958D01*
X538091Y483316D01*
X539173Y481906D01*
X540583Y480825D01*
X542225Y480144D01*
X543987Y479912D01*
X545487D01*
Y489221D01*
D02*
G37*
%LPD*%
G36*
X435063Y415596D02*
X436973Y414805D01*
X438693Y413656D01*
X440156Y412193D01*
X441305Y410474D01*
X442096Y408563D01*
X442472Y406674D01*
X442500Y405503D01*
Y405500D01*
X442500Y405500D01*
X442500Y405500D01*
Y401014D01*
X442277D01*
X440229Y400606D01*
X438492Y399446D01*
X437503Y397966D01*
X436542Y397898D01*
X436115Y398000D01*
X435673Y399065D01*
X434591Y400475D01*
X433181Y401557D01*
X431539Y402237D01*
X429777Y402469D01*
X428277D01*
Y391411D01*
X426527D01*
D01*
X428277D01*
Y380353D01*
X429777D01*
X431539Y380585D01*
X433181Y381265D01*
X434591Y382347D01*
X435673Y383757D01*
X436115Y384823D01*
X436542Y384925D01*
X437503Y384856D01*
X438492Y383376D01*
X440229Y382216D01*
X442277Y381808D01*
X442500D01*
X442500Y372715D01*
Y367500D01*
X442500Y366406D01*
X441848Y364833D01*
X441302Y364586D01*
X440184Y365474D01*
X440261Y365860D01*
X425462D01*
X410664D01*
X410990Y364221D01*
X410873Y364063D01*
X409785Y363522D01*
X408951Y364356D01*
X408240Y365421D01*
X407750Y366604D01*
X407500Y367860D01*
X407500Y368500D01*
Y406534D01*
X407904Y408563D01*
X408695Y410473D01*
X409844Y412193D01*
X411307Y413656D01*
X413026Y414805D01*
X414937Y415596D01*
X416966Y416000D01*
X418000D01*
X418000Y416000D01*
X432000Y416000D01*
X433034Y416000D01*
X435063Y415596D01*
D02*
G37*
G36*
X86953Y389734D02*
X87727Y388577D01*
X88884Y387803D01*
X90250Y387531D01*
X94396D01*
Y384968D01*
X90250D01*
X88884Y384697D01*
X87727Y383923D01*
X86953Y382766D01*
X86681Y381400D01*
Y378400D01*
X86953Y377034D01*
X87727Y375877D01*
X88884Y375103D01*
X89593Y374962D01*
Y373667D01*
X88299Y373410D01*
X86645Y372305D01*
X85540Y370651D01*
X85202Y368950D01*
X99750D01*
Y365450D01*
X85202D01*
X85540Y363749D01*
X86645Y362095D01*
X88299Y360990D01*
X89593Y360733D01*
Y359438D01*
X88884Y359297D01*
X87727Y358523D01*
X86953Y357365D01*
X86681Y356000D01*
Y354283D01*
X81994D01*
X81146Y355553D01*
X81326Y355988D01*
X81558Y357750D01*
Y359250D01*
X59442D01*
Y357750D01*
X59674Y355988D01*
X59854Y355553D01*
X59005Y354283D01*
X56745D01*
X55896Y355553D01*
X56076Y355988D01*
X56308Y357750D01*
Y359250D01*
X34192D01*
Y357750D01*
X34424Y355988D01*
X34557Y355667D01*
X33585Y354695D01*
X32478Y355154D01*
X30870Y356762D01*
X30000Y358863D01*
Y380000D01*
X30000Y380000D01*
X30000Y380000D01*
X30038Y381174D01*
X30384Y382917D01*
X31138Y384737D01*
X32232Y386375D01*
X33625Y387767D01*
X35263Y388862D01*
X37083Y389616D01*
X39015Y390000D01*
X40000Y390000D01*
X86900Y390000D01*
X86953Y389734D01*
D02*
G37*
G36*
X230000Y390000D02*
X230985D01*
X232917Y389616D01*
X234737Y388862D01*
X236375Y387767D01*
X237767Y386375D01*
X238862Y384737D01*
X239616Y382917D01*
X239956Y381205D01*
X240000Y380003D01*
Y380000D01*
X240000D01*
X240000Y380000D01*
X240000Y370000D01*
X240000Y369015D01*
X239616Y367083D01*
X238862Y365263D01*
X237768Y363625D01*
X236375Y362232D01*
X234737Y361138D01*
X232917Y360384D01*
X231179Y360039D01*
X230000Y360000D01*
X230000Y360000D01*
X230000Y360000D01*
X217458D01*
Y360236D01*
X195342D01*
Y360000D01*
X192308D01*
Y360250D01*
X170192D01*
Y360000D01*
X164005D01*
X163620Y361270D01*
X164855Y362095D01*
X165960Y363749D01*
X166298Y365450D01*
X151750D01*
Y368950D01*
X166298D01*
X165960Y370651D01*
X164855Y372305D01*
X163201Y373410D01*
X161907Y373667D01*
Y374962D01*
X162616Y375103D01*
X163773Y375877D01*
X164547Y377034D01*
X164818Y378400D01*
Y381400D01*
X164547Y382766D01*
X163773Y383923D01*
X162616Y384697D01*
X161250Y384968D01*
X150000D01*
Y387531D01*
X161250D01*
X162616Y387803D01*
X163773Y388577D01*
X164547Y389734D01*
X164600Y390000D01*
X230000Y390000D01*
D02*
G37*
G36*
X393334Y336693D02*
X394789Y336090D01*
X396100Y335214D01*
X397214Y334100D01*
X398090Y332789D01*
X398693Y331334D01*
X398924Y330171D01*
X399000Y329001D01*
Y329000D01*
X399000D01*
X399000Y329000D01*
X399000Y292117D01*
X399000Y290900D01*
X398069Y288652D01*
X396348Y286931D01*
X395942Y286763D01*
X394162Y287500D01*
X391974D01*
X389953Y286663D01*
X389878Y286588D01*
X386237D01*
X386196Y286798D01*
X385035Y288535D01*
X383299Y289695D01*
X381250Y290103D01*
X372750D01*
X370702Y289695D01*
X368965Y288535D01*
X367805Y286798D01*
X366530Y286900D01*
X365538Y287563D01*
X364563Y288538D01*
X363797Y289684D01*
X363269Y290958D01*
X363000Y292311D01*
X363000Y293000D01*
Y296745D01*
X363298Y296805D01*
X365035Y297965D01*
X366024Y299445D01*
X366985Y299513D01*
X367413Y299412D01*
X367854Y298346D01*
X368936Y296936D01*
X370346Y295854D01*
X371988Y295174D01*
X373750Y294942D01*
X375250D01*
Y306000D01*
Y317058D01*
X373750D01*
X371988Y316826D01*
X370346Y316146D01*
X368936Y315064D01*
X367854Y313654D01*
X367413Y312589D01*
X366985Y312487D01*
X366024Y312555D01*
X365035Y314035D01*
X363298Y315195D01*
X363000Y315255D01*
Y321937D01*
X364270Y322912D01*
X371712D01*
Y329510D01*
X373462D01*
Y331260D01*
X388261D01*
X387922Y332961D01*
X386817Y334615D01*
X385163Y335720D01*
X385112Y335730D01*
X385237Y337000D01*
X391000Y337000D01*
X391788Y337000D01*
X393334Y336693D01*
D02*
G37*
G36*
X156000Y320000D02*
X156689Y320000D01*
X158042Y319731D01*
X159316Y319203D01*
X160462Y318437D01*
X161437Y317462D01*
X162203Y316316D01*
X162731Y315042D01*
X162898Y314201D01*
X163000Y313001D01*
Y313000D01*
X163000D01*
X163000Y313000D01*
X163000Y280000D01*
X163000Y279310D01*
X162731Y277958D01*
X162203Y276684D01*
X161437Y275538D01*
X160462Y274563D01*
X159316Y273797D01*
X158042Y273269D01*
X157226Y273107D01*
X156000Y273000D01*
X156000Y273000D01*
X156000Y273000D01*
X137377D01*
X136992Y274270D01*
X137105Y274345D01*
X138210Y275999D01*
X138548Y277700D01*
X124000D01*
Y279450D01*
X122250D01*
Y286048D01*
X117000D01*
Y293721D01*
X118270Y294152D01*
X118436Y293936D01*
X119846Y292854D01*
X121488Y292174D01*
X123250Y291942D01*
X124750D01*
Y303000D01*
Y314058D01*
X123250D01*
X121488Y313826D01*
X119846Y313146D01*
X118436Y312064D01*
X118270Y311847D01*
X117000Y312279D01*
Y316796D01*
X117609Y318266D01*
X118734Y319391D01*
X120204Y320000D01*
X121000D01*
X156000Y320000D01*
D02*
G37*
G36*
X284000Y289000D02*
X284597Y289000D01*
X285699Y288543D01*
X286543Y287699D01*
X287000Y286597D01*
Y286000D01*
X286726Y285636D01*
X286483Y285517D01*
X285150Y285382D01*
X284154Y286146D01*
X282512Y286826D01*
X280750Y287058D01*
X279250D01*
Y276000D01*
Y264942D01*
X280750D01*
X282512Y265174D01*
X284154Y265854D01*
X285564Y266936D01*
X285730Y267152D01*
X287000Y266721D01*
Y258557D01*
X286500Y258085D01*
X284930Y258297D01*
X284076Y259576D01*
X282091Y260902D01*
X279750Y261367D01*
X278500D01*
Y252750D01*
X276750D01*
Y251000D01*
X267632D01*
Y250250D01*
X268098Y247909D01*
X269424Y245924D01*
X271409Y244598D01*
X273058Y244270D01*
X272933Y243000D01*
X262000D01*
X261602Y243000D01*
X260867Y243304D01*
X260305Y243867D01*
X260000Y244602D01*
X260000Y245000D01*
X260000Y245000D01*
Y286597D01*
X260457Y287699D01*
X261301Y288543D01*
X262403Y289000D01*
X263000D01*
X263000Y289000D01*
X284000Y289000D01*
D02*
G37*
%LPC*%
G36*
X424777Y402469D02*
X423277D01*
X421515Y402237D01*
X419873Y401557D01*
X418463Y400475D01*
X417381Y399065D01*
X416701Y397423D01*
X416469Y395661D01*
Y393161D01*
X424777D01*
Y402469D01*
D02*
G37*
G36*
Y389661D02*
X416469D01*
Y387161D01*
X416701Y385399D01*
X417381Y383757D01*
X418463Y382347D01*
X419873Y381265D01*
X421515Y380585D01*
X423277Y380353D01*
X424777D01*
Y389661D01*
D02*
G37*
G36*
X435212Y374208D02*
X427212D01*
Y369360D01*
X440261D01*
X439922Y371061D01*
X438817Y372715D01*
X437163Y373820D01*
X435212Y374208D01*
D02*
G37*
G36*
X423712D02*
X415712D01*
X413761Y373820D01*
X412108Y372715D01*
X411002Y371061D01*
X410664Y369360D01*
X423712D01*
Y374208D01*
D02*
G37*
G36*
X74750Y371058D02*
X72250D01*
Y362750D01*
X81558D01*
Y364250D01*
X81326Y366012D01*
X80646Y367654D01*
X79564Y369064D01*
X78154Y370146D01*
X76512Y370826D01*
X74750Y371058D01*
D02*
G37*
G36*
X68750D02*
X66250D01*
X64488Y370826D01*
X62846Y370146D01*
X61436Y369064D01*
X60354Y367654D01*
X59674Y366012D01*
X59442Y364250D01*
Y362750D01*
X68750D01*
Y371058D01*
D02*
G37*
G36*
X49500D02*
X47000D01*
Y362750D01*
X56308D01*
Y364250D01*
X56076Y366012D01*
X55396Y367654D01*
X54314Y369064D01*
X52904Y370146D01*
X51262Y370826D01*
X49500Y371058D01*
D02*
G37*
G36*
X43500D02*
X41000D01*
X39238Y370826D01*
X37596Y370146D01*
X36186Y369064D01*
X35104Y367654D01*
X34424Y366012D01*
X34192Y364250D01*
Y362750D01*
X43500D01*
Y371058D01*
D02*
G37*
G36*
X185500Y372058D02*
X183000D01*
Y363750D01*
X192308D01*
Y365250D01*
X192076Y367012D01*
X191396Y368654D01*
X190314Y370064D01*
X188904Y371146D01*
X187262Y371827D01*
X185500Y372058D01*
D02*
G37*
G36*
X179500D02*
X177000D01*
X175238Y371827D01*
X173596Y371146D01*
X172186Y370064D01*
X171104Y368654D01*
X170424Y367012D01*
X170192Y365250D01*
Y363750D01*
X179500D01*
Y372058D01*
D02*
G37*
G36*
X210650Y372044D02*
X208150D01*
Y363736D01*
X217458D01*
Y365236D01*
X217226Y366998D01*
X216546Y368640D01*
X215464Y370050D01*
X214054Y371132D01*
X212412Y371812D01*
X210650Y372044D01*
D02*
G37*
G36*
X204650D02*
X202150D01*
X200388Y371812D01*
X198746Y371132D01*
X197336Y370050D01*
X196254Y368640D01*
X195574Y366998D01*
X195342Y365236D01*
Y363736D01*
X204650D01*
Y372044D01*
D02*
G37*
G36*
X388261Y327760D02*
X375212D01*
Y322912D01*
X383212D01*
X385163Y323300D01*
X386817Y324405D01*
X387922Y326059D01*
X388261Y327760D01*
D02*
G37*
G36*
X380250Y317058D02*
X378750D01*
Y307750D01*
X387058D01*
Y310250D01*
X386826Y312012D01*
X386146Y313654D01*
X385064Y315064D01*
X383654Y316146D01*
X382012Y316826D01*
X380250Y317058D01*
D02*
G37*
G36*
X387058Y304250D02*
X378750D01*
Y294942D01*
X380250D01*
X382012Y295174D01*
X383654Y295854D01*
X385064Y296936D01*
X386146Y298346D01*
X386826Y299988D01*
X387058Y301750D01*
Y304250D01*
D02*
G37*
G36*
X129750Y314058D02*
X128250D01*
Y304750D01*
X136559D01*
Y307250D01*
X136327Y309012D01*
X135646Y310654D01*
X134564Y312064D01*
X133154Y313146D01*
X131512Y313826D01*
X129750Y314058D01*
D02*
G37*
G36*
X136559Y301250D02*
X128250D01*
Y291942D01*
X129750D01*
X131512Y292174D01*
X133154Y292854D01*
X134564Y293936D01*
X135646Y295346D01*
X136327Y296988D01*
X136559Y298750D01*
Y301250D01*
D02*
G37*
G36*
X155750Y289778D02*
Y284750D01*
X160778D01*
X160523Y285702D01*
X159601Y287298D01*
X158298Y288601D01*
X156702Y289523D01*
X155750Y289778D01*
D02*
G37*
G36*
X152250D02*
X151298Y289523D01*
X149702Y288601D01*
X148398Y287298D01*
X147477Y285702D01*
X147222Y284750D01*
X152250D01*
Y289778D01*
D02*
G37*
G36*
X133500Y286048D02*
X125750D01*
Y281200D01*
X138548D01*
X138210Y282901D01*
X137105Y284555D01*
X135451Y285660D01*
X133500Y286048D01*
D02*
G37*
G36*
X160778Y281250D02*
X155750D01*
Y276222D01*
X156702Y276477D01*
X158298Y277398D01*
X159601Y278702D01*
X160523Y280298D01*
X160778Y281250D01*
D02*
G37*
G36*
X152250D02*
X147222D01*
X147477Y280298D01*
X148398Y278702D01*
X149702Y277398D01*
X151298Y276477D01*
X152250Y276222D01*
Y281250D01*
D02*
G37*
G36*
X275750Y287058D02*
X274250D01*
X272488Y286826D01*
X270846Y286146D01*
X269436Y285064D01*
X268354Y283654D01*
X267674Y282012D01*
X267442Y280250D01*
Y277750D01*
X275750D01*
Y287058D01*
D02*
G37*
G36*
Y274250D02*
X267442D01*
Y271750D01*
X267674Y269988D01*
X268354Y268346D01*
X269436Y266936D01*
X270846Y265854D01*
X272488Y265174D01*
X274250Y264942D01*
X275750D01*
Y274250D01*
D02*
G37*
G36*
X275000Y261367D02*
X273750D01*
X271409Y260902D01*
X269424Y259576D01*
X268098Y257591D01*
X267632Y255250D01*
Y254500D01*
X275000D01*
Y261367D01*
D02*
G37*
%LPD*%
G36*
X670000Y119670D02*
X669049Y119035D01*
X668060Y117555D01*
X667098Y117487D01*
X666672Y117589D01*
X666230Y118654D01*
X665148Y120064D01*
X663738Y121146D01*
X662096Y121826D01*
X660334Y122058D01*
X658834D01*
Y111000D01*
Y99942D01*
X660334D01*
X662096Y100174D01*
X663738Y100854D01*
X665148Y101936D01*
X666230Y103346D01*
X666672Y104411D01*
X667098Y104513D01*
X668060Y104445D01*
X669049Y102965D01*
X670000Y102329D01*
Y94887D01*
X668730Y94103D01*
X667250Y94398D01*
X659250D01*
Y87800D01*
X657500D01*
Y86050D01*
X642702D01*
X643040Y84349D01*
X644145Y82695D01*
X645799Y81590D01*
X646637Y81423D01*
X646750Y80106D01*
X645968Y79688D01*
X637801D01*
X635000Y82489D01*
Y142000D01*
X670000D01*
Y119670D01*
D02*
G37*
%LPC*%
G36*
X655334Y122058D02*
X653834D01*
X652072Y121826D01*
X650430Y121146D01*
X649020Y120064D01*
X647938Y118654D01*
X647258Y117012D01*
X647026Y115250D01*
Y112750D01*
X655334D01*
Y122058D01*
D02*
G37*
G36*
Y109250D02*
X647026D01*
Y106750D01*
X647258Y104988D01*
X647938Y103346D01*
X649020Y101936D01*
X650430Y100854D01*
X652072Y100174D01*
X653834Y99942D01*
X655334D01*
Y109250D01*
D02*
G37*
G36*
X655750Y94398D02*
X647750D01*
X645799Y94010D01*
X644145Y92905D01*
X643040Y91251D01*
X642702Y89550D01*
X655750D01*
Y94398D01*
D02*
G37*
%LPD*%
G36*
X36750Y136170D02*
X36827Y136180D01*
X38530Y136885D01*
X39992Y138007D01*
X41115Y139470D01*
X41334Y140000D01*
X49055Y140000D01*
X49486Y138730D01*
X49364Y138636D01*
X48322Y137278D01*
X47667Y135697D01*
X47444Y134000D01*
Y132750D01*
X62000D01*
X76556D01*
Y134000D01*
X76333Y135697D01*
X75678Y137278D01*
X74636Y138636D01*
X74513Y138730D01*
X74945Y140000D01*
X91000Y140000D01*
X111210D01*
X111949Y138217D01*
X113151Y136651D01*
X114718Y135449D01*
X116542Y134693D01*
X118500Y134435D01*
X129500D01*
X131458Y134693D01*
X133282Y135449D01*
X134849Y136651D01*
X136051Y138217D01*
X136789Y140000D01*
X167000D01*
X167000Y140000D01*
X167000Y140000D01*
X167001D01*
X168191Y139920D01*
X169333Y139693D01*
X170789Y139090D01*
X172100Y138214D01*
X173214Y137100D01*
X174089Y135789D01*
X174692Y134334D01*
X175000Y132788D01*
X175000Y132000D01*
X175000Y107373D01*
X174579Y106358D01*
X174240Y103780D01*
X174489Y101885D01*
X173923Y100518D01*
X172887Y98969D01*
X171570Y97651D01*
X171134Y97360D01*
X170541Y97639D01*
X170015Y98139D01*
X170239Y99843D01*
Y102030D01*
X147361D01*
Y99843D01*
X147616Y97901D01*
X148069Y96809D01*
X147259Y95539D01*
X138059Y95539D01*
X138059Y109000D01*
X138059Y109001D01*
Y109003D01*
X138034Y109127D01*
X138048Y109252D01*
X137953Y110420D01*
X137904Y110590D01*
Y110767D01*
X137731Y111638D01*
X137616Y111917D01*
X137557Y112212D01*
X137029Y113486D01*
X136862Y113737D01*
X136747Y114015D01*
X135981Y115161D01*
X135767Y115374D01*
X135600Y115625D01*
X134625Y116600D01*
X134375Y116768D01*
X134162Y116980D01*
X133015Y117746D01*
X132737Y117862D01*
X132486Y118029D01*
X131212Y118557D01*
X130917Y118616D01*
X130639Y118731D01*
X129286Y119000D01*
X128985D01*
X128689Y119059D01*
X128000Y119059D01*
X107000Y119059D01*
X107000Y119059D01*
X106311D01*
X106015Y119000D01*
X105714D01*
X104361Y118731D01*
X104083Y118616D01*
X103788Y118557D01*
X102514Y118029D01*
X102263Y117862D01*
X101985Y117746D01*
X100838Y116980D01*
X100625Y116768D01*
X100375Y116600D01*
X99400Y115625D01*
X99233Y115374D01*
X99019Y115162D01*
X98253Y114015D01*
X98138Y113737D01*
X97971Y113486D01*
X97443Y112212D01*
X97384Y111917D01*
X97269Y111638D01*
X97000Y110286D01*
X95998Y109339D01*
X92500D01*
X90744Y108989D01*
X89256Y107995D01*
X89191Y107897D01*
X87663D01*
X86836Y109136D01*
X84851Y110462D01*
X82510Y110927D01*
X81760D01*
Y99810D01*
X80010D01*
Y98060D01*
X71393D01*
Y95539D01*
X54903D01*
X54065Y96494D01*
X54132Y97000D01*
X41755D01*
X29377D01*
X29444Y96494D01*
X28606Y95539D01*
X26461D01*
X25375Y95539D01*
X23368Y96370D01*
X21831Y97906D01*
X21000Y99914D01*
X21000Y101000D01*
Y132000D01*
X21000Y132000D01*
X21089Y133233D01*
X21307Y134333D01*
X21910Y135789D01*
X22786Y137100D01*
X23900Y138214D01*
X25210Y139089D01*
X26666Y139692D01*
X28212Y140000D01*
X28666Y140000D01*
X28886Y139470D01*
X30008Y138007D01*
X31470Y136885D01*
X33173Y136180D01*
X33250Y136170D01*
Y143000D01*
X36750D01*
Y136170D01*
D02*
G37*
G36*
X128000Y116000D02*
X128689Y116000D01*
X130042Y115731D01*
X131316Y115203D01*
X132462Y114437D01*
X133437Y113462D01*
X134203Y112316D01*
X134731Y111042D01*
X134904Y110170D01*
X135000Y109003D01*
Y109000D01*
X135000Y109000D01*
X135000Y109000D01*
X135000Y94000D01*
X135000Y93206D01*
X134690Y91649D01*
X134083Y90183D01*
X133201Y88863D01*
X132078Y87740D01*
X130758Y86858D01*
X129292Y86251D01*
X127735Y85941D01*
X126941Y85941D01*
X107648D01*
X107051Y87382D01*
X106959Y87503D01*
X107320Y88311D01*
X107647Y88693D01*
X108240D01*
Y99810D01*
Y110927D01*
X107490D01*
X105149Y110462D01*
X103165Y109136D01*
X102337Y107897D01*
X100810D01*
X100744Y107995D01*
X100000Y108492D01*
Y109689D01*
X100269Y111042D01*
X100797Y112316D01*
X101563Y113462D01*
X102538Y114437D01*
X103684Y115203D01*
X104958Y115731D01*
X106311Y116000D01*
X107000D01*
X107000Y116000D01*
X128000Y116000D01*
D02*
G37*
%LPC*%
G36*
X76556Y129250D02*
X63750D01*
Y121444D01*
X70000D01*
X71697Y121667D01*
X73278Y122323D01*
X74636Y123364D01*
X75678Y124722D01*
X76333Y126303D01*
X76556Y128000D01*
Y129250D01*
D02*
G37*
G36*
X60250D02*
X47444D01*
Y128000D01*
X47667Y126303D01*
X48322Y124722D01*
X49364Y123364D01*
X50722Y122323D01*
X52303Y121667D01*
X54000Y121444D01*
X60250D01*
Y129250D01*
D02*
G37*
G36*
X162737Y115219D02*
X160550D01*
Y105530D01*
X170239D01*
Y107718D01*
X169983Y109659D01*
X169234Y111468D01*
X168042Y113022D01*
X166488Y114214D01*
X164679Y114964D01*
X162737Y115219D01*
D02*
G37*
G36*
X157050D02*
X154862D01*
X152921Y114964D01*
X151112Y114214D01*
X149558Y113022D01*
X148366Y111468D01*
X147616Y109659D01*
X147361Y107718D01*
Y105530D01*
X157050D01*
Y115219D01*
D02*
G37*
G36*
X78260Y110927D02*
X77510D01*
X75169Y110462D01*
X73184Y109136D01*
X71858Y107151D01*
X71393Y104810D01*
Y101560D01*
X78260D01*
Y110927D01*
D02*
G37*
G36*
X43505Y111127D02*
Y100500D01*
X54132D01*
X53933Y102013D01*
X52673Y105054D01*
X50670Y107665D01*
X48059Y109669D01*
X45018Y110928D01*
X43505Y111127D01*
D02*
G37*
G36*
X40005D02*
X38491Y110928D01*
X35451Y109669D01*
X32840Y107665D01*
X30836Y105054D01*
X29576Y102013D01*
X29377Y100500D01*
X40005D01*
Y111127D01*
D02*
G37*
G36*
X112490Y110927D02*
X111740D01*
Y101560D01*
X118608D01*
Y104810D01*
X118142Y107151D01*
X116816Y109136D01*
X114831Y110462D01*
X112490Y110927D01*
D02*
G37*
G36*
X118608Y98060D02*
X111740D01*
Y88693D01*
X112490D01*
X114831Y89158D01*
X116816Y90484D01*
X118142Y92469D01*
X118608Y94810D01*
Y98060D01*
D02*
G37*
G36*
X467750Y119058D02*
X466250D01*
Y109750D01*
X474558D01*
Y112250D01*
X474326Y114012D01*
X473646Y115654D01*
X472564Y117064D01*
X471154Y118146D01*
X469512Y118827D01*
X467750Y119058D01*
D02*
G37*
G36*
X474558Y106250D02*
X466250D01*
Y96942D01*
X467750D01*
X469512Y97174D01*
X471154Y97854D01*
X472564Y98936D01*
X473646Y100346D01*
X474326Y101988D01*
X474558Y103750D01*
Y106250D01*
D02*
G37*
G36*
X468250Y88148D02*
X460250D01*
Y83300D01*
X473298D01*
X472960Y85001D01*
X471855Y86655D01*
X470201Y87760D01*
X468250Y88148D01*
D02*
G37*
G36*
X603750Y47950D02*
X590702D01*
X591040Y46249D01*
X592145Y44595D01*
X593799Y43490D01*
X595750Y43102D01*
X603750D01*
Y47950D01*
D02*
G37*
G36*
X605316Y37534D02*
X603816D01*
X602054Y37302D01*
X600412Y36621D01*
X599002Y35540D01*
X597920Y34130D01*
X597240Y32487D01*
X597008Y30725D01*
Y28225D01*
X605316D01*
Y37534D01*
D02*
G37*
G36*
Y24725D02*
X597008D01*
Y22225D01*
X597240Y20463D01*
X597920Y18821D01*
X599002Y17411D01*
X600412Y16329D01*
X602054Y15649D01*
X603816Y15417D01*
X605316D01*
Y24725D01*
D02*
G37*
G36*
X404750Y41700D02*
X391702D01*
X392040Y39999D01*
X393145Y38345D01*
X394799Y37240D01*
X396750Y36852D01*
X404750D01*
Y41700D01*
D02*
G37*
G36*
X400750Y31058D02*
X399250D01*
X397488Y30826D01*
X395846Y30146D01*
X394436Y29064D01*
X393354Y27654D01*
X392674Y26012D01*
X392442Y24250D01*
Y21750D01*
X400750D01*
Y31058D01*
D02*
G37*
G36*
Y18250D02*
X392442D01*
Y15750D01*
X392674Y13988D01*
X393354Y12346D01*
X394436Y10936D01*
X395846Y9854D01*
X397488Y9174D01*
X399250Y8942D01*
X400750D01*
Y18250D01*
D02*
G37*
%LPD*%
D10*
X630000Y45718D02*
X649510Y26207D01*
X630000Y45718D02*
Y69000D01*
X624007Y74993D02*
X630000Y69000D01*
X711000Y60000D02*
Y166000D01*
X703000Y174000D02*
X711000Y166000D01*
X657500Y62400D02*
X690771D01*
X690000Y58500D02*
X691500Y60000D01*
X683207Y26207D02*
X690000Y33000D01*
Y58500D01*
X705920Y59834D02*
Y60512D01*
X637000Y240000D02*
X703000Y174000D01*
X610400Y240000D02*
X637000D01*
X324000Y203000D02*
Y311000D01*
X349000Y335000D02*
X356210Y342210D01*
X294125Y191875D02*
X312875D01*
X324000Y203000D01*
X555000Y135000D02*
Y140000D01*
Y135000D02*
X569000Y121000D01*
Y63000D02*
Y121000D01*
X516053Y147947D02*
X552891Y111109D01*
X498500Y147947D02*
X516053D01*
X552891Y96087D02*
Y111109D01*
X498500Y147947D02*
Y148053D01*
X492553Y154000D02*
X498500Y148053D01*
X487447Y159000D02*
X492447Y154000D01*
X459757Y159000D02*
X487447D01*
X492447Y154000D02*
X492553D01*
X455000Y163757D02*
X459757Y159000D01*
X456500Y174000D02*
X457743Y175243D01*
X455000Y163757D02*
Y175500D01*
X456767Y148000D02*
X479500D01*
X422500Y113734D02*
X456767Y148000D01*
X465243Y175243D02*
X504000Y214000D01*
X457743Y175243D02*
X465243D01*
X504000Y214000D02*
Y377243D01*
X422500Y70607D02*
Y113734D01*
X455000Y175500D02*
X456500Y174000D01*
X487500Y379000D02*
X502243D01*
X504000Y377243D01*
X485750Y353250D02*
X486500Y354000D01*
X485750Y326250D02*
Y353250D01*
X485000Y325500D02*
X485750Y326250D01*
X456000Y326000D02*
X484500D01*
X485000Y325500D01*
X468000Y378500D02*
X468500Y379000D01*
X467500Y354000D02*
X468000Y354500D01*
Y378500D01*
X425917Y354455D02*
X467045D01*
X425462Y354910D02*
X425917Y354455D01*
X467045D02*
X467500Y354000D01*
X440000Y342000D02*
X456000Y326000D01*
X425462Y329510D02*
X441490D01*
X452000Y283447D02*
Y319000D01*
X441490Y329510D02*
X452000Y319000D01*
X447000Y281000D02*
X449552D01*
X444868D02*
X447000D01*
X449552D02*
X452000Y283447D01*
X427500Y281000D02*
X444868D01*
X427500Y281164D02*
X444868D01*
X444954Y281078D01*
X427500Y281000D02*
Y281053D01*
X337000Y339000D02*
X342000Y344000D01*
X337000Y282500D02*
Y339000D01*
X373000Y282000D02*
X391151D01*
X408000D01*
X353924D02*
X373000D01*
X408000D02*
X409000Y281000D01*
X452000Y197500D02*
X455000Y194500D01*
X452000Y197500D02*
Y225287D01*
Y223795D02*
Y253000D01*
X451750Y253250D02*
Y275750D01*
X447000Y280500D02*
X451750Y275750D01*
Y253250D02*
X452000Y253000D01*
X62500Y217450D02*
X70500D01*
X56000Y224000D02*
X62500Y217500D01*
X34000Y224000D02*
X56000D01*
X62500Y217450D02*
Y217500D01*
X72000Y215950D02*
X91350D01*
X70500Y217450D02*
X72000Y215950D01*
X21000Y237000D02*
X34000Y224000D01*
X416000Y140000D02*
X435500D01*
X402000Y148000D02*
X435500D01*
X412000Y136000D02*
X416000Y140000D01*
X412000Y127140D02*
Y136000D01*
X411893Y127032D02*
X412000Y127140D01*
X555000Y140000D02*
Y167500D01*
X555000Y140000D02*
X555000Y140000D01*
X775000Y63000D02*
X831500Y119499D01*
X456500Y542500D02*
X460000Y539000D01*
X509142D01*
X510900Y537243D01*
X456500Y542500D02*
Y558000D01*
X510900Y523250D02*
Y537243D01*
X523500Y630000D02*
X524000Y630500D01*
Y654500D02*
X524500Y655000D01*
X524000Y630500D02*
Y654500D01*
X491000Y655000D02*
X524500D01*
X504243Y595757D02*
X510900Y589100D01*
X504243Y595757D02*
Y605493D01*
X510900Y575250D02*
Y589100D01*
X497951Y523001D02*
X498200Y523250D01*
X495312Y492834D02*
X497951Y495473D01*
Y523001D01*
X498200Y523250D02*
Y525500D01*
X510900Y523250D02*
X511616Y522534D01*
Y495531D02*
X514312Y492834D01*
X511616Y495531D02*
Y522534D01*
X555000Y167500D02*
X555000Y167500D01*
X766953Y229953D02*
X801000Y264000D01*
X731000Y229953D02*
X766953D01*
X801000Y264000D02*
Y279500D01*
Y326000D02*
X834000Y359000D01*
X801000Y298447D02*
Y326000D01*
X834000Y359000D02*
Y414000D01*
X605100Y62000D02*
X605500Y62400D01*
X579271Y62000D02*
X605100D01*
X313100Y557750D02*
X313843Y558493D01*
Y570742D02*
X315600Y572500D01*
X313843Y558493D02*
Y570742D01*
X315600Y572500D02*
X322229D01*
X391000Y593000D02*
Y608000D01*
X259500Y586947D02*
Y612000D01*
X387750Y589750D02*
X391000Y593000D01*
X367000Y589750D02*
X387750D01*
X408500Y572500D02*
X491000Y655000D01*
X322229Y572500D02*
X322229Y572500D01*
X329371Y572500D02*
X408500D01*
X329371Y572500D02*
X329371Y572500D01*
X322229Y572500D02*
X329371D01*
X356250Y578000D02*
X367000Y588750D01*
Y589750D01*
X141000Y333000D02*
X187000D01*
X196000Y324000D01*
X87000Y326000D02*
X180000D01*
X196000Y324000D02*
X203000Y317000D01*
X196000Y324000D02*
Y324000D01*
X180000Y326000D02*
X194000Y312000D01*
X72000Y311000D02*
X87000Y326000D01*
X125000Y349000D02*
X141000Y333000D01*
X95950Y254050D02*
X107500Y242500D01*
Y235500D02*
Y242500D01*
Y235500D02*
X108000Y235000D01*
X668510Y26207D02*
X683207D01*
X145000Y242000D02*
X188807D01*
X239058Y191750D01*
X185486Y234750D02*
X194737Y225500D01*
X164000Y194000D02*
X190538Y220538D01*
X194737Y225500D02*
X194898D01*
X148383Y234750D02*
X185486D01*
X21000Y266600D02*
X32900Y278500D01*
X72000D01*
X21400Y266200D02*
X71655D01*
X21000Y266600D02*
X21400Y266200D01*
X21000Y237000D02*
Y241400D01*
X45600D01*
X58350Y228650D02*
X72000D01*
X45600Y241400D02*
X58350Y228650D01*
X533000Y229000D02*
X544000Y240000D01*
X533000Y176429D02*
Y229000D01*
Y176429D02*
X541929Y167500D01*
X420743Y68850D02*
X422500Y70607D01*
X406500Y68850D02*
X420743D01*
X405000Y67350D02*
X406500Y68850D01*
X279000Y318000D02*
Y397000D01*
X226000Y277500D02*
X238500D01*
X279000Y318000D01*
X342500Y344897D02*
X365212Y367610D01*
X356210Y342210D02*
X373462D01*
X496700Y527000D02*
X498200Y525500D01*
X462000Y527000D02*
X496700D01*
X338000Y527000D02*
X338000Y527000D01*
X321500Y527000D02*
X338000D01*
X510891Y96087D02*
X510946Y96141D01*
Y112946D01*
X511000Y113000D01*
X394285Y140285D02*
X402000Y148000D01*
X199000Y244000D02*
X206000Y237000D01*
X199000Y244000D02*
X199000D01*
X183000Y260000D02*
X199000Y244000D01*
X206000Y237000D02*
X222000Y221000D01*
X248398Y172000D02*
X277000D01*
X222000Y221000D02*
X229000Y214000D01*
X194898Y225500D02*
X248398Y172000D01*
X239058Y191750D02*
X277000D01*
X183000Y260000D02*
Y279500D01*
X266930Y632330D02*
X271000Y628260D01*
Y608129D02*
Y628260D01*
Y608129D02*
X285129Y594000D01*
X259500Y637197D02*
Y637250D01*
Y637197D02*
X264367Y632330D01*
X266930D01*
X377480Y55980D02*
X384980D01*
X396350Y67350D01*
X405000D01*
X375000Y53500D02*
X377480Y55980D01*
X560000Y410500D02*
X571243D01*
X573000Y408743D01*
Y344929D02*
Y408743D01*
X438000Y61000D02*
X442850Y56150D01*
X438000Y61000D02*
Y72000D01*
X547222Y62778D02*
X568778D01*
X510641Y70837D02*
X539163D01*
X547222Y62778D01*
X298642Y594000D02*
X300400Y595757D01*
X285129Y594000D02*
X298642D01*
X300400Y595757D02*
Y609750D01*
X442850Y56150D02*
X458500D01*
X550000Y426000D02*
X608242D01*
X610000Y424243D01*
Y410500D02*
Y424243D01*
X543000Y419000D02*
X550000Y426000D01*
X543000Y322407D02*
Y419000D01*
Y322407D02*
X573000Y292407D01*
X767000Y467000D02*
Y520000D01*
Y467000D02*
X808000Y426000D01*
Y406500D02*
Y426000D01*
X605607Y74993D02*
X624007D01*
X605500Y75100D02*
Y87800D01*
X570350Y62191D02*
X578809D01*
X411000Y83050D02*
Y103500D01*
X411893Y105608D02*
Y127032D01*
X394285Y127640D02*
Y140285D01*
X393892Y105393D02*
Y127247D01*
X381000Y105000D02*
X393500D01*
X377000Y101000D02*
X381000Y105000D01*
X377000Y74500D02*
Y101000D01*
X352750Y53750D02*
X374750D01*
X353250Y71750D02*
X374250D01*
X541929Y167500D02*
X552899D01*
X544000Y240000D02*
X559600D01*
X491766Y70962D02*
Y95962D01*
X458500Y68850D02*
X489654D01*
X510891Y96087D02*
X533891D01*
X381399Y440778D02*
Y465970D01*
X381678Y424147D02*
Y440369D01*
X381886Y409636D02*
Y423667D01*
X398625Y389125D02*
Y409375D01*
X398500Y359500D02*
Y389000D01*
X393910Y354910D02*
X398500Y359500D01*
X373462Y354910D02*
X393910D01*
X752000Y63000D02*
X775000D01*
X831500Y119499D02*
Y287977D01*
X575929Y342000D02*
X623000D01*
X573000Y344929D02*
X575929Y342000D01*
X569000Y63000D02*
X569542D01*
X578809Y62191D02*
X579000Y62000D01*
X569542Y63000D02*
X570350Y62191D01*
X568778Y62778D02*
X569000Y63000D01*
X573000Y218000D02*
Y292407D01*
X555000Y200000D02*
X573000Y218000D01*
X555000Y186500D02*
Y200000D01*
X806000Y404500D02*
X808000Y406500D01*
X817000Y431000D02*
X817000D01*
X834000Y414000D01*
X808000Y440000D02*
X817000Y431000D01*
X797000Y451000D02*
X808000Y440000D01*
X797000Y451000D02*
Y520000D01*
X701000Y404500D02*
X806000D01*
X685500D02*
X701000D01*
X623000Y342000D02*
X685500Y404500D01*
X781000Y536000D02*
X797000Y520000D01*
X753000Y536000D02*
X781000D01*
X610000Y410500D02*
X627500D01*
X753000Y536000D01*
X610200Y365200D02*
Y391300D01*
X610000Y391500D02*
X610200Y391300D01*
Y365200D02*
X610400Y365000D01*
X559600D02*
X559800Y365200D01*
Y391300D01*
X560000Y391500D01*
X798000Y347214D02*
X808000Y357213D01*
X798000Y346000D02*
Y347214D01*
X808000Y357213D02*
Y387500D01*
X636500Y287500D02*
X697500D01*
Y287977D02*
X699250Y289727D01*
Y380750D01*
X701000Y382500D01*
X623500Y172000D02*
X624000Y172500D01*
X623000Y171500D02*
X623500Y172000D01*
X623000Y145000D02*
Y171500D01*
Y88000D02*
Y145000D01*
Y88000D02*
X635900Y75100D01*
X611000Y240600D02*
Y262000D01*
X610400Y240000D02*
X611000Y240600D01*
Y262000D02*
X636500Y287500D01*
X617500Y211959D02*
Y212500D01*
Y211959D02*
X624000Y205459D01*
Y172500D02*
Y205459D01*
X610400Y220000D02*
X617500Y212900D01*
X610400Y220000D02*
Y240000D01*
X617500Y212500D02*
Y212900D01*
X635900Y75100D02*
X657500D01*
X204990Y205990D02*
X205000Y205979D01*
X151750Y418000D02*
Y439250D01*
X160000Y610000D02*
X178500D01*
X621000Y573000D02*
X701000D01*
X719286Y591286D02*
X785714D01*
X701000Y573000D02*
X719286Y591286D01*
X732000Y562000D02*
X785000D01*
X619000Y545000D02*
X715000D01*
X732000Y562000D01*
X785714Y591286D02*
X797000Y580000D01*
X785000Y562000D02*
X797000Y550000D01*
X489654Y68850D02*
X491641Y70837D01*
X491500Y20000D02*
Y45696D01*
X605500Y75100D02*
X605607Y74993D01*
X374750Y53750D02*
X375000Y53500D01*
X352500Y54000D02*
X352750Y53750D01*
X374250Y71750D02*
X375000Y72500D01*
X352500Y71000D02*
X353250Y71750D01*
X375000Y72500D02*
X377000Y74500D01*
X393500Y105000D02*
X393892Y105393D01*
Y127247D02*
X394285Y127640D01*
X411893Y105608D02*
X412500Y105000D01*
X411000Y103500D02*
X412500Y105000D01*
X510641Y45837D02*
Y70837D01*
X491641D02*
X491766Y70962D01*
Y95962D02*
X491891Y96087D01*
X458500Y43450D02*
X489254D01*
X365212Y367610D02*
X373462D01*
X380000D01*
X425462Y342210D02*
X425672Y342000D01*
X440000D01*
X381500Y369110D02*
Y389000D01*
X233000Y210000D02*
X277000D01*
X229000Y214000D02*
X233000Y210000D01*
X72000Y278500D02*
Y311000D01*
X224000Y637000D02*
X240500D01*
Y663095D01*
X294000Y211965D02*
Y232250D01*
X327300Y614697D02*
X347750D01*
X381399Y465970D02*
X381465Y466035D01*
X381678Y424147D02*
X382022Y423803D01*
X381886Y423667D02*
X382022Y423803D01*
X701000Y385500D02*
X703202Y383299D01*
X580250Y573000D02*
X621000D01*
X577750Y570500D02*
X580250Y573000D01*
X577875Y545125D02*
X618875D01*
X619000Y545000D01*
X577750Y545250D02*
X577875Y545125D01*
X194000Y268000D02*
X215000Y247000D01*
X234000D01*
X197000Y610000D02*
X224000Y637000D01*
X178500Y610000D02*
X197000D01*
X263257Y527000D02*
X302500D01*
X240500Y549757D02*
X263257Y527000D01*
X203000Y269000D02*
X215000Y257000D01*
X231000D02*
X233843Y254157D01*
X215000Y257000D02*
X231000D01*
X233843Y247157D02*
Y254157D01*
X203000Y269000D02*
Y279500D01*
X194000Y268000D02*
Y312000D01*
X233843Y247157D02*
X234000Y247000D01*
X72000Y254050D02*
X95950D01*
X74376Y241675D02*
X96675D01*
X97000Y242000D01*
X73876Y241175D02*
X74376Y241675D01*
X347875Y634875D02*
X348000Y635000D01*
X347750Y614750D02*
X347875Y614875D01*
Y634875D01*
X321500Y527000D02*
X322000Y526500D01*
X504625Y606125D02*
Y629875D01*
X523675Y575325D02*
Y605925D01*
X475500Y558000D02*
X514600D01*
X523600Y567000D01*
Y523250D02*
Y542600D01*
X526250Y545250D02*
X558750D01*
X523600Y542600D02*
X526250Y545250D01*
X558828Y520002D02*
X558905Y519924D01*
X558828Y520002D02*
Y545173D01*
X558750Y545250D02*
X558828Y545173D01*
X536300Y572000D02*
X537800Y570500D01*
X558750D01*
X536300Y572000D02*
Y575250D01*
X558875Y570625D02*
Y595875D01*
X558750Y570500D02*
X558875Y570625D01*
Y595875D02*
X559000Y596000D01*
X259500Y586947D02*
X268447Y578000D01*
X356250D01*
X347750Y614750D02*
X347875Y614625D01*
Y589875D02*
Y614625D01*
Y589875D02*
X348000Y589750D01*
X325800Y613197D02*
X327300Y614697D01*
X325800Y609750D02*
Y613197D01*
X286200Y562000D02*
X287700Y560500D01*
X259500Y562000D02*
X286200D01*
X287700Y557750D02*
Y560500D01*
X300400Y557750D02*
X301450Y556700D01*
Y528050D02*
Y556700D01*
Y528050D02*
X302500Y527000D01*
X240500Y549757D02*
Y562000D01*
X259500D02*
X260000Y562500D01*
Y572243D01*
X243000Y574000D02*
X258242D01*
X260000Y572243D01*
X241000Y576000D02*
X243000Y574000D01*
X241000Y576000D02*
Y586500D01*
X240500Y587000D02*
X241000Y586500D01*
X300400Y609750D02*
X313100D01*
X135000Y350550D02*
Y434234D01*
Y350550D02*
X143750Y341800D01*
X137506Y453494D02*
X151750Y439250D01*
X77494Y453494D02*
X137506D01*
X203000Y296500D02*
Y317000D01*
X182964Y310964D02*
X183000Y310929D01*
Y296500D02*
Y310929D01*
X203000Y296500D02*
X226000D01*
X294000Y191750D02*
X294125Y191875D01*
X294000Y191750D02*
Y191750D01*
X276750Y252750D02*
X277125Y253125D01*
Y275625D02*
X277500Y276000D01*
X125000Y349000D02*
Y377000D01*
X68750Y431250D02*
X69000Y431500D01*
Y445000D01*
X77494Y453494D01*
X98985Y418765D02*
X99750Y418000D01*
X91350Y215950D02*
X113300Y194000D01*
X122100Y379900D02*
X125000Y377000D01*
X99750Y379900D02*
X122100D01*
X113300Y194000D02*
X164000D01*
X294000Y171750D02*
Y191750D01*
Y191750D02*
Y211965D01*
Y211965D02*
X294000Y211965D01*
X293875Y232375D02*
Y252625D01*
X293750Y252750D02*
X293875Y252625D01*
Y232375D02*
X294000Y232250D01*
X234000Y247000D02*
X248750Y232250D01*
X277000D01*
D37*
X498500Y148000D02*
D03*
X479500D02*
D03*
X487500Y379000D02*
D03*
X468500D02*
D03*
X467500Y354000D02*
D03*
X486500D02*
D03*
X464500Y108000D02*
D03*
X445500D02*
D03*
X402500Y20000D02*
D03*
X421500D02*
D03*
X412500Y105000D02*
D03*
X393500D02*
D03*
X68750Y431250D02*
D03*
X49750D02*
D03*
X223750Y153750D02*
D03*
X204750D02*
D03*
X181750Y154000D02*
D03*
X162750D02*
D03*
X259500Y663000D02*
D03*
X240500D02*
D03*
X259500Y637250D02*
D03*
X240500D02*
D03*
X347750Y614750D02*
D03*
X366750D02*
D03*
X240500Y587000D02*
D03*
X259500D02*
D03*
X240500Y562000D02*
D03*
X259500D02*
D03*
X543500Y655000D02*
D03*
X524500D02*
D03*
X321500Y527000D02*
D03*
X302500D02*
D03*
X504500Y630000D02*
D03*
X523500D02*
D03*
X504750Y606000D02*
D03*
X523750D02*
D03*
X495312Y492834D02*
D03*
X514312D02*
D03*
X475500Y558000D02*
D03*
X456500D02*
D03*
X558905Y519924D02*
D03*
X577906D02*
D03*
X559000Y596000D02*
D03*
X578000D02*
D03*
X470500Y281000D02*
D03*
X451500D02*
D03*
X642500Y172000D02*
D03*
X623500D02*
D03*
X491500Y20000D02*
D03*
X510500D02*
D03*
X533891Y96087D02*
D03*
X552891D02*
D03*
X510641Y45837D02*
D03*
X491641D02*
D03*
X491891Y96087D02*
D03*
X510891D02*
D03*
X491641Y70837D02*
D03*
X510641D02*
D03*
X362334Y440712D02*
D03*
X381334D02*
D03*
X381465Y466035D02*
D03*
X362465D02*
D03*
X691500Y60000D02*
D03*
X710500D02*
D03*
X649510Y26207D02*
D03*
X668510D02*
D03*
X296500Y276000D02*
D03*
X277500D02*
D03*
X68750Y406000D02*
D03*
X49750D02*
D03*
X223711Y179641D02*
D03*
X204711D02*
D03*
X117985Y441494D02*
D03*
X98985D02*
D03*
X297250Y640000D02*
D03*
X316250D02*
D03*
X426527Y391411D02*
D03*
X445527D02*
D03*
X475500Y583000D02*
D03*
X456500D02*
D03*
X657084Y111000D02*
D03*
X676084D02*
D03*
X348500Y557000D02*
D03*
X367500D02*
D03*
X547237Y490971D02*
D03*
X566237D02*
D03*
X377000Y306000D02*
D03*
X358000D02*
D03*
X607066Y26475D02*
D03*
X626067D02*
D03*
X367000Y589750D02*
D03*
X348000D02*
D03*
X240500Y612000D02*
D03*
X259500D02*
D03*
X408500Y281000D02*
D03*
X427500D02*
D03*
X577750Y545250D02*
D03*
X558750D02*
D03*
X577750Y570500D02*
D03*
X558750D02*
D03*
X107500Y303000D02*
D03*
X126500D02*
D03*
D38*
X391000Y608000D02*
D03*
X290000Y679000D02*
D03*
X794000Y82000D02*
D03*
X617500Y212500D02*
D03*
X569000Y63000D02*
D03*
X703000Y174000D02*
D03*
X652500Y667500D02*
D03*
X225000Y16000D02*
D03*
X348000Y635000D02*
D03*
X154000Y283000D02*
D03*
X178500Y610000D02*
D03*
X621000Y573000D02*
D03*
X619000Y545000D02*
D03*
X782000Y453000D02*
D03*
X808000Y440000D02*
D03*
X342000Y344000D02*
D03*
X324000Y203000D02*
D03*
X382022Y423803D02*
D03*
X45000Y216000D02*
D03*
X393068Y282000D02*
D03*
X452000Y225000D02*
D03*
X26000Y400000D02*
D03*
X222000Y221000D02*
D03*
X234000Y247000D02*
D03*
X862000Y146000D02*
D03*
X586500Y8906D02*
D03*
X35000Y143000D02*
D03*
D39*
X72000Y279450D02*
D03*
Y266750D02*
D03*
Y254050D02*
D03*
Y241350D02*
D03*
Y228650D02*
D03*
Y215950D02*
D03*
Y203250D02*
D03*
X124000Y279450D02*
D03*
Y266750D02*
D03*
Y254050D02*
D03*
Y241350D02*
D03*
Y228650D02*
D03*
Y215950D02*
D03*
Y203250D02*
D03*
X99750Y418000D02*
D03*
Y405300D02*
D03*
Y392600D02*
D03*
Y379900D02*
D03*
Y367200D02*
D03*
Y354500D02*
D03*
Y341800D02*
D03*
X151750Y418000D02*
D03*
Y405300D02*
D03*
Y392600D02*
D03*
Y379900D02*
D03*
Y367200D02*
D03*
Y354500D02*
D03*
Y341800D02*
D03*
D40*
X458500Y43450D02*
D03*
Y56150D02*
D03*
Y68850D02*
D03*
Y81550D02*
D03*
X406500Y43450D02*
D03*
Y56150D02*
D03*
Y68850D02*
D03*
Y81550D02*
D03*
X373462Y367610D02*
D03*
Y354910D02*
D03*
Y342210D02*
D03*
Y329510D02*
D03*
X425462Y367610D02*
D03*
Y354910D02*
D03*
Y342210D02*
D03*
Y329510D02*
D03*
X605500Y87800D02*
D03*
Y75100D02*
D03*
Y62400D02*
D03*
Y49700D02*
D03*
X657500Y87800D02*
D03*
Y75100D02*
D03*
Y62400D02*
D03*
Y49700D02*
D03*
D41*
X455000Y175500D02*
D03*
Y194500D02*
D03*
X485000Y306500D02*
D03*
Y325500D02*
D03*
X375000Y72500D02*
D03*
Y53500D02*
D03*
X808000Y386500D02*
D03*
Y405500D02*
D03*
X801000Y279500D02*
D03*
Y298500D02*
D03*
X226000Y277500D02*
D03*
Y296500D02*
D03*
X701000Y385500D02*
D03*
Y404500D02*
D03*
X560000Y391500D02*
D03*
Y410500D02*
D03*
X610000Y391500D02*
D03*
Y410500D02*
D03*
X555000Y167500D02*
D03*
Y186500D02*
D03*
X45250Y342000D02*
D03*
Y361000D02*
D03*
X206400Y342986D02*
D03*
Y361986D02*
D03*
X70500Y342000D02*
D03*
Y361000D02*
D03*
X181250Y343000D02*
D03*
Y362000D02*
D03*
X377000Y262500D02*
D03*
Y281500D02*
D03*
D42*
X352500Y54000D02*
D03*
Y71000D02*
D03*
X183000Y279500D02*
D03*
Y296500D02*
D03*
X203000Y279500D02*
D03*
Y296500D02*
D03*
D43*
X394285Y127640D02*
D03*
X411285D02*
D03*
X353924Y282500D02*
D03*
X336924D02*
D03*
X381500Y389000D02*
D03*
X398500D02*
D03*
X293750Y252750D02*
D03*
X276750D02*
D03*
X398750Y409500D02*
D03*
X381750D02*
D03*
X294000Y191750D02*
D03*
X277000D02*
D03*
X294000Y171750D02*
D03*
X277000D02*
D03*
X294000Y211965D02*
D03*
X277000D02*
D03*
X294000Y232250D02*
D03*
X277000D02*
D03*
D44*
X559600Y365000D02*
D03*
X585000D02*
D03*
X610400D02*
D03*
Y240000D02*
D03*
X585000D02*
D03*
X559600D02*
D03*
D45*
X95000Y70600D02*
D03*
D46*
X80010Y99810D02*
D03*
X109990D02*
D03*
D47*
X95000Y96500D02*
D03*
D48*
X62000Y177000D02*
D03*
Y154000D02*
D03*
Y131000D02*
D03*
D49*
X124000Y154000D02*
D03*
D50*
X287700Y557750D02*
D03*
X300400D02*
D03*
X313100D02*
D03*
X325800D02*
D03*
X287700Y609750D02*
D03*
X300400D02*
D03*
X313100D02*
D03*
X325800D02*
D03*
X498200Y523250D02*
D03*
X510900D02*
D03*
X523600D02*
D03*
X536300D02*
D03*
X498200Y575250D02*
D03*
X510900D02*
D03*
X523600D02*
D03*
X536300D02*
D03*
D51*
X54000Y216000D02*
X54000Y216000D01*
X45000Y216000D02*
X54000D01*
X45000Y216000D02*
X45000Y216000D01*
X21000Y216000D02*
X45000D01*
X99750Y341800D02*
X117929D01*
X120858Y332500D02*
Y338871D01*
X117929Y341800D02*
X120858Y338871D01*
X20000Y378000D02*
Y394000D01*
X26000Y400000D01*
X29929Y404000D02*
X47750D01*
X49429Y405679D01*
X26472Y400543D02*
X29929Y404000D01*
X349953Y466226D02*
X362191D01*
X342163Y458436D02*
X349953Y466226D01*
X205000Y179931D02*
Y205979D01*
X49750Y406000D02*
Y431250D01*
X98985Y418765D02*
Y441494D01*
X205250Y154250D02*
Y177750D01*
D52*
X95000Y70600D02*
Y96500D01*
X204711Y179641D02*
X205000Y179931D01*
X204750Y153750D02*
X205250Y154250D01*
X181750Y154000D02*
X181875Y153875D01*
X204625D01*
X134000Y154000D02*
X162750D01*
X72000D02*
X134000D01*
D53*
X697500Y287977D02*
D03*
X731000Y229953D02*
D03*
X831500Y287977D02*
D03*
X798000Y229953D02*
D03*
X731000Y346000D02*
D03*
X798000D02*
D03*
D54*
X870000Y30000D02*
D03*
Y670000D02*
D03*
X30000D02*
D03*
Y30000D02*
D03*
D55*
X797000Y520000D02*
D03*
D56*
Y550000D02*
D03*
Y580000D02*
D03*
X767000Y520000D02*
D03*
Y550000D02*
D03*
Y580000D02*
D03*
D57*
X840200Y498500D02*
D03*
Y601500D02*
D03*
D58*
X41755Y98750D02*
D03*
Y72750D02*
D03*
D59*
X21000Y266800D02*
D03*
D60*
Y190600D02*
D03*
Y216000D02*
D03*
Y241400D02*
D03*
D61*
X285800Y103780D02*
D03*
X260400D02*
D03*
X235000D02*
D03*
X184200D02*
D03*
D62*
X158800D02*
D03*
D63*
X679000Y41000D02*
D03*
X324000Y311000D02*
D03*
X349000Y335000D02*
D03*
X827000Y37000D02*
D03*
X865000Y323000D02*
D03*
X23000Y578000D02*
D03*
X554000Y46000D02*
D03*
X452000Y253000D02*
D03*
X54000Y216000D02*
D03*
X435500Y140000D02*
D03*
Y148000D02*
D03*
X555000Y140000D02*
D03*
X475000Y127000D02*
D03*
X120858Y332500D02*
D03*
X108000Y235000D02*
D03*
X190538Y220538D02*
D03*
X20000Y378000D02*
D03*
X279000Y397000D02*
D03*
X393000Y295000D02*
D03*
X342163Y458436D02*
D03*
X462000Y527000D02*
D03*
X338000D02*
D03*
X651000Y133000D02*
D03*
X511000Y113000D02*
D03*
X329000Y376000D02*
D03*
X199000Y244000D02*
D03*
X232000Y373000D02*
D03*
X386000Y29000D02*
D03*
X438000Y72000D02*
D03*
X752000Y63000D02*
D03*
X579000Y62000D02*
D03*
X623000Y145000D02*
D03*
X205000Y205979D02*
D03*
X97000Y242000D02*
D03*
X290000Y659000D02*
D03*
X160000Y610000D02*
D03*
X135000Y434234D02*
D03*
X196000Y324000D02*
D03*
X183000Y310929D02*
D03*
X148383Y234750D02*
D03*
X152000Y305000D02*
D03*
X145000Y242000D02*
D03*
X126000Y101000D02*
D03*
X47667Y382695D02*
D03*
X422500Y410000D02*
D03*
X613000Y11000D02*
D03*
X475000Y600000D02*
D03*
M02*
