M48
;Layer_Color=9474304
;FILE_FORMAT=4:4
METRIC,LZ
;TYPE=PLATED
T01F00S00C0.3000
T02F00S00C1.0000
T03F00S00C1.0200
T04F00S00C1.0500
T05F00S00C1.1000
T06F00S00C1.2000
T07F00S00C2.4100
%
T01
X00112Y00083
X00353Y00037
X0045Y00095
X00501Y00115
X00544837Y00176837
X005975Y00145
X0062Y003
X00535Y0032
X00464142Y00250858
X00425Y0028
X00399Y00187
X00343Y00177
Y00211
X0033657Y00336417
X00348Y00385
X00233397Y00374096
X00196Y00324
X00183Y00310929
X00152Y00305
X00145Y00242
X00148383Y0023475
X00191Y00221
X00205Y00205979
X00206Y00237
X0016Y0046
X0028562Y00506937
X00475Y0045
X00492057Y00209756
X00500688Y00151688
X00110173Y00235
X00097Y00242
X00045Y00205
X00047667Y00382695
X00027Y00374
X00121Y00331
X00135Y00434234
T02
X00040575Y00075753
Y00101753
T03
X00812Y0039
X00842
Y0042
X00812
Y0045
X00842
T04
X001608Y0009978
X001862
X00237
X002624
X002878
T05
X008015Y00101976
X008685
X00902Y0016
X008685Y00218024
X008015
X00768Y0016
T06
X00021Y001906
Y00216
Y002414
Y002668
T07
X008852Y003685
Y004715
M30
