G04*
G04 #@! TF.GenerationSoftware,Altium Limited,Altium Designer,24.0.1 (36)*
G04*
G04 Layer_Color=8388736*
%FSLAX44Y44*%
%MOMM*%
G71*
G04*
G04 #@! TF.SameCoordinates,0B949CC5-81DD-4DDC-A94B-3872E86EF17A*
G04*
G04*
G04 #@! TF.FilePolarity,Negative*
G04*
G01*
G75*
%ADD12C,0.1000*%
G04:AMPARAMS|DCode=14|XSize=1.6mm|YSize=1.4mm|CornerRadius=0.375mm|HoleSize=0mm|Usage=FLASHONLY|Rotation=270.000|XOffset=0mm|YOffset=0mm|HoleType=Round|Shape=RoundedRectangle|*
%AMROUNDEDRECTD14*
21,1,1.6000,0.6500,0,0,270.0*
21,1,0.8500,1.4000,0,0,270.0*
1,1,0.7500,-0.3250,-0.4250*
1,1,0.7500,-0.3250,0.4250*
1,1,0.7500,0.3250,0.4250*
1,1,0.7500,0.3250,-0.4250*
%
%ADD14ROUNDEDRECTD14*%
%ADD15C,0.8000*%
G04:AMPARAMS|DCode=16|XSize=0.7mm|YSize=2.3mm|CornerRadius=0.2mm|HoleSize=0mm|Usage=FLASHONLY|Rotation=90.000|XOffset=0mm|YOffset=0mm|HoleType=Round|Shape=RoundedRectangle|*
%AMROUNDEDRECTD16*
21,1,0.7000,1.9000,0,0,90.0*
21,1,0.3000,2.3000,0,0,90.0*
1,1,0.4000,0.9500,0.1500*
1,1,0.4000,0.9500,-0.1500*
1,1,0.4000,-0.9500,-0.1500*
1,1,0.4000,-0.9500,0.1500*
%
%ADD16ROUNDEDRECTD16*%
G04:AMPARAMS|DCode=17|XSize=0.7mm|YSize=2.35mm|CornerRadius=0.2mm|HoleSize=0mm|Usage=FLASHONLY|Rotation=90.000|XOffset=0mm|YOffset=0mm|HoleType=Round|Shape=RoundedRectangle|*
%AMROUNDEDRECTD17*
21,1,0.7000,1.9500,0,0,90.0*
21,1,0.3000,2.3500,0,0,90.0*
1,1,0.4000,0.9750,0.1500*
1,1,0.4000,0.9750,-0.1500*
1,1,0.4000,-0.9750,-0.1500*
1,1,0.4000,-0.9750,0.1500*
%
%ADD17ROUNDEDRECTD17*%
G04:AMPARAMS|DCode=18|XSize=1.6mm|YSize=1.4mm|CornerRadius=0.375mm|HoleSize=0mm|Usage=FLASHONLY|Rotation=180.000|XOffset=0mm|YOffset=0mm|HoleType=Round|Shape=RoundedRectangle|*
%AMROUNDEDRECTD18*
21,1,1.6000,0.6500,0,0,180.0*
21,1,0.8500,1.4000,0,0,180.0*
1,1,0.7500,-0.4250,0.3250*
1,1,0.7500,0.4250,0.3250*
1,1,0.7500,0.4250,-0.3250*
1,1,0.7500,-0.4250,-0.3250*
%
%ADD18ROUNDEDRECTD18*%
G04:AMPARAMS|DCode=19|XSize=1.1mm|YSize=1.2mm|CornerRadius=0.3mm|HoleSize=0mm|Usage=FLASHONLY|Rotation=0.000|XOffset=0mm|YOffset=0mm|HoleType=Round|Shape=RoundedRectangle|*
%AMROUNDEDRECTD19*
21,1,1.1000,0.6000,0,0,0.0*
21,1,0.5000,1.2000,0,0,0.0*
1,1,0.6000,0.2500,-0.3000*
1,1,0.6000,-0.2500,-0.3000*
1,1,0.6000,-0.2500,0.3000*
1,1,0.6000,0.2500,0.3000*
%
%ADD19ROUNDEDRECTD19*%
G04:AMPARAMS|DCode=20|XSize=1.1mm|YSize=1.2mm|CornerRadius=0.3mm|HoleSize=0mm|Usage=FLASHONLY|Rotation=90.000|XOffset=0mm|YOffset=0mm|HoleType=Round|Shape=RoundedRectangle|*
%AMROUNDEDRECTD20*
21,1,1.1000,0.6000,0,0,90.0*
21,1,0.5000,1.2000,0,0,90.0*
1,1,0.6000,0.3000,0.2500*
1,1,0.6000,0.3000,-0.2500*
1,1,0.6000,-0.3000,-0.2500*
1,1,0.6000,-0.3000,0.2500*
%
%ADD20ROUNDEDRECTD20*%
G04:AMPARAMS|DCode=21|XSize=2.6mm|YSize=1.6mm|CornerRadius=0.425mm|HoleSize=0mm|Usage=FLASHONLY|Rotation=90.000|XOffset=0mm|YOffset=0mm|HoleType=Round|Shape=RoundedRectangle|*
%AMROUNDEDRECTD21*
21,1,2.6000,0.7500,0,0,90.0*
21,1,1.7500,1.6000,0,0,90.0*
1,1,0.8500,0.3750,0.8750*
1,1,0.8500,0.3750,-0.8750*
1,1,0.8500,-0.3750,-0.8750*
1,1,0.8500,-0.3750,0.8750*
%
%ADD21ROUNDEDRECTD21*%
G04:AMPARAMS|DCode=22|XSize=2.3mm|YSize=3.8mm|CornerRadius=0.6mm|HoleSize=0mm|Usage=FLASHONLY|Rotation=180.000|XOffset=0mm|YOffset=0mm|HoleType=Round|Shape=RoundedRectangle|*
%AMROUNDEDRECTD22*
21,1,2.3000,2.6000,0,0,180.0*
21,1,1.1000,3.8000,0,0,180.0*
1,1,1.2000,-0.5500,1.3000*
1,1,1.2000,0.5500,1.3000*
1,1,1.2000,0.5500,-1.3000*
1,1,1.2000,-0.5500,-1.3000*
%
%ADD22ROUNDEDRECTD22*%
G04:AMPARAMS|DCode=23|XSize=1.3mm|YSize=2.3mm|CornerRadius=0.35mm|HoleSize=0mm|Usage=FLASHONLY|Rotation=90.000|XOffset=0mm|YOffset=0mm|HoleType=Round|Shape=RoundedRectangle|*
%AMROUNDEDRECTD23*
21,1,1.3000,1.6000,0,0,90.0*
21,1,0.6000,2.3000,0,0,90.0*
1,1,0.7000,0.8000,0.3000*
1,1,0.7000,0.8000,-0.3000*
1,1,0.7000,-0.8000,-0.3000*
1,1,0.7000,-0.8000,0.3000*
%
%ADD23ROUNDEDRECTD23*%
G04:AMPARAMS|DCode=24|XSize=3.6mm|YSize=2.3mm|CornerRadius=0.6mm|HoleSize=0mm|Usage=FLASHONLY|Rotation=90.000|XOffset=0mm|YOffset=0mm|HoleType=Round|Shape=RoundedRectangle|*
%AMROUNDEDRECTD24*
21,1,3.6000,1.1000,0,0,90.0*
21,1,2.4000,2.3000,0,0,90.0*
1,1,1.2000,0.5500,1.2000*
1,1,1.2000,0.5500,-1.2000*
1,1,1.2000,-0.5500,-1.2000*
1,1,1.2000,-0.5500,1.2000*
%
%ADD24ROUNDEDRECTD24*%
G04:AMPARAMS|DCode=25|XSize=0.7mm|YSize=2.35mm|CornerRadius=0.2mm|HoleSize=0mm|Usage=FLASHONLY|Rotation=180.000|XOffset=0mm|YOffset=0mm|HoleType=Round|Shape=RoundedRectangle|*
%AMROUNDEDRECTD25*
21,1,0.7000,1.9500,0,0,180.0*
21,1,0.3000,2.3500,0,0,180.0*
1,1,0.4000,-0.1500,0.9750*
1,1,0.4000,0.1500,0.9750*
1,1,0.4000,0.1500,-0.9750*
1,1,0.4000,-0.1500,-0.9750*
%
%ADD25ROUNDEDRECTD25*%
%ADD26C,1.6000*%
%ADD27C,3.1000*%
G04:AMPARAMS|DCode=28|XSize=1.6724mm|YSize=1.6724mm|CornerRadius=0.4562mm|HoleSize=0mm|Usage=FLASHONLY|Rotation=270.000|XOffset=0mm|YOffset=0mm|HoleType=Round|Shape=RoundedRectangle|*
%AMROUNDEDRECTD28*
21,1,1.6724,0.7600,0,0,270.0*
21,1,0.7600,1.6724,0,0,270.0*
1,1,0.9124,-0.3800,-0.3800*
1,1,0.9124,-0.3800,0.3800*
1,1,0.9124,0.3800,0.3800*
1,1,0.9124,0.3800,-0.3800*
%
%ADD28ROUNDEDRECTD28*%
%ADD29C,1.6724*%
%ADD30C,3.0624*%
%ADD31C,1.9000*%
G04:AMPARAMS|DCode=32|XSize=2.1mm|YSize=2.1mm|CornerRadius=0.55mm|HoleSize=0mm|Usage=FLASHONLY|Rotation=270.000|XOffset=0mm|YOffset=0mm|HoleType=Round|Shape=RoundedRectangle|*
%AMROUNDEDRECTD32*
21,1,2.1000,1.0000,0,0,270.0*
21,1,1.0000,2.1000,0,0,270.0*
1,1,1.1000,-0.5000,-0.5000*
1,1,1.1000,-0.5000,0.5000*
1,1,1.1000,0.5000,0.5000*
1,1,1.1000,0.5000,-0.5000*
%
%ADD32ROUNDEDRECTD32*%
%ADD33C,2.1000*%
%ADD34C,1.6750*%
G04:AMPARAMS|DCode=35|XSize=1.675mm|YSize=1.675mm|CornerRadius=0.4438mm|HoleSize=0mm|Usage=FLASHONLY|Rotation=0.000|XOffset=0mm|YOffset=0mm|HoleType=Round|Shape=RoundedRectangle|*
%AMROUNDEDRECTD35*
21,1,1.6750,0.7875,0,0,0.0*
21,1,0.7875,1.6750,0,0,0.0*
1,1,0.8875,0.3938,-0.3938*
1,1,0.8875,-0.3938,-0.3938*
1,1,0.8875,-0.3938,0.3938*
1,1,0.8875,0.3938,0.3938*
%
%ADD35ROUNDEDRECTD35*%
%ADD36C,0.7000*%
G36*
X74750Y107750D02*
X85250D01*
Y92000D01*
X74750D01*
Y107750D01*
D02*
G37*
G36*
X89750D02*
X100250D01*
Y92000D01*
X89750D01*
Y107750D01*
D02*
G37*
G36*
X104750D02*
X115250D01*
Y92000D01*
X104750D01*
Y107750D01*
D02*
G37*
D12*
X0Y0D02*
X900000D01*
X0Y700000D02*
X900000D01*
Y0D02*
Y700000D01*
X0Y0D02*
Y700000D01*
D14*
X498500Y148000D02*
D03*
X479500D02*
D03*
X487500Y379000D02*
D03*
X468500D02*
D03*
X467500Y354000D02*
D03*
X486500D02*
D03*
X464500Y108000D02*
D03*
X445500D02*
D03*
X402500Y20000D02*
D03*
X421500D02*
D03*
X412500Y105000D02*
D03*
X393500D02*
D03*
X68750Y431250D02*
D03*
X49750D02*
D03*
X223750Y153750D02*
D03*
X204750D02*
D03*
X181750Y154000D02*
D03*
X162750D02*
D03*
X259500Y663000D02*
D03*
X240500D02*
D03*
X259500Y637250D02*
D03*
X240500D02*
D03*
X347750Y614750D02*
D03*
X366750D02*
D03*
X240500Y587000D02*
D03*
X259500D02*
D03*
X240500Y562000D02*
D03*
X259500D02*
D03*
X543500Y655000D02*
D03*
X524500D02*
D03*
X321500Y527000D02*
D03*
X302500D02*
D03*
X504500Y630000D02*
D03*
X523500D02*
D03*
X504750Y606000D02*
D03*
X523750D02*
D03*
X495312Y492834D02*
D03*
X514312D02*
D03*
X475500Y558000D02*
D03*
X456500D02*
D03*
X558905Y519924D02*
D03*
X577906D02*
D03*
X559000Y596000D02*
D03*
X578000D02*
D03*
X470500Y281000D02*
D03*
X451500D02*
D03*
X642500Y172000D02*
D03*
X623500D02*
D03*
X491500Y20000D02*
D03*
X510500D02*
D03*
X533891Y96087D02*
D03*
X552891D02*
D03*
X510641Y45837D02*
D03*
X491641D02*
D03*
X491891Y96087D02*
D03*
X510891D02*
D03*
X491641Y70837D02*
D03*
X510641D02*
D03*
X362334Y440712D02*
D03*
X381334D02*
D03*
X381465Y466035D02*
D03*
X362465D02*
D03*
X691500Y60000D02*
D03*
X710500D02*
D03*
X649510Y26207D02*
D03*
X668510D02*
D03*
X296500Y276000D02*
D03*
X277500D02*
D03*
X68750Y406000D02*
D03*
X49750D02*
D03*
X223711Y179641D02*
D03*
X204711D02*
D03*
X117985Y441494D02*
D03*
X98985D02*
D03*
X297250Y640000D02*
D03*
X316250D02*
D03*
X426527Y391411D02*
D03*
X445527D02*
D03*
X475500Y583000D02*
D03*
X456500D02*
D03*
X657084Y111000D02*
D03*
X676084D02*
D03*
X348500Y557000D02*
D03*
X367500D02*
D03*
X547237Y490971D02*
D03*
X566237D02*
D03*
X377000Y306000D02*
D03*
X358000D02*
D03*
X607066Y26475D02*
D03*
X626067D02*
D03*
X367000Y589750D02*
D03*
X348000D02*
D03*
X240500Y612000D02*
D03*
X259500D02*
D03*
X408500Y281000D02*
D03*
X427500D02*
D03*
X577750Y545250D02*
D03*
X558750D02*
D03*
X577750Y570500D02*
D03*
X558750D02*
D03*
X107500Y303000D02*
D03*
X126500D02*
D03*
D15*
X391000Y608000D02*
D03*
X290000Y679000D02*
D03*
X794000Y82000D02*
D03*
X617500Y212500D02*
D03*
X569000Y63000D02*
D03*
X703000Y174000D02*
D03*
X652500Y667500D02*
D03*
X225000Y16000D02*
D03*
X348000Y635000D02*
D03*
X154000Y283000D02*
D03*
X178500Y610000D02*
D03*
X621000Y573000D02*
D03*
X619000Y545000D02*
D03*
X782000Y453000D02*
D03*
X808000Y440000D02*
D03*
X342000Y344000D02*
D03*
X324000Y203000D02*
D03*
X382022Y423803D02*
D03*
X45000Y216000D02*
D03*
X393068Y282000D02*
D03*
X452000Y225000D02*
D03*
X26000Y400000D02*
D03*
X222000Y221000D02*
D03*
X234000Y247000D02*
D03*
X862000Y146000D02*
D03*
X586500Y8906D02*
D03*
X35000Y143000D02*
D03*
D16*
X72000Y279450D02*
D03*
Y266750D02*
D03*
Y254050D02*
D03*
Y241350D02*
D03*
Y228650D02*
D03*
Y215950D02*
D03*
Y203250D02*
D03*
X124000Y279450D02*
D03*
Y266750D02*
D03*
Y254050D02*
D03*
Y241350D02*
D03*
Y228650D02*
D03*
Y215950D02*
D03*
Y203250D02*
D03*
X99750Y418000D02*
D03*
Y405300D02*
D03*
Y392600D02*
D03*
Y379900D02*
D03*
Y367200D02*
D03*
Y354500D02*
D03*
Y341800D02*
D03*
X151750Y418000D02*
D03*
Y405300D02*
D03*
Y392600D02*
D03*
Y379900D02*
D03*
Y367200D02*
D03*
Y354500D02*
D03*
Y341800D02*
D03*
D17*
X458500Y43450D02*
D03*
Y56150D02*
D03*
Y68850D02*
D03*
Y81550D02*
D03*
X406500Y43450D02*
D03*
Y56150D02*
D03*
Y68850D02*
D03*
Y81550D02*
D03*
X373462Y367610D02*
D03*
Y354910D02*
D03*
Y342210D02*
D03*
Y329510D02*
D03*
X425462Y367610D02*
D03*
Y354910D02*
D03*
Y342210D02*
D03*
Y329510D02*
D03*
X605500Y87800D02*
D03*
Y75100D02*
D03*
Y62400D02*
D03*
Y49700D02*
D03*
X657500Y87800D02*
D03*
Y75100D02*
D03*
Y62400D02*
D03*
Y49700D02*
D03*
D18*
X455000Y175500D02*
D03*
Y194500D02*
D03*
X485000Y306500D02*
D03*
Y325500D02*
D03*
X375000Y72500D02*
D03*
Y53500D02*
D03*
X808000Y386500D02*
D03*
Y405500D02*
D03*
X801000Y279500D02*
D03*
Y298500D02*
D03*
X226000Y277500D02*
D03*
Y296500D02*
D03*
X701000Y385500D02*
D03*
Y404500D02*
D03*
X560000Y391500D02*
D03*
Y410500D02*
D03*
X610000Y391500D02*
D03*
Y410500D02*
D03*
X555000Y167500D02*
D03*
Y186500D02*
D03*
X45250Y342000D02*
D03*
Y361000D02*
D03*
X206400Y342986D02*
D03*
Y361986D02*
D03*
X70500Y342000D02*
D03*
Y361000D02*
D03*
X181250Y343000D02*
D03*
Y362000D02*
D03*
X377000Y262500D02*
D03*
Y281500D02*
D03*
D19*
X352500Y54000D02*
D03*
Y71000D02*
D03*
X183000Y279500D02*
D03*
Y296500D02*
D03*
X203000Y279500D02*
D03*
Y296500D02*
D03*
D20*
X394285Y127640D02*
D03*
X411285D02*
D03*
X353924Y282500D02*
D03*
X336924D02*
D03*
X381500Y389000D02*
D03*
X398500D02*
D03*
X293750Y252750D02*
D03*
X276750D02*
D03*
X398750Y409500D02*
D03*
X381750D02*
D03*
X294000Y191750D02*
D03*
X277000D02*
D03*
X294000Y171750D02*
D03*
X277000D02*
D03*
X294000Y211965D02*
D03*
X277000D02*
D03*
X294000Y232250D02*
D03*
X277000D02*
D03*
D21*
X559600Y365000D02*
D03*
X585000D02*
D03*
X610400D02*
D03*
Y240000D02*
D03*
X585000D02*
D03*
X559600D02*
D03*
D22*
X95000Y70600D02*
D03*
D23*
X62000Y177000D02*
D03*
Y154000D02*
D03*
Y131000D02*
D03*
D24*
X124000Y154000D02*
D03*
D25*
X287700Y557750D02*
D03*
X300400D02*
D03*
X313100D02*
D03*
X325800D02*
D03*
X287700Y609750D02*
D03*
X300400D02*
D03*
X313100D02*
D03*
X325800D02*
D03*
X498200Y523250D02*
D03*
X510900D02*
D03*
X523600D02*
D03*
X536300D02*
D03*
X498200Y575250D02*
D03*
X510900D02*
D03*
X523600D02*
D03*
X536300D02*
D03*
D26*
X697500Y287977D02*
D03*
X731000Y229953D02*
D03*
X831500Y287977D02*
D03*
X798000Y229953D02*
D03*
X731000Y346000D02*
D03*
X798000D02*
D03*
D27*
X870000Y30000D02*
D03*
Y670000D02*
D03*
X30000D02*
D03*
Y30000D02*
D03*
D28*
X797000Y520000D02*
D03*
D29*
Y550000D02*
D03*
Y580000D02*
D03*
X767000Y520000D02*
D03*
Y550000D02*
D03*
Y580000D02*
D03*
D30*
X840200Y498500D02*
D03*
Y601500D02*
D03*
D31*
X41755Y98750D02*
D03*
Y72750D02*
D03*
D32*
X21000Y266800D02*
D03*
D33*
Y190600D02*
D03*
Y216000D02*
D03*
Y241400D02*
D03*
D34*
X285800Y103780D02*
D03*
X260400D02*
D03*
X235000D02*
D03*
X184200D02*
D03*
D35*
X158800D02*
D03*
D36*
X679000Y41000D02*
D03*
X324000Y311000D02*
D03*
X349000Y335000D02*
D03*
X827000Y37000D02*
D03*
X865000Y323000D02*
D03*
X23000Y578000D02*
D03*
X554000Y46000D02*
D03*
X452000Y253000D02*
D03*
X54000Y216000D02*
D03*
X435500Y140000D02*
D03*
Y148000D02*
D03*
X555000Y140000D02*
D03*
X475000Y127000D02*
D03*
X120858Y332500D02*
D03*
X108000Y235000D02*
D03*
X190538Y220538D02*
D03*
X20000Y378000D02*
D03*
X279000Y397000D02*
D03*
X393000Y295000D02*
D03*
X342163Y458436D02*
D03*
X462000Y527000D02*
D03*
X338000D02*
D03*
X651000Y133000D02*
D03*
X511000Y113000D02*
D03*
X329000Y376000D02*
D03*
X199000Y244000D02*
D03*
X232000Y373000D02*
D03*
X386000Y29000D02*
D03*
X438000Y72000D02*
D03*
X752000Y63000D02*
D03*
X579000Y62000D02*
D03*
X623000Y145000D02*
D03*
X205000Y205979D02*
D03*
X97000Y242000D02*
D03*
X290000Y659000D02*
D03*
X160000Y610000D02*
D03*
X135000Y434234D02*
D03*
X196000Y324000D02*
D03*
X183000Y310929D02*
D03*
X148383Y234750D02*
D03*
X152000Y305000D02*
D03*
X145000Y242000D02*
D03*
X126000Y101000D02*
D03*
X47667Y382695D02*
D03*
X422500Y410000D02*
D03*
X613000Y11000D02*
D03*
X475000Y600000D02*
D03*
M02*
