G04*
G04 #@! TF.GenerationSoftware,Altium Limited,Altium Designer,24.0.1 (36)*
G04*
G04 Layer_Physical_Order=2*
G04 Layer_Color=16711680*
%FSLAX44Y44*%
%MOMM*%
G71*
G04*
G04 #@! TF.SameCoordinates,0B949CC5-81DD-4DDC-A94B-3872E86EF17A*
G04*
G04*
G04 #@! TF.FilePolarity,Positive*
G04*
G01*
G75*
%ADD10C,0.3000*%
%ADD51C,0.5000*%
%ADD53C,1.5000*%
%ADD54C,3.0000*%
G04:AMPARAMS|DCode=55|XSize=1.52mm|YSize=1.52mm|CornerRadius=0.38mm|HoleSize=0mm|Usage=FLASHONLY|Rotation=270.000|XOffset=0mm|YOffset=0mm|HoleType=Round|Shape=RoundedRectangle|*
%AMROUNDEDRECTD55*
21,1,1.5200,0.7600,0,0,270.0*
21,1,0.7600,1.5200,0,0,270.0*
1,1,0.7600,-0.3800,-0.3800*
1,1,0.7600,-0.3800,0.3800*
1,1,0.7600,0.3800,0.3800*
1,1,0.7600,0.3800,-0.3800*
%
%ADD55ROUNDEDRECTD55*%
%ADD56C,1.5200*%
%ADD57C,2.9100*%
%ADD58C,1.8000*%
G04:AMPARAMS|DCode=59|XSize=2mm|YSize=2mm|CornerRadius=0.5mm|HoleSize=0mm|Usage=FLASHONLY|Rotation=270.000|XOffset=0mm|YOffset=0mm|HoleType=Round|Shape=RoundedRectangle|*
%AMROUNDEDRECTD59*
21,1,2.0000,1.0000,0,0,270.0*
21,1,1.0000,2.0000,0,0,270.0*
1,1,1.0000,-0.5000,-0.5000*
1,1,1.0000,-0.5000,0.5000*
1,1,1.0000,0.5000,0.5000*
1,1,1.0000,0.5000,-0.5000*
%
%ADD59ROUNDEDRECTD59*%
%ADD60C,2.0000*%
%ADD61C,1.5750*%
G04:AMPARAMS|DCode=62|XSize=1.575mm|YSize=1.575mm|CornerRadius=0.3938mm|HoleSize=0mm|Usage=FLASHONLY|Rotation=0.000|XOffset=0mm|YOffset=0mm|HoleType=Round|Shape=RoundedRectangle|*
%AMROUNDEDRECTD62*
21,1,1.5750,0.7875,0,0,0.0*
21,1,0.7875,1.5750,0,0,0.0*
1,1,0.7875,0.3938,-0.3938*
1,1,0.7875,-0.3938,-0.3938*
1,1,0.7875,-0.3938,0.3938*
1,1,0.7875,0.3938,0.3938*
%
%ADD62ROUNDEDRECTD62*%
%ADD63C,0.6000*%
G36*
X880834Y694231D02*
X884474Y692724D01*
X887749Y690535D01*
X890535Y687749D01*
X892724Y684474D01*
X894231Y680834D01*
X895000Y676970D01*
X895000Y675000D01*
X895000Y25000D01*
Y23030D01*
X894231Y19166D01*
X892724Y15526D01*
X890535Y12251D01*
X887749Y9465D01*
X884473Y7276D01*
X880834Y5769D01*
X876970Y5000D01*
X875000D01*
X671678D01*
X671152Y6270D01*
X671707Y6825D01*
X671874Y7075D01*
X672087Y7288D01*
X673291Y9090D01*
X673406Y9368D01*
X673574Y9619D01*
X674403Y11621D01*
X674462Y11916D01*
X674577Y12194D01*
X675000Y14319D01*
Y14621D01*
X675058Y14916D01*
X675058Y15998D01*
X675059Y16000D01*
Y31886D01*
X675000Y32182D01*
Y32483D01*
X674654Y34222D01*
X674539Y34500D01*
X674480Y34796D01*
X673802Y36434D01*
X673634Y36684D01*
X673519Y36962D01*
X672534Y38437D01*
X672321Y38649D01*
X672154Y38900D01*
X670900Y40154D01*
X670649Y40321D01*
X670436Y40534D01*
X668962Y41519D01*
X668684Y41634D01*
X668434Y41802D01*
X666796Y42480D01*
X666500Y42539D01*
X666222Y42654D01*
X664483Y43000D01*
X664182D01*
X663886Y43059D01*
X663000D01*
X663000Y43059D01*
X521760D01*
X251268Y43059D01*
X250675Y43117D01*
X249451Y43624D01*
X248624Y44451D01*
X248117Y45675D01*
X248059Y46267D01*
Y96041D01*
X248039Y96140D01*
X248052Y96241D01*
X247923Y96722D01*
X247826Y97211D01*
X247770Y97296D01*
X247743Y97394D01*
X247440Y97789D01*
X247163Y98204D01*
X247078Y98260D01*
X247017Y98340D01*
X246585Y98590D01*
X246171Y98867D01*
X246071Y98886D01*
X245983Y98937D01*
X245222Y99195D01*
X244626Y99647D01*
X244446Y100224D01*
X244400Y100707D01*
X244875Y102480D01*
Y105080D01*
X244400Y106853D01*
X244446Y107336D01*
X244626Y107913D01*
X245222Y108364D01*
X245983Y108623D01*
X246071Y108674D01*
X246171Y108693D01*
X246585Y108970D01*
X247017Y109220D01*
X247078Y109300D01*
X247163Y109356D01*
X247440Y109771D01*
X247743Y110167D01*
X247770Y110265D01*
X247826Y110349D01*
X247923Y110838D01*
X248052Y111319D01*
X248039Y111420D01*
X248059Y111519D01*
Y144925D01*
X248116Y146095D01*
X248587Y148462D01*
X249482Y150622D01*
X250781Y152566D01*
X252434Y154219D01*
X254378Y155518D01*
X256537Y156412D01*
X258905Y156883D01*
X260086Y156941D01*
X391477D01*
X391773Y157000D01*
X392074D01*
X394972Y157576D01*
X395250Y157692D01*
X395546Y157751D01*
X398276Y158881D01*
X398526Y159049D01*
X398805Y159164D01*
X401261Y160805D01*
X401474Y161018D01*
X401725Y161186D01*
X403814Y163275D01*
X403982Y163526D01*
X404194Y163739D01*
X405671Y165949D01*
X406655Y165785D01*
X406941Y165641D01*
Y140075D01*
X406860Y138414D01*
X406198Y135086D01*
X404929Y132020D01*
X403085Y129261D01*
X400739Y126915D01*
X400739Y126915D01*
X397980Y125071D01*
X394914Y123802D01*
X391585Y123140D01*
X390637Y123094D01*
X390637Y123094D01*
X389924Y123059D01*
X388809Y123059D01*
X290001Y123059D01*
X289317Y123059D01*
X289317Y123059D01*
X289016Y123059D01*
X288720Y123000D01*
X288720D01*
X288720Y123000D01*
X288720D01*
X288720Y123000D01*
X288419Y123000D01*
X288124Y122942D01*
X288124D01*
X286783Y122675D01*
X286783Y122675D01*
X286782D01*
X286487Y122617D01*
X286209Y122501D01*
X285913Y122443D01*
X285635Y122327D01*
X285635Y122327D01*
X285635Y122327D01*
X284093Y121689D01*
X283843Y121522D01*
X283564Y121407D01*
X282177Y120480D01*
X282177Y120480D01*
X281926Y120312D01*
X281713Y120099D01*
X281462Y119932D01*
X280283Y118752D01*
X280283Y118752D01*
X280070Y118539D01*
X279902Y118289D01*
X279902Y118289D01*
X279902Y118289D01*
X279902Y118288D01*
X279689Y118076D01*
X279522Y117825D01*
X279522Y117825D01*
X279444Y117709D01*
X279382Y117559D01*
X279365Y117542D01*
X279343Y117488D01*
X279276Y117407D01*
X279210Y117285D01*
X279137Y117040D01*
X279060Y116897D01*
X279046Y116852D01*
X279036Y116748D01*
X278908Y116440D01*
X278908Y116288D01*
X278864Y116143D01*
X278908Y115695D01*
X278908Y115246D01*
X278966Y115106D01*
X278981Y114955D01*
X279130Y114677D01*
X279146Y114589D01*
X279239Y114446D01*
X279364Y114144D01*
X279442Y114028D01*
X279516Y113954D01*
X279543Y113902D01*
X279651Y113814D01*
X279798Y113589D01*
X280051Y113330D01*
X279891Y111785D01*
X279871Y111760D01*
X279736Y111682D01*
X277898Y109843D01*
X276598Y107592D01*
X275925Y105080D01*
Y102480D01*
X276598Y99968D01*
X277898Y97717D01*
X278781Y96833D01*
X278650Y95376D01*
X278566Y95250D01*
X278449Y95154D01*
X278419Y95118D01*
X278301Y95039D01*
X278299Y95038D01*
X278298Y95037D01*
X278086Y94825D01*
X277837Y94658D01*
X277670Y94408D01*
X277457Y94195D01*
X277456Y94193D01*
X277455Y94192D01*
X277341Y93915D01*
X277174Y93666D01*
X277115Y93371D01*
X277000Y93092D01*
Y93091D01*
X276999Y93089D01*
X277000Y92789D01*
X276941Y92495D01*
Y89015D01*
X277000Y88720D01*
Y88418D01*
X277384Y86486D01*
X277500Y86208D01*
X277558Y85913D01*
X278312Y84093D01*
X278480Y83842D01*
X278595Y83564D01*
X279689Y81926D01*
X279902Y81713D01*
X280070Y81462D01*
X281462Y80070D01*
X281713Y79902D01*
X281926Y79689D01*
X283564Y78595D01*
X283842Y78479D01*
X284093Y78312D01*
X285912Y77558D01*
X286208Y77500D01*
X286486Y77384D01*
X288418Y77000D01*
X288720D01*
X289015Y76941D01*
X290000D01*
X434074Y76941D01*
X434600Y75671D01*
X433761Y74832D01*
X433000Y72995D01*
Y71005D01*
X433761Y69168D01*
X435168Y67761D01*
X437005Y67000D01*
X438994D01*
X439989Y67412D01*
X486000D01*
X487756Y67761D01*
X489244Y68756D01*
X498482Y77994D01*
X498913Y78152D01*
X499698Y78313D01*
X500189Y77904D01*
X500504Y77560D01*
X500565Y77531D01*
X500613Y77484D01*
X501104Y77281D01*
X501155Y77257D01*
X501279Y77174D01*
X501372Y77155D01*
X501586Y77056D01*
X501653Y77053D01*
X501716Y77027D01*
X501853Y77000D01*
X502154Y77000D01*
X502449Y76941D01*
X659182D01*
X659477Y77000D01*
X659779D01*
X662097Y77461D01*
X662375Y77576D01*
X662671Y77635D01*
X664855Y78540D01*
X665105Y78707D01*
X665383Y78822D01*
X667349Y80136D01*
X667562Y80349D01*
X667812Y80516D01*
X668025Y80729D01*
X669484Y82188D01*
X669651Y82438D01*
X669651Y82438D01*
X669651Y82438D01*
X669864Y82651D01*
X670031Y82901D01*
X670032Y82902D01*
X671177Y84616D01*
X671293Y84895D01*
X671460Y85145D01*
X672365Y87329D01*
X672423Y87625D01*
X672539Y87903D01*
X673000Y90221D01*
Y90523D01*
X673058Y90818D01*
X673058Y91999D01*
X673059Y92000D01*
Y137000D01*
Y137974D01*
X673000Y138270D01*
Y138571D01*
X672885Y139150D01*
X672769Y139429D01*
X672711Y139724D01*
X671965Y141524D01*
X671798Y141775D01*
X671682Y142053D01*
X671354Y142544D01*
X671141Y142757D01*
X670974Y143008D01*
X669596Y144386D01*
X669345Y144553D01*
X669133Y144766D01*
X668641Y145094D01*
X668363Y145210D01*
X668112Y145377D01*
X666312Y146123D01*
X666017Y146181D01*
X665739Y146297D01*
X665159Y146412D01*
X664858D01*
X664562Y146471D01*
X627803D01*
X627239Y147832D01*
X625832Y149239D01*
X623995Y150000D01*
X623677D01*
X622433Y151244D01*
X620944Y152239D01*
X619188Y152588D01*
X493059D01*
Y249395D01*
X493059Y308122D01*
Y337099D01*
Y370307D01*
Y378000D01*
Y393500D01*
Y498427D01*
X493059Y523395D01*
Y635000D01*
X493059Y637163D01*
X493019Y637361D01*
X493033Y637562D01*
X492468Y641851D01*
X492403Y642042D01*
X492390Y642243D01*
X491270Y646422D01*
X491181Y646603D01*
X491142Y646801D01*
X489486Y650797D01*
X489374Y650965D01*
X489309Y651156D01*
X487146Y654902D01*
X487013Y655054D01*
X486924Y655235D01*
X484291Y658667D01*
X484139Y658800D01*
X484027Y658968D01*
X480968Y662027D01*
X480800Y662139D01*
X480667Y662290D01*
X477235Y664924D01*
X477054Y665013D01*
X476902Y665146D01*
X473156Y667309D01*
X472965Y667374D01*
X472797Y667486D01*
X468801Y669141D01*
X468603Y669181D01*
X468422Y669270D01*
X464243Y670390D01*
X464042Y670403D01*
X463851Y670468D01*
X459562Y671032D01*
X459360Y671019D01*
X459162Y671058D01*
X457003Y671058D01*
X455790Y671059D01*
X455789Y671059D01*
X455789Y671059D01*
X71771D01*
X71574Y671019D01*
X71372Y671033D01*
X66953Y670451D01*
X66762Y670386D01*
X66561Y670373D01*
X62256Y669219D01*
X62075Y669130D01*
X61877Y669091D01*
X57759Y667385D01*
X57592Y667273D01*
X57400Y667208D01*
X53541Y664980D01*
X53389Y664846D01*
X53208Y664757D01*
X49672Y662044D01*
X49539Y661892D01*
X49371Y661780D01*
X46220Y658629D01*
X46108Y658461D01*
X45956Y658328D01*
X43243Y654792D01*
X43154Y654611D01*
X43020Y654459D01*
X40792Y650600D01*
X40727Y650408D01*
X40615Y650241D01*
X38909Y646123D01*
X38870Y645925D01*
X38781Y645744D01*
X37627Y641439D01*
X37614Y641238D01*
X37549Y641047D01*
X36967Y636628D01*
X36981Y636426D01*
X36941Y636228D01*
X36941Y634000D01*
X36941Y632730D01*
Y378000D01*
X36941Y377212D01*
X37000Y376917D01*
Y376615D01*
X37059Y376320D01*
Y376320D01*
X37307Y375070D01*
X37423Y374791D01*
X37482Y374496D01*
X38084Y373040D01*
X38252Y372789D01*
X38367Y372511D01*
X39243Y371201D01*
X39456Y370988D01*
X39623Y370737D01*
X40737Y369623D01*
X40988Y369456D01*
X41201Y369243D01*
X42261Y368535D01*
X42261Y368535D01*
X42511Y368367D01*
X42790Y368252D01*
X43040Y368084D01*
X44496Y367481D01*
X44791Y367423D01*
X45070Y367307D01*
X45365Y367249D01*
X45365Y367249D01*
X46320Y367059D01*
X46320D01*
X46615Y367000D01*
X46917D01*
X47212Y366941D01*
X48000Y366941D01*
X48000Y366941D01*
X48000Y366941D01*
X72788D01*
X73083Y367000D01*
X73385D01*
X74930Y367307D01*
X75208Y367423D01*
X75504Y367481D01*
X76960Y368084D01*
X77210Y368252D01*
X77489Y368367D01*
X78799Y369243D01*
X79012Y369456D01*
X79262Y369623D01*
X80377Y370737D01*
X80544Y370988D01*
X80757Y371201D01*
X81633Y372511D01*
X81748Y372789D01*
X81915Y373040D01*
X82403Y374217D01*
X82403Y374218D01*
X82518Y374496D01*
X82577Y374791D01*
X82692Y375070D01*
X82941Y376320D01*
Y376320D01*
X83000Y376615D01*
Y376917D01*
X83059Y377212D01*
X83059Y377999D01*
X83059Y378000D01*
X83059Y461925D01*
X83131Y463389D01*
X83716Y466333D01*
X84836Y469036D01*
X86462Y471469D01*
X88531Y473538D01*
X90964Y475164D01*
X93667Y476283D01*
X96611Y476869D01*
X98083Y476941D01*
X118834Y476941D01*
X129513Y476941D01*
X129513Y476941D01*
X130412Y476204D01*
X130412Y436223D01*
X130000Y435229D01*
Y433239D01*
X130761Y431402D01*
X132168Y429995D01*
X134005Y429234D01*
X135995D01*
X137832Y429995D01*
X139239Y431402D01*
X140000Y433239D01*
Y435229D01*
X139588Y436223D01*
X139588Y475819D01*
X139824Y476210D01*
X140858Y476941D01*
X381950Y476941D01*
X383581Y476888D01*
X386865Y476455D01*
X390015Y475611D01*
X393028Y474363D01*
X395853Y472732D01*
X398441Y470747D01*
X400747Y468440D01*
X402732Y465853D01*
X404363Y463028D01*
X405611Y460015D01*
X406455Y456864D01*
X406888Y453581D01*
X406941Y451938D01*
X406941Y450812D01*
Y392343D01*
X406592Y392062D01*
X405768Y391721D01*
X397244Y400244D01*
X395756Y401239D01*
X394000Y401588D01*
X280989D01*
X279995Y402000D01*
X278005D01*
X276168Y401239D01*
X274761Y399832D01*
X274000Y397995D01*
Y396005D01*
X274694Y394329D01*
X274211Y393059D01*
X219608D01*
Y396677D01*
X275759Y452829D01*
X342163D01*
X344309Y453255D01*
X346128Y454471D01*
X347344Y456290D01*
X347771Y458436D01*
X347344Y460582D01*
X346128Y462402D01*
X344309Y463617D01*
X342163Y464044D01*
X273436D01*
X271290Y463617D01*
X269471Y462402D01*
X210035Y402965D01*
X208819Y401146D01*
X208392Y399000D01*
Y217573D01*
X201035Y210215D01*
X199819Y208396D01*
X199392Y206250D01*
Y205979D01*
X199819Y203834D01*
X201035Y202014D01*
X202854Y200799D01*
X205000Y200372D01*
X207146Y200799D01*
X208965Y202014D01*
X209510Y202830D01*
X217965Y211285D01*
X219181Y213104D01*
X219608Y215250D01*
Y356941D01*
X336941D01*
Y334648D01*
X337089Y333904D01*
X337174Y333477D01*
X337837Y332485D01*
X337982Y331057D01*
X337916Y330905D01*
X323011Y316000D01*
X323005D01*
X321168Y315239D01*
X319761Y313832D01*
X319000Y311995D01*
Y310005D01*
X319761Y308168D01*
X321168Y306761D01*
X323005Y306000D01*
X324995D01*
X326832Y306761D01*
X328239Y308168D01*
X328297Y308308D01*
X335768Y315779D01*
X336941Y315293D01*
Y210075D01*
X336908Y209394D01*
X336629Y207988D01*
X336109Y206734D01*
X335355Y205605D01*
X334395Y204645D01*
X333266Y203891D01*
X332011Y203371D01*
X330634Y203097D01*
X330634Y203097D01*
X330633D01*
X330606Y203092D01*
X329925Y203059D01*
X240000Y203059D01*
X238031Y203059D01*
X237735Y203000D01*
X237434Y203000D01*
X233570Y202232D01*
X233291Y202117D01*
X232995Y202058D01*
X229356Y200551D01*
X229105Y200383D01*
X228827Y200268D01*
X225551Y198079D01*
X225338Y197866D01*
X225087Y197699D01*
X222301Y194913D01*
X222134Y194662D01*
X221921Y194449D01*
X219732Y191173D01*
X219617Y190895D01*
X219449Y190644D01*
X217942Y187004D01*
X217883Y186709D01*
X217768Y186430D01*
X217000Y182566D01*
X217000Y182265D01*
X216941Y181969D01*
X216941Y180000D01*
X216941Y179999D01*
X216941Y178804D01*
Y19000D01*
Y17621D01*
X217000Y17326D01*
Y17024D01*
X217538Y14320D01*
X217653Y14041D01*
X217712Y13746D01*
X218767Y11198D01*
X218935Y10947D01*
X219050Y10669D01*
X220582Y8376D01*
X220795Y8163D01*
X220963Y7913D01*
X222605Y6270D01*
X222190Y5057D01*
X222145Y5000D01*
X25000D01*
X23030Y5000D01*
X19166Y5768D01*
X15526Y7276D01*
X12250Y9465D01*
X9465Y12251D01*
X7276Y15526D01*
X5768Y19166D01*
X5000Y23030D01*
X5000Y25000D01*
Y673804D01*
X5000Y675000D01*
X5000Y675000D01*
X5000Y675000D01*
X5000Y676970D01*
X5768Y680834D01*
X7276Y684474D01*
X9465Y687749D01*
X12251Y690535D01*
X15526Y692724D01*
X19166Y694231D01*
X23030Y695000D01*
X25000Y695000D01*
X875000Y695000D01*
X875000Y695000D01*
X875000Y695000D01*
X876970Y695000D01*
X880834Y694231D01*
D02*
G37*
G36*
X457002Y668000D02*
X459163Y668000D01*
X463451Y667435D01*
X467630Y666316D01*
X471627Y664660D01*
X475373Y662497D01*
X478805Y659864D01*
X481864Y656805D01*
X484497Y653373D01*
X486660Y649627D01*
X488316Y645630D01*
X489435Y641452D01*
X489435Y641452D01*
X490000Y637163D01*
X490000Y635000D01*
Y523395D01*
X490000Y498427D01*
Y393500D01*
Y378000D01*
Y370307D01*
Y337099D01*
Y308122D01*
X490000Y249395D01*
Y152588D01*
X437633D01*
X437451Y152710D01*
X435500Y153098D01*
X433549Y152710D01*
X431895Y151605D01*
X430790Y149951D01*
X430402Y148000D01*
X430790Y146049D01*
X431555Y144905D01*
X431792Y144000D01*
X431555Y143095D01*
X430790Y141951D01*
X430402Y140000D01*
X430790Y138049D01*
X431895Y136395D01*
X433549Y135290D01*
X435500Y134902D01*
X437451Y135290D01*
X437633Y135412D01*
X552867D01*
X553049Y135290D01*
X555000Y134902D01*
X556951Y135290D01*
X558605Y136395D01*
X559710Y138049D01*
X560098Y140000D01*
X559710Y141951D01*
X559482Y142292D01*
X560081Y143412D01*
X617288D01*
X618944Y141756D01*
X619324Y141502D01*
X619395Y141395D01*
X621049Y140290D01*
X623000Y139902D01*
X624951Y140290D01*
X626605Y141395D01*
X627710Y143049D01*
X627782Y143412D01*
X664562D01*
X665142Y143296D01*
X666942Y142551D01*
X667433Y142223D01*
X668811Y140845D01*
X669139Y140354D01*
X669885Y138554D01*
X670000Y137974D01*
Y137000D01*
Y92000D01*
X670000Y92000D01*
X670000Y90818D01*
X669941Y90523D01*
Y90522D01*
X669539Y88500D01*
X668634Y86316D01*
X667488Y84601D01*
X667488Y84601D01*
X667321Y84350D01*
X665862Y82892D01*
X665862Y82892D01*
X665649Y82679D01*
X663684Y81366D01*
X661500Y80461D01*
X659182Y80000D01*
X502449D01*
X502312Y80027D01*
X502142Y80308D01*
X502016Y81395D01*
X502080Y81591D01*
X514244Y93756D01*
X515239Y95244D01*
X515588Y97000D01*
Y110867D01*
X515710Y111049D01*
X516098Y113000D01*
X515710Y114951D01*
X514605Y116605D01*
X512951Y117710D01*
X511000Y118098D01*
X509049Y117710D01*
X507395Y116605D01*
X506290Y114951D01*
X505902Y113000D01*
X506290Y111049D01*
X506412Y110867D01*
Y98900D01*
X487511Y80000D01*
X290000Y80000D01*
X289015D01*
X287083Y80384D01*
X285263Y81138D01*
X285013Y81305D01*
X285013Y81306D01*
X283625Y82233D01*
X282232Y83625D01*
X281138Y85263D01*
X280384Y87083D01*
X280000Y89015D01*
Y92495D01*
X280000Y92496D01*
X280287Y92687D01*
X280394Y92795D01*
X280528Y92866D01*
X280813Y93214D01*
X281039Y93440D01*
X282830Y92698D01*
X284050Y92537D01*
Y103780D01*
Y115023D01*
X282830Y114862D01*
X281985Y115727D01*
X281908Y115843D01*
X281973Y115965D01*
X281987Y116009D01*
X282065Y116126D01*
X282065Y116126D01*
X282232Y116376D01*
X282445Y116589D01*
X282445Y116589D01*
X283625Y117769D01*
X283876Y117936D01*
X283876Y117936D01*
X285013Y118696D01*
X285013Y118696D01*
X285263Y118863D01*
X286805Y119501D01*
X286805Y119501D01*
X287083Y119616D01*
X287379Y119675D01*
X287379Y119675D01*
X288720Y119942D01*
X288720D01*
X289015Y120000D01*
X289316Y120000D01*
X289316Y120000D01*
X290000Y120000D01*
X388809Y120000D01*
X389924Y120000D01*
X390000Y120000D01*
X390787Y120038D01*
X391960Y120096D01*
X391960Y120096D01*
X395806Y120860D01*
X399428Y122360D01*
X402438Y124371D01*
X402438Y124371D01*
X402688Y124539D01*
X402901Y124752D01*
X402902Y124752D01*
X405248Y127098D01*
X405248Y127098D01*
X405461Y127311D01*
X407472Y130321D01*
X407472Y130321D01*
X407639Y130571D01*
X409140Y134194D01*
X409860Y137818D01*
Y137818D01*
X409904Y138040D01*
X410000Y140000D01*
X410000Y372852D01*
X411173Y373338D01*
X447412Y337099D01*
Y255133D01*
X447290Y254951D01*
X446902Y253000D01*
X447290Y251049D01*
X448395Y249395D01*
X450049Y248290D01*
X452000Y247902D01*
X453951Y248290D01*
X455605Y249395D01*
X456710Y251049D01*
X457098Y253000D01*
X456710Y254951D01*
X456588Y255133D01*
Y339000D01*
X456239Y340756D01*
X455244Y342244D01*
X410000Y387489D01*
Y392207D01*
Y450812D01*
X410000Y452000D01*
X410000Y452000D01*
X409940Y453831D01*
X409462Y457462D01*
X408514Y461000D01*
X407112Y464384D01*
X405281Y467556D01*
X403051Y470461D01*
X400462Y473051D01*
X400303Y473173D01*
X400303Y473173D01*
X397556Y475281D01*
X394384Y477112D01*
X391000Y478514D01*
X387463Y479462D01*
X383831Y479940D01*
X382000Y480000D01*
X140486Y480000D01*
X140486Y480000D01*
X139588Y480811D01*
X139587Y583098D01*
X161736Y605247D01*
X161951Y605290D01*
X163605Y606395D01*
X164710Y608049D01*
X165098Y610000D01*
X164710Y611951D01*
X163605Y613605D01*
X161951Y614710D01*
X160000Y615098D01*
X158049Y614710D01*
X156395Y613605D01*
X155290Y611951D01*
X155247Y611736D01*
X131754Y588243D01*
X130760Y586755D01*
X130410Y584999D01*
X130411Y480898D01*
X129513Y480000D01*
X118834Y480000D01*
X98000Y480000D01*
X98000Y480000D01*
X96236Y479913D01*
X92775Y479225D01*
X92496Y479109D01*
X92496Y479109D01*
X89793Y477990D01*
X89793Y477990D01*
X89515Y477874D01*
X86581Y475914D01*
X84086Y473419D01*
X82125Y470485D01*
X80775Y467225D01*
X80087Y463764D01*
X80000Y462000D01*
X80000Y378000D01*
X80000Y378000D01*
X80000Y377212D01*
X79941Y376917D01*
Y376917D01*
X79692Y375667D01*
X79577Y375388D01*
X79577Y375388D01*
X79089Y374211D01*
X78922Y373960D01*
X78922Y373960D01*
X78214Y372900D01*
X77100Y371786D01*
X75789Y370910D01*
X74333Y370307D01*
X72788Y370000D01*
X48000D01*
X48000Y370000D01*
X47212Y370000D01*
X46917Y370059D01*
X46917D01*
X45962Y370249D01*
X45962Y370249D01*
X45666Y370307D01*
X44211Y370910D01*
X43960Y371078D01*
X43960Y371078D01*
X42900Y371786D01*
X41786Y372900D01*
X40911Y374211D01*
X40307Y375667D01*
X40059Y376917D01*
Y376917D01*
X40000Y377212D01*
X40000Y378000D01*
Y632730D01*
X40000Y634000D01*
X40000Y636228D01*
X40582Y640647D01*
X41735Y644952D01*
X43441Y649070D01*
X45669Y652930D01*
X48383Y656466D01*
X51534Y659617D01*
X55070Y662331D01*
X58930Y664559D01*
X63048Y666265D01*
X67353Y667418D01*
X71771Y668000D01*
X455789D01*
X457002Y668000D01*
D02*
G37*
G36*
X405000Y379511D02*
Y360000D01*
Y340098D01*
X405000Y333049D01*
Y320011D01*
X405000Y175000D01*
X405000Y175000D01*
Y173523D01*
X404423Y170625D01*
X403293Y167895D01*
X401651Y165438D01*
X399562Y163349D01*
X397105Y161707D01*
X394375Y160576D01*
X391477Y160000D01*
X260000D01*
X260000Y160000D01*
X258529Y159927D01*
X255645Y159354D01*
X252929Y158228D01*
X250484Y156595D01*
X248405Y154516D01*
X246771Y152071D01*
X245646Y149354D01*
X245072Y146470D01*
X245000Y145000D01*
Y111519D01*
X243730Y111088D01*
X243113Y111893D01*
X240737Y113716D01*
X237969Y114862D01*
X236750Y115023D01*
Y103780D01*
Y92537D01*
X237969Y92698D01*
X240737Y93844D01*
X243113Y95667D01*
X243730Y96472D01*
X245000Y96041D01*
Y46118D01*
X245000Y46117D01*
X245117Y44924D01*
X246031Y42718D01*
X247719Y41031D01*
X249924Y40117D01*
X251117Y40000D01*
X521760Y40000D01*
X663000D01*
Y40000D01*
X663886D01*
X665625Y39654D01*
X667263Y38976D01*
X668737Y37991D01*
X669991Y36737D01*
X670976Y35263D01*
X671654Y33625D01*
X672000Y31886D01*
Y16000D01*
X672000Y16000D01*
X672000Y14916D01*
X671577Y12791D01*
X670748Y10789D01*
X669544Y8988D01*
X668012Y7456D01*
X666210Y6252D01*
X664208Y5423D01*
X662083Y5000D01*
X661000D01*
X234000Y5000D01*
X232621Y5000D01*
X229916Y5538D01*
X227369Y6593D01*
X225075Y8126D01*
X223125Y10076D01*
X221593Y12369D01*
X220538Y14916D01*
X220000Y17621D01*
Y19000D01*
Y178804D01*
X220000Y180000D01*
X220000Y180000D01*
X220000Y180000D01*
X220000Y181970D01*
X220768Y185834D01*
X222275Y189474D01*
X224464Y192750D01*
X227250Y195536D01*
X230526Y197725D01*
X234166Y199232D01*
X238030Y200000D01*
X240000Y200000D01*
X330000Y200000D01*
X330980Y200048D01*
X331230Y200097D01*
X332903Y200430D01*
X334715Y201180D01*
X336345Y202269D01*
X337731Y203655D01*
X338820Y205285D01*
X339570Y207097D01*
X339952Y209020D01*
X340000Y210000D01*
Y320011D01*
X350112Y330123D01*
X350951Y330290D01*
X352605Y331395D01*
X353710Y333049D01*
X354098Y335000D01*
X353710Y336951D01*
X352605Y338605D01*
X350951Y339710D01*
X349000Y340098D01*
X347049Y339710D01*
X345395Y338605D01*
X344950Y337939D01*
X341173Y334162D01*
X340000Y334648D01*
Y360000D01*
X219608D01*
Y390000D01*
X394511D01*
X405000Y379511D01*
D02*
G37*
%LPC*%
G36*
X871723Y687500D02*
X868276D01*
X864895Y686827D01*
X861711Y685508D01*
X858844Y683593D01*
X856407Y681155D01*
X854492Y678289D01*
X853172Y675104D01*
X852500Y671723D01*
Y668276D01*
X853172Y664895D01*
X854492Y661711D01*
X856407Y658844D01*
X858844Y656407D01*
X861711Y654492D01*
X864895Y653172D01*
X868276Y652500D01*
X871723D01*
X875104Y653172D01*
X878289Y654492D01*
X881155Y656407D01*
X883593Y658844D01*
X885508Y661711D01*
X886827Y664895D01*
X887500Y668276D01*
Y671723D01*
X886827Y675104D01*
X885508Y678289D01*
X883593Y681155D01*
X881155Y683593D01*
X878289Y685508D01*
X875104Y686827D01*
X871723Y687500D01*
D02*
G37*
G36*
X31724D02*
X28276D01*
X24896Y686827D01*
X21711Y685508D01*
X18844Y683593D01*
X16407Y681155D01*
X14492Y678289D01*
X13173Y675104D01*
X12500Y671723D01*
Y668276D01*
X13173Y664895D01*
X14492Y661711D01*
X16407Y658844D01*
X18844Y656407D01*
X21711Y654492D01*
X24896Y653172D01*
X28276Y652500D01*
X31724D01*
X35105Y653172D01*
X38289Y654492D01*
X41156Y656407D01*
X43593Y658844D01*
X45508Y661711D01*
X46828Y664895D01*
X47500Y668276D01*
Y671723D01*
X46828Y675104D01*
X45508Y678289D01*
X43593Y681155D01*
X41156Y683593D01*
X38289Y685508D01*
X35105Y686827D01*
X31724Y687500D01*
D02*
G37*
G36*
X819600Y623809D02*
X803600D01*
X802430Y623576D01*
X801437Y622913D01*
X800774Y621921D01*
X800541Y620750D01*
Y596250D01*
X800774Y595079D01*
X801437Y594087D01*
X802430Y593424D01*
X803600Y593191D01*
X819600D01*
X820770Y593424D01*
X821763Y594087D01*
X822426Y595079D01*
X822659Y596250D01*
Y598344D01*
X823929Y598469D01*
X824286Y596673D01*
X825534Y593661D01*
X827345Y590950D01*
X829650Y588645D01*
X832361Y586834D01*
X835373Y585586D01*
X838570Y584950D01*
X841830D01*
X845027Y585586D01*
X848039Y586834D01*
X850750Y588645D01*
X853055Y590950D01*
X854866Y593661D01*
X856114Y596673D01*
X856750Y599870D01*
Y603130D01*
X856114Y606328D01*
X854866Y609339D01*
X853055Y612050D01*
X850750Y614355D01*
X848039Y616166D01*
X845027Y617414D01*
X841830Y618050D01*
X838570D01*
X835373Y617414D01*
X832361Y616166D01*
X829650Y614355D01*
X827345Y612050D01*
X825534Y609339D01*
X824286Y606328D01*
X823929Y604531D01*
X822659Y604656D01*
Y620750D01*
X822426Y621921D01*
X821763Y622913D01*
X820770Y623576D01*
X819600Y623809D01*
D02*
G37*
G36*
X768750Y591023D02*
Y581750D01*
X778023D01*
X777343Y584285D01*
X775882Y586816D01*
X773815Y588882D01*
X771284Y590344D01*
X768750Y591023D01*
D02*
G37*
G36*
X765250D02*
X762715Y590344D01*
X760184Y588882D01*
X758118Y586816D01*
X756656Y584285D01*
X755977Y581750D01*
X765250D01*
Y591023D01*
D02*
G37*
G36*
X798264Y589600D02*
X795736D01*
X793294Y588946D01*
X791105Y587682D01*
X789318Y585895D01*
X788054Y583705D01*
X787400Y581264D01*
Y578736D01*
X788054Y576295D01*
X789318Y574105D01*
X791105Y572318D01*
X793294Y571054D01*
X795736Y570400D01*
X798264D01*
X800705Y571054D01*
X802894Y572318D01*
X804682Y574105D01*
X805946Y576295D01*
X806600Y578736D01*
Y581264D01*
X805946Y583705D01*
X804682Y585895D01*
X802894Y587682D01*
X800705Y588946D01*
X798264Y589600D01*
D02*
G37*
G36*
X778023Y578250D02*
X768750D01*
Y568977D01*
X771284Y569656D01*
X773815Y571118D01*
X775882Y573185D01*
X777343Y575716D01*
X778023Y578250D01*
D02*
G37*
G36*
X765250D02*
X755977D01*
X756656Y575716D01*
X758118Y573185D01*
X760184Y571118D01*
X762715Y569656D01*
X765250Y568977D01*
Y578250D01*
D02*
G37*
G36*
X768750Y561023D02*
Y551750D01*
X778023D01*
X777343Y554285D01*
X775882Y556816D01*
X773815Y558882D01*
X771284Y560344D01*
X768750Y561023D01*
D02*
G37*
G36*
X765250D02*
X762715Y560344D01*
X760184Y558882D01*
X758118Y556816D01*
X756656Y554285D01*
X755977Y551750D01*
X765250D01*
Y561023D01*
D02*
G37*
G36*
X798264Y559600D02*
X795736D01*
X793294Y558946D01*
X791105Y557682D01*
X789318Y555895D01*
X788054Y553705D01*
X787400Y551264D01*
Y548736D01*
X788054Y546295D01*
X789318Y544106D01*
X791105Y542318D01*
X793294Y541054D01*
X795736Y540400D01*
X798264D01*
X800705Y541054D01*
X802894Y542318D01*
X804682Y544106D01*
X805946Y546295D01*
X806600Y548736D01*
Y551264D01*
X805946Y553705D01*
X804682Y555895D01*
X802894Y557682D01*
X800705Y558946D01*
X798264Y559600D01*
D02*
G37*
G36*
X778023Y548250D02*
X768750D01*
Y538978D01*
X771284Y539657D01*
X773815Y541118D01*
X775882Y543185D01*
X777343Y545716D01*
X778023Y548250D01*
D02*
G37*
G36*
X765250D02*
X755977D01*
X756656Y545716D01*
X758118Y543185D01*
X760184Y541118D01*
X762715Y539657D01*
X765250Y538978D01*
Y548250D01*
D02*
G37*
G36*
X768264Y529600D02*
X765736D01*
X763294Y528946D01*
X761105Y527682D01*
X759318Y525895D01*
X758054Y523706D01*
X757400Y521264D01*
Y518736D01*
X758054Y516295D01*
X759318Y514106D01*
X761105Y512318D01*
X763294Y511054D01*
X765736Y510400D01*
X768264D01*
X770705Y511054D01*
X772894Y512318D01*
X774682Y514106D01*
X775946Y516295D01*
X776600Y518736D01*
Y521264D01*
X775946Y523706D01*
X774682Y525895D01*
X772894Y527682D01*
X770705Y528946D01*
X768264Y529600D01*
D02*
G37*
G36*
X800800Y529714D02*
X793200D01*
X790937Y529264D01*
X789018Y527982D01*
X787736Y526063D01*
X787286Y523800D01*
Y516200D01*
X787736Y513937D01*
X789018Y512019D01*
X790937Y510737D01*
X793200Y510286D01*
X800800D01*
X803063Y510737D01*
X804981Y512019D01*
X806263Y513937D01*
X806713Y516200D01*
Y523800D01*
X806263Y526063D01*
X804981Y527982D01*
X803063Y529264D01*
X800800Y529714D01*
D02*
G37*
G36*
X841830Y515050D02*
X838570D01*
X835373Y514414D01*
X832361Y513167D01*
X829650Y511355D01*
X827345Y509050D01*
X825534Y506339D01*
X824286Y503327D01*
X823929Y501531D01*
X822659Y501656D01*
Y503750D01*
X822426Y504921D01*
X821763Y505913D01*
X820770Y506576D01*
X819600Y506809D01*
X803600D01*
X802430Y506576D01*
X801437Y505913D01*
X800774Y504921D01*
X800541Y503750D01*
Y479250D01*
X800774Y478079D01*
X801437Y477087D01*
X802430Y476424D01*
X803600Y476191D01*
X819600D01*
X820770Y476424D01*
X821763Y477087D01*
X822426Y478079D01*
X822659Y479250D01*
Y495344D01*
X823929Y495469D01*
X824286Y493673D01*
X825534Y490661D01*
X827345Y487950D01*
X829650Y485645D01*
X832361Y483834D01*
X835373Y482586D01*
X838570Y481950D01*
X841830D01*
X845027Y482586D01*
X848039Y483834D01*
X850750Y485645D01*
X853055Y487950D01*
X854866Y490661D01*
X856114Y493673D01*
X856750Y496870D01*
Y500130D01*
X856114Y503327D01*
X854866Y506339D01*
X853055Y509050D01*
X850750Y511355D01*
X848039Y513167D01*
X845027Y514414D01*
X841830Y515050D01*
D02*
G37*
G36*
X732322Y356040D02*
X732270D01*
Y347270D01*
X741040D01*
Y347322D01*
X740356Y349875D01*
X739034Y352165D01*
X737165Y354034D01*
X734875Y355356D01*
X732322Y356040D01*
D02*
G37*
G36*
X729730D02*
X729678D01*
X727125Y355356D01*
X724835Y354034D01*
X722966Y352165D01*
X721644Y349875D01*
X720960Y347322D01*
Y347270D01*
X729730D01*
Y356040D01*
D02*
G37*
G36*
X799251Y355500D02*
X796749D01*
X794333Y354853D01*
X792167Y353602D01*
X790398Y351833D01*
X789147Y349667D01*
X788500Y347251D01*
Y344749D01*
X789147Y342333D01*
X790398Y340167D01*
X792167Y338398D01*
X794333Y337147D01*
X796749Y336500D01*
X799251D01*
X801667Y337147D01*
X803833Y338398D01*
X805602Y340167D01*
X806853Y342333D01*
X807500Y344749D01*
Y347251D01*
X806853Y349667D01*
X805602Y351833D01*
X803833Y353602D01*
X801667Y354853D01*
X799251Y355500D01*
D02*
G37*
G36*
X741040Y344730D02*
X732270D01*
Y335960D01*
X732322D01*
X734875Y336644D01*
X737165Y337966D01*
X739034Y339835D01*
X740356Y342125D01*
X741040Y344678D01*
Y344730D01*
D02*
G37*
G36*
X729730D02*
X720960D01*
Y344678D01*
X721644Y342125D01*
X722966Y339835D01*
X724835Y337966D01*
X727125Y336644D01*
X729678Y335960D01*
X729730D01*
Y344730D01*
D02*
G37*
G36*
X196995Y329000D02*
X195006D01*
X193168Y328239D01*
X191761Y326832D01*
X191324Y325777D01*
X181102Y315555D01*
X180168Y315168D01*
X178761Y313762D01*
X178000Y311924D01*
Y309935D01*
X178761Y308097D01*
X180168Y306690D01*
X182005Y305929D01*
X183995D01*
X185832Y306690D01*
X187239Y308097D01*
X187675Y309151D01*
X197899Y319375D01*
X198832Y319761D01*
X200239Y321168D01*
X201000Y323005D01*
Y324995D01*
X200239Y326832D01*
X198832Y328239D01*
X196995Y329000D01*
D02*
G37*
G36*
X832750Y297477D02*
X830249D01*
X827833Y296829D01*
X825666Y295579D01*
X823898Y293810D01*
X822647Y291644D01*
X822000Y289227D01*
Y286726D01*
X822647Y284310D01*
X823898Y282144D01*
X825666Y280375D01*
X827833Y279124D01*
X830249Y278477D01*
X832750D01*
X835166Y279124D01*
X837333Y280375D01*
X839101Y282144D01*
X840352Y284310D01*
X841000Y286726D01*
Y289227D01*
X840352Y291644D01*
X839101Y293810D01*
X837333Y295579D01*
X835166Y296829D01*
X832750Y297477D01*
D02*
G37*
G36*
X698751D02*
X696249D01*
X693833Y296829D01*
X691667Y295579D01*
X689898Y293810D01*
X688647Y291644D01*
X688000Y289227D01*
Y286726D01*
X688647Y284310D01*
X689898Y282144D01*
X691667Y280375D01*
X693833Y279124D01*
X696249Y278477D01*
X698751D01*
X701167Y279124D01*
X703333Y280375D01*
X705102Y282144D01*
X706352Y284310D01*
X707000Y286726D01*
Y289227D01*
X706352Y291644D01*
X705102Y293810D01*
X703333Y295579D01*
X701167Y296829D01*
X698751Y297477D01*
D02*
G37*
G36*
X20000Y383608D02*
X17854Y383181D01*
X16035Y381965D01*
X14819Y380146D01*
X14392Y378000D01*
Y302514D01*
X14819Y300368D01*
X16035Y298549D01*
X29892Y284692D01*
Y279139D01*
X28622Y278291D01*
X27827Y278620D01*
X26000Y278861D01*
X16000D01*
X14172Y278620D01*
X12470Y277915D01*
X11007Y276793D01*
X9885Y275331D01*
X9180Y273628D01*
X8939Y271800D01*
Y261800D01*
X9180Y259973D01*
X9885Y258270D01*
X11007Y256808D01*
X12470Y255686D01*
X14172Y254980D01*
X16000Y254740D01*
X26000D01*
X27827Y254980D01*
X28622Y255310D01*
X29892Y254461D01*
Y251138D01*
X28719Y250652D01*
X28368Y251003D01*
X25632Y252582D01*
X22580Y253400D01*
X19420D01*
X16368Y252582D01*
X13632Y251003D01*
X11397Y248768D01*
X9818Y246032D01*
X9000Y242980D01*
Y239820D01*
X9818Y236768D01*
X11397Y234032D01*
X13632Y231798D01*
X16368Y230218D01*
X19420Y229400D01*
X22580D01*
X25632Y230218D01*
X28368Y231798D01*
X28719Y232149D01*
X29892Y231663D01*
Y225738D01*
X28719Y225252D01*
X28368Y225603D01*
X25632Y227183D01*
X22580Y228000D01*
X19420D01*
X16368Y227183D01*
X13632Y225603D01*
X11397Y223368D01*
X9818Y220632D01*
X9000Y217580D01*
Y214420D01*
X9818Y211368D01*
X11397Y208632D01*
X13632Y206398D01*
X16368Y204818D01*
X19420Y204000D01*
X22580D01*
X24264Y204452D01*
X25661Y203511D01*
X25696Y203227D01*
X24543Y202074D01*
X22580Y202600D01*
X19420D01*
X16368Y201782D01*
X13632Y200203D01*
X11397Y197968D01*
X9818Y195232D01*
X9000Y192180D01*
Y189020D01*
X9818Y185968D01*
X11397Y183232D01*
X13632Y180998D01*
X16368Y179418D01*
X19420Y178600D01*
X22580D01*
X25632Y179418D01*
X28368Y180998D01*
X30602Y183232D01*
X32182Y185968D01*
X33000Y189020D01*
Y192180D01*
X32474Y194144D01*
X39465Y201135D01*
X40681Y202954D01*
X41108Y205100D01*
Y287015D01*
X40681Y289161D01*
X39465Y290980D01*
X25608Y304837D01*
Y378000D01*
X25181Y380146D01*
X23965Y381965D01*
X22146Y383181D01*
X20000Y383608D01*
D02*
G37*
G36*
X799322Y239993D02*
X799270D01*
Y231223D01*
X808040D01*
Y231275D01*
X807356Y233828D01*
X806034Y236118D01*
X804165Y237987D01*
X801875Y239309D01*
X799322Y239993D01*
D02*
G37*
G36*
X796730D02*
X796678D01*
X794125Y239309D01*
X791835Y237987D01*
X789966Y236118D01*
X788644Y233828D01*
X787960Y231275D01*
Y231223D01*
X796730D01*
Y239993D01*
D02*
G37*
G36*
X732251Y239453D02*
X729749D01*
X727333Y238806D01*
X725167Y237555D01*
X723398Y235786D01*
X722147Y233620D01*
X721500Y231204D01*
Y228702D01*
X722147Y226286D01*
X723398Y224120D01*
X725167Y222351D01*
X727333Y221100D01*
X729749Y220453D01*
X732251D01*
X734667Y221100D01*
X736833Y222351D01*
X738602Y224120D01*
X739852Y226286D01*
X740500Y228702D01*
Y231204D01*
X739852Y233620D01*
X738602Y235786D01*
X736833Y237555D01*
X734667Y238806D01*
X732251Y239453D01*
D02*
G37*
G36*
X808040Y228683D02*
X799270D01*
Y219913D01*
X799322D01*
X801875Y220597D01*
X804165Y221919D01*
X806034Y223788D01*
X807356Y226078D01*
X808040Y228631D01*
Y228683D01*
D02*
G37*
G36*
X796730D02*
X787960D01*
Y228631D01*
X788644Y226078D01*
X789966Y223788D01*
X791835Y221919D01*
X794125Y220597D01*
X796678Y219913D01*
X796730D01*
Y228683D01*
D02*
G37*
G36*
X199995Y249000D02*
X198005D01*
X196168Y248239D01*
X194761Y246832D01*
X194349Y245838D01*
X187294Y238782D01*
X186299Y237294D01*
X185950Y235538D01*
Y222527D01*
X185538Y221532D01*
Y219543D01*
X186299Y217706D01*
X187706Y216299D01*
X189543Y215538D01*
X191532D01*
X193370Y216299D01*
X194777Y217706D01*
X195538Y219543D01*
Y221532D01*
X195126Y222527D01*
Y233638D01*
X200838Y239349D01*
X201832Y239761D01*
X203239Y241168D01*
X204000Y243005D01*
Y244995D01*
X203239Y246832D01*
X201832Y248239D01*
X199995Y249000D01*
D02*
G37*
G36*
X262150Y115087D02*
Y105530D01*
X271707D01*
X271000Y108171D01*
X269502Y110764D01*
X267384Y112882D01*
X264790Y114380D01*
X262150Y115087D01*
D02*
G37*
G36*
X258650D02*
X256009Y114380D01*
X253416Y112882D01*
X251298Y110764D01*
X249800Y108171D01*
X249093Y105530D01*
X258650D01*
Y115087D01*
D02*
G37*
G36*
X185950D02*
Y105530D01*
X195507D01*
X194800Y108171D01*
X193302Y110764D01*
X191184Y112882D01*
X188591Y114380D01*
X185950Y115087D01*
D02*
G37*
G36*
X182450D02*
X179809Y114380D01*
X177215Y112882D01*
X175098Y110764D01*
X173600Y108171D01*
X172892Y105530D01*
X182450D01*
Y115087D01*
D02*
G37*
G36*
X271707Y102030D02*
X262150D01*
Y92473D01*
X264790Y93180D01*
X267384Y94678D01*
X269502Y96796D01*
X271000Y99389D01*
X271707Y102030D01*
D02*
G37*
G36*
X258650D02*
X249093D01*
X249800Y99389D01*
X251298Y96796D01*
X253416Y94678D01*
X256009Y93180D01*
X258650Y92473D01*
Y102030D01*
D02*
G37*
G36*
X195507D02*
X185950D01*
Y92473D01*
X188591Y93180D01*
X191184Y94678D01*
X193302Y96796D01*
X194800Y99389D01*
X195507Y102030D01*
D02*
G37*
G36*
X182450D02*
X172892D01*
X173600Y99389D01*
X175098Y96796D01*
X177215Y94678D01*
X179809Y93180D01*
X182450Y92473D01*
Y102030D01*
D02*
G37*
G36*
X43203Y109750D02*
X40307D01*
X37509Y109000D01*
X35001Y107552D01*
X32952Y105504D01*
X31504Y102996D01*
X30755Y100198D01*
Y97302D01*
X31504Y94504D01*
X32952Y91996D01*
X35001Y89948D01*
X37509Y88500D01*
X40307Y87750D01*
X43203D01*
X46000Y88500D01*
X48509Y89948D01*
X50557Y91996D01*
X52005Y94504D01*
X52755Y97302D01*
Y100198D01*
X52005Y102996D01*
X50557Y105504D01*
X48509Y107552D01*
X46000Y109000D01*
X43203Y109750D01*
D02*
G37*
G36*
X43505Y85222D02*
Y74500D01*
X54227D01*
X53403Y77575D01*
X51757Y80425D01*
X49430Y82752D01*
X46579Y84398D01*
X43505Y85222D01*
D02*
G37*
G36*
X40005D02*
X36930Y84398D01*
X34079Y82752D01*
X31752Y80425D01*
X30106Y77575D01*
X29283Y74500D01*
X40005D01*
Y85222D01*
D02*
G37*
G36*
X120858Y338108D02*
X118712Y337681D01*
X116893Y336465D01*
X115677Y334646D01*
X115251Y332500D01*
X115392Y331787D01*
Y285323D01*
X50035Y219965D01*
X48819Y218146D01*
X48392Y216000D01*
X48819Y213854D01*
X50035Y212035D01*
X51854Y210819D01*
X54000Y210392D01*
X56146Y210819D01*
X57965Y212035D01*
X89885Y243955D01*
X91163Y244186D01*
X91488Y244052D01*
X91786Y243867D01*
X92080Y243188D01*
X92000Y242995D01*
Y241444D01*
X90829Y240959D01*
X89837Y240296D01*
X89589Y239924D01*
X89174Y239304D01*
X88941Y238133D01*
X88941Y85000D01*
Y83917D01*
X89000Y83621D01*
Y83320D01*
X89423Y81195D01*
X89538Y80916D01*
X89597Y80621D01*
X90426Y78619D01*
X90593Y78369D01*
X90709Y78090D01*
X91912Y76289D01*
X92126Y76076D01*
X92293Y75825D01*
X93825Y74293D01*
X94076Y74125D01*
X94289Y73913D01*
X96090Y72709D01*
X96369Y72593D01*
X96619Y72426D01*
X98621Y71597D01*
X98916Y71538D01*
X99195Y71423D01*
X101320Y71000D01*
X101621D01*
X101917Y70941D01*
X103000D01*
X103000Y70941D01*
X154000D01*
X154886Y70941D01*
X155182Y71000D01*
X155483D01*
X157222Y71346D01*
X157500Y71461D01*
X157796Y71520D01*
X159434Y72198D01*
X159684Y72366D01*
X159962Y72481D01*
X161436Y73466D01*
X161649Y73679D01*
X161900Y73846D01*
X163153Y75100D01*
X163321Y75350D01*
X163534Y75563D01*
X164519Y77038D01*
X164634Y77316D01*
X164802Y77566D01*
X165480Y79204D01*
X165539Y79500D01*
X165654Y79778D01*
X166000Y81517D01*
Y81818D01*
X166059Y82114D01*
Y83000D01*
X166059Y83000D01*
Y92627D01*
X166045Y92696D01*
X166056Y92764D01*
X165929Y93279D01*
X165826Y93798D01*
X165787Y93856D01*
X165771Y93923D01*
X166402Y95150D01*
X167018Y95562D01*
X168330Y97526D01*
X168791Y99843D01*
Y107718D01*
X168330Y110034D01*
X167018Y111998D01*
X165816Y112802D01*
X165826Y112816D01*
X165914Y113257D01*
X166044Y113687D01*
X166029Y113838D01*
X166059Y113987D01*
X166059Y230761D01*
Y242995D01*
Y313000D01*
Y313689D01*
X166000Y313985D01*
Y314286D01*
X165731Y315639D01*
X165616Y315917D01*
X165557Y316212D01*
X165029Y317486D01*
X164862Y317737D01*
X164747Y318015D01*
X163981Y319162D01*
X163768Y319375D01*
X163600Y319625D01*
X162625Y320600D01*
X162375Y320768D01*
X162162Y320980D01*
X161015Y321747D01*
X160737Y321862D01*
X160486Y322029D01*
X159212Y322557D01*
X158917Y322616D01*
X158639Y322731D01*
X157286Y323000D01*
X156985D01*
X156690Y323059D01*
X126608D01*
Y332358D01*
X126181Y334504D01*
X124965Y336324D01*
X124824Y336465D01*
X123004Y337681D01*
X120858Y338108D01*
D02*
G37*
G36*
X752995Y68000D02*
X751005D01*
X749168Y67239D01*
X748635Y66706D01*
X748458Y66588D01*
X580989D01*
X579995Y67000D01*
X578005D01*
X576168Y66239D01*
X574761Y64832D01*
X574000Y62995D01*
Y61005D01*
X574761Y59168D01*
X576168Y57761D01*
X578005Y57000D01*
X579995D01*
X580989Y57412D01*
X750188D01*
X751944Y57761D01*
X752302Y58000D01*
X752995D01*
X754832Y58761D01*
X756239Y60168D01*
X757000Y62005D01*
Y63995D01*
X756239Y65832D01*
X754832Y67239D01*
X752995Y68000D01*
D02*
G37*
G36*
X54227Y71000D02*
X43505D01*
Y60278D01*
X46579Y61102D01*
X49430Y62748D01*
X51757Y65075D01*
X53403Y67925D01*
X54227Y71000D01*
D02*
G37*
G36*
X40005D02*
X29283D01*
X30106Y67925D01*
X31752Y65075D01*
X34079Y62748D01*
X36930Y61102D01*
X40005Y60278D01*
Y71000D01*
D02*
G37*
G36*
X871723Y47500D02*
X868276D01*
X864895Y46828D01*
X861711Y45508D01*
X858844Y43593D01*
X856407Y41156D01*
X854492Y38289D01*
X853172Y35105D01*
X852500Y31724D01*
Y28277D01*
X853172Y24896D01*
X854492Y21711D01*
X856407Y18844D01*
X858844Y16407D01*
X861711Y14492D01*
X864895Y13173D01*
X868276Y12500D01*
X871723D01*
X875104Y13173D01*
X878289Y14492D01*
X881155Y16407D01*
X883593Y18844D01*
X885508Y21711D01*
X886827Y24896D01*
X887500Y28277D01*
Y31724D01*
X886827Y35105D01*
X885508Y38289D01*
X883593Y41156D01*
X881155Y43593D01*
X878289Y45508D01*
X875104Y46828D01*
X871723Y47500D01*
D02*
G37*
G36*
X31724D02*
X28276D01*
X24896Y46828D01*
X21711Y45508D01*
X18844Y43593D01*
X16407Y41156D01*
X14492Y38289D01*
X13173Y35105D01*
X12500Y31724D01*
Y28277D01*
X13173Y24896D01*
X14492Y21711D01*
X16407Y18844D01*
X18844Y16407D01*
X21711Y14492D01*
X24896Y13173D01*
X28276Y12500D01*
X31724D01*
X35105Y13173D01*
X38289Y14492D01*
X41156Y16407D01*
X43593Y18844D01*
X45508Y21711D01*
X46828Y24896D01*
X47500Y28277D01*
Y31724D01*
X46828Y35105D01*
X45508Y38289D01*
X43593Y41156D01*
X41156Y43593D01*
X38289Y45508D01*
X35105Y46828D01*
X31724Y47500D01*
D02*
G37*
%LPD*%
G36*
X158042Y319731D02*
X159316Y319203D01*
X160462Y318437D01*
X161437Y317462D01*
X162203Y316316D01*
X162731Y315042D01*
X163000Y313689D01*
Y313000D01*
Y242995D01*
Y230761D01*
X163000Y113987D01*
X162737Y113771D01*
X154862D01*
X152546Y113310D01*
X150582Y111998D01*
X149269Y110034D01*
X148809Y107718D01*
Y99843D01*
X149269Y97526D01*
X150582Y95562D01*
X152546Y94249D01*
X154862Y93789D01*
X161730D01*
X163000Y92627D01*
Y83000D01*
X163000Y83000D01*
Y82114D01*
X162654Y80375D01*
X161976Y78737D01*
X160991Y77263D01*
X159737Y76009D01*
X158263Y75024D01*
X156625Y74346D01*
X154886Y74000D01*
X154000Y74000D01*
X103000D01*
Y74000D01*
X101917D01*
X99791Y74423D01*
X97789Y75252D01*
X95988Y76456D01*
X94456Y77988D01*
X93252Y79790D01*
X92423Y81791D01*
X92000Y83917D01*
Y85000D01*
X92000Y238133D01*
X93270Y238659D01*
X94168Y237761D01*
X96006Y237000D01*
X97054D01*
X97498Y236912D01*
X97499Y236912D01*
X97500Y236912D01*
X102387D01*
X103000Y235994D01*
Y234005D01*
X103761Y232168D01*
X105168Y230761D01*
X107006Y230000D01*
X108995D01*
X109688Y230287D01*
X146093D01*
X147388Y229750D01*
X149377D01*
X151215Y230512D01*
X152622Y231918D01*
X153383Y233756D01*
Y235745D01*
X152622Y237583D01*
X151215Y238989D01*
X149465Y239714D01*
X150000Y241006D01*
Y242995D01*
X149239Y244832D01*
X147832Y246239D01*
X145995Y247000D01*
X144005D01*
X142168Y246239D01*
X142017Y246088D01*
X99984D01*
X99832Y246239D01*
X97995Y247000D01*
X96006D01*
X94248Y246272D01*
X94131Y246253D01*
X92863Y246730D01*
X92829Y246898D01*
X124965Y279035D01*
X126181Y280854D01*
X126608Y283000D01*
Y320000D01*
X156690D01*
X158042Y319731D01*
D02*
G37*
%LPC*%
G36*
X462000Y532098D02*
X460049Y531710D01*
X459867Y531588D01*
X340133D01*
X339951Y531710D01*
X338000Y532098D01*
X336049Y531710D01*
X334395Y530605D01*
X333290Y528951D01*
X332902Y527000D01*
X333290Y525049D01*
X334395Y523395D01*
X336049Y522290D01*
X338000Y521902D01*
X339951Y522290D01*
X340133Y522412D01*
X459867D01*
X460049Y522290D01*
X462000Y521902D01*
X463951Y522290D01*
X465605Y523395D01*
X466710Y525049D01*
X467098Y527000D01*
X466710Y528951D01*
X465605Y530605D01*
X463951Y531710D01*
X462000Y532098D01*
D02*
G37*
G36*
X287550Y115023D02*
Y105530D01*
X297043D01*
X296882Y106749D01*
X295736Y109517D01*
X293913Y111893D01*
X291537Y113716D01*
X288769Y114862D01*
X287550Y115023D01*
D02*
G37*
G36*
X297043Y102030D02*
X287550D01*
Y92537D01*
X288769Y92698D01*
X291537Y93844D01*
X293913Y95667D01*
X295736Y98043D01*
X296882Y100811D01*
X297043Y102030D01*
D02*
G37*
G36*
X233250Y115023D02*
X232030Y114862D01*
X229263Y113716D01*
X226887Y111893D01*
X225064Y109517D01*
X223918Y106749D01*
X223757Y105530D01*
X233250D01*
Y115023D01*
D02*
G37*
G36*
Y102030D02*
X223757D01*
X223918Y100811D01*
X225064Y98043D01*
X226887Y95667D01*
X229263Y93844D01*
X232030Y92698D01*
X233250Y92537D01*
Y102030D01*
D02*
G37*
%LPD*%
D10*
X324500Y311000D02*
X348500Y335000D01*
X324000Y311000D02*
X324500D01*
X348500Y335000D02*
X349000D01*
X452000Y253000D02*
Y339000D01*
X394000Y397000D02*
X452000Y339000D01*
X435500Y148000D02*
X619188D01*
X435500Y140000D02*
X555000D01*
X619188Y148000D02*
X622188Y145000D01*
X750188Y62000D02*
X751188Y63000D01*
X579000Y62000D02*
X750188D01*
X751188Y63000D02*
X752000D01*
X108125Y234875D02*
X148258D01*
X148383Y234750D01*
X108000Y235000D02*
X108125Y234875D01*
X190538Y220538D02*
Y235538D01*
X279000Y397000D02*
X394000D01*
X338000Y527000D02*
X462000D01*
X486000Y72000D02*
X511000Y97000D01*
Y113000D01*
X438000Y72000D02*
X486000D01*
X622188Y145000D02*
X623000D01*
X190538Y235538D02*
X199000Y244000D01*
X134999Y584998D02*
Y584999D01*
Y584998D02*
X135000Y434234D01*
X134999Y584999D02*
X159383Y609383D01*
Y609383D01*
X97500Y241500D02*
X144500D01*
X97000Y242000D02*
X97500Y241500D01*
X183000Y310964D02*
X196000Y323965D01*
X183000Y310929D02*
Y310964D01*
X144500Y241500D02*
X145000Y242000D01*
D51*
X54000Y216000D02*
X121000Y283000D01*
Y332358D01*
X120858Y332500D02*
X121000Y332358D01*
X20000Y302514D02*
X35500Y287015D01*
X20000Y302514D02*
Y378000D01*
X35500Y205100D02*
Y287015D01*
X21000Y190600D02*
X35500Y205100D01*
X214000Y399000D02*
X273436Y458436D01*
X342163D01*
X214000Y215250D02*
Y399000D01*
X205000Y206250D02*
X214000Y215250D01*
X205000Y205979D02*
Y206250D01*
D53*
X697500Y287977D02*
D03*
X731000Y229953D02*
D03*
X831500Y287977D02*
D03*
X798000Y229953D02*
D03*
X731000Y346000D02*
D03*
X798000D02*
D03*
D54*
X870000Y30000D02*
D03*
Y670000D02*
D03*
X30000D02*
D03*
Y30000D02*
D03*
D55*
X797000Y520000D02*
D03*
D56*
Y550000D02*
D03*
Y580000D02*
D03*
X767000Y520000D02*
D03*
Y550000D02*
D03*
Y580000D02*
D03*
D57*
X840200Y498500D02*
D03*
Y601500D02*
D03*
D58*
X41755Y98750D02*
D03*
Y72750D02*
D03*
D59*
X21000Y266800D02*
D03*
D60*
Y190600D02*
D03*
Y216000D02*
D03*
Y241400D02*
D03*
D61*
X285800Y103780D02*
D03*
X260400D02*
D03*
X235000D02*
D03*
X184200D02*
D03*
D62*
X158800D02*
D03*
D63*
X679000Y41000D02*
D03*
X324000Y311000D02*
D03*
X349000Y335000D02*
D03*
X827000Y37000D02*
D03*
X865000Y323000D02*
D03*
X23000Y578000D02*
D03*
X554000Y46000D02*
D03*
X452000Y253000D02*
D03*
X54000Y216000D02*
D03*
X435500Y140000D02*
D03*
Y148000D02*
D03*
X555000Y140000D02*
D03*
X475000Y127000D02*
D03*
X120858Y332500D02*
D03*
X108000Y235000D02*
D03*
X190538Y220538D02*
D03*
X20000Y378000D02*
D03*
X279000Y397000D02*
D03*
X393000Y295000D02*
D03*
X342163Y458436D02*
D03*
X462000Y527000D02*
D03*
X338000D02*
D03*
X651000Y133000D02*
D03*
X511000Y113000D02*
D03*
X329000Y376000D02*
D03*
X199000Y244000D02*
D03*
X232000Y373000D02*
D03*
X386000Y29000D02*
D03*
X438000Y72000D02*
D03*
X752000Y63000D02*
D03*
X579000Y62000D02*
D03*
X623000Y145000D02*
D03*
X205000Y205979D02*
D03*
X97000Y242000D02*
D03*
X290000Y659000D02*
D03*
X160000Y610000D02*
D03*
X135000Y434234D02*
D03*
X196000Y324000D02*
D03*
X183000Y310929D02*
D03*
X148383Y234750D02*
D03*
X152000Y305000D02*
D03*
X145000Y242000D02*
D03*
X126000Y101000D02*
D03*
X47667Y382695D02*
D03*
X422500Y410000D02*
D03*
X613000Y11000D02*
D03*
X475000Y600000D02*
D03*
M02*
