M48
;Layer_Color=9474304
;FILE_FORMAT=4:4
METRIC,LZ
;TYPE=PLATED
T01F00S00C0.3000
T02F00S00C1.0000
T03F00S00C1.0200
T04F00S00C1.0500
T05F00S00C1.1000
T06F00S00C1.2000
T07F00S00C2.4100
%
T01
X00126Y00101
X00386Y00029
X00438Y00072
X004355Y0014
X00475Y00127
X00511Y00113
X00555Y0014
X00554Y00046
X00579Y00062
X00613Y00011
X00679Y00041
X00752Y00063
X00827Y00037
X00651Y00133
X00623Y00145
X00865Y00323
X00452Y00253
X00393Y00295
X00349Y00335
X00324Y00311
X00329Y00376
X00279Y00397
X00232Y00373
X00196Y00324
X00183Y00310929
X00152Y00305
X00145Y00242
X00148383Y0023475
X00190538Y00220538
X00205Y00205979
X00199Y00244
X004355Y00148
X004225Y0041
X00342163Y00458436
X00338Y00527
X00462
X00135Y00434234
X00120858Y003325
X00108Y00235
X00097Y00242
X00054Y00216
X00047667Y00382695
X0002Y00378
X00023Y00578
X0016Y0061
X0029Y00659
X00475Y006
T02
X00041755Y0007275
Y0009875
T03
X00767Y0052
X00797
Y0055
Y0058
X00767
Y0055
T04
X001588Y0010378
X001842
X00235
X002604
X002858
T05
X00731Y00229953
X00798
X008315Y00287977
X00798Y00346
X00731
X006975Y00287977
T06
X00021Y001906
Y00216
Y002414
Y002668
T07
X008402Y004985
Y006015
M30
